<svg fill="none" height="333" viewBox="0 0 622 333" width="622" xmlns="http://www.w3.org/2000/svg" xmlns:xlink="http://www.w3.org/1999/xlink"><filter id="a" color-interpolation-filters="sRGB" filterUnits="userSpaceOnUse" height="114.42" width="103.02" x="257.5" y="109.5"><feFlood flood-opacity="0" result="BackgroundImageFix"/><feColorMatrix in="SourceAlpha" result="hardAlpha" type="matrix" values="0 0 0 0 0 0 0 0 0 0 0 0 0 0 0 0 0 0 127 0"/><feOffset dx="-17" dy="3"/><feGaussianBlur stdDeviation="7.5"/><feColorMatrix type="matrix" values="0 0 0 0 0 0 0 0 0 0 0 0 0 0 0 0 0 0 0.34935 0"/><feBlend in2="BackgroundImageFix" mode="normal" result="effect1_dropShadow_575_2792"/><feBlend in="SourceGraphic" in2="effect1_dropShadow_575_2792" mode="normal" result="shape"/></filter><filter id="b" color-interpolation-filters="sRGB" filterUnits="userSpaceOnUse" height="114.42" width="103.02" x="37" y="93.5"><feFlood flood-opacity="0" result="BackgroundImageFix"/><feColorMatrix in="SourceAlpha" result="hardAlpha" type="matrix" values="0 0 0 0 0 0 0 0 0 0 0 0 0 0 0 0 0 0 127 0"/><feOffset dx="-17" dy="3"/><feGaussianBlur stdDeviation="7.5"/><feColorMatrix type="matrix" values="0 0 0 0 0 0 0 0 0 0 0 0 0 0 0 0 0 0 0.34935 0"/><feBlend in2="BackgroundImageFix" mode="normal" result="effect1_dropShadow_575_2792"/><feBlend in="SourceGraphic" in2="effect1_dropShadow_575_2792" mode="normal" result="shape"/></filter><filter id="c" color-interpolation-filters="sRGB" filterUnits="userSpaceOnUse" height="114.42" width="103.02" x="424.5" y="57"><feFlood flood-opacity="0" result="BackgroundImageFix"/><feColorMatrix in="SourceAlpha" result="hardAlpha" type="matrix" values="0 0 0 0 0 0 0 0 0 0 0 0 0 0 0 0 0 0 127 0"/><feOffset dx="-17" dy="3"/><feGaussianBlur stdDeviation="7.5"/><feColorMatrix type="matrix" values="0 0 0 0 0 0 0 0 0 0 0 0 0 0 0 0 0 0 0.34935 0"/><feBlend in2="BackgroundImageFix" mode="normal" result="effect1_dropShadow_575_2792"/><feBlend in="SourceGraphic" in2="effect1_dropShadow_575_2792" mode="normal" result="shape"/></filter><filter id="d" color-interpolation-filters="sRGB" filterUnits="userSpaceOnUse" height="114.42" width="103.02" x="164.17" y="218.17"><feFlood flood-opacity="0" result="BackgroundImageFix"/><feColorMatrix in="SourceAlpha" result="hardAlpha" type="matrix" values="0 0 0 0 0 0 0 0 0 0 0 0 0 0 0 0 0 0 127 0"/><feOffset dx="-17" dy="3"/><feGaussianBlur stdDeviation="7.5"/><feColorMatrix type="matrix" values="0 0 0 0 0 0 0 0 0 0 0 0 0 0 0 0 0 0 0.34935 0"/><feBlend in2="BackgroundImageFix" mode="normal" result="effect1_dropShadow_575_2792"/><feBlend in="SourceGraphic" in2="effect1_dropShadow_575_2792" mode="normal" result="shape"/></filter><filter id="e" color-interpolation-filters="sRGB" filterUnits="userSpaceOnUse" height="114.42" width="103.02" x="361.17" y="195.67"><feFlood flood-opacity="0" result="BackgroundImageFix"/><feColorMatrix in="SourceAlpha" result="hardAlpha" type="matrix" values="0 0 0 0 0 0 0 0 0 0 0 0 0 0 0 0 0 0 127 0"/><feOffset dx="-17" dy="3"/><feGaussianBlur stdDeviation="7.5"/><feColorMatrix type="matrix" values="0 0 0 0 0 0 0 0 0 0 0 0 0 0 0 0 0 0 0.34935 0"/><feBlend in2="BackgroundImageFix" mode="normal" result="effect1_dropShadow_575_2792"/><feBlend in="SourceGraphic" in2="effect1_dropShadow_575_2792" mode="normal" result="shape"/></filter><filter id="f" color-interpolation-filters="sRGB" filterUnits="userSpaceOnUse" height="84.0002" width="92.6328" x="529.184" y=".5"><feFlood flood-opacity="0" result="BackgroundImageFix"/><feColorMatrix in="SourceAlpha" result="hardAlpha" type="matrix" values="0 0 0 0 0 0 0 0 0 0 0 0 0 0 0 0 0 0 127 0"/><feOffset dx="-33" dy="7"/><feGaussianBlur stdDeviation="6"/><feColorMatrix type="matrix" values="0 0 0 0 0.316369 0 0 0 0 0.366988 0 0 0 0 0.353496 0 0 0 0.25741 0"/><feBlend in2="BackgroundImageFix" mode="normal" result="effect1_dropShadow_575_2792"/><feColorMatrix in="SourceAlpha" result="hardAlpha" type="matrix" values="0 0 0 0 0 0 0 0 0 0 0 0 0 0 0 0 0 0 127 0"/><feOffset dx="-16" dy="2"/><feGaussianBlur stdDeviation="6"/><feColorMatrix type="matrix" values="0 0 0 0 0 0 0 0 0 0 0 0 0 0 0 0 0 0 0.144615 0"/><feBlend in2="effect1_dropShadow_575_2792" mode="normal" result="effect2_dropShadow_575_2792"/><feBlend in="SourceGraphic" in2="effect2_dropShadow_575_2792" mode="normal" result="shape"/></filter><filter id="g" color-interpolation-filters="sRGB" filterUnits="userSpaceOnUse" height="88.8" width="88.8008" x="1" y="225"><feFlood flood-opacity="0" result="BackgroundImageFix"/><feColorMatrix in="SourceAlpha" result="hardAlpha" type="matrix" values="0 0 0 0 0 0 0 0 0 0 0 0 0 0 0 0 0 0 127 0"/><feOffset dx="-8" dy="1"/><feGaussianBlur stdDeviation="4.5"/><feColorMatrix type="matrix" values="0 0 0 0 0 0 0 0 0 0 0 0 0 0 0 0 0 0 0.352208 0"/><feBlend in2="BackgroundImageFix" mode="normal" result="effect1_dropShadow_575_2792"/><feBlend in="SourceGraphic" in2="effect1_dropShadow_575_2792" mode="normal" result="shape"/></filter><mask id="h" height="16" maskUnits="userSpaceOnUse" width="19" x="308" y="135"><path clip-rule="evenodd" d="m308 135.583h18.628v15.184h-18.628z" fill="#fff" fill-rule="evenodd"/></mask><path d="m587.201 158-100.2-100.2-17.7 17.7 69.9 70.2h-152.4v24.6h152.4l-69.9 69.6 17.7 18.3z" fill="#fff"/><path d="m237.199 158-100.2-100.2-17.7 17.7 69.9 70.2h-152.4002v24.6h152.4002l-69.9 69.6 17.7 18.3z" fill="#fff"/><path d="m4.31055 236.582c122.98245-72.84 229.19045-6.412 294.80545-10.191 115.7-6.664 138.561-52.546 219.555-64.124 40.544-5.795 77.202-106.641 77.202-106.641" stroke="#00e599" stroke-linecap="round" stroke-linejoin="round" stroke-width="6"/><path d="m104 212c4.694 0 8.5-3.806 8.5-8.5s-3.806-8.5-8.5-8.5c-4.6944 0-8.5 3.806-8.5 8.5s3.8056 8.5 8.5 8.5z" fill="#fff" stroke="#00e599"/><path d="m9 243c4.6944 0 8.5-3.806 8.5-8.5s-3.8056-8.5-8.5-8.5c-4.69442 0-8.5 3.806-8.5 8.5s3.80558 8.5 8.5 8.5z" fill="#fff" stroke="#00e599"/><path d="m233.5 223c4.694 0 8.5-3.806 8.5-8.5s-3.806-8.5-8.5-8.5-8.5 3.806-8.5 8.5 3.806 8.5 8.5 8.5z" fill="#fff" stroke="#00e599"/><path d="m429 203c4.694 0 8.5-3.806 8.5-8.5s-3.806-8.5-8.5-8.5-8.5 3.806-8.5 8.5 3.806 8.5 8.5 8.5z" fill="#fff" stroke="#00e599"/><path d="m494.5 175.5c4.694 0 8.5-3.806 8.5-8.5s-3.806-8.5-8.5-8.5-8.5 3.806-8.5 8.5 3.806 8.5 8.5 8.5z" fill="#fff" stroke="#00e599"/><path d="m325.5 232.5c4.694 0 8.5-3.806 8.5-8.5s-3.806-8.5-8.5-8.5-8.5 3.806-8.5 8.5 3.806 8.5 8.5 8.5z" fill="#fff" stroke="#00e599"/><g filter="url(#a)"><path clip-rule="evenodd" d="m350.47 121.5h-52.26v56.28h-8.71l35.51 28.14 35.51-28.14h-10.05z" fill="#f3f5f5" fill-rule="evenodd"/></g><g mask="url(#h)"><path clip-rule="evenodd" d="m312.136 137.126-2.543 4.405c-.276.479-.276 1.072 0 1.551l3.189 5.524c.276.478.791.775 1.343.775h6.378c.553 0 1.067-.297 1.343-.775l3.189-5.524c.276-.479.276-1.072 0-1.551l-2.543-4.405v4.439c0 1.619-1.318 2.937-2.937 2.937h-4.482c-1.619 0-2.937-1.318-2.937-2.937zm8.367 13.641h-6.378c-1.046 0-2.02-.563-2.543-1.468l-3.19-5.524c-.523-.906-.523-2.031 0-2.937l2.649-4.589c.306-.528.905-.777 1.496-.619.589.158.986.674.986 1.284v4.651c0 .855.695 1.551 1.55 1.551h4.482c.855 0 1.55-.696 1.55-1.551v-4.651c0-.61.396-1.126.986-1.284s1.19.091 1.496.619l2.649 4.589c.523.906.523 2.031-.001 2.937l-3.188 5.524c-.524.905-1.498 1.468-2.544 1.468z" fill="#000" fill-rule="evenodd"/></g><g clip-rule="evenodd" fill-rule="evenodd"><path d="m313.969 169.494c-.054 0-.096.045-.096.101v3.128c0 .057.042.101.096.101h6.468c.053 0 .096-.044.096-.101v-3.128c0-.056-.043-.101-.096-.101z" fill="#00e599"/><path d="m327.807 169.516c-.054 0-.096.044-.096.101v3.128c0 .056.042.101.096.101h6.468c.053 0 .096-.045.096-.101v-3.128c0-.057-.043-.101-.096-.101z" fill="#00e599"/><path d="m314.905 168.24h4.819v-17.473h-4.819zm5.512 1.402c-.024 0-.049-.001-.073-.004-.018-.003-.042-.007-.067-.011h-5.927c-.025.004-.049.008-.066.011-.194.023-.39-.043-.536-.174-.147-.132-.23-.319-.23-.516v-18.874c0-.383.31-.693.693-.693h6.206c.383 0 .693.31.693.693v18.874c0 .197-.083.384-.229.516-.128.114-.293.178-.464.178z" fill="#000"/><path d="m314.905 173.975v.744c0 1.329 1.08 2.41 2.409 2.41s2.41-1.081 2.41-2.41v-.744zm2.409 4.54c-2.093 0-3.796-1.703-3.796-3.796v-1.452c0-.194.081-.379.224-.511.143-.13.332-.196.528-.179.021.002.052.006.081.011h5.928c.029-.005.058-.009.079-.011.199-.016.386.049.528.179.143.132.224.317.224.511v1.452c0 2.093-1.703 3.796-3.796 3.796z" fill="#000"/><path d="m314.285 169.627c-.05 0-.09.04-.09.09v2.782c0 .05.04.089.09.089h6.059c.05 0 .09-.039.09-.089v-2.782c0-.05-.04-.09-.09-.09zm6.059 4.348h-6.059c-.814 0-1.476-.662-1.476-1.476v-2.782c0-.814.662-1.476 1.476-1.476h6.059c.815 0 1.477.662 1.477 1.476v2.782c0 .814-.662 1.476-1.477 1.476z" fill="#000"/><path d="m328.447 168.24h4.82v-8.521h-4.82zm5.513 1.402c-.024 0-.049-.001-.073-.004-.018-.003-.042-.007-.067-.011h-5.927c-.025.004-.049.008-.066.011-.194.023-.39-.043-.536-.174-.147-.132-.23-.319-.23-.516v-9.922c0-.382.311-.693.693-.693h6.206c.383 0 .694.311.694.693v9.922c0 .197-.084.384-.23.516-.128.114-.294.178-.464.178z" fill="#000"/><path d="m328.447 173.975v.744c0 1.329 1.081 2.41 2.41 2.41s2.41-1.081 2.41-2.41v-.744zm2.41 4.54c-2.093 0-3.796-1.703-3.796-3.796v-1.452c0-.194.081-.379.224-.511.143-.13.332-.196.528-.179.021.002.051.006.081.011h5.928c.029-.005.058-.009.079-.011.199-.016.386.049.528.179.143.132.224.317.224.511v1.452c0 2.093-1.703 3.796-3.796 3.796z" fill="#000"/><path d="m327.828 169.627c-.05 0-.09.04-.09.09v2.782c0 .05.04.089.09.089h6.059c.05 0 .09-.039.09-.089v-2.782c0-.05-.04-.09-.09-.09zm6.059 4.348h-6.059c-.814 0-1.476-.662-1.476-1.476v-2.782c0-.814.662-1.476 1.476-1.476h6.059c.815 0 1.477.662 1.477 1.476v2.782c0 .814-.662 1.476-1.477 1.476z" fill="#000"/><path d="m328.825 158.333h4.064l-1.049-2.337h-1.967zm5.135 1.387h-6.207c-.234 0-.454-.119-.581-.317-.128-.197-.147-.446-.051-.661l1.671-3.723c.112-.249.36-.409.632-.409h2.865c.273 0 .521.16.633.409l1.67 3.723c.097.215.077.464-.05.661-.128.198-.347.317-.582.317z" fill="#000"/><path d="m330.117 154.61h1.478v-12.269h-1.478zm2.172 1.386h-2.865c-.383 0-.694-.31-.694-.693v-13.655c0-.383.311-.693.694-.693h2.865c.383 0 .693.31.693.693v13.655c0 .383-.31.693-.693.693z" fill="#000"/><path d="m329.139 140.955h3.436l-.816-2.981h-1.806zm4.343 1.386h-5.252c-.216 0-.419-.1-.551-.272-.131-.172-.174-.396-.117-.604l1.193-4.367c.082-.302.356-.51.669-.51h2.864c.313 0 .587.208.669.51l1.194 4.367c.057.208.013.432-.118.604s-.335.272-.551.272z" fill="#000"/></g><g filter="url(#b)"><path clip-rule="evenodd" d="m129.97 105.5h-52.26v56.28h-8.71l35.51 28.14 35.51-28.14h-10.05z" fill="#f3f5f5" fill-rule="evenodd"/></g><path clip-rule="evenodd" d="m102.624 146.028c-.433 0-.784-.351-.784-.784 0-2.35-2.262-3.407-5.987-4.867-1.769-.694-3.598-1.411-5.183-2.449-4.236-2.774-6.398-7.093-6.253-12.489.108-4.01 1.438-7.166 1.495-7.299.102-.238.315-.411.569-.461.255-.05.517.029.702.211 1.927 1.898 3.583 2.607 5.876 3.588 1.709.732 3.646 1.561 6.2 3.082 3.591 2.139 5.93 6.362 6.762 12.214.617 4.337.207 8.004.189 8.158-.045.396-.38.694-.778.694h-.001c-.399 0-.734-.3-.778-.696-.351-3.107-1.257-5.884-2.693-8.252-1.145-1.888-2.63-3.526-4.414-4.869-3.037-2.287-5.886-2.923-5.914-2.929-.423-.092-.692-.509-.601-.932.092-.423.51-.692.933-.6.129.028 3.216.717 6.525 3.209 2.09 1.573 4.539 4.1 6.149 7.968-.408-4.426-1.829-10.026-6.181-12.618-2.465-1.467-4.351-2.275-6.015-2.987-2.026-.867-3.687-1.578-5.47-3.096-.385 1.204-.931 3.309-.989 5.704-.118 4.87 1.748 8.601 5.546 11.088 1.449.949 3.202 1.636 4.896 2.301 3.433 1.346 6.983 2.738 6.983 6.327 0 .433-.351.784-.784.784z" fill="#003" fill-rule="evenodd"/><path clip-rule="evenodd" d="m108.134 146.028c-.433 0-.784-.351-.784-.784 0-2.819 2.556-4.016 5.028-5.173 1.011-.474 2.056-.963 2.981-1.569 2.662-1.743 3.972-4.361 3.892-7.778-.035-1.512-.345-2.863-.606-3.745-1.21.97-2.357 1.461-3.736 2.051-1.192.51-2.542 1.088-4.303 2.137-1.33.792-1.967 1.658-2.331 2.241-.229.367-.713.48-1.08.25-.367-.229-.479-.713-.25-1.08.715-1.146 1.624-2.022 2.858-2.758 1.851-1.102 3.253-1.702 4.489-2.231 1.628-.697 2.804-1.2 4.161-2.537.184-.182.447-.261.701-.211.255.05.468.223.57.461.041.097 1.014 2.407 1.093 5.333.107 3.964-1.483 7.138-4.599 9.179-1.018.666-2.115 1.18-3.175 1.676-2.558 1.198-4.125 2.02-4.125 3.754 0 .433-.351.784-.784.784z" fill="#003" fill-rule="evenodd"/><path clip-rule="evenodd" d="m105.43 165.526c-.433 0-.784-.35-.784-.783v-19.901c0-.433.351-.784.784-.784s.784.351.784.784v19.901c0 .433-.351.783-.784.783z" fill="#003" fill-rule="evenodd"/><path d="m112.549 163.79c1.11 0 2.01-.9 2.01-2.01s-.9-2.01-2.01-2.01-2.01.9-2.01 2.01.9 2.01 2.01 2.01z" fill="#00e599"/><path d="m105.18 169.15c1.11 0 2.01-.9 2.01-2.01s-.9-2.01-2.01-2.01-2.01.9-2.01 2.01.9 2.01 2.01 2.01z" fill="#00e599"/><path d="m97.8108 160.44c1.1101 0 2.01-.9 2.01-2.01s-.8999-2.01-2.01-2.01-2.01.9-2.01 2.01.8999 2.01 2.01 2.01z" fill="#00e599"/><path clip-rule="evenodd" d="m105.431 165.526c-.664 0-1.203.54-1.203 1.203s.539 1.203 1.203 1.203c.663 0 1.202-.54 1.202-1.203s-.539-1.203-1.202-1.203zm0 3.973c-1.528 0-2.771-1.242-2.771-2.77s1.243-2.77 2.771-2.77c1.527 0 2.77 1.242 2.77 2.77s-1.243 2.77-2.77 2.77z" fill="#003" fill-rule="evenodd"/><path clip-rule="evenodd" d="m112.944 160.375c-.663 0-1.202.54-1.202 1.203s.539 1.203 1.202 1.203 1.203-.54 1.203-1.203-.54-1.203-1.203-1.203zm0 3.973c-1.527 0-2.77-1.242-2.77-2.77s1.243-2.77 2.77-2.77c1.528 0 2.771 1.242 2.771 2.77s-1.243 2.77-2.771 2.77z" fill="#003" fill-rule="evenodd"/><path clip-rule="evenodd" d="m97.9272 157.323c-.663 0-1.203.539-1.203 1.203 0 .663.54 1.202 1.203 1.202s1.202-.539 1.202-1.202c0-.664-.539-1.203-1.202-1.203zm0 3.973c-1.528 0-2.771-1.243-2.771-2.77 0-1.528 1.243-2.771 2.771-2.771 1.527 0 2.7698 1.243 2.7698 2.771 0 1.527-1.2428 2.77-2.7698 2.77z" fill="#003" fill-rule="evenodd"/><path clip-rule="evenodd" d="m111.4 160.834c-.201 0-.402-.076-.555-.229l-3.264-3.264c-.147-.147-.229-.347-.229-.555v-11.542c0-.433.351-.783.783-.783.434 0 .784.35.784.783v11.218l3.035 3.034c.306.306.306.803 0 1.109-.153.153-.354.229-.554.229z" fill="#003" fill-rule="evenodd"/><path clip-rule="evenodd" d="m99.3597 157.699c-.201 0-.401-.077-.554-.23-.306-.306-.306-.802 0-1.109l3.0343-3.034v-8.082c0-.433.351-.783.784-.783s.784.35.784.783v8.407c0 .208-.083.407-.23.554l-3.2643 3.264c-.153.153-.353.23-.554.23z" fill="#003" fill-rule="evenodd"/><g filter="url(#c)"><path clip-rule="evenodd" d="m517.47 69h-52.26v56.28h-8.71l35.51 28.14 35.51-28.14h-10.05z" fill="#f3f5f5" fill-rule="evenodd"/></g><path clip-rule="evenodd" d="m490.794 106.848c-.433 0-.784-.35-.784-.784 0-2.35-2.262-3.407-5.987-4.867-1.769-.694-3.599-1.4109-5.183-2.4489-4.236-2.774-6.398-7.093-6.253-12.489.108-4.01 1.438-7.166 1.495-7.299.102-.238.315-.411.569-.461.255-.05.517.029.702.211 1.927 1.898 3.583 2.607 5.876 3.589 1.709.731 3.646 1.56 6.2 3.081 3.591 2.139 5.93 6.362 6.762 12.214.617 4.3369.207 8.0039.189 8.1579-.045.396-.38.694-.779.694h-.001c-.398 0-.733-.3-.777-.696-.351-3.107-1.257-5.8839-2.694-8.2519-1.145-1.888-2.629-3.526-4.413-4.869-3.037-2.287-5.886-2.923-5.914-2.929-.423-.092-.692-.509-.601-.932.092-.423.51-.692.933-.6.129.028 3.216.717 6.525 3.209 2.09 1.573 4.539 4.1 6.149 7.968-.408-4.426-1.829-10.026-6.181-12.618-2.465-1.467-4.351-2.275-6.015-2.987-2.026-.867-3.687-1.578-5.47-3.096-.385 1.204-.931 3.309-.989 5.704-.118 4.87 1.748 8.601 5.546 11.088 1.449.949 3.201 1.637 4.896 2.301 3.433 1.3459 6.983 2.7379 6.983 6.3269 0 .434-.351.784-.784.784z" fill="#003" fill-rule="evenodd"/><path clip-rule="evenodd" d="m496.304 106.848c-.433 0-.784-.351-.784-.784 0-2.819 2.556-4.016 5.028-5.173 1.011-.474 2.056-.963 2.981-1.569 2.662-1.743 3.972-4.36 3.892-7.778-.035-1.512-.345-2.863-.606-3.745-1.21.97-2.357 1.461-3.736 2.051-1.192.51-2.542 1.088-4.303 2.137-1.33.792-1.967 1.658-2.331 2.241-.229.367-.713.48-1.08.25-.367-.229-.479-.713-.25-1.08.715-1.146 1.624-2.022 2.858-2.758 1.851-1.102 3.252-1.702 4.489-2.231 1.628-.697 2.804-1.2 4.161-2.537.184-.182.447-.261.701-.211.255.05.468.223.57.461.041.097 1.014 2.407 1.093 5.333.107 3.964-1.484 7.138-4.599 9.179-1.018.666-2.115 1.18-3.176 1.676-2.557 1.198-4.124 2.02-4.124 3.754 0 .433-.351.784-.784.784z" fill="#003" fill-rule="evenodd"/><path clip-rule="evenodd" d="m493.6 126.346c-.433 0-.784-.35-.784-.783v-19.901c0-.433.351-.784.784-.784s.784.351.784.784v19.901c0 .433-.351.783-.784.783z" fill="#003" fill-rule="evenodd"/><path d="m500.721 124.61c1.11 0 2.01-.9 2.01-2.01s-.9-2.01-2.01-2.01-2.01.9-2.01 2.01.9 2.01 2.01 2.01z" fill="#00e599"/><path d="m493.35 129.97c1.11 0 2.01-.9 2.01-2.01s-.9-2.01-2.01-2.01-2.01.9-2.01 2.01.9 2.01 2.01 2.01z" fill="#00e599"/><path d="m485.981 121.26c1.11 0 2.01-.9 2.01-2.01s-.9-2.01-2.01-2.01-2.01.9-2.01 2.01.9 2.01 2.01 2.01z" fill="#00e599"/><path clip-rule="evenodd" d="m493.6 126.346c-.663 0-1.202.54-1.202 1.203s.539 1.203 1.202 1.203c.664 0 1.203-.54 1.203-1.203s-.539-1.203-1.203-1.203zm0 3.973c-1.527 0-2.77-1.242-2.77-2.77 0-1.527 1.243-2.77 2.77-2.77 1.528 0 2.771 1.243 2.771 2.77 0 1.528-1.243 2.77-2.771 2.77z" fill="#003" fill-rule="evenodd"/><path clip-rule="evenodd" d="m501.114 121.195c-.663 0-1.202.54-1.202 1.203s.539 1.203 1.202 1.203 1.203-.54 1.203-1.203-.54-1.203-1.203-1.203zm0 3.973c-1.527 0-2.77-1.242-2.77-2.77s1.243-2.77 2.77-2.77c1.528 0 2.771 1.242 2.771 2.77s-1.243 2.77-2.771 2.77z" fill="#003" fill-rule="evenodd"/><path clip-rule="evenodd" d="m486.097 118.143c-.663 0-1.203.539-1.203 1.203 0 .663.54 1.202 1.203 1.202s1.202-.539 1.202-1.202c0-.664-.539-1.203-1.202-1.203zm0 3.973c-1.528 0-2.771-1.243-2.771-2.77 0-1.528 1.243-2.771 2.771-2.771 1.527 0 2.77 1.243 2.77 2.771 0 1.527-1.243 2.77-2.77 2.77z" fill="#003" fill-rule="evenodd"/><path clip-rule="evenodd" d="m499.568 121.654c-.2 0-.401-.076-.554-.229l-3.264-3.264c-.147-.147-.229-.347-.229-.555v-11.542c0-.433.351-.783.784-.783s.784.35.784.783v11.218l3.034 3.034c.306.306.306.803 0 1.109-.153.153-.354.229-.555.229z" fill="#003" fill-rule="evenodd"/><path clip-rule="evenodd" d="m487.53 118.519c-.201 0-.401-.077-.554-.23-.306-.306-.306-.802 0-1.109l3.034-3.034v-8.082c0-.433.351-.783.784-.783s.784.35.784.783v8.407c0 .208-.083.407-.23.554l-3.264 3.264c-.153.153-.353.23-.554.23z" fill="#003" fill-rule="evenodd"/><g filter="url(#d)"><path clip-rule="evenodd" d="m257.14 314.59h-52.26v-56.28h-8.71l35.51-28.14 35.51 28.14h-10.05z" fill="#f3f5f5" fill-rule="evenodd"/></g><path d="m247.746 285.28-1.91 1.016c-.606.322-1.359.092-1.681-.514l-10.185-19.154c-.322-.606-.091-1.36.515-1.682l1.91-1.015c.606-.323 1.359-.092 1.681.514l10.185 19.154c.322.606.091 1.359-.515 1.681z" style="fill-rule:evenodd;clip-rule:evenodd;stroke:#003;stroke-width:1.395;stroke-linecap:round;stroke-linejoin:round"/><path d="m242.295 272.38 1.475-.785c1-.531 2.24-.152 2.772.848l.258.486c.532 1 .153 2.24-.847 2.772l-1.475.784" stroke="#003" stroke-linecap="round" stroke-linejoin="round" stroke-width="1.395"/><path d="m244.151 285.795c-1.522-.326-8.687-1.454-18.111 3.557l-4.763-8.958c9.169-4.875 12.028-10.711 12.793-12.798" stroke="#003" stroke-linecap="round" stroke-linejoin="round" stroke-width="1.395"/><path clip-rule="evenodd" d="m221.277 280.395-2.053 1.091c-2.494 1.327-3.441 4.423-2.115 6.918 1.327 2.495 4.423 3.441 6.918 2.115l2.053-1.092" fill="#00e599" fill-rule="evenodd"/><path d="m221.277 280.395-2.053 1.091c-2.494 1.327-3.441 4.423-2.115 6.918 1.327 2.495 4.423 3.441 6.918 2.115l2.053-1.092" stroke="#003" stroke-linecap="round" stroke-linejoin="round" stroke-width="1.395"/><path d="m225.354 289.813 7.261 8.181c.584.658 1.543.831 2.32.417 1.088-.578 1.349-2.022.532-2.945l-3.496-3.949c-1.165-1.314-.902-4.02.78-4.915" stroke="#003" stroke-linecap="round" stroke-linejoin="round" stroke-width="1.395"/><g filter="url(#e)"><path clip-rule="evenodd" d="m454.14 292.09h-52.26v-56.28h-8.71l35.51-28.14 35.51 28.14h-10.05z" fill="#f3f5f5" fill-rule="evenodd"/></g><path d="m428.01 249.21c1.85 0 3.35-1.5 3.35-3.35s-1.5-3.35-3.35-3.35-3.35 1.5-3.35 3.35 1.5 3.35 3.35 3.35z" fill="#00e599"/><path clip-rule="evenodd" d="m427.865 242.527c-1.724 0-3.126 1.402-3.126 3.126s1.402 3.126 3.126 3.126 3.126-1.402 3.126-3.126-1.402-3.126-3.126-3.126zm0 7.61c-2.473 0-4.484-2.012-4.484-4.484s2.011-4.482 4.484-4.482c2.472 0 4.483 2.01 4.483 4.482s-2.011 4.484-4.483 4.484z" fill="#003" fill-rule="evenodd"/><path clip-rule="evenodd" d="m423.872 251.113-2.789 1.08c-.488.188-.816.667-.816 1.19v6.377c0 .912.741 1.653 1.652 1.653h11.888c.911 0 1.651-.741 1.651-1.653v-6.377c0-.523-.327-1.002-.815-1.19l-2.788-1.08-3.405 5.905c-.242.42-.933.42-1.175 0zm9.935 11.657h-11.888c-1.659 0-3.009-1.351-3.009-3.01v-6.377c0-1.08.676-2.067 1.683-2.455l3.331-1.29c.313-.119.666.004.833.293l3.106 5.389 3.106-5.389c.167-.29.52-.414.832-.293l3.331 1.29c1.007.388 1.684 1.375 1.684 2.455v6.377c0 1.659-1.35 3.01-3.009 3.01z" fill="#003" fill-rule="evenodd"/><path clip-rule="evenodd" d="m434.145 271.343c-.018 0-.037-.001-.054-.002l-4.787-.378c-.374-.029-.653-.356-.624-.73.03-.373.362-.656.73-.623l4.787.377c.374.031.653.357.623.731-.028.355-.325.625-.675.625z" fill="#003" fill-rule="evenodd"/><path clip-rule="evenodd" d="m431.744 278.917h-18.528c-.375 0-.679-.304-.679-.679s.304-.678.679-.678h18.528c.939 0 1.841-.289 2.604-.837l7.695-5.507c.375-.268.744-.569 1.099-.896.148-.136.298-.271.448-.404.425-.378.825-.734 1.184-1.16.585-.699.972-1.593 1.059-2.455.028-.269-.091-.519-.311-.65-.577-.345-1.29-.337-1.86.016l-8.82 5.468c-.471.293-1.07.275-1.523-.045s-.67-.878-.551-1.42c.025-.158.259-1.788-1.188-2.068l-7.889-1.049c-1.288-.169-2.29-.201-3.304.16l-6.943 2.48c-.352.125-.742-.057-.867-.41-.126-.353.058-.741.411-.868l6.943-2.479c1.266-.453 2.49-.418 3.938-.228l7.93 1.055c2.27.438 2.493 2.592 2.299 3.671l.018.054 8.83-5.473c1.003-.624 2.256-.636 3.272-.029.677.404 1.047 1.152.965 1.952-.114 1.126-.614 2.289-1.37 3.19-.422.502-.878.908-1.321 1.301-.143.129-.288.258-.43.388-.395.365-.809.702-1.229 1.003l-7.694 5.508c-.996.712-2.17 1.089-3.395 1.089z" fill="#003" fill-rule="evenodd"/><path clip-rule="evenodd" d="m434.145 271.343c-.018 0-.037-.001-.054-.002l-4.787-.378c-.374-.029-.653-.356-.624-.73.03-.373.362-.656.73-.623l4.787.377c.374.031.653.357.623.731-.028.355-.325.625-.675.625z" fill="#003" fill-rule="evenodd"/><path clip-rule="evenodd" d="m413.216 280.859c-.375 0-.679-.304-.679-.679v-13.911c0-.375.304-.679.679-.679.374 0 .678.304.678.679v13.911c0 .375-.304.679-.678.679z" fill="#003" fill-rule="evenodd"/><path clip-rule="evenodd" d="m408.589 280.859c-.375 0-.679-.304-.679-.679v-13.911c0-.375.304-.679.679-.679.374 0 .678.304.678.679v13.911c0 .375-.304.679-.678.679z" fill="#003" fill-rule="evenodd"/><g filter="url(#f)"><path clip-rule="evenodd" d="m598 10.5 23.816 13.75v27.5l-23.816 13.75-23.816-13.75v-27.5z" fill="#f0f5f6" fill-rule="evenodd"/><path d="m574.934 24.6832 23.066-13.317 23.066 13.317v26.634l-23.066 13.317-23.066-13.317z" stroke="#00e599" stroke-width="1.5"/></g><path d="m599.989 35.2825c.794-.7673.816-2.0335.049-2.828-.767-.7946-2.033-.8167-2.828-.0494-.794.7673-.816 2.0335-.049 2.828.767.7946 2.033.8167 2.828.0494z" fill="#00e599"/><path clip-rule="evenodd" d="m605.42 49.566c.068-.065.122-.139.162-.221s.061-.167.062-.256l.085-3.927c.013-.099.001-.201-.036-.307-.037-.105-.093-.198-.169-.276l-2.686-2.7821c.048-.2201.124-.4951.23-.8247.105-.3297.21-.6649.316-1.0056.27-.9346.603-1.973.999-3.1153.395-1.1423.616-2.0612.661-2.7565.084-.9931.057-1.8085-.082-2.4463-.138-.6378-.355-1.3019-.653-1.9922-.361-.824-.822-1.6277-1.383-2.411s-1.104-1.4806-1.629-2.092c-.526-.6115-.986-1.1112-1.383-1.4994-.317-.3105-.518-.5076-.602-.5913l-.042-.0415c-.141-.124-.306-.1877-.494-.1909-.187-.0033-.354.0545-.5.1735l-.53.4798c-.354.3198-.793.7707-1.317 1.3527-.524.5821-1.078 1.2796-1.661 2.0927-.583.813-1.104 1.7018-1.563 2.6662-.344.7012-.586 1.4291-.726 2.1836-.14.7544-.179 1.5687-.117 2.4428.031.7298.191 1.5752.478 2.5361.287.9608.572 1.8802.855 2.7581.115.3446.22.6779.314 1s.177.6109.25.8663l-3.001 2.898c-.079.076-.138.161-.179.254-.04.093-.061.195-.063.305l.112 4.063c-.003.133.031.252.101.358.07.107.165.199.285.279.121.057.245.084.372.081s.252-.043.375-.118l3.936-2.368c.232.037.543.068.935.091.392.024.892.057 1.499.101l2.516.176 3.344 2.147c.109.069.233.107.371.115.138.007.263-.021.374-.085.034-.011.067-.027.1-.048.034-.022.062-.043.084-.065zm-1.161-1.843-2.442-1.585c-.054-.034-.112-.06-.173-.077-.06-.018-.123-.027-.19-.028-1.026-.074-2.152-.154-3.377-.242-1.225-.087-1.898-.138-2.019-.151-.089-.001-.174.005-.258.02-.083.016-.158.045-.225.088l-2.999 1.82-.023-2.453 3.068-2.9633c.09-.0869.15-.1936.18-.3201.03-.1266.035-.2563.015-.3893-.072-.2996-.168-.6521-.288-1.0576-.12-.4054-.253-.8414-.4-1.3081-.251-.8-.518-1.6666-.8-2.5997-.282-.9332-.445-1.715-.489-2.3457-.043-.7411-.009-1.4256.102-2.0535.11-.628.314-1.2377.612-1.8292.31-.6687.661-1.2952 1.052-1.8795.391-.5844.782-1.119 1.172-1.604.389-.4849.756-.9095 1.099-1.2736.344-.3642.633-.6603.869-.8882.239.2472.546.5703.92.9691s.761.8504 1.161 1.3546c.401.5042.786 1.0386 1.158 1.6031.371.5646.684 1.1364.939 1.7154.266.6124.452 1.1765.559 1.6922s.131 1.1929.073 2.0317c-.055.6179-.275 1.487-.659 2.6074-.385 1.1204-.7 2.1039-.947 2.9505-.199.6264-.357 1.1374-.474 1.5332-.118.3958-.183.6874-.198.875-.013.1214-.001.2348.036.3405.037.1056.093.1977.169.2764l2.719 2.8157zm-2.679-14.6003c-.014.8285-.319 1.5304-.915 2.1056-.596.5753-1.308.8557-2.136.8412-.829-.0144-1.531-.3195-2.106-.9152s-.856-1.3078-.841-2.1363c.014-.8286.319-1.5305.915-2.1057.596-.5753 1.308-.8557 2.136-.8412.829.0144 1.531.3195 2.106.9152s.856 1.3078.841 2.1364zm-1.957 1.0266c-.303.2931-.662.4332-1.076.4205-.415-.0128-.763-.1653-1.045-.4575s-.422-.6455-.421-1.0599c.002-.4143.155-.768.458-1.0611.292-.2822.648-.4197 1.068-.4123.42.0073.771.1571 1.053.4493s.42.6483.412 1.068c-.007.4198-.157.7708-.449 1.053zm-.943 21.7307-.506.521-.554-.54c-1.303-1.349-2.039-2.392-2.208-3.13-.17-.737-.103-1.524.198-2.358.081-.209.157-.417.227-.626s.124-.451.162-.727l1.471.208c-.05.331-.119.631-.206.9-.088.269-.167.514-.237.734-.185.505-.249.968-.19 1.389s.517 1.097 1.374 2.029c.911-.945 1.391-1.652 1.437-2.121.047-.469-.019-.965-.197-1.487-.063-.2-.129-.414-.196-.642-.068-.227-.122-.485-.161-.773l1.493-.04c.061.266.118.471.171.616.053.144.111.306.174.484.262.811.312 1.593.15 2.348-.163.754-.963 1.825-2.402 3.215z" fill="#003" fill-rule="evenodd"/><g filter="url(#g)"><path d="m51.889 233.032c-18.8529.794-33.889 16.323-33.889 35.368h15c0-10.972 8.665-19.924 19.521-20.382zm-33.8545 36.942c.5201 11.842 6.8549 22.159 16.1833 28.182l8.1366-12.601c-5.4056-3.49-9.0357-9.44-9.3343-16.239zm17.5023 28.994c5.2498 3.073 11.3622 4.832 17.8632 4.832v-15c-3.766 0-7.272-1.013-10.2854-2.777zm17.8632 4.832c10.184 0 19.374-4.31 25.822-11.185l-10.94-10.262c-3.731 3.978-9.012 6.447-14.882 6.447zm26.89-12.375c5.301-6.186 8.51-14.24 8.51-23.025h-15c0 5.071-1.841 9.694-4.9 13.264zm8.51-23.025c0-8.982-3.355-17.199-8.869-23.437l-11.239 9.934c3.184 3.602 5.108 8.319 5.108 13.503zm-10.516-25.178c-6.386-6.312-15.186-10.222-24.884-10.222v15c5.592 0 10.647 2.24 14.34 5.89z" fill="#f3f5f5"/></g><path d="m73.0124 248.556c-5.039-4.981-11.966-8.056-19.612-8.056" stroke="#b9cdcd" stroke-width="15"/><path d="m74.5955 286.545c4.18-4.879 6.705-11.217 6.705-18.145 0-7.083-2.639-13.55-6.988-18.47" stroke="#00e599" stroke-width="15"/></svg>