<svg width="622" height="333" viewBox="0 0 622 333" fill="none" xmlns="http://www.w3.org/2000/svg">
<path d="M587.201 158L487.001 57.8L469.301 75.5L539.201 145.7H386.801V170.3H539.201L469.301 239.9L487.001 258.2L587.201 158Z" fill="white"/>
<path d="M237.199 158L136.999 57.8L119.299 75.5L189.199 145.7H36.7988V170.3H189.199L119.299 239.9L136.999 258.2L237.199 158Z" fill="white"/>
<path d="M4.31055 236.582C127.293 163.742 233.501 230.17 299.116 226.391C414.816 219.727 437.677 173.845 518.671 162.267C559.215 156.472 595.873 55.626 595.873 55.626" stroke="#00E599" stroke-width="6" stroke-linecap="round" stroke-linejoin="round"/>
<path d="M104 212C108.694 212 112.5 208.194 112.5 203.5C112.5 198.806 108.694 195 104 195C99.3056 195 95.5 198.806 95.5 203.5C95.5 208.194 99.3056 212 104 212Z" fill="white" stroke="#00E599"/>
<path d="M9 243C13.6944 243 17.5 239.194 17.5 234.5C17.5 229.806 13.6944 226 9 226C4.30558 226 0.5 229.806 0.5 234.5C0.5 239.194 4.30558 243 9 243Z" fill="white" stroke="#00E599"/>
<path d="M233.5 223C238.194 223 242 219.194 242 214.5C242 209.806 238.194 206 233.5 206C228.806 206 225 209.806 225 214.5C225 219.194 228.806 223 233.5 223Z" fill="white" stroke="#00E599"/>
<path d="M429 203C433.694 203 437.5 199.194 437.5 194.5C437.5 189.806 433.694 186 429 186C424.306 186 420.5 189.806 420.5 194.5C420.5 199.194 424.306 203 429 203Z" fill="white" stroke="#00E599"/>
<path d="M494.5 175.5C499.194 175.5 503 171.694 503 167C503 162.306 499.194 158.5 494.5 158.5C489.806 158.5 486 162.306 486 167C486 171.694 489.806 175.5 494.5 175.5Z" fill="white" stroke="#00E599"/>
<path d="M325.5 232.5C330.194 232.5 334 228.694 334 224C334 219.306 330.194 215.5 325.5 215.5C320.806 215.5 317 219.306 317 224C317 228.694 320.806 232.5 325.5 232.5Z" fill="white" stroke="#00E599"/>
<g filter="url(#filter0_d_575_2792)">
<path fill-rule="evenodd" clip-rule="evenodd" d="M350.47 121.5H298.21V177.78H289.5L325.01 205.92L360.52 177.78H350.47V121.5Z" fill="#F3F5F5"/>
</g>
<mask id="mask0_575_2792" style="mask-type:alpha" maskUnits="userSpaceOnUse" x="308" y="135" width="19" height="16">
<path fill-rule="evenodd" clip-rule="evenodd" d="M308 135.583H326.628V150.767H308V135.583Z" fill="white"/>
</mask>
<g mask="url(#mask0_575_2792)">
<path fill-rule="evenodd" clip-rule="evenodd" d="M312.136 137.126L309.593 141.531C309.317 142.01 309.317 142.603 309.593 143.082L312.782 148.606C313.058 149.084 313.573 149.381 314.125 149.381H320.503C321.056 149.381 321.57 149.084 321.846 148.606L325.035 143.082C325.311 142.603 325.311 142.01 325.035 141.531L322.492 137.126V141.565C322.492 143.184 321.174 144.502 319.555 144.502H315.073C313.454 144.502 312.136 143.184 312.136 141.565V137.126ZM320.503 150.767H314.125C313.079 150.767 312.105 150.204 311.582 149.299L308.392 143.775C307.869 142.869 307.869 141.744 308.392 140.838L311.041 136.249C311.347 135.721 311.946 135.472 312.537 135.63C313.126 135.788 313.523 136.304 313.523 136.914V141.565C313.523 142.42 314.218 143.116 315.073 143.116H319.555C320.41 143.116 321.105 142.42 321.105 141.565V136.914C321.105 136.304 321.501 135.788 322.091 135.63C322.681 135.472 323.281 135.721 323.587 136.249L326.236 140.838C326.759 141.744 326.759 142.869 326.235 143.775L323.047 149.299C322.523 150.204 321.549 150.767 320.503 150.767Z" fill="black"/>
</g>
<path fill-rule="evenodd" clip-rule="evenodd" d="M313.969 169.494C313.915 169.494 313.873 169.539 313.873 169.595V172.723C313.873 172.78 313.915 172.824 313.969 172.824H320.437C320.49 172.824 320.533 172.78 320.533 172.723V169.595C320.533 169.539 320.49 169.494 320.437 169.494H313.969Z" fill="#00E599"/>
<path fill-rule="evenodd" clip-rule="evenodd" d="M327.807 169.516C327.753 169.516 327.711 169.56 327.711 169.617V172.745C327.711 172.801 327.753 172.846 327.807 172.846H334.275C334.328 172.846 334.371 172.801 334.371 172.745V169.617C334.371 169.56 334.328 169.516 334.275 169.516H327.807Z" fill="#00E599"/>
<path fill-rule="evenodd" clip-rule="evenodd" d="M314.905 168.24H319.724V150.767H314.905V168.24ZM320.417 169.642C320.393 169.642 320.368 169.641 320.344 169.638C320.326 169.635 320.302 169.631 320.277 169.627H314.35C314.325 169.631 314.301 169.635 314.284 169.638C314.09 169.661 313.894 169.595 313.748 169.464C313.601 169.332 313.518 169.145 313.518 168.948V150.074C313.518 149.691 313.828 149.381 314.211 149.381H320.417C320.8 149.381 321.11 149.691 321.11 150.074V168.948C321.11 169.145 321.027 169.332 320.881 169.464C320.753 169.578 320.588 169.642 320.417 169.642Z" fill="black"/>
<path fill-rule="evenodd" clip-rule="evenodd" d="M314.905 173.975V174.719C314.905 176.048 315.985 177.129 317.314 177.129C318.643 177.129 319.724 176.048 319.724 174.719V173.975H314.905ZM317.314 178.515C315.221 178.515 313.518 176.812 313.518 174.719V173.267C313.518 173.073 313.599 172.888 313.742 172.756C313.885 172.626 314.074 172.56 314.27 172.577C314.291 172.579 314.322 172.583 314.351 172.588H320.279C320.308 172.583 320.337 172.579 320.358 172.577C320.557 172.561 320.744 172.626 320.886 172.756C321.029 172.888 321.11 173.073 321.11 173.267V174.719C321.11 176.812 319.407 178.515 317.314 178.515Z" fill="black"/>
<path fill-rule="evenodd" clip-rule="evenodd" d="M314.285 169.627C314.235 169.627 314.195 169.667 314.195 169.717V172.499C314.195 172.549 314.235 172.588 314.285 172.588H320.344C320.394 172.588 320.434 172.549 320.434 172.499V169.717C320.434 169.667 320.394 169.627 320.344 169.627H314.285ZM320.344 173.975H314.285C313.471 173.975 312.809 173.313 312.809 172.499V169.717C312.809 168.903 313.471 168.241 314.285 168.241H320.344C321.159 168.241 321.821 168.903 321.821 169.717V172.499C321.821 173.313 321.159 173.975 320.344 173.975Z" fill="black"/>
<path fill-rule="evenodd" clip-rule="evenodd" d="M328.447 168.24H333.267V159.719H328.447V168.24ZM333.96 169.642C333.936 169.642 333.911 169.641 333.887 169.638C333.869 169.635 333.845 169.631 333.82 169.627H327.893C327.868 169.631 327.844 169.635 327.827 169.638C327.633 169.661 327.437 169.595 327.291 169.464C327.144 169.332 327.061 169.145 327.061 168.948V159.026C327.061 158.644 327.372 158.333 327.754 158.333H333.96C334.343 158.333 334.654 158.644 334.654 159.026V168.948C334.654 169.145 334.57 169.332 334.424 169.464C334.296 169.578 334.13 169.642 333.96 169.642Z" fill="black"/>
<path fill-rule="evenodd" clip-rule="evenodd" d="M328.447 173.975V174.719C328.447 176.048 329.528 177.129 330.857 177.129C332.186 177.129 333.267 176.048 333.267 174.719V173.975H328.447ZM330.857 178.515C328.764 178.515 327.061 176.812 327.061 174.719V173.267C327.061 173.073 327.142 172.888 327.285 172.756C327.428 172.626 327.617 172.56 327.813 172.577C327.834 172.579 327.864 172.583 327.894 172.588H333.822C333.851 172.583 333.88 172.579 333.901 172.577C334.1 172.561 334.287 172.626 334.429 172.756C334.572 172.888 334.653 173.073 334.653 173.267V174.719C334.653 176.812 332.95 178.515 330.857 178.515Z" fill="black"/>
<path fill-rule="evenodd" clip-rule="evenodd" d="M327.828 169.627C327.778 169.627 327.738 169.667 327.738 169.717V172.499C327.738 172.549 327.778 172.588 327.828 172.588H333.887C333.937 172.588 333.977 172.549 333.977 172.499V169.717C333.977 169.667 333.937 169.627 333.887 169.627H327.828ZM333.887 173.975H327.828C327.014 173.975 326.352 173.313 326.352 172.499V169.717C326.352 168.903 327.014 168.241 327.828 168.241H333.887C334.702 168.241 335.364 168.903 335.364 169.717V172.499C335.364 173.313 334.702 173.975 333.887 173.975Z" fill="black"/>
<path fill-rule="evenodd" clip-rule="evenodd" d="M328.825 158.333H332.889L331.84 155.996H329.873L328.825 158.333ZM333.96 159.72H327.753C327.519 159.72 327.299 159.601 327.172 159.403C327.044 159.206 327.025 158.957 327.121 158.742L328.792 155.019C328.904 154.77 329.152 154.61 329.424 154.61H332.289C332.562 154.61 332.81 154.77 332.922 155.019L334.592 158.742C334.689 158.957 334.669 159.206 334.542 159.403C334.414 159.601 334.195 159.72 333.96 159.72Z" fill="black"/>
<path fill-rule="evenodd" clip-rule="evenodd" d="M330.117 154.61H331.595V142.341H330.117V154.61ZM332.289 155.996H329.424C329.041 155.996 328.73 155.686 328.73 155.303V141.648C328.73 141.265 329.041 140.955 329.424 140.955H332.289C332.672 140.955 332.982 141.265 332.982 141.648V155.303C332.982 155.686 332.672 155.996 332.289 155.996Z" fill="black"/>
<path fill-rule="evenodd" clip-rule="evenodd" d="M329.139 140.955H332.575L331.759 137.974H329.953L329.139 140.955ZM333.482 142.341H328.23C328.014 142.341 327.811 142.241 327.679 142.069C327.548 141.897 327.505 141.673 327.562 141.465L328.755 137.098C328.837 136.796 329.111 136.588 329.424 136.588H332.288C332.601 136.588 332.875 136.796 332.957 137.098L334.151 141.465C334.208 141.673 334.164 141.897 334.033 142.069C333.902 142.241 333.698 142.341 333.482 142.341Z" fill="black"/>
<g filter="url(#filter1_d_575_2792)">
<path fill-rule="evenodd" clip-rule="evenodd" d="M129.97 105.5H77.71V161.78H69L104.51 189.92L140.02 161.78H129.97V105.5Z" fill="#F3F5F5"/>
</g>
<path fill-rule="evenodd" clip-rule="evenodd" d="M102.624 146.028C102.191 146.028 101.84 145.677 101.84 145.244C101.84 142.894 99.578 141.837 95.853 140.377C94.084 139.683 92.255 138.966 90.67 137.928C86.434 135.154 84.272 130.835 84.417 125.439C84.525 121.429 85.855 118.273 85.912 118.14C86.014 117.902 86.227 117.729 86.481 117.679C86.736 117.629 86.998 117.708 87.183 117.89C89.11 119.788 90.766 120.497 93.059 121.478C94.768 122.21 96.705 123.039 99.259 124.56C102.85 126.699 105.189 130.922 106.021 136.774C106.638 141.111 106.228 144.778 106.21 144.932C106.165 145.328 105.83 145.626 105.432 145.626H105.431C105.032 145.626 104.697 145.326 104.653 144.93C104.302 141.823 103.396 139.046 101.96 136.678C100.815 134.79 99.33 133.152 97.546 131.809C94.509 129.522 91.66 128.886 91.632 128.88C91.209 128.788 90.94 128.371 91.031 127.948C91.123 127.525 91.541 127.256 91.964 127.348C92.093 127.376 95.18 128.065 98.489 130.557C100.579 132.13 103.028 134.657 104.638 138.525C104.23 134.099 102.809 128.499 98.457 125.907C95.992 124.44 94.106 123.632 92.442 122.92C90.416 122.053 88.755 121.342 86.972 119.824C86.587 121.028 86.041 123.133 85.983 125.528C85.865 130.398 87.731 134.129 91.529 136.616C92.978 137.565 94.731 138.252 96.425 138.917C99.858 140.263 103.408 141.655 103.408 145.244C103.408 145.677 103.057 146.028 102.624 146.028Z" fill="#000033"/>
<path fill-rule="evenodd" clip-rule="evenodd" d="M108.134 146.028C107.701 146.028 107.35 145.677 107.35 145.244C107.35 142.425 109.906 141.228 112.378 140.071C113.389 139.597 114.434 139.108 115.359 138.502C118.021 136.759 119.331 134.141 119.251 130.724C119.216 129.212 118.906 127.861 118.645 126.979C117.435 127.949 116.288 128.44 114.909 129.03C113.717 129.54 112.367 130.118 110.606 131.167C109.276 131.959 108.639 132.825 108.275 133.408C108.046 133.775 107.562 133.888 107.195 133.658C106.828 133.429 106.716 132.945 106.945 132.578C107.66 131.432 108.569 130.556 109.803 129.82C111.654 128.718 113.056 128.118 114.292 127.589C115.92 126.892 117.096 126.389 118.453 125.052C118.637 124.87 118.9 124.791 119.154 124.841C119.409 124.891 119.622 125.064 119.724 125.302C119.765 125.399 120.738 127.709 120.817 130.635C120.924 134.599 119.334 137.773 116.218 139.814C115.2 140.48 114.103 140.994 113.043 141.49C110.485 142.688 108.918 143.51 108.918 145.244C108.918 145.677 108.567 146.028 108.134 146.028Z" fill="#000033"/>
<path fill-rule="evenodd" clip-rule="evenodd" d="M105.43 165.526C104.997 165.526 104.646 165.176 104.646 164.743V144.842C104.646 144.409 104.997 144.058 105.43 144.058C105.863 144.058 106.214 144.409 106.214 144.842V164.743C106.214 165.176 105.863 165.526 105.43 165.526Z" fill="#000033"/>
<path d="M112.549 163.79C113.659 163.79 114.559 162.89 114.559 161.78C114.559 160.67 113.659 159.77 112.549 159.77C111.439 159.77 110.539 160.67 110.539 161.78C110.539 162.89 111.439 163.79 112.549 163.79Z" fill="#00E599"/>
<path d="M105.18 169.15C106.29 169.15 107.19 168.25 107.19 167.14C107.19 166.03 106.29 165.13 105.18 165.13C104.07 165.13 103.17 166.03 103.17 167.14C103.17 168.25 104.07 169.15 105.18 169.15Z" fill="#00E599"/>
<path d="M97.8108 160.44C98.9209 160.44 99.8208 159.54 99.8208 158.43C99.8208 157.32 98.9209 156.42 97.8108 156.42C96.7007 156.42 95.8008 157.32 95.8008 158.43C95.8008 159.54 96.7007 160.44 97.8108 160.44Z" fill="#00E599"/>
<path fill-rule="evenodd" clip-rule="evenodd" d="M105.431 165.526C104.767 165.526 104.228 166.066 104.228 166.729C104.228 167.392 104.767 167.932 105.431 167.932C106.094 167.932 106.633 167.392 106.633 166.729C106.633 166.066 106.094 165.526 105.431 165.526ZM105.431 169.499C103.903 169.499 102.66 168.257 102.66 166.729C102.66 165.201 103.903 163.959 105.431 163.959C106.958 163.959 108.201 165.201 108.201 166.729C108.201 168.257 106.958 169.499 105.431 169.499Z" fill="#000033"/>
<path fill-rule="evenodd" clip-rule="evenodd" d="M112.944 160.375C112.281 160.375 111.742 160.915 111.742 161.578C111.742 162.241 112.281 162.781 112.944 162.781C113.607 162.781 114.147 162.241 114.147 161.578C114.147 160.915 113.607 160.375 112.944 160.375ZM112.944 164.348C111.417 164.348 110.174 163.106 110.174 161.578C110.174 160.05 111.417 158.808 112.944 158.808C114.472 158.808 115.715 160.05 115.715 161.578C115.715 163.106 114.472 164.348 112.944 164.348Z" fill="#000033"/>
<path fill-rule="evenodd" clip-rule="evenodd" d="M97.9272 157.323C97.2642 157.323 96.7242 157.862 96.7242 158.526C96.7242 159.189 97.2642 159.728 97.9272 159.728C98.5902 159.728 99.1292 159.189 99.1292 158.526C99.1292 157.862 98.5902 157.323 97.9272 157.323ZM97.9272 161.296C96.3992 161.296 95.1562 160.053 95.1562 158.526C95.1562 156.998 96.3992 155.755 97.9272 155.755C99.4542 155.755 100.697 156.998 100.697 158.526C100.697 160.053 99.4542 161.296 97.9272 161.296Z" fill="#000033"/>
<path fill-rule="evenodd" clip-rule="evenodd" d="M111.4 160.834C111.199 160.834 110.998 160.758 110.845 160.605L107.581 157.341C107.434 157.194 107.352 156.994 107.352 156.786V145.244C107.352 144.811 107.703 144.461 108.135 144.461C108.569 144.461 108.919 144.811 108.919 145.244V156.462L111.954 159.496C112.26 159.802 112.26 160.299 111.954 160.605C111.801 160.758 111.6 160.834 111.4 160.834Z" fill="#000033"/>
<path fill-rule="evenodd" clip-rule="evenodd" d="M99.3597 157.699C99.1587 157.699 98.9587 157.622 98.8057 157.469C98.4997 157.163 98.4997 156.667 98.8057 156.36L101.84 153.326V145.244C101.84 144.811 102.191 144.461 102.624 144.461C103.057 144.461 103.408 144.811 103.408 145.244V153.651C103.408 153.859 103.325 154.058 103.178 154.205L99.9137 157.469C99.7607 157.622 99.5607 157.699 99.3597 157.699Z" fill="#000033"/>
<g filter="url(#filter2_d_575_2792)">
<path fill-rule="evenodd" clip-rule="evenodd" d="M517.47 69H465.21V125.28H456.5L492.01 153.42L527.52 125.28H517.47V69Z" fill="#F3F5F5"/>
</g>
<path fill-rule="evenodd" clip-rule="evenodd" d="M490.794 106.848C490.361 106.848 490.01 106.498 490.01 106.064C490.01 103.714 487.748 102.657 484.023 101.197C482.254 100.503 480.424 99.7861 478.84 98.7481C474.604 95.9741 472.442 91.6551 472.587 86.2591C472.695 82.2491 474.025 79.0931 474.082 78.9601C474.184 78.7221 474.397 78.5491 474.651 78.4991C474.906 78.4491 475.168 78.5281 475.353 78.7101C477.28 80.6081 478.936 81.3171 481.229 82.2991C482.938 83.0301 484.875 83.8591 487.429 85.3801C491.02 87.5191 493.359 91.7421 494.191 97.5941C494.808 101.931 494.398 105.598 494.38 105.752C494.335 106.148 494 106.446 493.601 106.446H493.6C493.202 106.446 492.867 106.146 492.823 105.75C492.472 102.643 491.566 99.8661 490.129 97.4981C488.984 95.6101 487.5 93.9721 485.716 92.6291C482.679 90.3421 479.83 89.7061 479.802 89.7001C479.379 89.6081 479.11 89.1911 479.201 88.7681C479.293 88.3451 479.711 88.0761 480.134 88.1681C480.263 88.1961 483.35 88.8851 486.659 91.3771C488.749 92.9501 491.198 95.4771 492.808 99.3451C492.4 94.9191 490.979 89.3191 486.627 86.7271C484.162 85.2601 482.276 84.4521 480.612 83.7401C478.586 82.8731 476.925 82.1621 475.142 80.6441C474.757 81.8481 474.211 83.9531 474.153 86.3481C474.035 91.2181 475.901 94.9491 479.699 97.4361C481.148 98.3851 482.9 99.0731 484.595 99.7371C488.028 101.083 491.578 102.475 491.578 106.064C491.578 106.498 491.227 106.848 490.794 106.848Z" fill="#000033"/>
<path fill-rule="evenodd" clip-rule="evenodd" d="M496.304 106.848C495.871 106.848 495.52 106.497 495.52 106.064C495.52 103.245 498.076 102.048 500.548 100.891C501.559 100.417 502.604 99.928 503.529 99.322C506.191 97.579 507.501 94.962 507.421 91.544C507.386 90.032 507.076 88.681 506.815 87.799C505.605 88.769 504.458 89.26 503.079 89.85C501.887 90.36 500.537 90.938 498.776 91.987C497.446 92.779 496.809 93.645 496.445 94.228C496.216 94.595 495.732 94.708 495.365 94.478C494.998 94.249 494.886 93.765 495.115 93.398C495.83 92.252 496.739 91.376 497.973 90.64C499.824 89.538 501.225 88.938 502.462 88.409C504.09 87.712 505.266 87.209 506.623 85.872C506.807 85.69 507.07 85.611 507.324 85.661C507.579 85.711 507.792 85.884 507.894 86.122C507.935 86.219 508.908 88.529 508.987 91.455C509.094 95.419 507.503 98.593 504.388 100.634C503.37 101.3 502.273 101.814 501.212 102.31C498.655 103.508 497.088 104.33 497.088 106.064C497.088 106.497 496.737 106.848 496.304 106.848Z" fill="#000033"/>
<path fill-rule="evenodd" clip-rule="evenodd" d="M493.6 126.346C493.167 126.346 492.816 125.996 492.816 125.563V105.662C492.816 105.229 493.167 104.878 493.6 104.878C494.033 104.878 494.384 105.229 494.384 105.662V125.563C494.384 125.996 494.033 126.346 493.6 126.346Z" fill="#000033"/>
<path d="M500.721 124.61C501.831 124.61 502.731 123.71 502.731 122.6C502.731 121.49 501.831 120.59 500.721 120.59C499.611 120.59 498.711 121.49 498.711 122.6C498.711 123.71 499.611 124.61 500.721 124.61Z" fill="#00E599"/>
<path d="M493.35 129.97C494.46 129.97 495.36 129.07 495.36 127.96C495.36 126.85 494.46 125.95 493.35 125.95C492.24 125.95 491.34 126.85 491.34 127.96C491.34 129.07 492.24 129.97 493.35 129.97Z" fill="#00E599"/>
<path d="M485.981 121.26C487.091 121.26 487.991 120.36 487.991 119.25C487.991 118.14 487.091 117.24 485.981 117.24C484.871 117.24 483.971 118.14 483.971 119.25C483.971 120.36 484.871 121.26 485.981 121.26Z" fill="#00E599"/>
<path fill-rule="evenodd" clip-rule="evenodd" d="M493.6 126.346C492.937 126.346 492.398 126.886 492.398 127.549C492.398 128.212 492.937 128.752 493.6 128.752C494.264 128.752 494.803 128.212 494.803 127.549C494.803 126.886 494.264 126.346 493.6 126.346ZM493.6 130.319C492.073 130.319 490.83 129.077 490.83 127.549C490.83 126.022 492.073 124.779 493.6 124.779C495.128 124.779 496.371 126.022 496.371 127.549C496.371 129.077 495.128 130.319 493.6 130.319Z" fill="#000033"/>
<path fill-rule="evenodd" clip-rule="evenodd" d="M501.114 121.195C500.451 121.195 499.912 121.735 499.912 122.398C499.912 123.061 500.451 123.601 501.114 123.601C501.777 123.601 502.317 123.061 502.317 122.398C502.317 121.735 501.777 121.195 501.114 121.195ZM501.114 125.168C499.587 125.168 498.344 123.926 498.344 122.398C498.344 120.87 499.587 119.628 501.114 119.628C502.642 119.628 503.885 120.87 503.885 122.398C503.885 123.926 502.642 125.168 501.114 125.168Z" fill="#000033"/>
<path fill-rule="evenodd" clip-rule="evenodd" d="M486.097 118.143C485.434 118.143 484.894 118.682 484.894 119.346C484.894 120.009 485.434 120.548 486.097 120.548C486.76 120.548 487.299 120.009 487.299 119.346C487.299 118.682 486.76 118.143 486.097 118.143ZM486.097 122.116C484.569 122.116 483.326 120.873 483.326 119.346C483.326 117.818 484.569 116.575 486.097 116.575C487.624 116.575 488.867 117.818 488.867 119.346C488.867 120.873 487.624 122.116 486.097 122.116Z" fill="#000033"/>
<path fill-rule="evenodd" clip-rule="evenodd" d="M499.568 121.654C499.368 121.654 499.167 121.578 499.014 121.425L495.75 118.161C495.603 118.014 495.521 117.814 495.521 117.606V106.064C495.521 105.631 495.872 105.281 496.305 105.281C496.738 105.281 497.089 105.631 497.089 106.064V117.282L500.123 120.316C500.429 120.622 500.429 121.119 500.123 121.425C499.97 121.578 499.769 121.654 499.568 121.654Z" fill="#000033"/>
<path fill-rule="evenodd" clip-rule="evenodd" d="M487.53 118.519C487.329 118.519 487.129 118.442 486.976 118.289C486.67 117.983 486.67 117.487 486.976 117.18L490.01 114.146V106.064C490.01 105.631 490.361 105.281 490.794 105.281C491.227 105.281 491.578 105.631 491.578 106.064V114.471C491.578 114.679 491.495 114.878 491.348 115.025L488.084 118.289C487.931 118.442 487.731 118.519 487.53 118.519Z" fill="#000033"/>
<g filter="url(#filter3_d_575_2792)">
<path fill-rule="evenodd" clip-rule="evenodd" d="M257.14 314.59H204.88V258.31H196.17L231.68 230.17L267.19 258.31H257.14V314.59Z" fill="#F3F5F5"/>
</g>
<path fill-rule="evenodd" clip-rule="evenodd" d="M247.746 285.28L245.836 286.296C245.23 286.618 244.477 286.388 244.155 285.782L233.97 266.628C233.648 266.022 233.879 265.268 234.485 264.946L236.395 263.931C237.001 263.608 237.754 263.839 238.076 264.445L248.261 283.599C248.583 284.205 248.352 284.958 247.746 285.28Z" stroke="#000033" stroke-width="1.395" stroke-linecap="round" stroke-linejoin="round"/>
<path d="M242.295 272.38L243.77 271.595C244.77 271.064 246.01 271.443 246.542 272.443L246.8 272.929C247.332 273.929 246.953 275.169 245.953 275.701L244.478 276.485" stroke="#000033" stroke-width="1.395" stroke-linecap="round" stroke-linejoin="round"/>
<path d="M244.151 285.795C242.629 285.469 235.464 284.341 226.04 289.352L221.277 280.394C230.446 275.519 233.305 269.683 234.07 267.596" stroke="#000033" stroke-width="1.395" stroke-linecap="round" stroke-linejoin="round"/>
<path fill-rule="evenodd" clip-rule="evenodd" d="M221.277 280.395L219.224 281.486C216.73 282.813 215.783 285.909 217.109 288.404C218.436 290.899 221.532 291.845 224.027 290.519L226.08 289.427" fill="#00E599"/>
<path d="M221.277 280.395L219.224 281.486C216.73 282.813 215.783 285.909 217.109 288.404C218.436 290.899 221.532 291.845 224.027 290.519L226.08 289.427" stroke="#000033" stroke-width="1.395" stroke-linecap="round" stroke-linejoin="round"/>
<path d="M225.354 289.813L232.615 297.994C233.199 298.652 234.158 298.825 234.935 298.411C236.023 297.833 236.284 296.389 235.467 295.466L231.971 291.517C230.806 290.203 231.069 287.497 232.751 286.602" stroke="#000033" stroke-width="1.395" stroke-linecap="round" stroke-linejoin="round"/>
<g filter="url(#filter4_d_575_2792)">
<path fill-rule="evenodd" clip-rule="evenodd" d="M454.14 292.09H401.88V235.81H393.17L428.68 207.67L464.19 235.81H454.14V292.09Z" fill="#F3F5F5"/>
</g>
<path d="M428.01 249.21C429.86 249.21 431.36 247.71 431.36 245.86C431.36 244.01 429.86 242.51 428.01 242.51C426.16 242.51 424.66 244.01 424.66 245.86C424.66 247.71 426.16 249.21 428.01 249.21Z" fill="#00E599"/>
<path fill-rule="evenodd" clip-rule="evenodd" d="M427.865 242.527C426.141 242.527 424.739 243.929 424.739 245.653C424.739 247.377 426.141 248.779 427.865 248.779C429.589 248.779 430.991 247.377 430.991 245.653C430.991 243.929 429.589 242.527 427.865 242.527ZM427.865 250.137C425.392 250.137 423.381 248.125 423.381 245.653C423.381 243.181 425.392 241.171 427.865 241.171C430.337 241.171 432.348 243.181 432.348 245.653C432.348 248.125 430.337 250.137 427.865 250.137Z" fill="#000033"/>
<path fill-rule="evenodd" clip-rule="evenodd" d="M423.872 251.113L421.083 252.193C420.595 252.381 420.267 252.86 420.267 253.383V259.76C420.267 260.672 421.008 261.413 421.919 261.413H433.807C434.718 261.413 435.458 260.672 435.458 259.76V253.383C435.458 252.86 435.131 252.381 434.643 252.193L431.855 251.113L428.45 257.018C428.208 257.438 427.517 257.438 427.275 257.018L423.872 251.113ZM433.807 262.77H421.919C420.26 262.77 418.91 261.419 418.91 259.76V253.383C418.91 252.303 419.586 251.316 420.593 250.928L423.924 249.638C424.237 249.519 424.59 249.642 424.757 249.931L427.863 255.32L430.969 249.931C431.136 249.641 431.489 249.517 431.801 249.638L435.132 250.928C436.139 251.316 436.816 252.303 436.816 253.383V259.76C436.816 261.419 435.466 262.77 433.807 262.77Z" fill="#000033"/>
<path fill-rule="evenodd" clip-rule="evenodd" d="M434.145 271.343C434.127 271.343 434.108 271.342 434.091 271.341L429.304 270.963C428.93 270.934 428.651 270.607 428.68 270.233C428.71 269.86 429.042 269.577 429.41 269.61L434.197 269.987C434.571 270.018 434.85 270.344 434.82 270.718C434.792 271.073 434.495 271.343 434.145 271.343Z" fill="#000033"/>
<path fill-rule="evenodd" clip-rule="evenodd" d="M431.744 278.917H413.216C412.841 278.917 412.537 278.613 412.537 278.238C412.537 277.863 412.841 277.56 413.216 277.56H431.744C432.683 277.56 433.585 277.271 434.348 276.723L442.043 271.216C442.418 270.948 442.787 270.647 443.142 270.32C443.29 270.184 443.44 270.049 443.59 269.916C444.015 269.538 444.415 269.182 444.774 268.756C445.359 268.057 445.746 267.163 445.833 266.301C445.861 266.032 445.742 265.782 445.522 265.651C444.945 265.306 444.232 265.314 443.662 265.667L434.842 271.135C434.371 271.428 433.772 271.41 433.319 271.09C432.866 270.77 432.649 270.212 432.768 269.67C432.793 269.512 433.027 267.882 431.58 267.602L423.691 266.553C422.403 266.384 421.401 266.352 420.387 266.713L413.444 269.193C413.092 269.318 412.702 269.136 412.577 268.783C412.451 268.43 412.635 268.042 412.988 267.915L419.931 265.436C421.197 264.983 422.421 265.018 423.869 265.208L431.799 266.263C434.069 266.701 434.292 268.855 434.098 269.934L434.116 269.988L442.946 264.515C443.949 263.891 445.202 263.879 446.218 264.486C446.895 264.89 447.265 265.638 447.183 266.438C447.069 267.564 446.569 268.727 445.813 269.628C445.391 270.13 444.935 270.536 444.492 270.929C444.349 271.058 444.204 271.187 444.062 271.317C443.667 271.682 443.253 272.019 442.833 272.32L435.139 277.828C434.143 278.54 432.969 278.917 431.744 278.917Z" fill="#000033"/>
<path fill-rule="evenodd" clip-rule="evenodd" d="M434.145 271.343C434.127 271.343 434.108 271.342 434.091 271.341L429.304 270.963C428.93 270.934 428.651 270.607 428.68 270.233C428.71 269.86 429.042 269.577 429.41 269.61L434.197 269.987C434.571 270.018 434.85 270.344 434.82 270.718C434.792 271.073 434.495 271.343 434.145 271.343Z" fill="#000033"/>
<path fill-rule="evenodd" clip-rule="evenodd" d="M413.216 280.859C412.841 280.859 412.537 280.555 412.537 280.18V266.269C412.537 265.894 412.841 265.59 413.216 265.59C413.59 265.59 413.894 265.894 413.894 266.269V280.18C413.894 280.555 413.59 280.859 413.216 280.859Z" fill="#000033"/>
<path fill-rule="evenodd" clip-rule="evenodd" d="M408.589 280.859C408.214 280.859 407.91 280.555 407.91 280.18V266.269C407.91 265.894 408.214 265.59 408.589 265.59C408.963 265.59 409.267 265.894 409.267 266.269V280.18C409.267 280.555 408.963 280.859 408.589 280.859Z" fill="#000033"/>
<g filter="url(#filter5_dd_575_2792)">
<path fill-rule="evenodd" clip-rule="evenodd" d="M598 10.5L621.816 24.25V51.75L598 65.5L574.184 51.75V24.25L598 10.5Z" fill="#F0F5F6"/>
<path d="M574.934 24.6832L598 11.3662L621.066 24.6832V51.3172L598 64.6342L574.934 51.3172V24.6832Z" stroke="#00E599" stroke-width="1.5"/>
</g>
<path d="M599.989 35.2825C600.783 34.5152 600.805 33.249 600.038 32.4545C599.271 31.6599 598.005 31.6378 597.21 32.4051C596.416 33.1724 596.394 34.4386 597.161 35.2331C597.928 36.0277 599.194 36.0498 599.989 35.2825Z" fill="#00E599"/>
<path fill-rule="evenodd" clip-rule="evenodd" d="M605.42 49.566C605.488 49.501 605.542 49.427 605.582 49.345C605.622 49.263 605.643 49.178 605.644 49.089L605.729 45.162C605.742 45.063 605.73 44.961 605.693 44.855C605.656 44.75 605.6 44.657 605.524 44.579L602.838 41.7969C602.886 41.5768 602.962 41.3018 603.068 40.9722C603.173 40.6425 603.278 40.3073 603.384 39.9666C603.654 39.032 603.987 37.9936 604.383 36.8513C604.778 35.709 604.999 34.7901 605.044 34.0948C605.128 33.1017 605.101 32.2863 604.962 31.6485C604.824 31.0107 604.607 30.3466 604.309 29.6563C603.948 28.8323 603.487 28.0286 602.926 27.2453C602.365 26.462 601.822 25.7647 601.297 25.1533C600.771 24.5418 600.311 24.0421 599.914 23.6539C599.597 23.3434 599.396 23.1463 599.312 23.0626L599.27 23.0211C599.129 22.8971 598.964 22.8334 598.776 22.8302C598.589 22.8269 598.422 22.8847 598.276 23.0037L597.746 23.4835C597.392 23.8033 596.953 24.2542 596.429 24.8362C595.905 25.4183 595.351 26.1158 594.768 26.9289C594.185 27.7419 593.664 28.6307 593.205 29.5951C592.861 30.2963 592.619 31.0242 592.479 31.7787C592.339 32.5331 592.3 33.3474 592.362 34.2215C592.393 34.9513 592.553 35.7967 592.84 36.7576C593.127 37.7184 593.412 38.6378 593.695 39.5157C593.81 39.8603 593.915 40.1936 594.009 40.5157C594.103 40.8378 594.186 41.1266 594.259 41.382L591.258 44.28C591.179 44.356 591.12 44.441 591.079 44.534C591.039 44.627 591.018 44.729 591.016 44.839L591.128 48.902C591.125 49.035 591.159 49.154 591.229 49.26C591.299 49.367 591.394 49.459 591.514 49.539C591.635 49.596 591.759 49.623 591.886 49.62C592.013 49.617 592.138 49.577 592.261 49.502L596.197 47.134C596.429 47.171 596.74 47.202 597.132 47.225C597.524 47.249 598.024 47.282 598.631 47.326L601.147 47.502L604.491 49.649C604.6 49.718 604.724 49.756 604.862 49.764C605 49.771 605.125 49.743 605.236 49.679C605.27 49.668 605.303 49.652 605.336 49.631C605.37 49.609 605.398 49.588 605.42 49.566ZM604.259 47.723L601.817 46.138C601.763 46.104 601.705 46.078 601.644 46.061C601.584 46.043 601.521 46.034 601.454 46.033C600.428 45.959 599.302 45.879 598.077 45.791C596.852 45.704 596.179 45.653 596.058 45.64C595.969 45.639 595.884 45.645 595.8 45.66C595.717 45.676 595.642 45.705 595.575 45.748L592.576 47.568L592.553 45.115L595.621 42.1517C595.711 42.0648 595.771 41.9581 595.801 41.8316C595.831 41.705 595.836 41.5753 595.816 41.4423C595.744 41.1427 595.648 40.7902 595.528 40.3847C595.408 39.9793 595.275 39.5433 595.128 39.0766C594.877 38.2766 594.61 37.41 594.328 36.4769C594.046 35.5437 593.883 34.7619 593.839 34.1312C593.796 33.3901 593.83 32.7056 593.941 32.0777C594.051 31.4497 594.255 30.84 594.553 30.2485C594.863 29.5798 595.214 28.9533 595.605 28.369C595.996 27.7846 596.387 27.25 596.777 26.765C597.166 26.2801 597.533 25.8555 597.876 25.4914C598.22 25.1272 598.509 24.8311 598.745 24.6032C598.984 24.8504 599.291 25.1735 599.665 25.5723C600.039 25.9711 600.426 26.4227 600.826 26.9269C601.227 27.4311 601.612 27.9655 601.984 28.53C602.355 29.0946 602.668 29.6664 602.923 30.2454C603.189 30.8578 603.375 31.4219 603.482 31.9376C603.589 32.4533 603.613 33.1305 603.555 33.9693C603.5 34.5872 603.28 35.4563 602.896 36.5767C602.511 37.6971 602.196 38.6806 601.949 39.5272C601.75 40.1536 601.592 40.6646 601.475 41.0604C601.357 41.4562 601.292 41.7478 601.277 41.9354C601.264 42.0568 601.276 42.1702 601.313 42.2759C601.35 42.3815 601.406 42.4736 601.482 42.5523L604.201 45.368L604.259 47.723ZM601.58 33.1227C601.566 33.9512 601.261 34.6531 600.665 35.2283C600.069 35.8036 599.357 36.084 598.529 36.0695C597.7 36.0551 596.998 35.75 596.423 35.1543C595.848 34.5586 595.567 33.8465 595.582 33.018C595.596 32.1894 595.901 31.4875 596.497 30.9123C597.093 30.337 597.805 30.0566 598.633 30.0711C599.462 30.0855 600.164 30.3906 600.739 30.9863C601.314 31.582 601.595 32.2941 601.58 33.1227ZM599.623 34.1493C599.32 34.4424 598.961 34.5825 598.547 34.5698C598.132 34.557 597.784 34.4045 597.502 34.1123C597.22 33.8201 597.08 33.4668 597.081 33.0524C597.083 32.6381 597.236 32.2844 597.539 31.9913C597.831 31.7091 598.187 31.5716 598.607 31.579C599.027 31.5863 599.378 31.7361 599.66 32.0283C599.942 32.3205 600.08 32.6766 600.072 33.0963C600.065 33.5161 599.915 33.8671 599.623 34.1493ZM598.68 55.88L598.174 56.401L597.62 55.861C596.317 54.512 595.581 53.469 595.412 52.731C595.242 51.994 595.309 51.207 595.61 50.373C595.691 50.164 595.767 49.956 595.837 49.747C595.907 49.538 595.961 49.296 595.999 49.02L597.47 49.228C597.42 49.559 597.351 49.859 597.264 50.128C597.176 50.397 597.097 50.642 597.027 50.862C596.842 51.367 596.778 51.83 596.837 52.251C596.896 52.672 597.354 53.348 598.211 54.28C599.122 53.335 599.602 52.628 599.648 52.159C599.695 51.69 599.629 51.194 599.451 50.672C599.388 50.472 599.322 50.258 599.255 50.03C599.187 49.803 599.133 49.545 599.094 49.257L600.587 49.217C600.648 49.483 600.705 49.688 600.758 49.833C600.811 49.977 600.869 50.139 600.932 50.317C601.194 51.128 601.244 51.91 601.082 52.665C600.919 53.419 600.119 54.49 598.68 55.88Z" fill="#000033"/>
<g filter="url(#filter6_d_575_2792)">
<path d="M51.889 233.032C33.0361 233.826 18 249.355 18 268.4H33C33 257.428 41.665 248.476 52.521 248.018L51.889 233.032ZM18.0345 269.974C18.5546 281.816 24.8894 292.133 34.2178 298.156L42.3544 285.555C36.9488 282.065 33.3187 276.115 33.0201 269.316L18.0345 269.974ZM35.5368 298.968C40.7866 302.041 46.899 303.8 53.4 303.8V288.8C49.634 288.8 46.128 287.787 43.1146 286.023L35.5368 298.968ZM53.4 303.8C63.584 303.8 72.774 299.49 79.222 292.615L68.282 282.353C64.551 286.331 59.27 288.8 53.4 288.8V303.8ZM80.29 291.425C85.591 285.239 88.8 277.185 88.8 268.4H73.8C73.8 273.471 71.959 278.094 68.9 281.664L80.29 291.425ZM88.8 268.4C88.8 259.418 85.445 251.201 79.931 244.963L68.692 254.897C71.876 258.499 73.8 263.216 73.8 268.4H88.8ZM78.284 243.222C71.898 236.91 63.098 233 53.4 233V248C58.992 248 64.047 250.24 67.74 253.89L78.284 243.222Z" fill="#F3F5F5"/>
</g>
<path d="M73.0124 248.556C67.9734 243.575 61.0464 240.5 53.4004 240.5" stroke="#B9CDCD" stroke-width="15"/>
<path d="M74.5955 286.545C78.7755 281.666 81.3005 275.328 81.3005 268.4C81.3005 261.317 78.6615 254.85 74.3125 249.93" stroke="#00E599" stroke-width="15"/>
<defs>
<filter id="filter0_d_575_2792" x="257.5" y="109.5" width="103.02" height="114.42" filterUnits="userSpaceOnUse" color-interpolation-filters="sRGB">
<feFlood flood-opacity="0" result="BackgroundImageFix"/>
<feColorMatrix in="SourceAlpha" type="matrix" values="0 0 0 0 0 0 0 0 0 0 0 0 0 0 0 0 0 0 127 0" result="hardAlpha"/>
<feOffset dx="-17" dy="3"/>
<feGaussianBlur stdDeviation="7.5"/>
<feColorMatrix type="matrix" values="0 0 0 0 0 0 0 0 0 0 0 0 0 0 0 0 0 0 0.34935 0"/>
<feBlend mode="normal" in2="BackgroundImageFix" result="effect1_dropShadow_575_2792"/>
<feBlend mode="normal" in="SourceGraphic" in2="effect1_dropShadow_575_2792" result="shape"/>
</filter>
<filter id="filter1_d_575_2792" x="37" y="93.5" width="103.02" height="114.42" filterUnits="userSpaceOnUse" color-interpolation-filters="sRGB">
<feFlood flood-opacity="0" result="BackgroundImageFix"/>
<feColorMatrix in="SourceAlpha" type="matrix" values="0 0 0 0 0 0 0 0 0 0 0 0 0 0 0 0 0 0 127 0" result="hardAlpha"/>
<feOffset dx="-17" dy="3"/>
<feGaussianBlur stdDeviation="7.5"/>
<feColorMatrix type="matrix" values="0 0 0 0 0 0 0 0 0 0 0 0 0 0 0 0 0 0 0.34935 0"/>
<feBlend mode="normal" in2="BackgroundImageFix" result="effect1_dropShadow_575_2792"/>
<feBlend mode="normal" in="SourceGraphic" in2="effect1_dropShadow_575_2792" result="shape"/>
</filter>
<filter id="filter2_d_575_2792" x="424.5" y="57" width="103.02" height="114.42" filterUnits="userSpaceOnUse" color-interpolation-filters="sRGB">
<feFlood flood-opacity="0" result="BackgroundImageFix"/>
<feColorMatrix in="SourceAlpha" type="matrix" values="0 0 0 0 0 0 0 0 0 0 0 0 0 0 0 0 0 0 127 0" result="hardAlpha"/>
<feOffset dx="-17" dy="3"/>
<feGaussianBlur stdDeviation="7.5"/>
<feColorMatrix type="matrix" values="0 0 0 0 0 0 0 0 0 0 0 0 0 0 0 0 0 0 0.34935 0"/>
<feBlend mode="normal" in2="BackgroundImageFix" result="effect1_dropShadow_575_2792"/>
<feBlend mode="normal" in="SourceGraphic" in2="effect1_dropShadow_575_2792" result="shape"/>
</filter>
<filter id="filter3_d_575_2792" x="164.17" y="218.17" width="103.02" height="114.42" filterUnits="userSpaceOnUse" color-interpolation-filters="sRGB">
<feFlood flood-opacity="0" result="BackgroundImageFix"/>
<feColorMatrix in="SourceAlpha" type="matrix" values="0 0 0 0 0 0 0 0 0 0 0 0 0 0 0 0 0 0 127 0" result="hardAlpha"/>
<feOffset dx="-17" dy="3"/>
<feGaussianBlur stdDeviation="7.5"/>
<feColorMatrix type="matrix" values="0 0 0 0 0 0 0 0 0 0 0 0 0 0 0 0 0 0 0.34935 0"/>
<feBlend mode="normal" in2="BackgroundImageFix" result="effect1_dropShadow_575_2792"/>
<feBlend mode="normal" in="SourceGraphic" in2="effect1_dropShadow_575_2792" result="shape"/>
</filter>
<filter id="filter4_d_575_2792" x="361.17" y="195.67" width="103.02" height="114.42" filterUnits="userSpaceOnUse" color-interpolation-filters="sRGB">
<feFlood flood-opacity="0" result="BackgroundImageFix"/>
<feColorMatrix in="SourceAlpha" type="matrix" values="0 0 0 0 0 0 0 0 0 0 0 0 0 0 0 0 0 0 127 0" result="hardAlpha"/>
<feOffset dx="-17" dy="3"/>
<feGaussianBlur stdDeviation="7.5"/>
<feColorMatrix type="matrix" values="0 0 0 0 0 0 0 0 0 0 0 0 0 0 0 0 0 0 0.34935 0"/>
<feBlend mode="normal" in2="BackgroundImageFix" result="effect1_dropShadow_575_2792"/>
<feBlend mode="normal" in="SourceGraphic" in2="effect1_dropShadow_575_2792" result="shape"/>
</filter>
<filter id="filter5_dd_575_2792" x="529.184" y="0.5" width="92.6328" height="84.0002" filterUnits="userSpaceOnUse" color-interpolation-filters="sRGB">
<feFlood flood-opacity="0" result="BackgroundImageFix"/>
<feColorMatrix in="SourceAlpha" type="matrix" values="0 0 0 0 0 0 0 0 0 0 0 0 0 0 0 0 0 0 127 0" result="hardAlpha"/>
<feOffset dx="-33" dy="7"/>
<feGaussianBlur stdDeviation="6"/>
<feColorMatrix type="matrix" values="0 0 0 0 0.316369 0 0 0 0 0.366988 0 0 0 0 0.353496 0 0 0 0.25741 0"/>
<feBlend mode="normal" in2="BackgroundImageFix" result="effect1_dropShadow_575_2792"/>
<feColorMatrix in="SourceAlpha" type="matrix" values="0 0 0 0 0 0 0 0 0 0 0 0 0 0 0 0 0 0 127 0" result="hardAlpha"/>
<feOffset dx="-16" dy="2"/>
<feGaussianBlur stdDeviation="6"/>
<feColorMatrix type="matrix" values="0 0 0 0 0 0 0 0 0 0 0 0 0 0 0 0 0 0 0.144615 0"/>
<feBlend mode="normal" in2="effect1_dropShadow_575_2792" result="effect2_dropShadow_575_2792"/>
<feBlend mode="normal" in="SourceGraphic" in2="effect2_dropShadow_575_2792" result="shape"/>
</filter>
<filter id="filter6_d_575_2792" x="1" y="225" width="88.8008" height="88.8" filterUnits="userSpaceOnUse" color-interpolation-filters="sRGB">
<feFlood flood-opacity="0" result="BackgroundImageFix"/>
<feColorMatrix in="SourceAlpha" type="matrix" values="0 0 0 0 0 0 0 0 0 0 0 0 0 0 0 0 0 0 127 0" result="hardAlpha"/>
<feOffset dx="-8" dy="1"/>
<feGaussianBlur stdDeviation="4.5"/>
<feColorMatrix type="matrix" values="0 0 0 0 0 0 0 0 0 0 0 0 0 0 0 0 0 0 0.352208 0"/>
<feBlend mode="normal" in2="BackgroundImageFix" result="effect1_dropShadow_575_2792"/>
<feBlend mode="normal" in="SourceGraphic" in2="effect1_dropShadow_575_2792" result="shape"/>
</filter>
</defs>
</svg>
