<svg fill="none" height="726" viewBox="0 0 906 726" width="906" xmlns="http://www.w3.org/2000/svg" xmlns:xlink="http://www.w3.org/1999/xlink"><linearGradient id="a" gradientUnits="userSpaceOnUse" x1="29.5035" x2="724.443" y1="323.711" y2="314.288"><stop offset=".16489" stop-color="#011d54"/><stop offset="1" stop-color="#04ba7d"/></linearGradient><linearGradient id="b"><stop offset="0" stop-color="#011d54"/><stop offset="1" stop-color="#04ba7d"/></linearGradient><linearGradient id="c" gradientUnits="userSpaceOnUse" x1="888.304" x2="740.351" xlink:href="#b" y1="300.087" y2="391.96"/><linearGradient id="d"><stop offset="0" stop-color="#fff"/><stop offset="1" stop-color="#fff" stop-opacity="0"/></linearGradient><linearGradient id="e" gradientUnits="userSpaceOnUse" x1="748" x2="670" xlink:href="#d" y1="446" y2="446"/><linearGradient id="f" gradientUnits="userSpaceOnUse" x1="216" x2="449" xlink:href="#d" y1="592.5" y2="592.5"/><linearGradient id="g" gradientUnits="userSpaceOnUse" x1="290.568" x2="186.201" xlink:href="#b" y1="234.569" y2="298.907"/><linearGradient id="h" gradientUnits="userSpaceOnUse" x1="212.477" x2="107.771" xlink:href="#b" y1="540.569" y2="605.587"/><radialGradient id="i" cx="0" cy="0" gradientTransform="matrix(0 125.646 -126.102 0 645.5 375)" gradientUnits="userSpaceOnUse" r="1" xlink:href="#d"/><radialGradient id="j" cx="0" cy="0" gradientTransform="matrix(0 119.728 -119.273 0 337 352.5)" gradientUnits="userSpaceOnUse" r="1"><stop offset="0" stop-color="#003"/><stop offset="1" stop-color="#003" stop-opacity="0"/></radialGradient><radialGradient id="k" cx="0" cy="0" gradientTransform="matrix(0 101.063 -101.063 0 409 572)" gradientUnits="userSpaceOnUse" r="1"><stop offset="0" stop-color="#00e599"/><stop offset="1" stop-color="#00e599" stop-opacity="0"/></radialGradient><path d="m748 324-187 323.894h-374l-186.99995531-323.894 186.99995531-323.893518 374 .000016z" fill="url(#a)" fill-opacity=".8"/><path d="m906 344.5-48.75 84.437h-97.5l-48.75-84.437 48.75-84.437h97.5z" fill="url(#c)" fill-opacity=".4"/><path d="m748 446-19.5 33.775h-39l-19.5-33.775 19.5-33.775h39z" fill="url(#e)" fill-opacity=".2"/><path d="m216 592.5 58.25-100.892h116.5l58.25 100.892-58.25 100.892h-116.5z" fill="url(#f)" fill-opacity=".2"/><path d="m784 194-52.5 90.933h-105l-52.5-90.933 52.5-90.933h105z" fill="#f0f5f6" fill-opacity=".2"/><path d="m303 266-34.25 59.756h-68.5l-34.25-59.756 34.25-59.756h68.5z" fill="url(#g)" fill-opacity=".3"/><path d="m225 572-34.5 59.756h-69l-34.5-59.756 34.5-59.756h69z" fill="url(#h)" fill-opacity=".4"/><g stroke="#f0f5f6" stroke-width=".75"><path d="m766.783 428.505 48.784 84.495-48.784 84.496h-97.566l-48.784-84.496 48.784-84.495z"/><path d="m282.533 509.835 46.035 80.165-46.035 80.165h-92.066l-46.035-80.165 46.035-80.165z"/><path d="m710.533 135.571 49.034 84.929-49.034 84.929h-98.066l-49.034-84.929 49.034-84.929z"/><path d="m144 394h-14"/><path d="m760 220h75"/><path d="m283 670 45 79"/></g><ellipse cx="645.5" cy="375" fill="url(#i)" fill-opacity=".3" rx="138.5" ry="138"/><ellipse cx="337" cy="352.5" fill="url(#j)" fill-opacity=".3" rx="131" ry="131.5"/><circle cx="409" cy="572" fill="url(#k)" fill-opacity=".3" r="111"/></svg>