<svg width="1769" height="2641" viewBox="0 0 1769 2641" fill="none" xmlns="http://www.w3.org/2000/svg">
<path d="M1452 1966.5L1128.75 2526.39L482.25 2526.39L159 1966.5L482.25 1406.61L1128.75 1406.61L1452 1966.5Z" fill="url(#paint0_linear_562_676)" fill-opacity="0.8"/>
<path d="M1671 1896.5L1571.25 2069.27L1371.75 2069.27L1272 1896.5L1371.75 1723.73L1571.25 1723.73L1671 1896.5Z" fill="url(#paint1_linear_562_676)" fill-opacity="0.4"/>
<path d="M1348 2103.5L1308.25 2172.35L1228.75 2172.35L1189 2103.5L1228.75 2034.65L1308.25 2034.65L1348 2103.5Z" fill="url(#paint2_linear_562_676)" fill-opacity="0.2"/>
<path d="M263 2403L382 2196.89L620 2196.89L739 2403L620 2609.11L382 2609.11L263 2403Z" fill="url(#paint3_linear_562_676)" fill-opacity="0.2"/>
<path d="M1548 1628.5L1440.75 1814.26L1226.25 1814.26L1119 1628.5L1226.25 1442.74L1440.75 1442.74L1548 1628.5Z" fill="#F0F5F6" fill-opacity="0.2"/>
<path d="M441 1735.5L370.75 1857.18L230.25 1857.18L160 1735.5L230.25 1613.82L370.75 1613.82L441 1735.5Z" fill="url(#paint4_linear_562_676)" fill-opacity="0.3"/>
<path d="M281 2274.5L210.75 2396.18L70.25 2396.18L-6.14145e-06 2274.5L70.25 2152.82L210.75 2152.82L281 2274.5Z" fill="url(#paint5_linear_562_676)" fill-opacity="0.4"/>
<path d="M1272.53 1550.24L1372.57 1723.5L1272.53 1896.76L1072.47 1896.76L972.433 1723.5L1072.47 1550.24L1272.53 1550.24Z" stroke="#F0F5F6" stroke-width="0.75"/>
<path d="M116.5 2077H86" stroke="#F0F5F6" stroke-width="0.75"/>
<circle cx="1139.5" cy="1958.5" r="281.5" fill="url(#paint6_radial_562_676)" fill-opacity="0.3"/>
<circle cx="510" cy="1913" r="268" fill="url(#paint7_radial_562_676)" fill-opacity="0.3"/>
<circle cx="658" cy="2361" r="227" fill="url(#paint8_radial_562_676)" fill-opacity="0.3"/>
<path d="M1550 646.5L1226.75 1206.39L580.25 1206.39L257 646.5L580.25 86.6145L1226.75 86.6145L1550 646.5Z" fill="url(#paint9_linear_562_676)" fill-opacity="0.8"/>
<path d="M1769 576.5L1669.25 749.272L1469.75 749.272L1370 576.5L1469.75 403.728L1669.25 403.728L1769 576.5Z" fill="url(#paint10_linear_562_676)" fill-opacity="0.4"/>
<path d="M1446 783.5L1406.25 852.349L1326.75 852.349L1287 783.5L1326.75 714.651L1406.25 714.651L1446 783.5Z" fill="url(#paint11_linear_562_676)" fill-opacity="0.2"/>
<path d="M361 1083L480 876.886L718 876.886L837 1083L718 1289.11L480 1289.11L361 1083Z" fill="url(#paint12_linear_562_676)" fill-opacity="0.2"/>
<path d="M1646 308.5L1538.75 494.262L1324.25 494.262L1217 308.5L1324.25 122.738L1538.75 122.738L1646 308.5Z" fill="#F0F5F6" fill-opacity="0.2"/>
<path d="M539 415.5L468.75 537.177L328.25 537.177L258 415.5L328.25 293.823L468.75 293.823L539 415.5Z" fill="url(#paint13_linear_562_676)" fill-opacity="0.3"/>
<path d="M379 1041.5L308.75 1163.18L168.25 1163.18L98 1041.5L168.25 919.823L308.75 919.823L379 1041.5Z" fill="url(#paint14_linear_562_676)" fill-opacity="0.4"/>
<path d="M1470.03 749.103L1569.57 921.5L1470.03 1093.9L1270.97 1093.9L1171.43 921.5L1270.97 749.103L1470.03 749.103Z" stroke="#F0F5F6" stroke-width="0.75"/>
<path d="M497.283 593.696L591.567 757L497.283 920.304L308.717 920.304L214.433 757L308.717 593.696L497.283 593.696Z" stroke="#F0F5F6" stroke-width="0.75"/>
<path d="M1370.53 230.237L1470.57 403.5L1370.53 576.763L1170.47 576.763L1070.43 403.5L1170.47 230.237L1370.53 230.237Z" stroke="#F0F5F6" stroke-width="0.75"/>
<path d="M214.5 757H184" stroke="#F0F5F6" stroke-width="0.75"/>
<path d="M1471 403H1624" stroke="#F0F5F6" stroke-width="0.75"/>
<path d="M497.5 920.5L589 1082.5" stroke="#F0F5F6" stroke-width="0.75"/>
<circle cx="1237.5" cy="638.5" r="281.5" fill="url(#paint15_radial_562_676)" fill-opacity="0.3"/>
<circle cx="608" cy="593" r="268" fill="url(#paint16_radial_562_676)" fill-opacity="0.3"/>
<circle cx="756" cy="1041" r="227" fill="url(#paint17_radial_562_676)" fill-opacity="0.3"/>
<defs>
<linearGradient id="paint0_linear_562_676" x1="210" y1="1966" x2="1411.28" y2="1949.71" gradientUnits="userSpaceOnUse">
<stop stop-color="#011D54"/>
<stop offset="1" stop-color="#04BA7D"/>
</linearGradient>
<linearGradient id="paint1_linear_562_676" x1="1634.79" y1="1805.62" x2="1332.06" y2="1993.61" gradientUnits="userSpaceOnUse">
<stop stop-color="#011D54"/>
<stop offset="1" stop-color="#04BA7D"/>
</linearGradient>
<linearGradient id="paint2_linear_562_676" x1="1348" y1="2103.5" x2="1189" y2="2103.5" gradientUnits="userSpaceOnUse">
<stop stop-color="white"/>
<stop offset="1" stop-color="white" stop-opacity="0"/>
</linearGradient>
<linearGradient id="paint3_linear_562_676" x1="263" y1="2403" x2="739" y2="2403" gradientUnits="userSpaceOnUse">
<stop stop-color="white"/>
<stop offset="1" stop-color="white" stop-opacity="0"/>
</linearGradient>
<linearGradient id="paint4_linear_562_676" x1="415.5" y1="1671.5" x2="202.295" y2="1803.89" gradientUnits="userSpaceOnUse">
<stop stop-color="#011D54"/>
<stop offset="1" stop-color="#04BA7D"/>
</linearGradient>
<linearGradient id="paint5_linear_562_676" x1="255.5" y1="2210.5" x2="42.2952" y2="2342.89" gradientUnits="userSpaceOnUse">
<stop stop-color="#011D54"/>
<stop offset="1" stop-color="#04BA7D"/>
</linearGradient>
<radialGradient id="paint6_radial_562_676" cx="0" cy="0" r="1" gradientUnits="userSpaceOnUse" gradientTransform="translate(1139.5 1958.5) rotate(90) scale(256.3)">
<stop stop-color="white"/>
<stop offset="1" stop-color="white" stop-opacity="0"/>
</radialGradient>
<radialGradient id="paint7_radial_562_676" cx="0" cy="0" r="1" gradientUnits="userSpaceOnUse" gradientTransform="translate(510 1913) rotate(90) scale(244.009)">
<stop stop-color="#000033"/>
<stop offset="1" stop-color="#000033" stop-opacity="0"/>
</radialGradient>
<radialGradient id="paint8_radial_562_676" cx="0" cy="0" r="1" gradientUnits="userSpaceOnUse" gradientTransform="translate(658 2361) rotate(90) scale(206.679)">
<stop stop-color="#00E599"/>
<stop offset="1" stop-color="#00E599" stop-opacity="0"/>
</radialGradient>
<linearGradient id="paint9_linear_562_676" x1="308" y1="646" x2="1509.28" y2="629.711" gradientUnits="userSpaceOnUse">
<stop stop-color="#011D54"/>
<stop offset="1" stop-color="#04BA7D"/>
</linearGradient>
<linearGradient id="paint10_linear_562_676" x1="1732.79" y1="485.625" x2="1430.06" y2="673.61" gradientUnits="userSpaceOnUse">
<stop stop-color="#011D54"/>
<stop offset="1" stop-color="#04BA7D"/>
</linearGradient>
<linearGradient id="paint11_linear_562_676" x1="1446" y1="783.5" x2="1287" y2="783.5" gradientUnits="userSpaceOnUse">
<stop stop-color="white"/>
<stop offset="1" stop-color="white" stop-opacity="0"/>
</linearGradient>
<linearGradient id="paint12_linear_562_676" x1="361" y1="1083" x2="837" y2="1083" gradientUnits="userSpaceOnUse">
<stop stop-color="white"/>
<stop offset="1" stop-color="white" stop-opacity="0"/>
</linearGradient>
<linearGradient id="paint13_linear_562_676" x1="513.5" y1="351.5" x2="300.295" y2="483.891" gradientUnits="userSpaceOnUse">
<stop stop-color="#011D54"/>
<stop offset="1" stop-color="#04BA7D"/>
</linearGradient>
<linearGradient id="paint14_linear_562_676" x1="353.5" y1="977.5" x2="140.295" y2="1109.89" gradientUnits="userSpaceOnUse">
<stop stop-color="#011D54"/>
<stop offset="1" stop-color="#04BA7D"/>
</linearGradient>
<radialGradient id="paint15_radial_562_676" cx="0" cy="0" r="1" gradientUnits="userSpaceOnUse" gradientTransform="translate(1237.5 638.5) rotate(90) scale(256.3)">
<stop stop-color="white"/>
<stop offset="1" stop-color="white" stop-opacity="0"/>
</radialGradient>
<radialGradient id="paint16_radial_562_676" cx="0" cy="0" r="1" gradientUnits="userSpaceOnUse" gradientTransform="translate(608 593) rotate(90) scale(244.009)">
<stop stop-color="#000033"/>
<stop offset="1" stop-color="#000033" stop-opacity="0"/>
</radialGradient>
<radialGradient id="paint17_radial_562_676" cx="0" cy="0" r="1" gradientUnits="userSpaceOnUse" gradientTransform="translate(756 1041) rotate(90) scale(206.679)">
<stop stop-color="#00E599"/>
<stop offset="1" stop-color="#00E599" stop-opacity="0"/>
</radialGradient>
</defs>
</svg>
