<svg fill="none" height="1321" viewBox="0 0 1440 1321" width="1440" xmlns="http://www.w3.org/2000/svg" xmlns:xlink="http://www.w3.org/1999/xlink"><linearGradient id="a"><stop offset="0" stop-color="#011d54"/><stop offset="1" stop-color="#04ba7d"/></linearGradient><linearGradient id="b" gradientUnits="userSpaceOnUse" x1="93.9999" x2="1295.28" xlink:href="#a" y1="646" y2="629.711"/><linearGradient id="c" gradientUnits="userSpaceOnUse" x1="1518.79" x2="1216.06" xlink:href="#a" y1="485.625" y2="673.61"/><linearGradient id="d"><stop offset="0" stop-color="#fff"/><stop offset="1" stop-color="#fff" stop-opacity="0"/></linearGradient><linearGradient id="e" gradientUnits="userSpaceOnUse" x1="1232" x2="1073" xlink:href="#d" y1="783.5" y2="783.5"/><linearGradient id="f" gradientUnits="userSpaceOnUse" x1="147" x2="623" xlink:href="#d" y1="1083" y2="1083"/><linearGradient id="g" gradientUnits="userSpaceOnUse" x1="299.5" x2="86.2952" xlink:href="#a" y1="351.5" y2="483.891"/><linearGradient id="h" gradientUnits="userSpaceOnUse" x1="139.5" x2="-73.7048" xlink:href="#a" y1="890.5" y2="1022.89"/><radialGradient id="i" cx="0" cy="0" gradientTransform="matrix(0 256.3 -256.3 0 1023.5 638.5)" gradientUnits="userSpaceOnUse" r="1" xlink:href="#d"/><radialGradient id="j" cx="0" cy="0" gradientTransform="matrix(0 244.009 -244.009 0 394 593)" gradientUnits="userSpaceOnUse" r="1"><stop offset="0" stop-color="#003"/><stop offset="1" stop-color="#003" stop-opacity="0"/></radialGradient><radialGradient id="k" cx="0" cy="0" gradientTransform="matrix(0 206.679 -206.679 0 542 1041)" gradientUnits="userSpaceOnUse" r="1"><stop offset="0" stop-color="#00e599"/><stop offset="1" stop-color="#00e599" stop-opacity="0"/></radialGradient><path d="m1336 646.5-323.25 559.89h-646.5l-323.25-559.89 323.25-559.8855h646.5z" fill="url(#b)" fill-opacity=".8"/><path d="m1555 576.5-99.75 172.772h-199.5l-99.75-172.772 99.75-172.772h199.5z" fill="url(#c)" fill-opacity=".4"/><g fill-opacity=".2"><path d="m1232 783.5-39.75 68.849h-79.5l-39.75-68.849 39.75-68.849h79.5z" fill="url(#e)"/><path d="m147 1083 119-206.114h238l119 206.114-119 206.11h-238z" fill="url(#f)"/><path d="m1432 308.5-107.25 185.762h-214.5l-107.25-185.762 107.25-185.762h214.5z" fill="#f0f5f6"/></g><path d="m325 415.5-70.25 121.677h-140.5l-70.25-121.677 70.25-121.677h140.5z" fill="url(#g)" fill-opacity=".3"/><path d="m165 954.5-70.25 121.68h-140.5l-70.25-121.68 70.25-121.677h140.5z" fill="url(#h)" fill-opacity=".4"/><path d="m1156.53 230.237 100.04 173.263-100.04 173.263h-200.063l-100.034-173.263 100.034-173.263z" stroke="#f0f5f6" stroke-width=".75"/><path d="m.5 757h-30.5" stroke="#f0f5f6" stroke-width=".75"/><circle cx="1023.5" cy="638.5" fill="url(#i)" fill-opacity=".3" r="281.5"/><circle cx="394" cy="593" fill="url(#j)" fill-opacity=".3" r="268"/><circle cx="542" cy="1041" fill="url(#k)" fill-opacity=".3" r="227"/></svg>