<svg width="906" height="726" viewBox="0 0 906 726" fill="none" xmlns="http://www.w3.org/2000/svg">
<path d="M748 324L561 647.894L187 647.894L4.46871e-05 324L187 0.106482L561 0.106498L748 324Z" fill="url(#paint0_linear_571_1617)" fill-opacity="0.8"/>
<path d="M906 344.5L857.25 428.937L759.75 428.937L711 344.5L759.75 260.063L857.25 260.063L906 344.5Z" fill="url(#paint1_linear_571_1617)" fill-opacity="0.4"/>
<path d="M748 446L728.5 479.775L689.5 479.775L670 446L689.5 412.225L728.5 412.225L748 446Z" fill="url(#paint2_linear_571_1617)" fill-opacity="0.2"/>
<path d="M216 592.5L274.25 491.608L390.75 491.608L449 592.5L390.75 693.392L274.25 693.392L216 592.5Z" fill="url(#paint3_linear_571_1617)" fill-opacity="0.2"/>
<path d="M784 194L731.5 284.933L626.5 284.933L574 194L626.5 103.067L731.5 103.067L784 194Z" fill="#F0F5F6" fill-opacity="0.2"/>
<path d="M303 266L268.75 325.756L200.25 325.756L166 266L200.25 206.244L268.75 206.244L303 266Z" fill="url(#paint4_linear_571_1617)" fill-opacity="0.3"/>
<path d="M225 572L190.5 631.756L121.5 631.756L87 572L121.5 512.244L190.5 512.244L225 572Z" fill="url(#paint5_linear_571_1617)" fill-opacity="0.4"/>
<path d="M766.783 428.505L815.567 513L766.783 597.496L669.217 597.496L620.433 513L669.217 428.505L766.783 428.505Z" stroke="#F0F5F6" stroke-width="0.75"/>
<path d="M282.533 509.835L328.568 590L282.533 670.165L190.467 670.165L144.432 590L190.467 509.835L282.533 509.835Z" stroke="#F0F5F6" stroke-width="0.75"/>
<path d="M710.533 135.571L759.567 220.5L710.533 305.429L612.467 305.429L563.433 220.5L612.467 135.571L710.533 135.571Z" stroke="#F0F5F6" stroke-width="0.75"/>
<path d="M144 394H130" stroke="#F0F5F6" stroke-width="0.75"/>
<path d="M760 220H835" stroke="#F0F5F6" stroke-width="0.75"/>
<path d="M283 670L328 749" stroke="#F0F5F6" stroke-width="0.75"/>
<ellipse cx="645.5" cy="375" rx="138.5" ry="138" fill="url(#paint6_radial_571_1617)" fill-opacity="0.3"/>
<ellipse cx="337" cy="352.5" rx="131" ry="131.5" fill="url(#paint7_radial_571_1617)" fill-opacity="0.3"/>
<circle cx="409" cy="572" r="111" fill="url(#paint8_radial_571_1617)" fill-opacity="0.3"/>
<defs>
<linearGradient id="paint0_linear_571_1617" x1="29.5035" y1="323.711" x2="724.443" y2="314.288" gradientUnits="userSpaceOnUse">
<stop offset="0.16489" stop-color="#011D54"/>
<stop offset="1" stop-color="#04BA7D"/>
</linearGradient>
<linearGradient id="paint1_linear_571_1617" x1="888.304" y1="300.087" x2="740.351" y2="391.96" gradientUnits="userSpaceOnUse">
<stop stop-color="#011D54"/>
<stop offset="1" stop-color="#04BA7D"/>
</linearGradient>
<linearGradient id="paint2_linear_571_1617" x1="748" y1="446" x2="670" y2="446" gradientUnits="userSpaceOnUse">
<stop stop-color="white"/>
<stop offset="1" stop-color="white" stop-opacity="0"/>
</linearGradient>
<linearGradient id="paint3_linear_571_1617" x1="216" y1="592.5" x2="449" y2="592.5" gradientUnits="userSpaceOnUse">
<stop stop-color="white"/>
<stop offset="1" stop-color="white" stop-opacity="0"/>
</linearGradient>
<linearGradient id="paint4_linear_571_1617" x1="290.568" y1="234.569" x2="186.201" y2="298.907" gradientUnits="userSpaceOnUse">
<stop stop-color="#011D54"/>
<stop offset="1" stop-color="#04BA7D"/>
</linearGradient>
<linearGradient id="paint5_linear_571_1617" x1="212.477" y1="540.569" x2="107.771" y2="605.587" gradientUnits="userSpaceOnUse">
<stop stop-color="#011D54"/>
<stop offset="1" stop-color="#04BA7D"/>
</linearGradient>
<radialGradient id="paint6_radial_571_1617" cx="0" cy="0" r="1" gradientUnits="userSpaceOnUse" gradientTransform="translate(645.5 375) rotate(90) scale(125.646 126.102)">
<stop stop-color="white"/>
<stop offset="1" stop-color="white" stop-opacity="0"/>
</radialGradient>
<radialGradient id="paint7_radial_571_1617" cx="0" cy="0" r="1" gradientUnits="userSpaceOnUse" gradientTransform="translate(337 352.5) rotate(90) scale(119.728 119.273)">
<stop stop-color="#000033"/>
<stop offset="1" stop-color="#000033" stop-opacity="0"/>
</radialGradient>
<radialGradient id="paint8_radial_571_1617" cx="0" cy="0" r="1" gradientUnits="userSpaceOnUse" gradientTransform="translate(409 572) rotate(90) scale(101.063)">
<stop stop-color="#00E599"/>
<stop offset="1" stop-color="#00E599" stop-opacity="0"/>
</radialGradient>
</defs>
</svg>
