<svg fill="none" height="2641" viewBox="0 0 1769 2641" width="1769" xmlns="http://www.w3.org/2000/svg" xmlns:xlink="http://www.w3.org/1999/xlink"><linearGradient id="a"><stop offset="0" stop-color="#011d54"/><stop offset="1" stop-color="#04ba7d"/></linearGradient><linearGradient id="b" gradientUnits="userSpaceOnUse" x1="210" x2="1411.28" xlink:href="#a" y1="1966" y2="1949.71"/><linearGradient id="c" gradientUnits="userSpaceOnUse" x1="1634.79" x2="1332.06" xlink:href="#a" y1="1805.62" y2="1993.61"/><linearGradient id="d"><stop offset="0" stop-color="#fff"/><stop offset="1" stop-color="#fff" stop-opacity="0"/></linearGradient><linearGradient id="e" gradientUnits="userSpaceOnUse" x1="1348" x2="1189" xlink:href="#d" y1="2103.5" y2="2103.5"/><linearGradient id="f" gradientUnits="userSpaceOnUse" x1="263" x2="739" xlink:href="#d" y1="2403" y2="2403"/><linearGradient id="g" gradientUnits="userSpaceOnUse" x1="415.5" x2="202.295" xlink:href="#a" y1="1671.5" y2="1803.89"/><linearGradient id="h" gradientUnits="userSpaceOnUse" x1="255.5" x2="42.2952" xlink:href="#a" y1="2210.5" y2="2342.89"/><radialGradient id="i" cx="0" cy="0" gradientTransform="matrix(0 256.3 -256.3 0 1139.5 1958.5)" gradientUnits="userSpaceOnUse" r="1" xlink:href="#d"/><linearGradient id="j"><stop offset="0" stop-color="#003"/><stop offset="1" stop-color="#003" stop-opacity="0"/></linearGradient><radialGradient id="k" cx="0" cy="0" gradientTransform="matrix(0 244.009 -244.009 0 510 1913)" gradientUnits="userSpaceOnUse" r="1" xlink:href="#j"/><linearGradient id="l"><stop offset="0" stop-color="#00e599"/><stop offset="1" stop-color="#00e599" stop-opacity="0"/></linearGradient><radialGradient id="m" cx="0" cy="0" gradientTransform="matrix(0 206.679 -206.679 0 658 2361)" gradientUnits="userSpaceOnUse" r="1" xlink:href="#l"/><linearGradient id="n" gradientUnits="userSpaceOnUse" x1="308" x2="1509.28" xlink:href="#a" y1="646" y2="629.711"/><linearGradient id="o" gradientUnits="userSpaceOnUse" x1="1732.79" x2="1430.06" xlink:href="#a" y1="485.625" y2="673.61"/><linearGradient id="p" gradientUnits="userSpaceOnUse" x1="1446" x2="1287" xlink:href="#d" y1="783.5" y2="783.5"/><linearGradient id="q" gradientUnits="userSpaceOnUse" x1="361" x2="837" xlink:href="#d" y1="1083" y2="1083"/><linearGradient id="r" gradientUnits="userSpaceOnUse" x1="513.5" x2="300.295" xlink:href="#a" y1="351.5" y2="483.891"/><linearGradient id="s" gradientUnits="userSpaceOnUse" x1="353.5" x2="140.295" xlink:href="#a" y1="977.5" y2="1109.89"/><radialGradient id="t" cx="0" cy="0" gradientTransform="matrix(0 256.3 -256.3 0 1237.5 638.5)" gradientUnits="userSpaceOnUse" r="1" xlink:href="#d"/><radialGradient id="u" cx="0" cy="0" gradientTransform="matrix(0 244.009 -244.009 0 608 593)" gradientUnits="userSpaceOnUse" r="1" xlink:href="#j"/><radialGradient id="v" cx="0" cy="0" gradientTransform="matrix(0 206.679 -206.679 0 756 1041)" gradientUnits="userSpaceOnUse" r="1" xlink:href="#l"/><path d="m1452 1966.5-323.25 559.89h-646.5l-323.25-559.89 323.25-559.89h646.5z" fill="url(#b)" fill-opacity=".8"/><path d="m1671 1896.5-99.75 172.77h-199.5l-99.75-172.77 99.75-172.77h199.5z" fill="url(#c)" fill-opacity=".4"/><path d="m1348 2103.5-39.75 68.85h-79.5l-39.75-68.85 39.75-68.85h79.5z" fill="url(#e)" fill-opacity=".2"/><path d="m263 2403 119-206.11h238l119 206.11-119 206.11h-238z" fill="url(#f)" fill-opacity=".2"/><path d="m1548 1628.5-107.25 185.76h-214.5l-107.25-185.76 107.25-185.76h214.5z" fill="#f0f5f6" fill-opacity=".2"/><path d="m441 1735.5-70.25 121.68h-140.5l-70.25-121.68 70.25-121.68h140.5z" fill="url(#g)" fill-opacity=".3"/><path d="m281 2274.5-70.25 121.68h-140.5l-70.25000614-121.68 70.25000614-121.68h140.5z" fill="url(#h)" fill-opacity=".4"/><path d="m1272.53 1550.24 100.04 173.26-100.04 173.26h-200.06l-100.037-173.26 100.037-173.26z" stroke="#f0f5f6" stroke-width=".75"/><path d="m116.5 2077h-30.5" stroke="#f0f5f6" stroke-width=".75"/><circle cx="1139.5" cy="1958.5" fill="url(#i)" fill-opacity=".3" r="281.5"/><circle cx="510" cy="1913" fill="url(#k)" fill-opacity=".3" r="268"/><circle cx="658" cy="2361" fill="url(#m)" fill-opacity=".3" r="227"/><path d="m1550 646.5-323.25 559.89h-646.5l-323.25-559.89 323.25-559.8855h646.5z" fill="url(#n)" fill-opacity=".8"/><path d="m1769 576.5-99.75 172.772h-199.5l-99.75-172.772 99.75-172.772h199.5z" fill="url(#o)" fill-opacity=".4"/><path d="m1446 783.5-39.75 68.849h-79.5l-39.75-68.849 39.75-68.849h79.5z" fill="url(#p)" fill-opacity=".2"/><path d="m361 1083 119-206.114h238l119 206.114-119 206.11h-238z" fill="url(#q)" fill-opacity=".2"/><path d="m1646 308.5-107.25 185.762h-214.5l-107.25-185.762 107.25-185.762h214.5z" fill="#f0f5f6" fill-opacity=".2"/><path d="m539 415.5-70.25 121.677h-140.5l-70.25-121.677 70.25-121.677h140.5z" fill="url(#r)" fill-opacity=".3"/><path d="m379 1041.5-70.25 121.68h-140.5l-70.25-121.68 70.25-121.677h140.5z" fill="url(#s)" fill-opacity=".4"/><g stroke="#f0f5f6" stroke-width=".75"><path d="m1470.03 749.103 99.54 172.397-99.54 172.4h-199.06l-99.54-172.4 99.54-172.397z"/><path d="m497.283 593.696 94.284 163.304-94.284 163.304h-188.566l-94.284-163.304 94.284-163.304z"/><path d="m1370.53 230.237 100.04 173.263-100.04 173.263h-200.06l-100.04-173.263 100.04-173.263z"/><path d="m214.5 757h-30.5"/><path d="m1471 403h153"/><path d="m497.5 920.5 91.5 162"/></g><circle cx="1237.5" cy="638.5" fill="url(#t)" fill-opacity=".3" r="281.5"/><circle cx="608" cy="593" fill="url(#u)" fill-opacity=".3" r="268"/><circle cx="756" cy="1041" fill="url(#v)" fill-opacity=".3" r="227"/></svg>