<svg fill="none" height="205" viewBox="0 0 179 205" width="179" xmlns="http://www.w3.org/2000/svg" xmlns:xlink="http://www.w3.org/1999/xlink"><filter id="a" color-interpolation-filters="sRGB" filterUnits="userSpaceOnUse" height="203.374" width="178.622" x=".310802" y=".945312"><feFlood flood-opacity="0" result="BackgroundImageFix"/><feColorMatrix in="SourceAlpha" result="hardAlpha" type="matrix" values="0 0 0 0 0 0 0 0 0 0 0 0 0 0 0 0 0 0 127 0"/><feOffset dx="-8.5946" dy="10.027"/><feGaussianBlur stdDeviation="4.2973"/><feColorMatrix type="matrix" values="0 0 0 0 0.316369 0 0 0 0 0.366988 0 0 0 0 0.353496 0 0 0 0.25741 0"/><feBlend in2="BackgroundImageFix" mode="normal" result="effect1_dropShadow_557_401"/><feColorMatrix in="SourceAlpha" result="hardAlpha" type="matrix" values="0 0 0 0 0 0 0 0 0 0 0 0 0 0 0 0 0 0 127 0"/><feOffset dx="-2.14865" dy="5.01352"/><feGaussianBlur stdDeviation="1.79054"/><feColorMatrix type="matrix" values="0 0 0 0 0 0 0 0 0 0 0 0 0 0 0 0 0 0 0.144615 0"/><feBlend in2="effect1_dropShadow_557_401" mode="normal" result="effect2_dropShadow_557_401"/><feBlend in="SourceGraphic" in2="effect2_dropShadow_557_401" mode="normal" result="shape"/></filter><g filter="url(#a)"><path d="m97.5.945312 80 46.187988v92.3757l-80 46.188-80-46.188v-92.3757z" fill="#000"/></g><path d="m97.5.945312 80 46.187988v92.3757l-80 46.188-80-46.188v-92.3757z" fill="#f0f5f6"/><path d="m118.607 79.2182v-3.7563c0-.3758-.211-.6811-.634-.9159-.422-.2349-.633-.3523-.633-.3523l-5.611-2.6773c.443-.3489.818-.7683 1.126-1.2581.309-.4899.557-.9998.744-1.5299.188-.5301.322-1.0501.403-1.5601.08-.51.12-.9595.12-1.3487v-3.2209c0-.5368-.171-1.0736-.513-1.6104-.341-.5368-.784-1.0199-1.327-1.4493-.543-.4295-1.16-.7784-1.85-1.0468s-1.391-.4026-2.101-.4026c-.711 0-1.415.1342-2.112.4026s-1.317.6173-1.86 1.0468c-.543.4294-.982.9125-1.317 1.4493-.336.5368-.503 1.0736-.503 1.6104v3.2209c0 .3489.04.775.12 1.2782.081.5033.218 1.02.413 1.5501.194.5301.446 1.0501.754 1.56.308.51.69.9462 1.146 1.3085l-5.6508 2.6773s-.2145.1241-.6435.3724-.6435.5469-.6435.8958v3.7563" fill="#003"/><path d="m118.607 79.2182v-3.7563c0-.3758-.211-.6811-.634-.9159-.422-.2349-.633-.3523-.633-.3523l-5.611-2.6773c.443-.3489.818-.7683 1.126-1.2581.309-.4899.557-.9998.744-1.5299.188-.5301.322-1.0501.403-1.5601.08-.51.12-.9595.12-1.3487v-3.2209c0-.5368-.171-1.0736-.513-1.6104-.341-.5368-.784-1.0199-1.327-1.4493-.543-.4295-1.16-.7784-1.85-1.0468s-1.391-.4026-2.101-.4026c-.711 0-1.415.1342-2.112.4026s-1.317.6173-1.86 1.0468c-.543.4294-.982.9125-1.317 1.4493-.336.5368-.503 1.0736-.503 1.6104v3.2209c0 .3489.04.775.12 1.2782.081.5033.218 1.02.413 1.5501.194.5301.446 1.0501.754 1.56.308.51.69.9462 1.146 1.3085l-5.6508 2.6773s-.2145.1241-.6435.3724-.6435.5469-.6435.8958v3.7563" stroke="#003" stroke-width="1.2566"/><path d="m71.1214 93.3918h-20.5726v36.1412h20.5726z" fill="#fff"/><path d="m94.7523 106.18h-20.5726v23.353h20.5726z" fill="#fff"/><path d="m118.383 82.2715h-20.5725v47.2615h20.5725z" fill="#fff"/><path d="m71.1214 103.956h-20.5726v25.577h20.5726z" fill="#00e599"/><path d="m94.7523 117.299h-20.5726v12.232h20.5726z" fill="#00e599"/><path d="m118.383 93.9475h-20.5725v35.5855h20.5725z" fill="#00e599"/><g stroke="#003"><path d="m71.1214 93.3918h-20.5726v36.1412h20.5726z" stroke-width="1.81261"/><path d="m94.7523 106.18h-20.5726v23.353h20.5726z" stroke-width="1.81261"/><path d="m118.383 82.2715h-20.5725v47.2615h20.5725z" stroke-width="1.81261"/></g><path d="m94.8327 102.8v-3.855c0-.3857-.2169-.699-.6506-.9401-.4337-.241-.6506-.3615-.6506-.3615l-5.7623-2.7478c.4544-.3581.8399-.7885 1.1566-1.2912s.5714-1.0261.7642-1.5702c.1927-.544.3304-1.0777.413-1.6011s.124-.9848.124-1.3842v-3.3056c0-.5509-.1756-1.1019-.5267-1.6528s-.8055-1.0468-1.3631-1.4875c-.5577-.4408-1.1911-.7989-1.9002-1.0743-.7091-.2755-1.4285-.4132-2.1583-.4132-.7297 0-1.4526.1377-2.1686.4132-.716.2754-1.3528.6335-1.9105 1.0743-.5576.4407-1.0085.9366-1.3528 1.4875-.3442.5509-.5163 1.1019-.5163 1.6528v3.3056c0 .3581.0413.7954.1239 1.3119s.2238 1.0467.4234 1.5908c.1997.544.4578 1.0777.7745 1.6011s.7091.971 1.1773 1.3429l-5.8037 2.7478s-.2203.1274-.6609.3822-.6609.5613-.6609.9194v3.855" fill="#fff"/><path d="m94.8327 102.8v-3.855c0-.3857-.2169-.699-.6506-.9401-.4337-.241-.6506-.3615-.6506-.3615l-5.7623-2.7478c.4544-.3581.8399-.7885 1.1566-1.2912s.5714-1.0261.7642-1.5702c.1927-.544.3304-1.0777.413-1.6011s.124-.9848.124-1.3842v-3.3056c0-.5509-.1756-1.1019-.5267-1.6528s-.8055-1.0468-1.3631-1.4875c-.5577-.4408-1.1911-.7989-1.9002-1.0743-.7091-.2755-1.4285-.4132-2.1583-.4132-.7297 0-1.4526.1377-2.1686.4132-.716.2754-1.3528.6335-1.9105 1.0743-.5576.4407-1.0085.9366-1.3528 1.4875-.3442.5509-.5163 1.1019-.5163 1.6528v3.3056c0 .3581.0413.7954.1239 1.3119s.2238 1.0467.4234 1.5908c.1997.544.4578 1.0777.7745 1.6011s.7091.971 1.1773 1.3429l-5.8037 2.7478s-.2203.1274-.6609.3822-.6609.5613-.6609.9194v3.855" stroke="#003" stroke-width="1.2566"/><path d="m142.013 93.3916h-20.573v36.1414h20.573z" fill="#fff"/><path d="m142.013 103.956h-20.573v25.577h20.573z" fill="#00e599"/><path d="m142.013 93.3916h-20.573v36.1414h20.573z" stroke="#003" stroke-width="1.81261"/><path d="m142.291 90.0547v-3.8551c0-.3857-.217-.699-.651-.94-.434-.2411-.65-.3616-.65-.3616l-5.763-2.7477c.455-.3581.84-.7886 1.157-1.2913.316-.5027.571-1.0261.764-1.5701.193-.5441.33-1.0778.413-1.6012s.124-.9848.124-1.3842v-3.3056c0-.5509-.176-1.1018-.527-1.6528-.351-.5509-.805-1.0467-1.363-1.4875-.557-.4407-1.191-.7988-1.9-1.0743s-1.429-.4132-2.158-.4132c-.73 0-1.453.1377-2.169.4132s-1.353.6336-1.91 1.0743c-.558.4408-1.009.9366-1.353 1.4875-.344.551-.516 1.1019-.516 1.6528v3.3056c0 .3581.041.7954.123 1.3119.083.5165.224 1.0468.424 1.5908.199.5441.458 1.0778.774 1.6012.317.5234.709.971 1.178 1.3429l-5.804 2.7477s-.22.1274-.661.3822-.661.5613-.661.9194v3.8551" fill="#fff"/><path d="m142.291 90.0547v-3.8551c0-.3857-.217-.699-.651-.94-.434-.2411-.65-.3616-.65-.3616l-5.763-2.7477c.455-.3581.84-.7886 1.157-1.2913.316-.5027.571-1.0261.764-1.5701.193-.5441.33-1.0778.413-1.6012s.124-.9848.124-1.3842v-3.3056c0-.5509-.176-1.1018-.527-1.6528-.351-.5509-.805-1.0467-1.363-1.4875-.557-.4407-1.191-.7988-1.9-1.0743s-1.429-.4132-2.158-.4132c-.73 0-1.453.1377-2.169.4132s-1.353.6336-1.91 1.0743c-.558.4408-1.009.9366-1.353 1.4875-.344.551-.516 1.1019-.516 1.6528v3.3056c0 .3581.041.7954.123 1.3119.083.5165.224 1.0468.424 1.5908.199.5441.458 1.0778.774 1.6012.317.5234.709.971 1.178 1.3429l-5.804 2.7477s-.22.1274-.661.3822-.661.5613-.661.9194v3.8551" stroke="#003" stroke-width="1.2566"/><path d="m70.9075 90.0993v-3.7563c0-.3757-.2111-.6811-.6334-.9159-.4223-.2349-.6335-.3523-.6335-.3523l-5.6107-2.6773c.4424-.3489.8178-.7683 1.1262-1.2581.3083-.4899.5563-.9998.744-1.5299s.3218-1.0501.4022-1.5601c.0805-.51.1207-.9595.1207-1.3487v-3.2208c0-.5368-.1709-1.0737-.5128-1.6105s-.7843-1.0199-1.3273-1.4493c-.5429-.4295-1.1596-.7784-1.8501-1.0468-.6904-.2684-1.3909-.4026-2.1015-.4026-.7105 0-1.4144.1342-2.1115.4026-.6972.2684-1.3173.6173-1.8602 1.0468-.543.4294-.9821.9125-1.3172 1.4493-.3352.5368-.5028 1.0737-.5028 1.6105v3.2208c0 .3489.0402.775.1207 1.2782.0804.5033.2178 1.02.4122 1.5501s.4458 1.0501.7542 1.56c.3083.51.6904.9462 1.1462 1.3085l-5.6509 2.6773s-.2145.1242-.6435.3724c-.429.2483-.6435.5469-.6435.8958v3.7563" fill="#003"/><path d="m70.9075 90.0993v-3.7563c0-.3757-.2111-.6811-.6334-.9159-.4223-.2349-.6335-.3523-.6335-.3523l-5.6107-2.6773c.4424-.3489.8178-.7683 1.1262-1.2581.3083-.4899.5563-.9998.744-1.5299s.3218-1.0501.4022-1.5601c.0805-.51.1207-.9595.1207-1.3487v-3.2208c0-.5368-.1709-1.0737-.5128-1.6105s-.7843-1.0199-1.3273-1.4493c-.5429-.4295-1.1596-.7784-1.8501-1.0468-.6904-.2684-1.3909-.4026-2.1015-.4026-.7105 0-1.4144.1342-2.1115.4026-.6972.2684-1.3173.6173-1.8602 1.0468-.543.4294-.9821.9125-1.3172 1.4493-.3352.5368-.5028 1.0737-.5028 1.6105v3.2208c0 .3489.0402.775.1207 1.2782.0804.5033.2178 1.02.4122 1.5501s.4458 1.0501.7542 1.56c.3083.51.6904.9462 1.1462 1.3085l-5.6509 2.6773s-.2145.1242-.6435.3724c-.429.2483-.6435.5469-.6435.8958v3.7563" stroke="#003" stroke-width="1.2566"/></svg>