<svg fill="none" height="205" viewBox="0 0 180 205" width="180" xmlns="http://www.w3.org/2000/svg" xmlns:xlink="http://www.w3.org/1999/xlink"><filter id="a" color-interpolation-filters="sRGB" filterUnits="userSpaceOnUse" height="203.321" width="178.569" x=".674166" y=".945312"><feFlood flood-opacity="0" result="BackgroundImageFix"/><feColorMatrix in="SourceAlpha" result="hardAlpha" type="matrix" values="0 0 0 0 0 0 0 0 0 0 0 0 0 0 0 0 0 0 127 0"/><feOffset dx="-8.91292" dy="9.65566"/><feGaussianBlur stdDeviation="4.45646"/><feColorMatrix type="matrix" values="0 0 0 0 0.316369 0 0 0 0 0.366988 0 0 0 0 0.353496 0 0 0 0.25741 0"/><feBlend in2="BackgroundImageFix" mode="normal" result="effect1_dropShadow_557_424"/><feColorMatrix in="SourceAlpha" result="hardAlpha" type="matrix" values="0 0 0 0 0 0 0 0 0 0 0 0 0 0 0 0 0 0 127 0"/><feOffset dx="-2.22823" dy="5.1992"/><feGaussianBlur stdDeviation="1.48549"/><feColorMatrix type="matrix" values="0 0 0 0 0 0 0 0 0 0 0 0 0 0 0 0 0 0 0.144615 0"/><feBlend in2="effect1_dropShadow_557_424" mode="normal" result="effect2_dropShadow_557_424"/><feBlend in="SourceGraphic" in2="effect2_dropShadow_557_424" mode="normal" result="shape"/></filter><g filter="url(#a)"><path d="m98.5.945312 80 46.187988v92.3757l-80 46.188-80-46.188v-92.3757z" fill="#000"/></g><path d="m98.5.945312 80 46.187988v92.3757l-80 46.188-80-46.188v-92.3757z" fill="#f0f5f6"/><path clip-rule="evenodd" d="m131.711 122.557v-3.716l-2.953-2.056v-39.6845l1.741-.5588v-5.9773h4.349l-.5-5.5596-36.6247-10.7023-37.5719 10.7023v5.5596h4.1248l-.4867 5.9773 2.5408.5588v39.6845l-2.0541.765-1.2106 1.932v4.129h68.0474z" fill="#fff" fill-rule="evenodd"/><path d="m88.6797 96.252v22.782h17.0663v-22.782z" style="fill-rule:evenodd;clip-rule:evenodd;fill:#00e599;stroke:#000;stroke-width:1.2181;stroke-linejoin:round"/><path d="m103.583 115.195v-2.338c0-.234-.131-.423-.394-.57-.263-.146-.394-.219-.394-.219l-3.4915-1.666c.2753-.217.5089-.478.7005-.783.192-.304.346-.622.463-.951.117-.33.2-.654.25-.971.051-.317.076-.597.076-.839v-2.004c0-.334-.107-.668-.32-1.002-.212-.335-.4875-.635-.8254-.902-.3378-.268-.7215-.485-1.1512-.652-.4296-.167-.8654-.25-1.3076-.25-.4421 0-.88.083-1.3138.25s-.8196.384-1.1575.652c-.3378.267-.611.567-.8196.902-.2085.334-.3128.668-.3128 1.002v2.004c0 .217.025.482.0751.795s.1356.635.2565.964c.121.33.2774.654.4692.971.1919.317.4297.589.7133.814l-3.5161 1.666s-.1335.077-.4005.232c-.2669.154-.4004.34-.4004.557v2.338" fill="#003"/><path clip-rule="evenodd" d="m117.101 122.558h14.008v-3.556c0-.725-.524-1.316-1.17-1.316h-11.668c-.645 0-1.17.591-1.17 1.316zm14.489 1.656h-15.019c-.561 0-1.017-.447-1.017-.998v-3.865c0-1.685 1.399-3.055 3.119-3.055h10.815c1.72 0 3.119 1.37 3.119 3.055v3.865c0 .551-.455.998-1.017.998z" fill="#000" fill-rule="evenodd"/><path clip-rule="evenodd" d="m63.8087 122.558h14.0081v-3.556c0-.725-.5242-1.316-1.17-1.316h-11.6681c-.645 0-1.17.591-1.17 1.316zm14.4894 1.656h-15.0186c-.5613 0-1.0178-.447-1.0178-.998v-3.865c0-1.685 1.3996-3.055 3.1192-3.055h10.815c1.7204 0 3.1192 1.37 3.1192 3.055v3.865c0 .551-.4549.998-1.017.998z" fill="#000" fill-rule="evenodd"/><path clip-rule="evenodd" d="m60.9591 70.0197h72.8599v-4.3559l-36.4305-10.6617-36.4294 10.3571zm73.6079 1.8028h-74.3567c-.5821 0-1.0541-.472-1.0541-1.0541v-5.5878c0-.467.3084-.8781.7548-1.0097l37.179-10.9725c.1949-.0575.4021-.0575.597 0l37.179 10.9725c.448.1316.756.5427.756 1.0097v5.5878c0 .5821-.473 1.0541-1.055 1.0541z" fill="#000" fill-rule="evenodd"/><path clip-rule="evenodd" d="m115.422 66.0586h-36.067c-.5813 0-1.0532-.4092-1.0532-.9132 0-.5048.4719-.914 1.0532-.914h36.067c.582 0 1.054.4092 1.054.914 0 .504-.472.9132-1.054.9132z" fill="#000" fill-rule="evenodd"/><path clip-rule="evenodd" d="m135.699 124.384h-75.4895c-.5821 0-1.0533-.409-1.0533-.913 0-.505.4712-.914 1.0533-.914h75.4895c.581 0 1.053.409 1.053.914 0 .504-.472.913-1.053.913z" fill="#000" fill-rule="evenodd"/><g stroke="#000" stroke-linejoin="round" stroke-width="1.52262"><path d="m76.4691 70.9841h-12.181v6.0905h12.181z"/><path d="m130.066 70.9841h-12.181v6.0905h12.181z"/><path d="m114.84 106.917v-8.5264h-4.873v8.5264z"/><path d="m84.3867 106.917v-8.5264h-4.8724v8.5264z"/><path d="m114.84 89.5609v-8.5267h-4.873v8.5267z"/><path d="m99.918 89.5609v-8.5267h-4.8724v8.5267z"/><path d="m84.3867 89.5609v-8.5267h-4.8724v8.5267z"/><path d="m128.847 77.0762h-9.744v39.5878h9.744z"/><path d="m75.2516 77.0762h-9.7448v39.5878h9.7448z"/></g></svg>