<svg width="219" height="188" viewBox="0 0 219 188" fill="none" xmlns="http://www.w3.org/2000/svg">
<g filter="url(#filter0_dd_557_446)">
<path d="M201.49 33.6875L217.179 42.727V60.8061L201.49 69.8456L185.8 60.8061V42.727L201.49 33.6875Z" fill="black"/>
</g>
<path d="M201.49 33.6875L217.179 42.727V60.8061L201.49 69.8456L185.8 60.8061V42.727L201.49 33.6875Z" fill="#F0F5F6"/>
<path d="M207.011 57.3547V55.3412C207.011 55.1398 206.897 54.9761 206.67 54.8503C206.444 54.7244 206.33 54.6614 206.33 54.6614L203.316 53.2263C203.554 53.0393 203.756 52.8145 203.921 52.5519C204.087 52.2893 204.22 52.016 204.321 51.7318C204.422 51.4477 204.494 51.1689 204.537 50.8956C204.58 50.6222 204.602 50.3812 204.602 50.1726V48.4461C204.602 48.1584 204.51 47.8706 204.326 47.5829C204.143 47.2951 203.905 47.0362 203.613 46.806C203.322 46.5758 202.99 46.3887 202.62 46.2449C202.249 46.101 201.872 46.0291 201.491 46.0291C201.109 46.0291 200.731 46.101 200.356 46.2449C199.982 46.3887 199.649 46.5758 199.357 46.806C199.066 47.0362 198.83 47.2951 198.65 47.5829C198.47 47.8706 198.38 48.1584 198.38 48.4461V50.1726C198.38 50.3596 198.401 50.588 198.444 50.8578C198.488 51.1275 198.562 51.4045 198.666 51.6887C198.77 51.9728 198.905 52.2516 199.071 52.5249C199.237 52.7983 199.442 53.0321 199.687 53.2263L196.651 54.6614C196.651 54.6614 196.536 54.728 196.306 54.8611C196.075 54.9941 195.96 55.1542 195.96 55.3412V57.3547" fill="#000033"/>
<g filter="url(#filter1_dd_557_446)">
<path d="M142.697 0.367188L158.386 9.40671V27.4858L142.697 36.5253L127.007 27.4858V9.40671L142.697 0.367188Z" fill="black"/>
</g>
<path d="M142.697 0.367188L158.386 9.40671V27.4858L142.697 36.5253L127.007 27.4858V9.40671L142.697 0.367188Z" fill="#F0F5F6"/>
<path d="M148.218 24.0351V22.0216C148.218 21.8202 148.104 21.6566 147.877 21.5307C147.651 21.4048 147.537 21.3418 147.537 21.3418L144.523 19.9067C144.761 19.7197 144.963 19.4949 145.128 19.2323C145.294 18.9697 145.427 18.6964 145.528 18.4122C145.629 18.1281 145.701 17.8493 145.744 17.576C145.787 17.3026 145.809 17.0616 145.809 16.853V15.1265C145.809 14.8388 145.717 14.551 145.533 14.2633C145.35 13.9756 145.112 13.7166 144.82 13.4864C144.529 13.2562 144.197 13.0692 143.827 12.9253C143.456 12.7814 143.079 12.7095 142.698 12.7095C142.316 12.7095 141.938 12.7814 141.564 12.9253C141.189 13.0692 140.856 13.2562 140.564 13.4864C140.273 13.7166 140.037 13.9756 139.857 14.2633C139.677 14.551 139.587 14.8388 139.587 15.1265V16.853C139.587 17.04 139.608 17.2684 139.652 17.5382C139.695 17.808 139.769 18.0849 139.873 18.3691C139.977 18.6532 140.112 18.932 140.278 19.2053C140.444 19.4787 140.649 19.7125 140.894 19.9067L137.858 21.3418C137.858 21.3418 137.743 21.4084 137.513 21.5415C137.282 21.6746 137.167 21.8346 137.167 22.0216V24.0351" fill="#000033"/>
<g filter="url(#filter2_dd_557_446)">
<path d="M104.714 0.367188L120.404 9.40671V27.4858L104.714 36.5253L89.0244 27.4858V9.40671L104.714 0.367188Z" fill="black"/>
</g>
<path d="M104.714 0.367188L120.404 9.40671V27.4858L104.714 36.5253L89.0244 27.4858V9.40671L104.714 0.367188Z" fill="#F0F5F6"/>
<path d="M110.235 24.0351V22.0216C110.235 21.8202 110.122 21.6566 109.895 21.5307C109.668 21.4048 109.555 21.3418 109.555 21.3418L106.541 19.9067C106.779 19.7197 106.98 19.4949 107.146 19.2323C107.311 18.9697 107.445 18.6964 107.546 18.4122C107.646 18.1281 107.718 17.8493 107.762 17.576C107.805 17.3026 107.826 17.0616 107.826 16.853V15.1265C107.826 14.8388 107.735 14.551 107.551 14.2633C107.367 13.9756 107.13 13.7166 106.838 13.4864C106.546 13.2562 106.215 13.0692 105.844 12.9253C105.473 12.7814 105.097 12.7095 104.715 12.7095C104.334 12.7095 103.956 12.7814 103.581 12.9253C103.207 13.0692 102.874 13.2562 102.582 13.4864C102.29 13.7166 102.054 13.9756 101.874 14.2633C101.694 14.551 101.604 14.8388 101.604 15.1265V16.853C101.604 17.04 101.626 17.2684 101.669 17.5382C101.712 17.808 101.786 18.0849 101.891 18.3691C101.995 18.6532 102.13 18.932 102.296 19.2053C102.461 19.4787 102.667 19.7125 102.911 19.9067L99.8759 21.3418C99.8759 21.3418 99.7607 21.4084 99.5302 21.5415C99.2998 21.6746 99.1846 21.8346 99.1846 22.0216V24.0351" fill="#000033"/>
<g filter="url(#filter3_dd_557_446)">
<path d="M182.888 67.3582L198.578 76.3977V94.4767L182.888 103.516L167.198 94.4767V76.3977L182.888 67.3582Z" fill="black"/>
</g>
<path d="M182.888 67.3582L198.578 76.3977V94.4767L182.888 103.516L167.198 94.4767V76.3977L182.888 67.3582Z" fill="#F0F5F6"/>
<path d="M188.408 91.0247V89.0112C188.408 88.8097 188.295 88.6461 188.068 88.5202C187.841 88.3943 187.728 88.3314 187.728 88.3314L184.714 86.8962C184.951 86.7092 185.153 86.4844 185.319 86.2218C185.484 85.9592 185.618 85.6859 185.718 85.4017C185.819 85.1176 185.891 84.8388 185.934 84.5655C185.978 84.2921 185.999 84.0511 185.999 83.8425V82.116C185.999 81.8283 185.907 81.5405 185.724 81.2528C185.54 80.9651 185.302 80.7061 185.011 80.4759C184.719 80.2457 184.388 80.0587 184.017 79.9148C183.646 79.7709 183.27 79.699 182.888 79.699C182.507 79.699 182.128 79.7709 181.754 79.9148C181.379 80.0587 181.046 80.2457 180.755 80.4759C180.463 80.7061 180.227 80.9651 180.047 81.2528C179.867 81.5405 179.777 81.8283 179.777 82.116V83.8425C179.777 84.0295 179.799 84.2579 179.842 84.5277C179.885 84.7975 179.959 85.0744 180.063 85.3586C180.168 85.6427 180.303 85.9215 180.468 86.1948C180.634 86.4682 180.839 86.702 181.084 86.8962L178.049 88.3314C178.049 88.3314 177.934 88.3979 177.703 88.531C177.473 88.6641 177.357 88.8241 177.357 89.0112V91.0247" fill="#000033"/>
<g filter="url(#filter4_dd_557_446)">
<path d="M164.107 102.159L179.796 111.199V129.278L164.107 138.317L148.417 129.278V111.199L164.107 102.159Z" fill="black"/>
</g>
<path d="M164.107 102.159L179.796 111.199V129.278L164.107 138.317L148.417 129.278V111.199L164.107 102.159Z" fill="#F0F5F6"/>
<path d="M169.627 125.823V123.81C169.627 123.609 169.513 123.445 169.287 123.319C169.06 123.193 168.946 123.13 168.946 123.13L165.933 121.695C166.17 121.508 166.372 121.283 166.537 121.021C166.703 120.758 166.836 120.485 166.937 120.201C167.038 119.916 167.11 119.638 167.153 119.364C167.196 119.091 167.218 118.85 167.218 118.641V116.915C167.218 116.627 167.126 116.339 166.943 116.052C166.759 115.764 166.521 115.505 166.23 115.275C165.938 115.045 165.607 114.857 165.236 114.714C164.865 114.57 164.489 114.498 164.107 114.498C163.725 114.498 163.347 114.57 162.973 114.714C162.598 114.857 162.265 115.045 161.973 115.275C161.682 115.505 161.446 115.764 161.266 116.052C161.086 116.339 160.996 116.627 160.996 116.915V118.641C160.996 118.828 161.017 119.057 161.061 119.327C161.104 119.596 161.178 119.873 161.282 120.157C161.387 120.442 161.522 120.72 161.687 120.994C161.853 121.267 162.058 121.501 162.303 121.695L159.268 123.13C159.268 123.13 159.152 123.197 158.922 123.33C158.691 123.463 158.576 123.623 158.576 123.81V125.823" fill="#000033"/>
<g filter="url(#filter5_dd_557_446)">
<path d="M49.2756 102.159L64.9653 111.199V129.278L49.2756 138.317L33.5859 129.278V111.199L49.2756 102.159Z" fill="black"/>
</g>
<path d="M49.2756 102.159L64.9653 111.199V129.278L49.2756 138.317L33.5859 129.278V111.199L49.2756 102.159Z" fill="#F0F5F6"/>
<path d="M54.7949 125.823V123.81C54.7949 123.609 54.6814 123.445 54.4546 123.319C54.2277 123.193 54.1143 123.13 54.1143 123.13L51.1005 121.695C51.3381 121.508 51.5398 121.283 51.7054 121.021C51.871 120.758 52.0043 120.485 52.1051 120.201C52.2059 119.916 52.2779 119.638 52.3211 119.364C52.3644 119.091 52.386 118.85 52.386 118.641V116.915C52.386 116.627 52.2941 116.339 52.1105 116.052C51.9269 115.764 51.6892 115.505 51.3976 115.275C51.1059 115.045 50.7746 114.857 50.4037 114.714C50.0329 114.57 49.6566 114.498 49.2749 114.498C48.8932 114.498 48.5151 114.57 48.1407 114.714C47.7662 114.857 47.4331 115.045 47.1415 115.275C46.8498 115.505 46.6139 115.764 46.4339 116.052C46.2539 116.339 46.1638 116.627 46.1638 116.915V118.641C46.1638 118.828 46.1855 119.057 46.2287 119.327C46.2719 119.596 46.3457 119.873 46.4501 120.157C46.5545 120.442 46.6896 120.72 46.8552 120.994C47.0208 121.267 47.2261 121.501 47.4709 121.695L44.4355 123.13C44.4355 123.13 44.3203 123.197 44.0898 123.33C43.8594 123.463 43.7441 123.623 43.7441 123.81V125.823" fill="#000033"/>
<g filter="url(#filter6_dd_557_446)">
<path d="M163.013 32.9856L178.703 42.0251V60.1042L163.013 69.1437L147.323 60.1042V42.0251L163.013 32.9856Z" fill="black"/>
</g>
<path d="M163.013 32.9856L178.703 42.0251V60.1042L163.013 69.1437L147.323 60.1042V42.0251L163.013 32.9856Z" fill="#F0F5F6"/>
<path d="M168.534 56.6494V54.6359C168.534 54.4345 168.421 54.2708 168.194 54.1449C167.967 54.019 167.854 53.9561 167.854 53.9561L164.84 52.521C165.077 52.3339 165.279 52.1091 165.445 51.8466C165.61 51.584 165.744 51.3106 165.844 51.0265C165.945 50.7423 166.017 50.4636 166.06 50.1902C166.104 49.9169 166.125 49.6759 166.125 49.4673V47.7408C166.125 47.453 166.033 47.1653 165.85 46.8776C165.666 46.5898 165.428 46.3308 165.137 46.1006C164.845 45.8704 164.514 45.6834 164.143 45.5395C163.772 45.3957 163.396 45.3237 163.014 45.3237C162.632 45.3237 162.254 45.3957 161.88 45.5395C161.505 45.6834 161.172 45.8704 160.881 46.1006C160.589 46.3308 160.353 46.5898 160.173 46.8776C159.993 47.1653 159.903 47.453 159.903 47.7408V49.4673C159.903 49.6543 159.925 49.8827 159.968 50.1525C160.011 50.4222 160.085 50.6992 160.189 50.9833C160.294 51.2675 160.429 51.5462 160.594 51.8196C160.76 52.093 160.965 52.3267 161.21 52.521L158.175 53.9561C158.175 53.9561 158.06 54.0226 157.829 54.1557C157.599 54.2888 157.483 54.4489 157.483 54.6359V56.6494" fill="#000033"/>
<g filter="url(#filter7_dd_557_446)">
<path d="M145.346 136.117L161.036 145.157V163.236L145.346 172.276L129.656 163.236V145.157L145.346 136.117Z" fill="black"/>
</g>
<path d="M145.346 136.117L161.036 145.157V163.236L145.346 172.276L129.656 163.236V145.157L145.346 136.117Z" fill="#F0F5F6"/>
<path d="M150.867 159.783V157.769C150.867 157.568 150.754 157.404 150.527 157.278C150.3 157.152 150.187 157.089 150.187 157.089L147.173 155.654C147.41 155.467 147.612 155.242 147.778 154.98C147.943 154.717 148.077 154.444 148.177 154.16C148.278 153.876 148.35 153.597 148.393 153.324C148.437 153.05 148.458 152.809 148.458 152.601V150.874C148.458 150.586 148.366 150.299 148.183 150.011C147.999 149.723 147.761 149.464 147.47 149.234C147.178 149.004 146.847 148.817 146.476 148.673C146.105 148.529 145.729 148.457 145.347 148.457C144.965 148.457 144.587 148.529 144.213 148.673C143.838 148.817 143.505 149.004 143.214 149.234C142.922 149.464 142.686 149.723 142.506 150.011C142.326 150.299 142.236 150.586 142.236 150.874V152.601C142.236 152.788 142.258 153.016 142.301 153.286C142.344 153.556 142.418 153.832 142.522 154.117C142.627 154.401 142.762 154.68 142.927 154.953C143.093 155.226 143.298 155.46 143.543 155.654L140.508 157.089C140.508 157.089 140.393 157.156 140.162 157.289C139.932 157.422 139.816 157.582 139.816 157.769V159.783" fill="#000033"/>
<g filter="url(#filter8_dd_557_446)">
<path d="M107.364 136.117L123.053 145.157V163.236L107.364 172.276L91.6738 163.236V145.157L107.364 136.117Z" fill="black"/>
</g>
<path d="M107.364 136.117L123.053 145.157V163.236L107.364 172.276L91.6738 163.236V145.157L107.364 136.117Z" fill="#F0F5F6"/>
<path d="M112.885 159.783V157.769C112.885 157.568 112.771 157.404 112.544 157.278C112.318 157.152 112.204 157.089 112.204 157.089L109.19 155.654C109.428 155.467 109.63 155.242 109.795 154.98C109.961 154.717 110.094 154.444 110.195 154.16C110.296 153.876 110.368 153.597 110.411 153.324C110.454 153.05 110.476 152.809 110.476 152.601V150.874C110.476 150.586 110.384 150.299 110.2 150.011C110.017 149.723 109.779 149.464 109.487 149.234C109.196 149.004 108.864 148.817 108.494 148.673C108.123 148.529 107.746 148.457 107.365 148.457C106.983 148.457 106.605 148.529 106.231 148.673C105.856 148.817 105.523 149.004 105.231 149.234C104.94 149.464 104.704 149.723 104.524 150.011C104.344 150.299 104.254 150.586 104.254 150.874V152.601C104.254 152.788 104.275 153.016 104.319 153.286C104.362 153.556 104.436 153.832 104.54 154.117C104.644 154.401 104.779 154.68 104.945 154.953C105.111 155.226 105.316 155.46 105.561 155.654L102.525 157.089C102.525 157.089 102.41 157.156 102.18 157.289C101.949 157.422 101.834 157.582 101.834 157.769V159.783" fill="#000033"/>
<g filter="url(#filter9_dd_557_446)">
<path d="M69.3811 136.117L85.0708 145.157V163.236L69.3811 172.276L53.6914 163.236V145.157L69.3811 136.117Z" fill="black"/>
</g>
<path d="M69.3811 136.117L85.0708 145.157V163.236L69.3811 172.276L53.6914 163.236V145.157L69.3811 136.117Z" fill="#F0F5F6"/>
<path d="M74.9023 159.783V157.769C74.9023 157.568 74.7889 157.404 74.562 157.278C74.3352 157.152 74.2217 157.089 74.2217 157.089L71.2079 155.654C71.4456 155.467 71.6472 155.242 71.8128 154.98C71.9785 154.717 72.1117 154.444 72.2125 154.16C72.3133 153.876 72.3854 153.597 72.4286 153.324C72.4718 153.05 72.4934 152.809 72.4934 152.601V150.874C72.4934 150.586 72.4016 150.299 72.2179 150.011C72.0343 149.723 71.7966 149.464 71.505 149.234C71.2133 149.004 70.882 148.817 70.5112 148.673C70.1403 148.529 69.764 148.457 69.3823 148.457C69.0006 148.457 68.6226 148.529 68.2481 148.673C67.8736 148.817 67.5405 149.004 67.2489 149.234C66.9572 149.464 66.7214 149.723 66.5413 150.011C66.3613 150.299 66.2713 150.586 66.2713 150.874V152.601C66.2713 152.788 66.2929 153.016 66.3361 153.286C66.3793 153.556 66.4531 153.832 66.5575 154.117C66.662 154.401 66.797 154.68 66.9626 154.953C67.1283 155.226 67.3335 155.46 67.5783 155.654L64.5429 157.089C64.5429 157.089 64.4277 157.156 64.1972 157.289C63.9668 157.422 63.8516 157.582 63.8516 157.769V159.783" fill="#000033"/>
<g filter="url(#filter10_dd_557_446)">
<path d="M66.2903 0.367188L81.98 9.40671V27.4858L66.2903 36.5253L50.6006 27.4858V9.40671L66.2903 0.367188Z" fill="black"/>
</g>
<path d="M66.2903 0.367188L81.98 9.40671V27.4858L66.2903 36.5253L50.6006 27.4858V9.40671L66.2903 0.367188Z" fill="#F0F5F6"/>
<path d="M71.8095 24.0351V22.0216C71.8095 21.8202 71.6961 21.6566 71.4692 21.5307C71.2424 21.4048 71.129 21.3418 71.129 21.3418L68.1151 19.9067C68.3528 19.7197 68.5544 19.4949 68.7201 19.2323C68.8857 18.9697 69.0189 18.6964 69.1197 18.4122C69.2206 18.1281 69.2926 17.8493 69.3358 17.576C69.379 17.3026 69.4006 17.0616 69.4006 16.853V15.1265C69.4006 14.8388 69.3088 14.551 69.1251 14.2633C68.9415 13.9756 68.7039 13.7166 68.4122 13.4864C68.1205 13.2562 67.7893 13.0692 67.4184 12.9253C67.0475 12.7814 66.6712 12.7095 66.2896 12.7095C65.9079 12.7095 65.5298 12.7814 65.1553 12.9253C64.7808 13.0692 64.4478 13.2562 64.1561 13.4864C63.8644 13.7166 63.6286 13.9756 63.4486 14.2633C63.2685 14.551 63.1785 14.8388 63.1785 15.1265V16.853C63.1785 17.04 63.2001 17.2684 63.2433 17.5382C63.2865 17.808 63.3603 18.0849 63.4648 18.3691C63.5692 18.6532 63.7042 18.932 63.8698 19.2053C64.0355 19.4787 64.2407 19.7125 64.4856 19.9067L61.4501 21.3418C61.4501 21.3418 61.3349 21.4084 61.1045 21.5415C60.874 21.6746 60.7588 21.8346 60.7588 22.0216V24.0351" fill="#000033"/>
<g filter="url(#filter11_dd_557_446)">
<path d="M29.1897 67.3582L44.8794 76.3977V94.4767L29.1897 103.516L13.5 94.4767V76.3977L29.1897 67.3582Z" fill="black"/>
</g>
<path d="M29.1897 67.3582L44.8794 76.3977V94.4767L29.1897 103.516L13.5 94.4767V76.3977L29.1897 67.3582Z" fill="#F0F5F6"/>
<path d="M34.0507 91.0247V89.0112C34.0507 88.8097 33.9373 88.6461 33.7105 88.5202C33.4836 88.3943 33.3702 88.3314 33.3702 88.3314L30.3563 86.8962C30.594 86.7092 30.7956 86.4844 30.9613 86.2218C31.1269 85.9592 31.2601 85.6859 31.361 85.4017C31.4618 85.1176 31.5338 84.8388 31.577 84.5655C31.6202 84.2921 31.6418 84.0511 31.6418 83.8425V82.116C31.6418 81.8283 31.55 81.5405 31.3664 81.2528C31.1827 80.9651 30.9451 80.7061 30.6534 80.4759C30.3617 80.2457 30.0305 80.0587 29.6596 79.9148C29.2887 79.7709 28.9124 79.699 28.5308 79.699C28.1491 79.699 27.771 79.7709 27.3965 79.9148C27.022 80.0587 26.689 80.2457 26.3973 80.4759C26.1057 80.7061 25.8698 80.9651 25.6898 81.2528C25.5097 81.5405 25.4197 81.8283 25.4197 82.116V83.8425C25.4197 84.0295 25.4413 84.2579 25.4845 84.5277C25.5277 84.7975 25.6015 85.0744 25.706 85.3586C25.8104 85.6427 25.9454 85.9215 26.1111 86.1948C26.2767 86.4682 26.4819 86.702 26.7268 86.8962L23.6913 88.3314C23.6913 88.3314 23.5761 88.3979 23.3457 88.531C23.1152 88.6641 23 88.8241 23 89.0112V91.0247" fill="#000033"/>
<g filter="url(#filter12_dd_557_446)">
<path d="M47.7395 32.9856L63.4292 42.0251V60.1042L47.7395 69.1437L32.0498 60.1042V42.0251L47.7395 32.9856Z" fill="black"/>
</g>
<path d="M47.7395 32.9856L63.4292 42.0251V60.1042L47.7395 69.1437L32.0498 60.1042V42.0251L47.7395 32.9856Z" fill="#F0F5F6"/>
<path d="M52.8183 56.6494V54.6359C52.8183 54.4345 52.7049 54.2708 52.478 54.1449C52.2512 54.019 52.1378 53.9561 52.1378 53.9561L49.1239 52.521C49.3616 52.3339 49.5632 52.1091 49.7289 51.8466C49.8945 51.584 50.0277 51.3106 50.1285 51.0265C50.2294 50.7423 50.3014 50.4636 50.3446 50.1902C50.3878 49.9169 50.4094 49.6759 50.4094 49.4673V47.7408C50.4094 47.453 50.3176 47.1653 50.1339 46.8776C49.9503 46.5898 49.7126 46.3308 49.421 46.1006C49.1293 45.8704 48.7981 45.6834 48.4272 45.5395C48.0563 45.3957 47.68 45.3237 47.2983 45.3237C46.9167 45.3237 46.5386 45.3957 46.1641 45.5395C45.7896 45.6834 45.4566 45.8704 45.1649 46.1006C44.8732 46.3308 44.6374 46.5898 44.4573 46.8776C44.2773 47.1653 44.1873 47.453 44.1873 47.7408V49.4673C44.1873 49.6543 44.2089 49.8827 44.2521 50.1525C44.2953 50.4222 44.3691 50.6992 44.4735 50.9833C44.578 51.2675 44.713 51.5462 44.8786 51.8196C45.0443 52.093 45.2495 52.3267 45.4944 52.521L42.4589 53.9561C42.4589 53.9561 42.3437 54.0226 42.1133 54.1557C41.8828 54.2888 41.7676 54.4489 41.7676 54.6359V56.6494" fill="#000033"/>
<g filter="url(#filter13_dd_557_446)">
<path d="M201.752 102.159L217.442 111.199V129.278L201.752 138.317L186.062 129.278V111.199L201.752 102.159Z" fill="black"/>
</g>
<path d="M201.752 102.159L217.442 111.199V129.278L201.752 138.317L186.062 129.278V111.199L201.752 102.159Z" fill="#F0F5F6"/>
<path d="M207.274 125.823V123.81C207.274 123.609 207.161 123.445 206.934 123.319C206.707 123.193 206.594 123.13 206.594 123.13L203.58 121.695C203.818 121.508 204.019 121.283 204.185 121.021C204.351 120.758 204.484 120.485 204.585 120.201C204.685 119.916 204.757 119.638 204.801 119.364C204.844 119.091 204.865 118.85 204.865 118.641V116.915C204.865 116.627 204.774 116.339 204.59 116.052C204.406 115.764 204.169 115.505 203.877 115.275C203.585 115.045 203.254 114.857 202.883 114.714C202.512 114.57 202.136 114.498 201.754 114.498C201.373 114.498 200.995 114.57 200.62 114.714C200.246 114.857 199.913 115.045 199.621 115.275C199.329 115.505 199.093 115.764 198.913 116.052C198.733 116.339 198.643 116.627 198.643 116.915V118.641C198.643 118.828 198.665 119.057 198.708 119.327C198.751 119.596 198.825 119.873 198.93 120.157C199.034 120.442 199.169 120.72 199.335 120.994C199.5 121.267 199.706 121.501 199.95 121.695L196.915 123.13C196.915 123.13 196.8 123.197 196.569 123.33C196.339 123.463 196.224 123.623 196.224 123.81V125.823" fill="#000033"/>
<g filter="url(#filter14_dd_557_446)">
<path d="M86.1663 32.9856L101.856 42.0251V60.1042L86.1663 69.1437L70.4766 60.1042V42.0251L86.1663 32.9856Z" fill="black"/>
</g>
<path d="M86.1663 32.9856L101.856 42.0251V60.1042L86.1663 69.1437L70.4766 60.1042V42.0251L86.1663 32.9856Z" fill="#F0F5F6"/>
<path d="M91.6874 56.6494V54.6359C91.6874 54.4345 91.574 54.2708 91.3472 54.1449C91.1203 54.019 91.0069 53.9561 91.0069 53.9561L87.9931 52.521C88.2307 52.3339 88.4324 52.1091 88.598 51.8466C88.7636 51.584 88.8969 51.3106 88.9977 51.0265C89.0985 50.7423 89.1705 50.4636 89.2137 50.1902C89.2569 49.9169 89.2785 49.6759 89.2785 49.4673V47.7408C89.2785 47.453 89.1867 47.1653 89.0031 46.8776C88.8194 46.5898 88.5818 46.3308 88.2901 46.1006C87.9985 45.8704 87.6672 45.6834 87.2963 45.5395C86.9254 45.3957 86.5492 45.3237 86.1675 45.3237C85.7858 45.3237 85.4077 45.3957 85.0332 45.5395C84.6588 45.6834 84.3257 45.8704 84.034 46.1006C83.7424 46.3308 83.5065 46.5898 83.3265 46.8776C83.1464 47.1653 83.0564 47.453 83.0564 47.7408V49.4673C83.0564 49.6543 83.078 49.8827 83.1212 50.1525C83.1645 50.4222 83.2383 50.6992 83.3427 50.9833C83.4471 51.2675 83.5821 51.5462 83.7478 51.8196C83.9134 52.093 84.1187 52.3267 84.3635 52.521L81.3281 53.9561C81.3281 53.9561 81.2128 54.0226 80.9824 54.1557C80.7519 54.2888 80.6367 54.4489 80.6367 54.6359V56.6494" fill="#00E599"/>
<g filter="url(#filter15_dd_557_446)">
<path d="M124.589 32.9856L140.279 42.0251V60.1042L124.589 69.1437L108.899 60.1042V42.0251L124.589 32.9856Z" fill="black"/>
</g>
<path d="M124.589 32.9856L140.279 42.0251V60.1042L124.589 69.1437L108.899 60.1042V42.0251L124.589 32.9856Z" fill="#F0F5F6"/>
<path d="M130.11 56.6494V54.6359C130.11 54.4345 129.997 54.2708 129.77 54.1449C129.543 54.019 129.43 53.9561 129.43 53.9561L126.416 52.521C126.654 52.3339 126.855 52.1091 127.021 51.8466C127.186 51.584 127.32 51.3106 127.421 51.0265C127.521 50.7423 127.593 50.4636 127.637 50.1902C127.68 49.9169 127.701 49.6759 127.701 49.4673V47.7408C127.701 47.453 127.61 47.1653 127.426 46.8776C127.242 46.5898 127.005 46.3308 126.713 46.1006C126.421 45.8704 126.09 45.6834 125.719 45.5395C125.348 45.3957 124.972 45.3237 124.59 45.3237C124.209 45.3237 123.831 45.3957 123.456 45.5395C123.082 45.6834 122.749 45.8704 122.457 46.1006C122.165 46.3308 121.929 46.5898 121.749 46.8776C121.569 47.1653 121.479 47.453 121.479 47.7408V49.4673C121.479 49.6543 121.501 49.8827 121.544 50.1525C121.587 50.4222 121.661 50.6992 121.766 50.9833C121.87 51.2675 122.005 51.5462 122.171 51.8196C122.336 52.093 122.542 52.3267 122.786 52.521L119.751 53.9561C119.751 53.9561 119.636 54.0226 119.405 54.1557C119.175 54.2888 119.06 54.4489 119.06 54.6359V56.6494" fill="#00E599"/>
<g filter="url(#filter16_dd_557_446)">
<path d="M67.6135 67.3582L83.3032 76.3977V94.4767L67.6135 103.516L51.9238 94.4767V76.3977L67.6135 67.3582Z" fill="black"/>
</g>
<path d="M67.6135 67.3582L83.3032 76.3977V94.4767L67.6135 103.516L51.9238 94.4767V76.3977L67.6135 67.3582Z" fill="#F0F5F6"/>
<path d="M73.1347 91.0247V89.0112C73.1347 88.8097 73.0213 88.6461 72.7944 88.5202C72.5676 88.3943 72.4542 88.3314 72.4542 88.3314L69.4403 86.8962C69.678 86.7092 69.8796 86.4844 70.0453 86.2218C70.2109 85.9592 70.3441 85.6859 70.4449 85.4017C70.5458 85.1176 70.6178 84.8388 70.661 84.5655C70.7042 84.2921 70.7258 84.0511 70.7258 83.8425V82.116C70.7258 81.8283 70.634 81.5405 70.4503 81.2528C70.2667 80.9651 70.0291 80.7061 69.7374 80.4759C69.4457 80.2457 69.1145 80.0587 68.7436 79.9148C68.3727 79.7709 67.9964 79.699 67.6147 79.699C67.2331 79.699 66.855 79.7709 66.4805 79.9148C66.106 80.0587 65.773 80.2457 65.4813 80.4759C65.1896 80.7061 64.9538 80.9651 64.7738 81.2528C64.5937 81.5405 64.5037 81.8283 64.5037 82.116V83.8425C64.5037 84.0295 64.5253 84.2579 64.5685 84.5277C64.6117 84.7975 64.6855 85.0744 64.79 85.3586C64.8944 85.6427 65.0294 85.9215 65.195 86.1948C65.3607 86.4682 65.5659 86.702 65.8108 86.8962L62.7753 88.3314C62.7753 88.3314 62.6601 88.3979 62.4297 88.531C62.1992 88.6641 62.084 88.8241 62.084 89.0112V91.0247" fill="#00E599"/>
<g filter="url(#filter17_dd_557_446)">
<path d="M106.039 67.3582L121.729 76.3977V94.4767L106.039 103.516L90.3496 94.4767V76.3977L106.039 67.3582Z" fill="black"/>
</g>
<path d="M106.039 67.3582L121.729 76.3977V94.4767L106.039 103.516L90.3496 94.4767V76.3977L106.039 67.3582Z" fill="#F0F5F6"/>
<path d="M111.56 91.0247V89.0112C111.56 88.8097 111.447 88.6461 111.22 88.5202C110.993 88.3943 110.88 88.3314 110.88 88.3314L107.866 86.8962C108.104 86.7092 108.305 86.4844 108.471 86.2218C108.637 85.9592 108.77 85.6859 108.871 85.4017C108.972 85.1176 109.044 84.8388 109.087 84.5655C109.13 84.2921 109.152 84.0511 109.152 83.8425V82.116C109.152 81.8283 109.06 81.5405 108.876 81.2528C108.692 80.9651 108.455 80.7061 108.163 80.4759C107.872 80.2457 107.54 80.0587 107.169 79.9148C106.798 79.7709 106.422 79.699 106.041 79.699C105.659 79.699 105.281 79.7709 104.906 79.9148C104.532 80.0587 104.199 80.2457 103.907 80.4759C103.615 80.7061 103.38 80.9651 103.2 81.2528C103.019 81.5405 102.929 81.8283 102.929 82.116V83.8425C102.929 84.0295 102.951 84.2579 102.994 84.5277C103.037 84.7975 103.111 85.0744 103.216 85.3586C103.32 85.6427 103.455 85.9215 103.621 86.1948C103.786 86.4682 103.992 86.702 104.237 86.8962L101.201 88.3314C101.201 88.3314 101.086 88.3979 100.855 88.531C100.625 88.6641 100.51 88.8241 100.51 89.0112V91.0247" fill="#00E599"/>
<g filter="url(#filter18_dd_557_446)">
<path d="M144.463 67.3582L160.153 76.3977V94.4767L144.463 103.516L128.773 94.4767V76.3977L144.463 67.3582Z" fill="black"/>
</g>
<path d="M144.463 67.3582L160.153 76.3977V94.4767L144.463 103.516L128.773 94.4767V76.3977L144.463 67.3582Z" fill="#F0F5F6"/>
<path d="M149.984 91.0247V89.0112C149.984 88.8097 149.871 88.6461 149.644 88.5202C149.417 88.3943 149.304 88.3314 149.304 88.3314L146.29 86.8962C146.528 86.7092 146.729 86.4844 146.895 86.2218C147.061 85.9592 147.194 85.6859 147.295 85.4017C147.395 85.1176 147.467 84.8388 147.511 84.5655C147.554 84.2921 147.575 84.0511 147.575 83.8425V82.116C147.575 81.8283 147.484 81.5405 147.3 81.2528C147.116 80.9651 146.879 80.7061 146.587 80.4759C146.295 80.2457 145.964 80.0587 145.593 79.9148C145.222 79.7709 144.846 79.699 144.464 79.699C144.083 79.699 143.705 79.7709 143.33 79.9148C142.956 80.0587 142.623 80.2457 142.331 80.4759C142.039 80.7061 141.803 80.9651 141.623 81.2528C141.443 81.5405 141.353 81.8283 141.353 82.116V83.8425C141.353 84.0295 141.375 84.2579 141.418 84.5277C141.461 84.7975 141.535 85.0744 141.64 85.3586C141.744 85.6427 141.879 85.9215 142.045 86.1948C142.21 86.4682 142.416 86.702 142.66 86.8962L139.625 88.3314C139.625 88.3314 139.51 88.3979 139.279 88.531C139.049 88.6641 138.934 88.8241 138.934 89.0112V91.0247" fill="#00E599"/>
<g filter="url(#filter19_dd_557_446)">
<path d="M87.6995 102.159L103.389 111.199V129.278L87.6995 138.317L72.0098 129.278V111.199L87.6995 102.159Z" fill="black"/>
</g>
<path d="M87.6995 102.159L103.389 111.199V129.278L87.6995 138.317L72.0098 129.278V111.199L87.6995 102.159Z" fill="#F0F5F6"/>
<path d="M93.2197 125.823V123.81C93.2197 123.609 93.1062 123.445 92.8794 123.319C92.6525 123.193 92.5391 123.13 92.5391 123.13L89.5253 121.695C89.7629 121.508 89.9646 121.283 90.1302 121.021C90.2959 120.758 90.4291 120.485 90.5299 120.201C90.6307 119.916 90.7027 119.638 90.7459 119.364C90.7892 119.091 90.8108 118.85 90.8108 118.641V116.915C90.8108 116.627 90.7189 116.339 90.5353 116.052C90.3517 115.764 90.114 115.505 89.8224 115.275C89.5307 115.045 89.1994 114.857 88.8285 114.714C88.4577 114.57 88.0814 114.498 87.6997 114.498C87.318 114.498 86.9399 114.57 86.5655 114.714C86.191 114.857 85.8579 115.045 85.5663 115.275C85.2746 115.505 85.0387 115.764 84.8587 116.052C84.6787 116.339 84.5887 116.627 84.5887 116.915V118.641C84.5887 118.828 84.6103 119.057 84.6535 119.327C84.6967 119.596 84.7705 119.873 84.8749 120.157C84.9793 120.442 85.1144 120.72 85.28 120.994C85.4456 121.267 85.6509 121.501 85.8957 121.695L82.8603 123.13C82.8603 123.13 82.7451 123.197 82.5146 123.33C82.2842 123.463 82.1689 123.623 82.1689 123.81V125.823" fill="#00E599"/>
<g filter="url(#filter20_dd_557_446)">
<path d="M125.683 102.159L141.373 111.199V129.278L125.683 138.317L109.993 129.278V111.199L125.683 102.159Z" fill="black"/>
</g>
<path d="M125.683 102.159L141.373 111.199V129.278L125.683 138.317L109.993 129.278V111.199L125.683 102.159Z" fill="#F0F5F6"/>
<path d="M131.204 125.823V123.81C131.204 123.609 131.091 123.445 130.864 123.319C130.637 123.193 130.524 123.13 130.524 123.13L127.51 121.695C127.747 121.508 127.949 121.283 128.115 121.021C128.28 120.758 128.413 120.485 128.514 120.201C128.615 119.916 128.687 119.638 128.73 119.364C128.774 119.091 128.795 118.85 128.795 118.641V116.915C128.795 116.627 128.703 116.339 128.52 116.052C128.336 115.764 128.098 115.505 127.807 115.275C127.515 115.045 127.184 114.857 126.813 114.714C126.442 114.57 126.066 114.498 125.684 114.498C125.302 114.498 124.924 114.57 124.55 114.714C124.175 114.857 123.842 115.045 123.551 115.275C123.259 115.505 123.023 115.764 122.843 116.052C122.663 116.339 122.573 116.627 122.573 116.915V118.641C122.573 118.828 122.595 119.057 122.638 119.327C122.681 119.596 122.755 119.873 122.859 120.157C122.964 120.442 123.099 120.72 123.264 120.994C123.43 121.267 123.635 121.501 123.88 121.695L120.845 123.13C120.845 123.13 120.729 123.197 120.499 123.33C120.269 123.463 120.153 123.623 120.153 123.81V125.823" fill="#00E599"/>
<defs>
<filter id="filter0_dd_557_446" x="172.479" y="33.6875" width="45.6514" height="51.3822" filterUnits="userSpaceOnUse" color-interpolation-filters="sRGB">
<feFlood flood-opacity="0" result="BackgroundImageFix"/>
<feColorMatrix in="SourceAlpha" type="matrix" values="0 0 0 0 0 0 0 0 0 0 0 0 0 0 0 0 0 0 127 0" result="hardAlpha"/>
<feOffset dx="-6.66048" dy="8.56348"/>
<feGaussianBlur stdDeviation="3.33024"/>
<feColorMatrix type="matrix" values="0 0 0 0 0.316369 0 0 0 0 0.366988 0 0 0 0 0.353496 0 0 0 0.25741 0"/>
<feBlend mode="normal" in2="BackgroundImageFix" result="effect1_dropShadow_557_446"/>
<feColorMatrix in="SourceAlpha" type="matrix" values="0 0 0 0 0 0 0 0 0 0 0 0 0 0 0 0 0 0 127 0" result="hardAlpha"/>
<feOffset dx="-1.90299" dy="4.75749"/>
<feGaussianBlur stdDeviation="1.42725"/>
<feColorMatrix type="matrix" values="0 0 0 0 0 0 0 0 0 0 0 0 0 0 0 0 0 0 0.144615 0"/>
<feBlend mode="normal" in2="effect1_dropShadow_557_446" result="effect2_dropShadow_557_446"/>
<feBlend mode="normal" in="SourceGraphic" in2="effect2_dropShadow_557_446" result="shape"/>
</filter>
<filter id="filter1_dd_557_446" x="113.686" y="0.367188" width="45.6514" height="51.3822" filterUnits="userSpaceOnUse" color-interpolation-filters="sRGB">
<feFlood flood-opacity="0" result="BackgroundImageFix"/>
<feColorMatrix in="SourceAlpha" type="matrix" values="0 0 0 0 0 0 0 0 0 0 0 0 0 0 0 0 0 0 127 0" result="hardAlpha"/>
<feOffset dx="-6.66048" dy="8.56348"/>
<feGaussianBlur stdDeviation="3.33024"/>
<feColorMatrix type="matrix" values="0 0 0 0 0.316369 0 0 0 0 0.366988 0 0 0 0 0.353496 0 0 0 0.25741 0"/>
<feBlend mode="normal" in2="BackgroundImageFix" result="effect1_dropShadow_557_446"/>
<feColorMatrix in="SourceAlpha" type="matrix" values="0 0 0 0 0 0 0 0 0 0 0 0 0 0 0 0 0 0 127 0" result="hardAlpha"/>
<feOffset dx="-1.90299" dy="4.75749"/>
<feGaussianBlur stdDeviation="1.42725"/>
<feColorMatrix type="matrix" values="0 0 0 0 0 0 0 0 0 0 0 0 0 0 0 0 0 0 0.144615 0"/>
<feBlend mode="normal" in2="effect1_dropShadow_557_446" result="effect2_dropShadow_557_446"/>
<feBlend mode="normal" in="SourceGraphic" in2="effect2_dropShadow_557_446" result="shape"/>
</filter>
<filter id="filter2_dd_557_446" x="75.7035" y="0.367188" width="45.6514" height="51.3822" filterUnits="userSpaceOnUse" color-interpolation-filters="sRGB">
<feFlood flood-opacity="0" result="BackgroundImageFix"/>
<feColorMatrix in="SourceAlpha" type="matrix" values="0 0 0 0 0 0 0 0 0 0 0 0 0 0 0 0 0 0 127 0" result="hardAlpha"/>
<feOffset dx="-6.66048" dy="8.56348"/>
<feGaussianBlur stdDeviation="3.33024"/>
<feColorMatrix type="matrix" values="0 0 0 0 0.316369 0 0 0 0 0.366988 0 0 0 0 0.353496 0 0 0 0.25741 0"/>
<feBlend mode="normal" in2="BackgroundImageFix" result="effect1_dropShadow_557_446"/>
<feColorMatrix in="SourceAlpha" type="matrix" values="0 0 0 0 0 0 0 0 0 0 0 0 0 0 0 0 0 0 127 0" result="hardAlpha"/>
<feOffset dx="-1.90299" dy="4.75749"/>
<feGaussianBlur stdDeviation="1.42725"/>
<feColorMatrix type="matrix" values="0 0 0 0 0 0 0 0 0 0 0 0 0 0 0 0 0 0 0.144615 0"/>
<feBlend mode="normal" in2="effect1_dropShadow_557_446" result="effect2_dropShadow_557_446"/>
<feBlend mode="normal" in="SourceGraphic" in2="effect2_dropShadow_557_446" result="shape"/>
</filter>
<filter id="filter3_dd_557_446" x="153.877" y="67.3582" width="45.6514" height="51.3822" filterUnits="userSpaceOnUse" color-interpolation-filters="sRGB">
<feFlood flood-opacity="0" result="BackgroundImageFix"/>
<feColorMatrix in="SourceAlpha" type="matrix" values="0 0 0 0 0 0 0 0 0 0 0 0 0 0 0 0 0 0 127 0" result="hardAlpha"/>
<feOffset dx="-6.66048" dy="8.56348"/>
<feGaussianBlur stdDeviation="3.33024"/>
<feColorMatrix type="matrix" values="0 0 0 0 0.316369 0 0 0 0 0.366988 0 0 0 0 0.353496 0 0 0 0.25741 0"/>
<feBlend mode="normal" in2="BackgroundImageFix" result="effect1_dropShadow_557_446"/>
<feColorMatrix in="SourceAlpha" type="matrix" values="0 0 0 0 0 0 0 0 0 0 0 0 0 0 0 0 0 0 127 0" result="hardAlpha"/>
<feOffset dx="-1.90299" dy="4.75749"/>
<feGaussianBlur stdDeviation="1.42725"/>
<feColorMatrix type="matrix" values="0 0 0 0 0 0 0 0 0 0 0 0 0 0 0 0 0 0 0.144615 0"/>
<feBlend mode="normal" in2="effect1_dropShadow_557_446" result="effect2_dropShadow_557_446"/>
<feBlend mode="normal" in="SourceGraphic" in2="effect2_dropShadow_557_446" result="shape"/>
</filter>
<filter id="filter4_dd_557_446" x="135.096" y="102.159" width="45.6514" height="51.3822" filterUnits="userSpaceOnUse" color-interpolation-filters="sRGB">
<feFlood flood-opacity="0" result="BackgroundImageFix"/>
<feColorMatrix in="SourceAlpha" type="matrix" values="0 0 0 0 0 0 0 0 0 0 0 0 0 0 0 0 0 0 127 0" result="hardAlpha"/>
<feOffset dx="-6.66048" dy="8.56348"/>
<feGaussianBlur stdDeviation="3.33024"/>
<feColorMatrix type="matrix" values="0 0 0 0 0.316369 0 0 0 0 0.366988 0 0 0 0 0.353496 0 0 0 0.25741 0"/>
<feBlend mode="normal" in2="BackgroundImageFix" result="effect1_dropShadow_557_446"/>
<feColorMatrix in="SourceAlpha" type="matrix" values="0 0 0 0 0 0 0 0 0 0 0 0 0 0 0 0 0 0 127 0" result="hardAlpha"/>
<feOffset dx="-1.90299" dy="4.75749"/>
<feGaussianBlur stdDeviation="1.42725"/>
<feColorMatrix type="matrix" values="0 0 0 0 0 0 0 0 0 0 0 0 0 0 0 0 0 0 0.144615 0"/>
<feBlend mode="normal" in2="effect1_dropShadow_557_446" result="effect2_dropShadow_557_446"/>
<feBlend mode="normal" in="SourceGraphic" in2="effect2_dropShadow_557_446" result="shape"/>
</filter>
<filter id="filter5_dd_557_446" x="20.265" y="102.159" width="45.6514" height="51.3822" filterUnits="userSpaceOnUse" color-interpolation-filters="sRGB">
<feFlood flood-opacity="0" result="BackgroundImageFix"/>
<feColorMatrix in="SourceAlpha" type="matrix" values="0 0 0 0 0 0 0 0 0 0 0 0 0 0 0 0 0 0 127 0" result="hardAlpha"/>
<feOffset dx="-6.66048" dy="8.56348"/>
<feGaussianBlur stdDeviation="3.33024"/>
<feColorMatrix type="matrix" values="0 0 0 0 0.316369 0 0 0 0 0.366988 0 0 0 0 0.353496 0 0 0 0.25741 0"/>
<feBlend mode="normal" in2="BackgroundImageFix" result="effect1_dropShadow_557_446"/>
<feColorMatrix in="SourceAlpha" type="matrix" values="0 0 0 0 0 0 0 0 0 0 0 0 0 0 0 0 0 0 127 0" result="hardAlpha"/>
<feOffset dx="-1.90299" dy="4.75749"/>
<feGaussianBlur stdDeviation="1.42725"/>
<feColorMatrix type="matrix" values="0 0 0 0 0 0 0 0 0 0 0 0 0 0 0 0 0 0 0.144615 0"/>
<feBlend mode="normal" in2="effect1_dropShadow_557_446" result="effect2_dropShadow_557_446"/>
<feBlend mode="normal" in="SourceGraphic" in2="effect2_dropShadow_557_446" result="shape"/>
</filter>
<filter id="filter6_dd_557_446" x="134.002" y="32.9856" width="45.6514" height="51.3822" filterUnits="userSpaceOnUse" color-interpolation-filters="sRGB">
<feFlood flood-opacity="0" result="BackgroundImageFix"/>
<feColorMatrix in="SourceAlpha" type="matrix" values="0 0 0 0 0 0 0 0 0 0 0 0 0 0 0 0 0 0 127 0" result="hardAlpha"/>
<feOffset dx="-6.66048" dy="8.56348"/>
<feGaussianBlur stdDeviation="3.33024"/>
<feColorMatrix type="matrix" values="0 0 0 0 0.316369 0 0 0 0 0.366988 0 0 0 0 0.353496 0 0 0 0.25741 0"/>
<feBlend mode="normal" in2="BackgroundImageFix" result="effect1_dropShadow_557_446"/>
<feColorMatrix in="SourceAlpha" type="matrix" values="0 0 0 0 0 0 0 0 0 0 0 0 0 0 0 0 0 0 127 0" result="hardAlpha"/>
<feOffset dx="-1.90299" dy="4.75749"/>
<feGaussianBlur stdDeviation="1.42725"/>
<feColorMatrix type="matrix" values="0 0 0 0 0 0 0 0 0 0 0 0 0 0 0 0 0 0 0.144615 0"/>
<feBlend mode="normal" in2="effect1_dropShadow_557_446" result="effect2_dropShadow_557_446"/>
<feBlend mode="normal" in="SourceGraphic" in2="effect2_dropShadow_557_446" result="shape"/>
</filter>
<filter id="filter7_dd_557_446" x="116.335" y="136.117" width="45.6514" height="51.3822" filterUnits="userSpaceOnUse" color-interpolation-filters="sRGB">
<feFlood flood-opacity="0" result="BackgroundImageFix"/>
<feColorMatrix in="SourceAlpha" type="matrix" values="0 0 0 0 0 0 0 0 0 0 0 0 0 0 0 0 0 0 127 0" result="hardAlpha"/>
<feOffset dx="-6.66048" dy="8.56348"/>
<feGaussianBlur stdDeviation="3.33024"/>
<feColorMatrix type="matrix" values="0 0 0 0 0.316369 0 0 0 0 0.366988 0 0 0 0 0.353496 0 0 0 0.25741 0"/>
<feBlend mode="normal" in2="BackgroundImageFix" result="effect1_dropShadow_557_446"/>
<feColorMatrix in="SourceAlpha" type="matrix" values="0 0 0 0 0 0 0 0 0 0 0 0 0 0 0 0 0 0 127 0" result="hardAlpha"/>
<feOffset dx="-1.90299" dy="4.75749"/>
<feGaussianBlur stdDeviation="1.42725"/>
<feColorMatrix type="matrix" values="0 0 0 0 0 0 0 0 0 0 0 0 0 0 0 0 0 0 0.144615 0"/>
<feBlend mode="normal" in2="effect1_dropShadow_557_446" result="effect2_dropShadow_557_446"/>
<feBlend mode="normal" in="SourceGraphic" in2="effect2_dropShadow_557_446" result="shape"/>
</filter>
<filter id="filter8_dd_557_446" x="78.3529" y="136.117" width="45.6514" height="51.3822" filterUnits="userSpaceOnUse" color-interpolation-filters="sRGB">
<feFlood flood-opacity="0" result="BackgroundImageFix"/>
<feColorMatrix in="SourceAlpha" type="matrix" values="0 0 0 0 0 0 0 0 0 0 0 0 0 0 0 0 0 0 127 0" result="hardAlpha"/>
<feOffset dx="-6.66048" dy="8.56348"/>
<feGaussianBlur stdDeviation="3.33024"/>
<feColorMatrix type="matrix" values="0 0 0 0 0.316369 0 0 0 0 0.366988 0 0 0 0 0.353496 0 0 0 0.25741 0"/>
<feBlend mode="normal" in2="BackgroundImageFix" result="effect1_dropShadow_557_446"/>
<feColorMatrix in="SourceAlpha" type="matrix" values="0 0 0 0 0 0 0 0 0 0 0 0 0 0 0 0 0 0 127 0" result="hardAlpha"/>
<feOffset dx="-1.90299" dy="4.75749"/>
<feGaussianBlur stdDeviation="1.42725"/>
<feColorMatrix type="matrix" values="0 0 0 0 0 0 0 0 0 0 0 0 0 0 0 0 0 0 0.144615 0"/>
<feBlend mode="normal" in2="effect1_dropShadow_557_446" result="effect2_dropShadow_557_446"/>
<feBlend mode="normal" in="SourceGraphic" in2="effect2_dropShadow_557_446" result="shape"/>
</filter>
<filter id="filter9_dd_557_446" x="40.3704" y="136.117" width="45.6514" height="51.3822" filterUnits="userSpaceOnUse" color-interpolation-filters="sRGB">
<feFlood flood-opacity="0" result="BackgroundImageFix"/>
<feColorMatrix in="SourceAlpha" type="matrix" values="0 0 0 0 0 0 0 0 0 0 0 0 0 0 0 0 0 0 127 0" result="hardAlpha"/>
<feOffset dx="-6.66048" dy="8.56348"/>
<feGaussianBlur stdDeviation="3.33024"/>
<feColorMatrix type="matrix" values="0 0 0 0 0.316369 0 0 0 0 0.366988 0 0 0 0 0.353496 0 0 0 0.25741 0"/>
<feBlend mode="normal" in2="BackgroundImageFix" result="effect1_dropShadow_557_446"/>
<feColorMatrix in="SourceAlpha" type="matrix" values="0 0 0 0 0 0 0 0 0 0 0 0 0 0 0 0 0 0 127 0" result="hardAlpha"/>
<feOffset dx="-1.90299" dy="4.75749"/>
<feGaussianBlur stdDeviation="1.42725"/>
<feColorMatrix type="matrix" values="0 0 0 0 0 0 0 0 0 0 0 0 0 0 0 0 0 0 0.144615 0"/>
<feBlend mode="normal" in2="effect1_dropShadow_557_446" result="effect2_dropShadow_557_446"/>
<feBlend mode="normal" in="SourceGraphic" in2="effect2_dropShadow_557_446" result="shape"/>
</filter>
<filter id="filter10_dd_557_446" x="37.2796" y="0.367188" width="45.6514" height="51.3822" filterUnits="userSpaceOnUse" color-interpolation-filters="sRGB">
<feFlood flood-opacity="0" result="BackgroundImageFix"/>
<feColorMatrix in="SourceAlpha" type="matrix" values="0 0 0 0 0 0 0 0 0 0 0 0 0 0 0 0 0 0 127 0" result="hardAlpha"/>
<feOffset dx="-6.66048" dy="8.56348"/>
<feGaussianBlur stdDeviation="3.33024"/>
<feColorMatrix type="matrix" values="0 0 0 0 0.316369 0 0 0 0 0.366988 0 0 0 0 0.353496 0 0 0 0.25741 0"/>
<feBlend mode="normal" in2="BackgroundImageFix" result="effect1_dropShadow_557_446"/>
<feColorMatrix in="SourceAlpha" type="matrix" values="0 0 0 0 0 0 0 0 0 0 0 0 0 0 0 0 0 0 127 0" result="hardAlpha"/>
<feOffset dx="-1.90299" dy="4.75749"/>
<feGaussianBlur stdDeviation="1.42725"/>
<feColorMatrix type="matrix" values="0 0 0 0 0 0 0 0 0 0 0 0 0 0 0 0 0 0 0.144615 0"/>
<feBlend mode="normal" in2="effect1_dropShadow_557_446" result="effect2_dropShadow_557_446"/>
<feBlend mode="normal" in="SourceGraphic" in2="effect2_dropShadow_557_446" result="shape"/>
</filter>
<filter id="filter11_dd_557_446" x="0.179038" y="67.3582" width="45.6514" height="51.3822" filterUnits="userSpaceOnUse" color-interpolation-filters="sRGB">
<feFlood flood-opacity="0" result="BackgroundImageFix"/>
<feColorMatrix in="SourceAlpha" type="matrix" values="0 0 0 0 0 0 0 0 0 0 0 0 0 0 0 0 0 0 127 0" result="hardAlpha"/>
<feOffset dx="-6.66048" dy="8.56348"/>
<feGaussianBlur stdDeviation="3.33024"/>
<feColorMatrix type="matrix" values="0 0 0 0 0.316369 0 0 0 0 0.366988 0 0 0 0 0.353496 0 0 0 0.25741 0"/>
<feBlend mode="normal" in2="BackgroundImageFix" result="effect1_dropShadow_557_446"/>
<feColorMatrix in="SourceAlpha" type="matrix" values="0 0 0 0 0 0 0 0 0 0 0 0 0 0 0 0 0 0 127 0" result="hardAlpha"/>
<feOffset dx="-1.90299" dy="4.75749"/>
<feGaussianBlur stdDeviation="1.42725"/>
<feColorMatrix type="matrix" values="0 0 0 0 0 0 0 0 0 0 0 0 0 0 0 0 0 0 0.144615 0"/>
<feBlend mode="normal" in2="effect1_dropShadow_557_446" result="effect2_dropShadow_557_446"/>
<feBlend mode="normal" in="SourceGraphic" in2="effect2_dropShadow_557_446" result="shape"/>
</filter>
<filter id="filter12_dd_557_446" x="18.7288" y="32.9856" width="45.6514" height="51.3822" filterUnits="userSpaceOnUse" color-interpolation-filters="sRGB">
<feFlood flood-opacity="0" result="BackgroundImageFix"/>
<feColorMatrix in="SourceAlpha" type="matrix" values="0 0 0 0 0 0 0 0 0 0 0 0 0 0 0 0 0 0 127 0" result="hardAlpha"/>
<feOffset dx="-6.66048" dy="8.56348"/>
<feGaussianBlur stdDeviation="3.33024"/>
<feColorMatrix type="matrix" values="0 0 0 0 0.316369 0 0 0 0 0.366988 0 0 0 0 0.353496 0 0 0 0.25741 0"/>
<feBlend mode="normal" in2="BackgroundImageFix" result="effect1_dropShadow_557_446"/>
<feColorMatrix in="SourceAlpha" type="matrix" values="0 0 0 0 0 0 0 0 0 0 0 0 0 0 0 0 0 0 127 0" result="hardAlpha"/>
<feOffset dx="-1.90299" dy="4.75749"/>
<feGaussianBlur stdDeviation="1.42725"/>
<feColorMatrix type="matrix" values="0 0 0 0 0 0 0 0 0 0 0 0 0 0 0 0 0 0 0.144615 0"/>
<feBlend mode="normal" in2="effect1_dropShadow_557_446" result="effect2_dropShadow_557_446"/>
<feBlend mode="normal" in="SourceGraphic" in2="effect2_dropShadow_557_446" result="shape"/>
</filter>
<filter id="filter13_dd_557_446" x="172.742" y="102.159" width="45.6514" height="51.3822" filterUnits="userSpaceOnUse" color-interpolation-filters="sRGB">
<feFlood flood-opacity="0" result="BackgroundImageFix"/>
<feColorMatrix in="SourceAlpha" type="matrix" values="0 0 0 0 0 0 0 0 0 0 0 0 0 0 0 0 0 0 127 0" result="hardAlpha"/>
<feOffset dx="-6.66048" dy="8.56348"/>
<feGaussianBlur stdDeviation="3.33024"/>
<feColorMatrix type="matrix" values="0 0 0 0 0.316369 0 0 0 0 0.366988 0 0 0 0 0.353496 0 0 0 0.25741 0"/>
<feBlend mode="normal" in2="BackgroundImageFix" result="effect1_dropShadow_557_446"/>
<feColorMatrix in="SourceAlpha" type="matrix" values="0 0 0 0 0 0 0 0 0 0 0 0 0 0 0 0 0 0 127 0" result="hardAlpha"/>
<feOffset dx="-1.90299" dy="4.75749"/>
<feGaussianBlur stdDeviation="1.42725"/>
<feColorMatrix type="matrix" values="0 0 0 0 0 0 0 0 0 0 0 0 0 0 0 0 0 0 0.144615 0"/>
<feBlend mode="normal" in2="effect1_dropShadow_557_446" result="effect2_dropShadow_557_446"/>
<feBlend mode="normal" in="SourceGraphic" in2="effect2_dropShadow_557_446" result="shape"/>
</filter>
<filter id="filter14_dd_557_446" x="53.3496" y="32.9856" width="55.1663" height="63.7516" filterUnits="userSpaceOnUse" color-interpolation-filters="sRGB">
<feFlood flood-opacity="0" result="BackgroundImageFix"/>
<feColorMatrix in="SourceAlpha" type="matrix" values="0 0 0 0 0 0 0 0 0 0 0 0 0 0 0 0 0 0 127 0" result="hardAlpha"/>
<feOffset dx="-10.4665" dy="20.9329"/>
<feGaussianBlur stdDeviation="3.33024"/>
<feColorMatrix type="matrix" values="0 0 0 0 0.316369 0 0 0 0 0.366988 0 0 0 0 0.353496 0 0 0 0.25741 0"/>
<feBlend mode="normal" in2="BackgroundImageFix" result="effect1_dropShadow_557_446"/>
<feColorMatrix in="SourceAlpha" type="matrix" values="0 0 0 0 0 0 0 0 0 0 0 0 0 0 0 0 0 0 127 0" result="hardAlpha"/>
<feOffset dx="-2.85449" dy="9.51497"/>
<feGaussianBlur stdDeviation="4.75749"/>
<feColorMatrix type="matrix" values="0 0 0 0 0 0 0 0 0 0 0 0 0 0 0 0 0 0 0.144615 0"/>
<feBlend mode="normal" in2="effect1_dropShadow_557_446" result="effect2_dropShadow_557_446"/>
<feBlend mode="normal" in="SourceGraphic" in2="effect2_dropShadow_557_446" result="shape"/>
</filter>
<filter id="filter15_dd_557_446" x="91.7725" y="32.9856" width="55.1663" height="63.7516" filterUnits="userSpaceOnUse" color-interpolation-filters="sRGB">
<feFlood flood-opacity="0" result="BackgroundImageFix"/>
<feColorMatrix in="SourceAlpha" type="matrix" values="0 0 0 0 0 0 0 0 0 0 0 0 0 0 0 0 0 0 127 0" result="hardAlpha"/>
<feOffset dx="-10.4665" dy="20.9329"/>
<feGaussianBlur stdDeviation="3.33024"/>
<feColorMatrix type="matrix" values="0 0 0 0 0.316369 0 0 0 0 0.366988 0 0 0 0 0.353496 0 0 0 0.25741 0"/>
<feBlend mode="normal" in2="BackgroundImageFix" result="effect1_dropShadow_557_446"/>
<feColorMatrix in="SourceAlpha" type="matrix" values="0 0 0 0 0 0 0 0 0 0 0 0 0 0 0 0 0 0 127 0" result="hardAlpha"/>
<feOffset dx="-2.85449" dy="9.51497"/>
<feGaussianBlur stdDeviation="4.75749"/>
<feColorMatrix type="matrix" values="0 0 0 0 0 0 0 0 0 0 0 0 0 0 0 0 0 0 0.144615 0"/>
<feBlend mode="normal" in2="effect1_dropShadow_557_446" result="effect2_dropShadow_557_446"/>
<feBlend mode="normal" in="SourceGraphic" in2="effect2_dropShadow_557_446" result="shape"/>
</filter>
<filter id="filter16_dd_557_446" x="34.7969" y="67.3582" width="55.1663" height="63.7516" filterUnits="userSpaceOnUse" color-interpolation-filters="sRGB">
<feFlood flood-opacity="0" result="BackgroundImageFix"/>
<feColorMatrix in="SourceAlpha" type="matrix" values="0 0 0 0 0 0 0 0 0 0 0 0 0 0 0 0 0 0 127 0" result="hardAlpha"/>
<feOffset dx="-10.4665" dy="20.9329"/>
<feGaussianBlur stdDeviation="3.33024"/>
<feColorMatrix type="matrix" values="0 0 0 0 0.316369 0 0 0 0 0.366988 0 0 0 0 0.353496 0 0 0 0.25741 0"/>
<feBlend mode="normal" in2="BackgroundImageFix" result="effect1_dropShadow_557_446"/>
<feColorMatrix in="SourceAlpha" type="matrix" values="0 0 0 0 0 0 0 0 0 0 0 0 0 0 0 0 0 0 127 0" result="hardAlpha"/>
<feOffset dx="-2.85449" dy="9.51497"/>
<feGaussianBlur stdDeviation="4.75749"/>
<feColorMatrix type="matrix" values="0 0 0 0 0 0 0 0 0 0 0 0 0 0 0 0 0 0 0.144615 0"/>
<feBlend mode="normal" in2="effect1_dropShadow_557_446" result="effect2_dropShadow_557_446"/>
<feBlend mode="normal" in="SourceGraphic" in2="effect2_dropShadow_557_446" result="shape"/>
</filter>
<filter id="filter17_dd_557_446" x="73.2227" y="67.3582" width="55.1663" height="63.7516" filterUnits="userSpaceOnUse" color-interpolation-filters="sRGB">
<feFlood flood-opacity="0" result="BackgroundImageFix"/>
<feColorMatrix in="SourceAlpha" type="matrix" values="0 0 0 0 0 0 0 0 0 0 0 0 0 0 0 0 0 0 127 0" result="hardAlpha"/>
<feOffset dx="-10.4665" dy="20.9329"/>
<feGaussianBlur stdDeviation="3.33024"/>
<feColorMatrix type="matrix" values="0 0 0 0 0.316369 0 0 0 0 0.366988 0 0 0 0 0.353496 0 0 0 0.25741 0"/>
<feBlend mode="normal" in2="BackgroundImageFix" result="effect1_dropShadow_557_446"/>
<feColorMatrix in="SourceAlpha" type="matrix" values="0 0 0 0 0 0 0 0 0 0 0 0 0 0 0 0 0 0 127 0" result="hardAlpha"/>
<feOffset dx="-2.85449" dy="9.51497"/>
<feGaussianBlur stdDeviation="4.75749"/>
<feColorMatrix type="matrix" values="0 0 0 0 0 0 0 0 0 0 0 0 0 0 0 0 0 0 0.144615 0"/>
<feBlend mode="normal" in2="effect1_dropShadow_557_446" result="effect2_dropShadow_557_446"/>
<feBlend mode="normal" in="SourceGraphic" in2="effect2_dropShadow_557_446" result="shape"/>
</filter>
<filter id="filter18_dd_557_446" x="111.646" y="67.3582" width="55.1663" height="63.7516" filterUnits="userSpaceOnUse" color-interpolation-filters="sRGB">
<feFlood flood-opacity="0" result="BackgroundImageFix"/>
<feColorMatrix in="SourceAlpha" type="matrix" values="0 0 0 0 0 0 0 0 0 0 0 0 0 0 0 0 0 0 127 0" result="hardAlpha"/>
<feOffset dx="-10.4665" dy="20.9329"/>
<feGaussianBlur stdDeviation="3.33024"/>
<feColorMatrix type="matrix" values="0 0 0 0 0.316369 0 0 0 0 0.366988 0 0 0 0 0.353496 0 0 0 0.25741 0"/>
<feBlend mode="normal" in2="BackgroundImageFix" result="effect1_dropShadow_557_446"/>
<feColorMatrix in="SourceAlpha" type="matrix" values="0 0 0 0 0 0 0 0 0 0 0 0 0 0 0 0 0 0 127 0" result="hardAlpha"/>
<feOffset dx="-2.85449" dy="9.51497"/>
<feGaussianBlur stdDeviation="4.75749"/>
<feColorMatrix type="matrix" values="0 0 0 0 0 0 0 0 0 0 0 0 0 0 0 0 0 0 0.144615 0"/>
<feBlend mode="normal" in2="effect1_dropShadow_557_446" result="effect2_dropShadow_557_446"/>
<feBlend mode="normal" in="SourceGraphic" in2="effect2_dropShadow_557_446" result="shape"/>
</filter>
<filter id="filter19_dd_557_446" x="54.8828" y="102.159" width="55.1663" height="63.7516" filterUnits="userSpaceOnUse" color-interpolation-filters="sRGB">
<feFlood flood-opacity="0" result="BackgroundImageFix"/>
<feColorMatrix in="SourceAlpha" type="matrix" values="0 0 0 0 0 0 0 0 0 0 0 0 0 0 0 0 0 0 127 0" result="hardAlpha"/>
<feOffset dx="-10.4665" dy="20.9329"/>
<feGaussianBlur stdDeviation="3.33024"/>
<feColorMatrix type="matrix" values="0 0 0 0 0.316369 0 0 0 0 0.366988 0 0 0 0 0.353496 0 0 0 0.25741 0"/>
<feBlend mode="normal" in2="BackgroundImageFix" result="effect1_dropShadow_557_446"/>
<feColorMatrix in="SourceAlpha" type="matrix" values="0 0 0 0 0 0 0 0 0 0 0 0 0 0 0 0 0 0 127 0" result="hardAlpha"/>
<feOffset dx="-2.85449" dy="9.51497"/>
<feGaussianBlur stdDeviation="4.75749"/>
<feColorMatrix type="matrix" values="0 0 0 0 0 0 0 0 0 0 0 0 0 0 0 0 0 0 0.144615 0"/>
<feBlend mode="normal" in2="effect1_dropShadow_557_446" result="effect2_dropShadow_557_446"/>
<feBlend mode="normal" in="SourceGraphic" in2="effect2_dropShadow_557_446" result="shape"/>
</filter>
<filter id="filter20_dd_557_446" x="92.8662" y="102.159" width="55.1663" height="63.7516" filterUnits="userSpaceOnUse" color-interpolation-filters="sRGB">
<feFlood flood-opacity="0" result="BackgroundImageFix"/>
<feColorMatrix in="SourceAlpha" type="matrix" values="0 0 0 0 0 0 0 0 0 0 0 0 0 0 0 0 0 0 127 0" result="hardAlpha"/>
<feOffset dx="-10.4665" dy="20.9329"/>
<feGaussianBlur stdDeviation="3.33024"/>
<feColorMatrix type="matrix" values="0 0 0 0 0.316369 0 0 0 0 0.366988 0 0 0 0 0.353496 0 0 0 0.25741 0"/>
<feBlend mode="normal" in2="BackgroundImageFix" result="effect1_dropShadow_557_446"/>
<feColorMatrix in="SourceAlpha" type="matrix" values="0 0 0 0 0 0 0 0 0 0 0 0 0 0 0 0 0 0 127 0" result="hardAlpha"/>
<feOffset dx="-2.85449" dy="9.51497"/>
<feGaussianBlur stdDeviation="4.75749"/>
<feColorMatrix type="matrix" values="0 0 0 0 0 0 0 0 0 0 0 0 0 0 0 0 0 0 0.144615 0"/>
<feBlend mode="normal" in2="effect1_dropShadow_557_446" result="effect2_dropShadow_557_446"/>
<feBlend mode="normal" in="SourceGraphic" in2="effect2_dropShadow_557_446" result="shape"/>
</filter>
</defs>
</svg>
