<svg width="220" height="208" viewBox="0 0 220 208" fill="none" xmlns="http://www.w3.org/2000/svg">
<g filter="url(#filter0_dd_557_329)">
<path d="M154.373 0.975342L184.465 18.3485V53.0949L154.373 70.4681L124.282 53.0949V18.3485L154.373 0.975342Z" fill="black"/>
</g>
<path d="M154.373 0.975342L184.465 18.3485V53.0949L154.373 70.4681L124.282 53.0949V18.3485L154.373 0.975342Z" fill="#F0F5F6"/>
<path fill-rule="evenodd" clip-rule="evenodd" d="M137.246 29.2473V48.6336L154.236 58.4463V38.0555L137.246 29.2473Z" fill="white" stroke="#000033" stroke-width="1.03569" stroke-linejoin="round"/>
<path fill-rule="evenodd" clip-rule="evenodd" d="M171.149 29.2473V48.6336L154.159 58.4463V38.0555L171.149 29.2473Z" fill="white" stroke="#000033" stroke-width="1.03569" stroke-linejoin="round"/>
<path fill-rule="evenodd" clip-rule="evenodd" d="M171.149 29.248L154.159 38.0562L137.246 29.248L154.236 20.043L171.149 29.248Z" fill="white" stroke="#000033" stroke-width="1.03569" stroke-linejoin="round"/>
<path fill-rule="evenodd" clip-rule="evenodd" d="M148.363 26.0315L158.435 31.6453L159.728 30.8838L149.672 25.3611L148.363 26.0315Z" fill="#000033"/>
<path fill-rule="evenodd" clip-rule="evenodd" d="M151.372 10.4624V22.4384L158.537 26.2737V14.1969L151.372 10.4624Z" fill="#00E599" stroke="#000033" stroke-width="0.690461"/>
<g filter="url(#filter1_dd_557_329)">
<path d="M84.0678 0.975342L114.159 18.3485V53.0949L84.0678 70.4681L53.9766 53.0949V18.3485L84.0678 0.975342Z" fill="black"/>
</g>
<path d="M84.0678 0.975342L114.159 18.3485V53.0949L84.0678 70.4681L53.9766 53.0949V18.3485L84.0678 0.975342Z" fill="#F0F5F6"/>
<path fill-rule="evenodd" clip-rule="evenodd" d="M66.9404 29.2473V48.6336L83.9306 58.4463V38.0555L66.9404 29.2473Z" fill="white" stroke="#000033" stroke-width="1.03569" stroke-linejoin="round"/>
<path fill-rule="evenodd" clip-rule="evenodd" d="M100.844 29.2473V48.6336L83.8536 58.4463V38.0555L100.844 29.2473Z" fill="white" stroke="#000033" stroke-width="1.03569" stroke-linejoin="round"/>
<path fill-rule="evenodd" clip-rule="evenodd" d="M100.844 29.248L83.8536 38.0562L66.9404 29.248L83.9306 20.043L100.844 29.248Z" fill="white" stroke="#000033" stroke-width="1.03569" stroke-linejoin="round"/>
<path fill-rule="evenodd" clip-rule="evenodd" d="M78.0576 26.0315L88.1291 31.6453L89.422 30.8838L79.3666 25.3611L78.0576 26.0315Z" fill="#000033"/>
<path fill-rule="evenodd" clip-rule="evenodd" d="M81.0664 10.4624V22.4384L88.2309 26.2737V14.1969L81.0664 10.4624Z" fill="#00E599" stroke="#000033" stroke-width="0.690461"/>
<g filter="url(#filter2_dd_557_329)">
<path d="M187.409 58.5742L217.5 75.9474V110.694L187.409 128.067L157.317 110.694V75.9474L187.409 58.5742Z" fill="black"/>
</g>
<path d="M187.409 58.5742L217.5 75.9474V110.694L187.409 128.067L157.317 110.694V75.9474L187.409 58.5742Z" fill="#F0F5F6"/>
<path fill-rule="evenodd" clip-rule="evenodd" d="M170.281 86.8474V106.234L187.271 116.046V95.6556L170.281 86.8474Z" fill="white" stroke="#000033" stroke-width="1.03569" stroke-linejoin="round"/>
<path fill-rule="evenodd" clip-rule="evenodd" d="M204.185 86.8474V106.234L187.194 116.046V95.6556L204.185 86.8474Z" fill="white" stroke="#000033" stroke-width="1.03569" stroke-linejoin="round"/>
<path fill-rule="evenodd" clip-rule="evenodd" d="M204.185 86.8479L187.194 95.6561L170.281 86.8479L187.271 77.6428L204.185 86.8479Z" fill="white" stroke="#000033" stroke-width="1.03569" stroke-linejoin="round"/>
<path fill-rule="evenodd" clip-rule="evenodd" d="M181.398 83.6314L191.47 89.2451L192.763 88.4836L182.707 82.9609L181.398 83.6314Z" fill="#000033"/>
<path fill-rule="evenodd" clip-rule="evenodd" d="M184.408 68.0613V80.0373L191.573 83.8726V71.7958L184.408 68.0613Z" fill="#00E599" stroke="#000033" stroke-width="0.690461"/>
<g filter="url(#filter3_dd_557_329)">
<path d="M118.797 57.7273L148.889 75.1005V109.847L118.797 127.22L88.7061 109.847V75.1005L118.797 57.7273Z" fill="black"/>
</g>
<path d="M118.797 57.7273L148.889 75.1005V109.847L118.797 127.22L88.7061 109.847V75.1005L118.797 57.7273Z" fill="#F0F5F6"/>
<path fill-rule="evenodd" clip-rule="evenodd" d="M101.67 85.9993V105.386L118.66 115.198V94.8074L101.67 85.9993Z" fill="white" stroke="#000033" stroke-width="1.03569" stroke-linejoin="round"/>
<path fill-rule="evenodd" clip-rule="evenodd" d="M135.573 85.9993V105.386L118.583 115.198V94.8074L135.573 85.9993Z" fill="white" stroke="#000033" stroke-width="1.03569" stroke-linejoin="round"/>
<path fill-rule="evenodd" clip-rule="evenodd" d="M135.573 85.999L118.583 94.8072L101.67 85.999L118.66 76.7939L135.573 85.999Z" fill="white" stroke="#000033" stroke-width="1.03569" stroke-linejoin="round"/>
<path fill-rule="evenodd" clip-rule="evenodd" d="M112.787 82.7835L122.859 88.3972L124.152 87.6357L114.096 82.113L112.787 82.7835Z" fill="#000033"/>
<path fill-rule="evenodd" clip-rule="evenodd" d="M115.796 67.2153V79.1913L122.96 83.0267V70.9498L115.796 67.2153Z" fill="#00E599" stroke="#000033" stroke-width="0.690461"/>
<g filter="url(#filter4_dd_557_329)">
<path d="M153.527 116.175L183.618 133.548V168.294L153.527 185.668L123.436 168.294V133.548L153.527 116.175Z" fill="black"/>
</g>
<path d="M153.527 116.175L183.618 133.548V168.294L153.527 185.668L123.436 168.294V133.548L153.527 116.175Z" fill="#F0F5F6"/>
<path fill-rule="evenodd" clip-rule="evenodd" d="M136.399 144.447V163.833L153.39 173.646V153.255L136.399 144.447Z" fill="white" stroke="#000033" stroke-width="1.03569" stroke-linejoin="round"/>
<path fill-rule="evenodd" clip-rule="evenodd" d="M170.303 144.447V163.833L153.313 173.646V153.255L170.303 144.447Z" fill="white" stroke="#000033" stroke-width="1.03569" stroke-linejoin="round"/>
<path fill-rule="evenodd" clip-rule="evenodd" d="M170.303 144.448L153.313 153.256L136.399 144.448L153.39 135.243L170.303 144.448Z" fill="white" stroke="#000033" stroke-width="1.03569" stroke-linejoin="round"/>
<path fill-rule="evenodd" clip-rule="evenodd" d="M147.517 141.232L157.588 146.846L158.881 146.084L148.826 140.562L147.517 141.232Z" fill="#000033"/>
<path fill-rule="evenodd" clip-rule="evenodd" d="M150.525 125.663V137.639L157.69 141.474V129.397L150.525 125.663Z" fill="#00E599" stroke="#000033" stroke-width="0.690461"/>
<g filter="url(#filter5_dd_557_329)">
<path d="M83.2202 116.175L113.311 133.548V168.294L83.2202 185.668L53.1289 168.294V133.548L83.2202 116.175Z" fill="black"/>
</g>
<path d="M83.2202 116.175L113.311 133.548V168.294L83.2202 185.668L53.1289 168.294V133.548L83.2202 116.175Z" fill="#F0F5F6"/>
<path fill-rule="evenodd" clip-rule="evenodd" d="M66.0928 144.447V163.833L83.0829 173.646V153.255L66.0928 144.447Z" fill="white" stroke="#000033" stroke-width="1.03569" stroke-linejoin="round"/>
<path fill-rule="evenodd" clip-rule="evenodd" d="M99.9961 144.447V163.833L83.0059 173.646V153.255L99.9961 144.447Z" fill="white" stroke="#000033" stroke-width="1.03569" stroke-linejoin="round"/>
<path fill-rule="evenodd" clip-rule="evenodd" d="M99.9961 144.448L83.0059 153.256L66.0928 144.448L83.0829 135.243L99.9961 144.448Z" fill="white" stroke="#000033" stroke-width="1.03569" stroke-linejoin="round"/>
<path fill-rule="evenodd" clip-rule="evenodd" d="M77.21 141.232L87.2815 146.846L88.5744 146.084L78.519 140.562L77.21 141.232Z" fill="#000033"/>
<path fill-rule="evenodd" clip-rule="evenodd" d="M80.2188 125.663V137.639L87.3833 141.474V129.397L80.2188 125.663Z" fill="#00E599" stroke="#000033" stroke-width="0.690461"/>
<g filter="url(#filter6_dd_557_329)">
<path d="M51.0327 60.2698L81.1239 77.643V112.389L51.0327 129.763L20.9414 112.389V77.643L51.0327 60.2698Z" fill="black"/>
</g>
<path d="M51.0327 60.2698L81.1239 77.643V112.389L51.0327 129.763L20.9414 112.389V77.643L51.0327 60.2698Z" fill="#F0F5F6"/>
<path fill-rule="evenodd" clip-rule="evenodd" d="M33.9053 88.5415V107.928L50.8954 117.74V97.3497L33.9053 88.5415Z" fill="white" stroke="#000033" stroke-width="1.03569" stroke-linejoin="round"/>
<path fill-rule="evenodd" clip-rule="evenodd" d="M67.8086 88.5415V107.928L50.8184 117.74V97.3497L67.8086 88.5415Z" fill="white" stroke="#000033" stroke-width="1.03569" stroke-linejoin="round"/>
<path fill-rule="evenodd" clip-rule="evenodd" d="M67.8086 88.542L50.8184 97.3501L33.9053 88.542L50.8954 79.3369L67.8086 88.542Z" fill="white" stroke="#000033" stroke-width="1.03569" stroke-linejoin="round"/>
<path fill-rule="evenodd" clip-rule="evenodd" d="M45.0225 85.3264L55.094 90.9402L56.3869 90.1787L46.3315 84.656L45.0225 85.3264Z" fill="#000033"/>
<path fill-rule="evenodd" clip-rule="evenodd" d="M48.0312 69.7573V81.7333L55.1958 85.5686V73.4918L48.0312 69.7573Z" fill="#00E599" stroke="#000033" stroke-width="0.690461"/>
<path d="M46.3563 110.246V108.635C46.3563 108.474 46.2694 108.293 46.0955 108.092C45.9216 107.892 45.8347 107.791 45.8347 107.791L43.5245 105.314C43.7067 105.269 43.8613 105.178 43.9882 105.041C44.1152 104.904 44.2173 104.744 44.2946 104.561C44.3719 104.378 44.4271 104.187 44.4602 103.988C44.4933 103.788 44.5099 103.605 44.5099 103.438V102.057C44.5099 101.826 44.4395 101.556 44.2987 101.245C44.158 100.933 43.9758 100.621 43.7522 100.309C43.5287 99.9957 43.2747 99.7 42.9905 99.4213C42.7062 99.1426 42.4177 98.919 42.1252 98.7506C41.8326 98.5822 41.5428 98.473 41.2558 98.4229C40.9687 98.3728 40.7134 98.3755 40.4899 98.4309C40.2663 98.4864 40.0855 98.5895 39.9475 98.7403C39.8095 98.8911 39.7405 99.0815 39.7405 99.3117V100.693C39.7405 100.842 39.7571 101.035 39.7902 101.27C39.8233 101.504 39.8799 101.759 39.9599 102.032C40.04 102.305 40.1435 102.588 40.2704 102.88C40.3974 103.171 40.5547 103.449 40.7424 103.712L38.4157 103.521C38.4157 103.521 38.3274 103.524 38.1507 103.529C37.9741 103.533 37.8857 103.611 37.8857 103.76V105.371L46.3563 110.246Z" fill="#000033" stroke="#000033" stroke-width="1.29456"/>
<path d="M148.85 165.304V163.693C148.85 163.532 148.764 163.351 148.59 163.15C148.416 162.95 148.329 162.849 148.329 162.849L146.019 160.371C146.201 160.327 146.355 160.236 146.482 160.099C146.609 159.962 146.711 159.802 146.789 159.619C146.866 159.436 146.921 159.245 146.954 159.045C146.987 158.846 147.004 158.663 147.004 158.496V157.115C147.004 156.884 146.934 156.614 146.793 156.302C146.652 155.991 146.47 155.679 146.246 155.366C146.023 155.054 145.769 154.758 145.485 154.479C145.2 154.2 144.912 153.977 144.619 153.808C144.327 153.64 144.037 153.531 143.75 153.481C143.463 153.431 143.208 153.433 142.984 153.489C142.76 153.544 142.58 153.647 142.442 153.798C142.304 153.949 142.235 154.139 142.235 154.37V155.751C142.235 155.9 142.251 156.093 142.284 156.327C142.317 156.562 142.374 156.816 142.454 157.09C142.534 157.363 142.638 157.646 142.765 157.938C142.892 158.229 143.049 158.507 143.237 158.77L140.91 158.579C140.91 158.579 140.821 158.582 140.645 158.586C140.468 158.591 140.38 158.668 140.38 158.818V160.429L148.85 165.304Z" fill="#000033" stroke="#000033" stroke-width="1.29456"/>
<path d="M78.5448 165.304V163.693C78.5448 163.532 78.4579 163.351 78.284 163.15C78.1101 162.95 78.0232 162.849 78.0232 162.849L75.713 160.371C75.8952 160.327 76.0497 160.236 76.1767 160.099C76.3037 159.962 76.4058 159.802 76.4831 159.619C76.5603 159.436 76.6155 159.245 76.6487 159.045C76.6818 158.846 76.6983 158.663 76.6983 158.496V157.115C76.6983 156.884 76.628 156.614 76.4872 156.302C76.3464 155.991 76.1643 155.679 75.9407 155.366C75.7171 155.054 75.4632 154.758 75.1789 154.479C74.8946 154.2 74.6062 153.977 74.3137 153.808C74.0211 153.64 73.7313 153.531 73.4442 153.481C73.1572 153.431 72.9019 153.433 72.6783 153.489C72.4548 153.544 72.274 153.647 72.136 153.798C71.998 153.949 71.929 154.139 71.929 154.37V155.751C71.929 155.9 71.9455 156.093 71.9787 156.327C72.0118 156.562 72.0684 156.816 72.1484 157.09C72.2284 157.363 72.3319 157.646 72.4589 157.938C72.5859 158.229 72.7432 158.507 72.9309 158.77L70.6041 158.579C70.6041 158.579 70.5158 158.582 70.3392 158.586C70.1625 158.591 70.0742 158.668 70.0742 158.818V160.429L78.5448 165.304Z" fill="#000033" stroke="#000033" stroke-width="1.29456"/>
<path d="M149.697 50.9514V49.3406C149.697 49.1795 149.61 48.9985 149.436 48.7977C149.262 48.597 149.176 48.4966 149.176 48.4966L146.865 46.0189C147.048 45.9741 147.202 45.8833 147.329 45.7463C147.456 45.6093 147.558 45.4494 147.635 45.2666C147.713 45.0837 147.768 44.8925 147.801 44.6929C147.834 44.4933 147.851 44.31 147.851 44.1431V42.762C147.851 42.5318 147.78 42.2611 147.64 41.9499C147.499 41.6387 147.317 41.3267 147.093 41.0139C146.869 40.7011 146.616 40.4053 146.331 40.1266C146.047 39.8479 145.759 39.6243 145.466 39.4559C145.173 39.2876 144.884 39.1783 144.597 39.1282C144.31 39.0781 144.054 39.0808 143.831 39.1363C143.607 39.1917 143.426 39.2949 143.288 39.4456C143.15 39.5964 143.081 39.7869 143.081 40.017V41.3982C143.081 41.5478 143.098 41.74 143.131 41.9749C143.164 42.2098 143.221 42.4639 143.301 42.7373C143.381 43.0107 143.484 43.2932 143.611 43.585C143.738 43.8767 143.896 44.1543 144.083 44.4177L141.756 44.2266C141.756 44.2266 141.668 44.229 141.492 44.2338C141.315 44.2386 141.227 44.3158 141.227 44.4655V46.0762L149.697 50.9514Z" fill="#000033" stroke="#000033" stroke-width="1.29456"/>
<path d="M79.3915 50.9514V49.3406C79.3915 49.1795 79.3046 48.9985 79.1307 48.7977C78.9568 48.597 78.8699 48.4966 78.8699 48.4966L76.5597 46.0189C76.7418 45.9741 76.8964 45.8833 77.0234 45.7463C77.1503 45.6093 77.2525 45.4494 77.3297 45.2666C77.407 45.0837 77.4622 44.8925 77.4953 44.6929C77.5285 44.4933 77.545 44.31 77.545 44.1431V42.762C77.545 42.5318 77.4746 42.2611 77.3339 41.9499C77.1931 41.6387 77.011 41.3267 76.7874 41.0139C76.5638 40.7011 76.3099 40.4053 76.0256 40.1266C75.7413 39.8479 75.4529 39.6243 75.1603 39.4559C74.8678 39.2876 74.578 39.1783 74.2909 39.1282C74.0039 39.0781 73.7486 39.0808 73.525 39.1363C73.3014 39.1917 73.1207 39.2949 72.9827 39.4456C72.8447 39.5964 72.7757 39.7869 72.7757 40.017V41.3982C72.7757 41.5478 72.7922 41.74 72.8253 41.9749C72.8585 42.2098 72.915 42.4639 72.9951 42.7373C73.0751 43.0107 73.1786 43.2932 73.3056 43.585C73.4325 43.8767 73.5899 44.1543 73.7776 44.4177L71.4508 44.2266C71.4508 44.2266 71.3625 44.229 71.1859 44.2338C71.0092 44.2386 70.9209 44.3158 70.9209 44.4655V46.0762L79.3915 50.9514Z" fill="#000033" stroke="#000033" stroke-width="1.29456"/>
<path d="M114.121 107.703V106.093C114.121 105.931 114.034 105.75 113.86 105.55C113.686 105.349 113.599 105.249 113.599 105.249L111.289 102.771C111.471 102.726 111.626 102.635 111.753 102.498C111.88 102.361 111.982 102.201 112.059 102.019C112.137 101.836 112.192 101.644 112.225 101.445C112.258 101.245 112.275 101.062 112.275 100.895V99.514C112.275 99.2838 112.204 99.0131 112.063 98.7019C111.923 98.3907 111.74 98.0787 111.517 97.7658C111.293 97.453 111.039 97.1572 110.755 96.8785C110.471 96.5998 110.182 96.3763 109.89 96.2079C109.597 96.0395 109.307 95.9303 109.02 95.8802C108.733 95.83 108.478 95.8327 108.254 95.8882C108.031 95.9437 107.85 96.0468 107.712 96.1976C107.574 96.3483 107.505 96.5388 107.505 96.769V98.1501C107.505 98.2998 107.522 98.492 107.555 98.7269C107.588 98.9617 107.645 99.2159 107.725 99.4892C107.805 99.7626 107.908 100.045 108.035 100.337C108.162 100.629 108.319 100.906 108.507 101.17L106.18 100.979C106.18 100.979 106.092 100.981 105.915 100.986C105.739 100.991 105.65 101.068 105.65 101.217V102.828L114.121 107.703Z" fill="#000033" stroke="#000033" stroke-width="1.29456"/>
<path d="M182.732 108.552V106.941C182.732 106.78 182.645 106.599 182.471 106.398C182.298 106.198 182.211 106.097 182.211 106.097L179.901 103.62C180.083 103.575 180.237 103.484 180.364 103.347C180.491 103.21 180.593 103.05 180.671 102.867C180.748 102.684 180.803 102.493 180.836 102.293C180.869 102.094 180.886 101.911 180.886 101.744V100.363C180.886 100.132 180.815 99.8617 180.675 99.5505C180.534 99.2393 180.352 98.9273 180.128 98.6145C179.905 98.3017 179.651 98.0059 179.366 97.7272C179.082 97.4485 178.794 97.2249 178.501 97.0565C178.209 96.8881 177.919 96.7789 177.632 96.7288C177.345 96.6787 177.089 96.6814 176.866 96.7368C176.642 96.7923 176.461 96.8954 176.323 97.0462C176.185 97.197 176.116 97.3874 176.116 97.6176V98.9988C176.116 99.1484 176.133 99.3406 176.166 99.5755C176.199 99.8104 176.256 100.064 176.336 100.338C176.416 100.611 176.519 100.894 176.646 101.186C176.773 101.477 176.931 101.755 177.118 102.018L174.792 101.827C174.792 101.827 174.703 101.83 174.527 101.834C174.35 101.839 174.262 101.916 174.262 102.066V103.677L182.732 108.552Z" fill="#000033" stroke="#000033" stroke-width="1.29456"/>
<defs>
<filter id="filter0_dd_557_329" x="103.871" y="0.975342" width="82.1638" height="91.4738" filterUnits="userSpaceOnUse" color-interpolation-filters="sRGB">
<feFlood flood-opacity="0" result="BackgroundImageFix"/>
<feColorMatrix in="SourceAlpha" type="matrix" values="0 0 0 0 0 0 0 0 0 0 0 0 0 0 0 0 0 0 127 0" result="hardAlpha"/>
<feOffset dx="-10.2055" dy="11.7756"/>
<feGaussianBlur stdDeviation="5.10277"/>
<feColorMatrix type="matrix" values="0 0 0 0 0.316369 0 0 0 0 0.366988 0 0 0 0 0.353496 0 0 0 0.25741 0"/>
<feBlend mode="normal" in2="BackgroundImageFix" result="effect1_dropShadow_557_329"/>
<feColorMatrix in="SourceAlpha" type="matrix" values="0 0 0 0 0 0 0 0 0 0 0 0 0 0 0 0 0 0 127 0" result="hardAlpha"/>
<feOffset dx="-3.14017" dy="5.49529"/>
<feGaussianBlur stdDeviation="2.35513"/>
<feColorMatrix type="matrix" values="0 0 0 0 0 0 0 0 0 0 0 0 0 0 0 0 0 0 0.144615 0"/>
<feBlend mode="normal" in2="effect1_dropShadow_557_329" result="effect2_dropShadow_557_329"/>
<feBlend mode="normal" in="SourceGraphic" in2="effect2_dropShadow_557_329" result="shape"/>
</filter>
<filter id="filter1_dd_557_329" x="33.5655" y="0.975342" width="82.1638" height="91.4738" filterUnits="userSpaceOnUse" color-interpolation-filters="sRGB">
<feFlood flood-opacity="0" result="BackgroundImageFix"/>
<feColorMatrix in="SourceAlpha" type="matrix" values="0 0 0 0 0 0 0 0 0 0 0 0 0 0 0 0 0 0 127 0" result="hardAlpha"/>
<feOffset dx="-10.2055" dy="11.7756"/>
<feGaussianBlur stdDeviation="5.10277"/>
<feColorMatrix type="matrix" values="0 0 0 0 0.316369 0 0 0 0 0.366988 0 0 0 0 0.353496 0 0 0 0.25741 0"/>
<feBlend mode="normal" in2="BackgroundImageFix" result="effect1_dropShadow_557_329"/>
<feColorMatrix in="SourceAlpha" type="matrix" values="0 0 0 0 0 0 0 0 0 0 0 0 0 0 0 0 0 0 127 0" result="hardAlpha"/>
<feOffset dx="-3.14017" dy="5.49529"/>
<feGaussianBlur stdDeviation="2.35513"/>
<feColorMatrix type="matrix" values="0 0 0 0 0 0 0 0 0 0 0 0 0 0 0 0 0 0 0.144615 0"/>
<feBlend mode="normal" in2="effect1_dropShadow_557_329" result="effect2_dropShadow_557_329"/>
<feBlend mode="normal" in="SourceGraphic" in2="effect2_dropShadow_557_329" result="shape"/>
</filter>
<filter id="filter2_dd_557_329" x="136.906" y="58.5742" width="82.1638" height="91.4738" filterUnits="userSpaceOnUse" color-interpolation-filters="sRGB">
<feFlood flood-opacity="0" result="BackgroundImageFix"/>
<feColorMatrix in="SourceAlpha" type="matrix" values="0 0 0 0 0 0 0 0 0 0 0 0 0 0 0 0 0 0 127 0" result="hardAlpha"/>
<feOffset dx="-10.2055" dy="11.7756"/>
<feGaussianBlur stdDeviation="5.10277"/>
<feColorMatrix type="matrix" values="0 0 0 0 0.316369 0 0 0 0 0.366988 0 0 0 0 0.353496 0 0 0 0.25741 0"/>
<feBlend mode="normal" in2="BackgroundImageFix" result="effect1_dropShadow_557_329"/>
<feColorMatrix in="SourceAlpha" type="matrix" values="0 0 0 0 0 0 0 0 0 0 0 0 0 0 0 0 0 0 127 0" result="hardAlpha"/>
<feOffset dx="-3.14017" dy="5.49529"/>
<feGaussianBlur stdDeviation="2.35513"/>
<feColorMatrix type="matrix" values="0 0 0 0 0 0 0 0 0 0 0 0 0 0 0 0 0 0 0.144615 0"/>
<feBlend mode="normal" in2="effect1_dropShadow_557_329" result="effect2_dropShadow_557_329"/>
<feBlend mode="normal" in="SourceGraphic" in2="effect2_dropShadow_557_329" result="shape"/>
</filter>
<filter id="filter3_dd_557_329" x="68.295" y="57.7273" width="82.1638" height="91.4738" filterUnits="userSpaceOnUse" color-interpolation-filters="sRGB">
<feFlood flood-opacity="0" result="BackgroundImageFix"/>
<feColorMatrix in="SourceAlpha" type="matrix" values="0 0 0 0 0 0 0 0 0 0 0 0 0 0 0 0 0 0 127 0" result="hardAlpha"/>
<feOffset dx="-10.2055" dy="11.7756"/>
<feGaussianBlur stdDeviation="5.10277"/>
<feColorMatrix type="matrix" values="0 0 0 0 0.316369 0 0 0 0 0.366988 0 0 0 0 0.353496 0 0 0 0.25741 0"/>
<feBlend mode="normal" in2="BackgroundImageFix" result="effect1_dropShadow_557_329"/>
<feColorMatrix in="SourceAlpha" type="matrix" values="0 0 0 0 0 0 0 0 0 0 0 0 0 0 0 0 0 0 127 0" result="hardAlpha"/>
<feOffset dx="-3.14017" dy="5.49529"/>
<feGaussianBlur stdDeviation="2.35513"/>
<feColorMatrix type="matrix" values="0 0 0 0 0 0 0 0 0 0 0 0 0 0 0 0 0 0 0.144615 0"/>
<feBlend mode="normal" in2="effect1_dropShadow_557_329" result="effect2_dropShadow_557_329"/>
<feBlend mode="normal" in="SourceGraphic" in2="effect2_dropShadow_557_329" result="shape"/>
</filter>
<filter id="filter4_dd_557_329" x="103.024" y="116.175" width="82.1638" height="91.4738" filterUnits="userSpaceOnUse" color-interpolation-filters="sRGB">
<feFlood flood-opacity="0" result="BackgroundImageFix"/>
<feColorMatrix in="SourceAlpha" type="matrix" values="0 0 0 0 0 0 0 0 0 0 0 0 0 0 0 0 0 0 127 0" result="hardAlpha"/>
<feOffset dx="-10.2055" dy="11.7756"/>
<feGaussianBlur stdDeviation="5.10277"/>
<feColorMatrix type="matrix" values="0 0 0 0 0.316369 0 0 0 0 0.366988 0 0 0 0 0.353496 0 0 0 0.25741 0"/>
<feBlend mode="normal" in2="BackgroundImageFix" result="effect1_dropShadow_557_329"/>
<feColorMatrix in="SourceAlpha" type="matrix" values="0 0 0 0 0 0 0 0 0 0 0 0 0 0 0 0 0 0 127 0" result="hardAlpha"/>
<feOffset dx="-3.14017" dy="5.49529"/>
<feGaussianBlur stdDeviation="2.35513"/>
<feColorMatrix type="matrix" values="0 0 0 0 0 0 0 0 0 0 0 0 0 0 0 0 0 0 0.144615 0"/>
<feBlend mode="normal" in2="effect1_dropShadow_557_329" result="effect2_dropShadow_557_329"/>
<feBlend mode="normal" in="SourceGraphic" in2="effect2_dropShadow_557_329" result="shape"/>
</filter>
<filter id="filter5_dd_557_329" x="32.7178" y="116.175" width="82.1638" height="91.4738" filterUnits="userSpaceOnUse" color-interpolation-filters="sRGB">
<feFlood flood-opacity="0" result="BackgroundImageFix"/>
<feColorMatrix in="SourceAlpha" type="matrix" values="0 0 0 0 0 0 0 0 0 0 0 0 0 0 0 0 0 0 127 0" result="hardAlpha"/>
<feOffset dx="-10.2055" dy="11.7756"/>
<feGaussianBlur stdDeviation="5.10277"/>
<feColorMatrix type="matrix" values="0 0 0 0 0.316369 0 0 0 0 0.366988 0 0 0 0 0.353496 0 0 0 0.25741 0"/>
<feBlend mode="normal" in2="BackgroundImageFix" result="effect1_dropShadow_557_329"/>
<feColorMatrix in="SourceAlpha" type="matrix" values="0 0 0 0 0 0 0 0 0 0 0 0 0 0 0 0 0 0 127 0" result="hardAlpha"/>
<feOffset dx="-3.14017" dy="5.49529"/>
<feGaussianBlur stdDeviation="2.35513"/>
<feColorMatrix type="matrix" values="0 0 0 0 0 0 0 0 0 0 0 0 0 0 0 0 0 0 0.144615 0"/>
<feBlend mode="normal" in2="effect1_dropShadow_557_329" result="effect2_dropShadow_557_329"/>
<feBlend mode="normal" in="SourceGraphic" in2="effect2_dropShadow_557_329" result="shape"/>
</filter>
<filter id="filter6_dd_557_329" x="0.530323" y="60.2698" width="82.1638" height="91.4738" filterUnits="userSpaceOnUse" color-interpolation-filters="sRGB">
<feFlood flood-opacity="0" result="BackgroundImageFix"/>
<feColorMatrix in="SourceAlpha" type="matrix" values="0 0 0 0 0 0 0 0 0 0 0 0 0 0 0 0 0 0 127 0" result="hardAlpha"/>
<feOffset dx="-10.2055" dy="11.7756"/>
<feGaussianBlur stdDeviation="5.10277"/>
<feColorMatrix type="matrix" values="0 0 0 0 0.316369 0 0 0 0 0.366988 0 0 0 0 0.353496 0 0 0 0.25741 0"/>
<feBlend mode="normal" in2="BackgroundImageFix" result="effect1_dropShadow_557_329"/>
<feColorMatrix in="SourceAlpha" type="matrix" values="0 0 0 0 0 0 0 0 0 0 0 0 0 0 0 0 0 0 127 0" result="hardAlpha"/>
<feOffset dx="-3.14017" dy="5.49529"/>
<feGaussianBlur stdDeviation="2.35513"/>
<feColorMatrix type="matrix" values="0 0 0 0 0 0 0 0 0 0 0 0 0 0 0 0 0 0 0.144615 0"/>
<feBlend mode="normal" in2="effect1_dropShadow_557_329" result="effect2_dropShadow_557_329"/>
<feBlend mode="normal" in="SourceGraphic" in2="effect2_dropShadow_557_329" result="shape"/>
</filter>
</defs>
</svg>
