<svg fill="none" height="208" viewBox="0 0 220 208" width="220" xmlns="http://www.w3.org/2000/svg" xmlns:xlink="http://www.w3.org/1999/xlink"><filter id="a" color-interpolation-filters="sRGB" filterUnits="userSpaceOnUse" height="91.4738" width="82.1638" x="103.871" y=".975342"><feFlood flood-opacity="0" result="BackgroundImageFix"/><feColorMatrix in="SourceAlpha" result="hardAlpha" type="matrix" values="0 0 0 0 0 0 0 0 0 0 0 0 0 0 0 0 0 0 127 0"/><feOffset dx="-10.2055" dy="11.7756"/><feGaussianBlur stdDeviation="5.10277"/><feColorMatrix type="matrix" values="0 0 0 0 0.316369 0 0 0 0 0.366988 0 0 0 0 0.353496 0 0 0 0.25741 0"/><feBlend in2="BackgroundImageFix" mode="normal" result="effect1_dropShadow_557_329"/><feColorMatrix in="SourceAlpha" result="hardAlpha" type="matrix" values="0 0 0 0 0 0 0 0 0 0 0 0 0 0 0 0 0 0 127 0"/><feOffset dx="-3.14017" dy="5.49529"/><feGaussianBlur stdDeviation="2.35513"/><feColorMatrix type="matrix" values="0 0 0 0 0 0 0 0 0 0 0 0 0 0 0 0 0 0 0.144615 0"/><feBlend in2="effect1_dropShadow_557_329" mode="normal" result="effect2_dropShadow_557_329"/><feBlend in="SourceGraphic" in2="effect2_dropShadow_557_329" mode="normal" result="shape"/></filter><filter id="b" color-interpolation-filters="sRGB" filterUnits="userSpaceOnUse" height="91.4738" width="82.1638" x="33.5655" y=".975342"><feFlood flood-opacity="0" result="BackgroundImageFix"/><feColorMatrix in="SourceAlpha" result="hardAlpha" type="matrix" values="0 0 0 0 0 0 0 0 0 0 0 0 0 0 0 0 0 0 127 0"/><feOffset dx="-10.2055" dy="11.7756"/><feGaussianBlur stdDeviation="5.10277"/><feColorMatrix type="matrix" values="0 0 0 0 0.316369 0 0 0 0 0.366988 0 0 0 0 0.353496 0 0 0 0.25741 0"/><feBlend in2="BackgroundImageFix" mode="normal" result="effect1_dropShadow_557_329"/><feColorMatrix in="SourceAlpha" result="hardAlpha" type="matrix" values="0 0 0 0 0 0 0 0 0 0 0 0 0 0 0 0 0 0 127 0"/><feOffset dx="-3.14017" dy="5.49529"/><feGaussianBlur stdDeviation="2.35513"/><feColorMatrix type="matrix" values="0 0 0 0 0 0 0 0 0 0 0 0 0 0 0 0 0 0 0.144615 0"/><feBlend in2="effect1_dropShadow_557_329" mode="normal" result="effect2_dropShadow_557_329"/><feBlend in="SourceGraphic" in2="effect2_dropShadow_557_329" mode="normal" result="shape"/></filter><filter id="c" color-interpolation-filters="sRGB" filterUnits="userSpaceOnUse" height="91.4738" width="82.1638" x="136.906" y="58.5742"><feFlood flood-opacity="0" result="BackgroundImageFix"/><feColorMatrix in="SourceAlpha" result="hardAlpha" type="matrix" values="0 0 0 0 0 0 0 0 0 0 0 0 0 0 0 0 0 0 127 0"/><feOffset dx="-10.2055" dy="11.7756"/><feGaussianBlur stdDeviation="5.10277"/><feColorMatrix type="matrix" values="0 0 0 0 0.316369 0 0 0 0 0.366988 0 0 0 0 0.353496 0 0 0 0.25741 0"/><feBlend in2="BackgroundImageFix" mode="normal" result="effect1_dropShadow_557_329"/><feColorMatrix in="SourceAlpha" result="hardAlpha" type="matrix" values="0 0 0 0 0 0 0 0 0 0 0 0 0 0 0 0 0 0 127 0"/><feOffset dx="-3.14017" dy="5.49529"/><feGaussianBlur stdDeviation="2.35513"/><feColorMatrix type="matrix" values="0 0 0 0 0 0 0 0 0 0 0 0 0 0 0 0 0 0 0.144615 0"/><feBlend in2="effect1_dropShadow_557_329" mode="normal" result="effect2_dropShadow_557_329"/><feBlend in="SourceGraphic" in2="effect2_dropShadow_557_329" mode="normal" result="shape"/></filter><filter id="d" color-interpolation-filters="sRGB" filterUnits="userSpaceOnUse" height="91.4738" width="82.1638" x="68.295" y="57.7273"><feFlood flood-opacity="0" result="BackgroundImageFix"/><feColorMatrix in="SourceAlpha" result="hardAlpha" type="matrix" values="0 0 0 0 0 0 0 0 0 0 0 0 0 0 0 0 0 0 127 0"/><feOffset dx="-10.2055" dy="11.7756"/><feGaussianBlur stdDeviation="5.10277"/><feColorMatrix type="matrix" values="0 0 0 0 0.316369 0 0 0 0 0.366988 0 0 0 0 0.353496 0 0 0 0.25741 0"/><feBlend in2="BackgroundImageFix" mode="normal" result="effect1_dropShadow_557_329"/><feColorMatrix in="SourceAlpha" result="hardAlpha" type="matrix" values="0 0 0 0 0 0 0 0 0 0 0 0 0 0 0 0 0 0 127 0"/><feOffset dx="-3.14017" dy="5.49529"/><feGaussianBlur stdDeviation="2.35513"/><feColorMatrix type="matrix" values="0 0 0 0 0 0 0 0 0 0 0 0 0 0 0 0 0 0 0.144615 0"/><feBlend in2="effect1_dropShadow_557_329" mode="normal" result="effect2_dropShadow_557_329"/><feBlend in="SourceGraphic" in2="effect2_dropShadow_557_329" mode="normal" result="shape"/></filter><filter id="e" color-interpolation-filters="sRGB" filterUnits="userSpaceOnUse" height="91.4738" width="82.1638" x="103.024" y="116.175"><feFlood flood-opacity="0" result="BackgroundImageFix"/><feColorMatrix in="SourceAlpha" result="hardAlpha" type="matrix" values="0 0 0 0 0 0 0 0 0 0 0 0 0 0 0 0 0 0 127 0"/><feOffset dx="-10.2055" dy="11.7756"/><feGaussianBlur stdDeviation="5.10277"/><feColorMatrix type="matrix" values="0 0 0 0 0.316369 0 0 0 0 0.366988 0 0 0 0 0.353496 0 0 0 0.25741 0"/><feBlend in2="BackgroundImageFix" mode="normal" result="effect1_dropShadow_557_329"/><feColorMatrix in="SourceAlpha" result="hardAlpha" type="matrix" values="0 0 0 0 0 0 0 0 0 0 0 0 0 0 0 0 0 0 127 0"/><feOffset dx="-3.14017" dy="5.49529"/><feGaussianBlur stdDeviation="2.35513"/><feColorMatrix type="matrix" values="0 0 0 0 0 0 0 0 0 0 0 0 0 0 0 0 0 0 0.144615 0"/><feBlend in2="effect1_dropShadow_557_329" mode="normal" result="effect2_dropShadow_557_329"/><feBlend in="SourceGraphic" in2="effect2_dropShadow_557_329" mode="normal" result="shape"/></filter><filter id="f" color-interpolation-filters="sRGB" filterUnits="userSpaceOnUse" height="91.4738" width="82.1638" x="32.7178" y="116.175"><feFlood flood-opacity="0" result="BackgroundImageFix"/><feColorMatrix in="SourceAlpha" result="hardAlpha" type="matrix" values="0 0 0 0 0 0 0 0 0 0 0 0 0 0 0 0 0 0 127 0"/><feOffset dx="-10.2055" dy="11.7756"/><feGaussianBlur stdDeviation="5.10277"/><feColorMatrix type="matrix" values="0 0 0 0 0.316369 0 0 0 0 0.366988 0 0 0 0 0.353496 0 0 0 0.25741 0"/><feBlend in2="BackgroundImageFix" mode="normal" result="effect1_dropShadow_557_329"/><feColorMatrix in="SourceAlpha" result="hardAlpha" type="matrix" values="0 0 0 0 0 0 0 0 0 0 0 0 0 0 0 0 0 0 127 0"/><feOffset dx="-3.14017" dy="5.49529"/><feGaussianBlur stdDeviation="2.35513"/><feColorMatrix type="matrix" values="0 0 0 0 0 0 0 0 0 0 0 0 0 0 0 0 0 0 0.144615 0"/><feBlend in2="effect1_dropShadow_557_329" mode="normal" result="effect2_dropShadow_557_329"/><feBlend in="SourceGraphic" in2="effect2_dropShadow_557_329" mode="normal" result="shape"/></filter><filter id="g" color-interpolation-filters="sRGB" filterUnits="userSpaceOnUse" height="91.4738" width="82.1638" x=".530323" y="60.2698"><feFlood flood-opacity="0" result="BackgroundImageFix"/><feColorMatrix in="SourceAlpha" result="hardAlpha" type="matrix" values="0 0 0 0 0 0 0 0 0 0 0 0 0 0 0 0 0 0 127 0"/><feOffset dx="-10.2055" dy="11.7756"/><feGaussianBlur stdDeviation="5.10277"/><feColorMatrix type="matrix" values="0 0 0 0 0.316369 0 0 0 0 0.366988 0 0 0 0 0.353496 0 0 0 0.25741 0"/><feBlend in2="BackgroundImageFix" mode="normal" result="effect1_dropShadow_557_329"/><feColorMatrix in="SourceAlpha" result="hardAlpha" type="matrix" values="0 0 0 0 0 0 0 0 0 0 0 0 0 0 0 0 0 0 127 0"/><feOffset dx="-3.14017" dy="5.49529"/><feGaussianBlur stdDeviation="2.35513"/><feColorMatrix type="matrix" values="0 0 0 0 0 0 0 0 0 0 0 0 0 0 0 0 0 0 0.144615 0"/><feBlend in2="effect1_dropShadow_557_329" mode="normal" result="effect2_dropShadow_557_329"/><feBlend in="SourceGraphic" in2="effect2_dropShadow_557_329" mode="normal" result="shape"/></filter><g filter="url(#a)"><path d="m154.373.975342 30.092 17.373158v34.7464l-30.092 17.3732-30.091-17.3732v-34.7464z" fill="#000"/></g><path d="m154.373.975342 30.092 17.373158v34.7464l-30.092 17.3732-30.091-17.3732v-34.7464z" fill="#f0f5f6"/><path d="m137.246 29.2473v19.3863l16.99 9.8127v-20.3908z" style="fill-rule:evenodd;clip-rule:evenodd;fill:#fff;stroke:#003;stroke-width:1.03569;stroke-linejoin:round"/><path d="m171.149 29.2473v19.3863l-16.99 9.8127v-20.3908z" style="fill-rule:evenodd;clip-rule:evenodd;fill:#fff;stroke:#003;stroke-width:1.03569;stroke-linejoin:round"/><path d="m171.149 29.248-16.99 8.8082-16.913-8.8082 16.99-9.205z" style="fill-rule:evenodd;clip-rule:evenodd;fill:#fff;stroke:#003;stroke-width:1.03569;stroke-linejoin:round"/><path clip-rule="evenodd" d="m148.363 26.0315 10.072 5.6138 1.293-.7615-10.056-5.5227z" fill="#003" fill-rule="evenodd"/><path clip-rule="evenodd" d="m151.372 10.4624v11.976l7.165 3.8353v-12.0768z" fill="#00e599" fill-rule="evenodd" stroke="#003" stroke-width=".690461"/><g filter="url(#b)"><path d="m84.0678.975342 30.0912 17.373158v34.7464l-30.0912 17.3732-30.0912-17.3732v-34.7464z" fill="#000"/></g><path d="m84.0678.975342 30.0912 17.373158v34.7464l-30.0912 17.3732-30.0912-17.3732v-34.7464z" fill="#f0f5f6"/><path d="m66.9404 29.2473v19.3863l16.9902 9.8127v-20.3908z" style="fill-rule:evenodd;clip-rule:evenodd;fill:#fff;stroke:#003;stroke-width:1.03569;stroke-linejoin:round"/><path d="m100.844 29.2473v19.3863l-16.9904 9.8127v-20.3908z" style="fill-rule:evenodd;clip-rule:evenodd;fill:#fff;stroke:#003;stroke-width:1.03569;stroke-linejoin:round"/><path d="m100.844 29.248-16.9904 8.8082-16.9132-8.8082 16.9902-9.205z" style="fill-rule:evenodd;clip-rule:evenodd;fill:#fff;stroke:#003;stroke-width:1.03569;stroke-linejoin:round"/><path clip-rule="evenodd" d="m78.0576 26.0315 10.0715 5.6138 1.2929-.7615-10.0554-5.5227z" fill="#003" fill-rule="evenodd"/><path clip-rule="evenodd" d="m81.0664 10.4624v11.976l7.1645 3.8353v-12.0768z" fill="#00e599" fill-rule="evenodd" stroke="#003" stroke-width=".690461"/><g filter="url(#c)"><path d="m187.409 58.5742 30.091 17.3732v34.7466l-30.091 17.373-30.092-17.373v-34.7466z" fill="#000"/></g><path d="m187.409 58.5742 30.091 17.3732v34.7466l-30.091 17.373-30.092-17.373v-34.7466z" fill="#f0f5f6"/><path d="m170.281 86.8474v19.3866l16.99 9.812v-20.3904z" style="fill-rule:evenodd;clip-rule:evenodd;fill:#fff;stroke:#003;stroke-width:1.03569;stroke-linejoin:round"/><path d="m204.185 86.8474v19.3866l-16.991 9.812v-20.3904z" style="fill-rule:evenodd;clip-rule:evenodd;fill:#fff;stroke:#003;stroke-width:1.03569;stroke-linejoin:round"/><path d="m204.185 86.8479-16.991 8.8082-16.913-8.8082 16.99-9.2051z" style="fill-rule:evenodd;clip-rule:evenodd;fill:#fff;stroke:#003;stroke-width:1.03569;stroke-linejoin:round"/><path clip-rule="evenodd" d="m181.398 83.6314 10.072 5.6137 1.293-.7615-10.056-5.5227z" fill="#003" fill-rule="evenodd"/><path clip-rule="evenodd" d="m184.408 68.0613v11.976l7.165 3.8353v-12.0768z" fill="#00e599" fill-rule="evenodd" stroke="#003" stroke-width=".690461"/><g filter="url(#d)"><path d="m118.797 57.7273 30.092 17.3732v34.7465l-30.092 17.373-30.0909-17.373v-34.7465z" fill="#000"/></g><path d="m118.797 57.7273 30.092 17.3732v34.7465l-30.092 17.373-30.0909-17.373v-34.7465z" fill="#f0f5f6"/><path d="m101.67 85.9993v19.3867l16.99 9.812v-20.3906z" style="fill-rule:evenodd;clip-rule:evenodd;fill:#fff;stroke:#003;stroke-width:1.03569;stroke-linejoin:round"/><path d="m135.573 85.9993v19.3867l-16.99 9.812v-20.3906z" style="fill-rule:evenodd;clip-rule:evenodd;fill:#fff;stroke:#003;stroke-width:1.03569;stroke-linejoin:round"/><path d="m135.573 85.999-16.99 8.8082-16.913-8.8082 16.99-9.2051z" style="fill-rule:evenodd;clip-rule:evenodd;fill:#fff;stroke:#003;stroke-width:1.03569;stroke-linejoin:round"/><path clip-rule="evenodd" d="m112.787 82.7835 10.072 5.6137 1.293-.7615-10.056-5.5227z" fill="#003" fill-rule="evenodd"/><path clip-rule="evenodd" d="m115.796 67.2153v11.976l7.164 3.8354v-12.0769z" fill="#00e599" fill-rule="evenodd" stroke="#003" stroke-width=".690461"/><g filter="url(#e)"><path d="m153.527 116.175 30.091 17.373v34.746l-30.091 17.374-30.091-17.374v-34.746z" fill="#000"/></g><path d="m153.527 116.175 30.091 17.373v34.746l-30.091 17.374-30.091-17.374v-34.746z" fill="#f0f5f6"/><path d="m136.399 144.447v19.386l16.991 9.813v-20.391z" style="fill-rule:evenodd;clip-rule:evenodd;fill:#fff;stroke:#003;stroke-width:1.03569;stroke-linejoin:round"/><path d="m170.303 144.447v19.386l-16.99 9.813v-20.391z" style="fill-rule:evenodd;clip-rule:evenodd;fill:#fff;stroke:#003;stroke-width:1.03569;stroke-linejoin:round"/><path d="m170.303 144.448-16.99 8.808-16.914-8.808 16.991-9.205z" style="fill-rule:evenodd;clip-rule:evenodd;fill:#fff;stroke:#003;stroke-width:1.03569;stroke-linejoin:round"/><path clip-rule="evenodd" d="m147.517 141.232 10.071 5.614 1.293-.762-10.055-5.522z" fill="#003" fill-rule="evenodd"/><path clip-rule="evenodd" d="m150.525 125.663v11.976l7.165 3.835v-12.077z" fill="#00e599" fill-rule="evenodd" stroke="#003" stroke-width=".690461"/><g filter="url(#f)"><path d="m83.2202 116.175 30.0908 17.373v34.746l-30.0908 17.374-30.0913-17.374v-34.746z" fill="#000"/></g><path d="m83.2202 116.175 30.0908 17.373v34.746l-30.0908 17.374-30.0913-17.374v-34.746z" fill="#f0f5f6"/><path d="m66.0928 144.447v19.386l16.9901 9.813v-20.391z" style="fill-rule:evenodd;clip-rule:evenodd;fill:#fff;stroke:#003;stroke-width:1.03569;stroke-linejoin:round"/><path d="m99.9961 144.447v19.386l-16.9902 9.813v-20.391z" style="fill-rule:evenodd;clip-rule:evenodd;fill:#fff;stroke:#003;stroke-width:1.03569;stroke-linejoin:round"/><path d="m99.9961 144.448-16.9902 8.808-16.9131-8.808 16.9901-9.205z" style="fill-rule:evenodd;clip-rule:evenodd;fill:#fff;stroke:#003;stroke-width:1.03569;stroke-linejoin:round"/><path clip-rule="evenodd" d="m77.21 141.232 10.0715 5.614 1.2929-.762-10.0554-5.522z" fill="#003" fill-rule="evenodd"/><path clip-rule="evenodd" d="m80.2188 125.663v11.976l7.1645 3.835v-12.077z" fill="#00e599" fill-rule="evenodd" stroke="#003" stroke-width=".690461"/><g filter="url(#g)"><path d="m51.0327 60.2698 30.0912 17.3732v34.746l-30.0912 17.374-30.0913-17.374v-34.746z" fill="#000"/></g><path d="m51.0327 60.2698 30.0912 17.3732v34.746l-30.0912 17.374-30.0913-17.374v-34.746z" fill="#f0f5f6"/><path d="m33.9053 88.5415v19.3865l16.9901 9.812v-20.3903z" style="fill-rule:evenodd;clip-rule:evenodd;fill:#fff;stroke:#003;stroke-width:1.03569;stroke-linejoin:round"/><path d="m67.8086 88.5415v19.3865l-16.9902 9.812v-20.3903z" style="fill-rule:evenodd;clip-rule:evenodd;fill:#fff;stroke:#003;stroke-width:1.03569;stroke-linejoin:round"/><path d="m67.8086 88.542-16.9902 8.8081-16.9131-8.8081 16.9901-9.2051z" style="fill-rule:evenodd;clip-rule:evenodd;fill:#fff;stroke:#003;stroke-width:1.03569;stroke-linejoin:round"/><path clip-rule="evenodd" d="m45.0225 85.3264 10.0715 5.6138 1.2929-.7615-10.0554-5.5227z" fill="#003" fill-rule="evenodd"/><g stroke="#003"><path clip-rule="evenodd" d="m48.0312 69.7573v11.976l7.1646 3.8353v-12.0768z" fill="#00e599" fill-rule="evenodd" stroke-width=".690461"/><path d="m46.3563 110.246v-1.611c0-.161-.0869-.342-.2608-.543-.1739-.2-.2608-.301-.2608-.301l-2.3102-2.477c.1822-.045.3368-.136.4637-.273.127-.137.2291-.297.3064-.48s.1325-.374.1656-.573c.0331-.2.0497-.383.0497-.55v-1.381c0-.231-.0704-.501-.2112-.812-.1407-.312-.3229-.624-.5465-.936-.2235-.3133-.4775-.609-.7617-.8877-.2843-.2787-.5728-.5023-.8653-.6707-.2926-.1684-.5824-.2776-.8694-.3277-.2871-.0501-.5424-.0474-.7659.008-.2236.0555-.4044.1586-.5424.3094s-.207.3412-.207.5714v1.3813c0 .149.0166.342.0497.577.0331.234.0897.489.1697.762.0801.273.1836.556.3105.848.127.291.2843.569.472.832l-2.3267-.191s-.0883.003-.265.008c-.1766.004-.265.082-.265.231v1.611z" fill="#003" stroke-width="1.29456"/><path d="m148.85 165.304v-1.611c0-.161-.086-.342-.26-.543-.174-.2-.261-.301-.261-.301l-2.31-2.478c.182-.044.336-.135.463-.272s.229-.297.307-.48c.077-.183.132-.374.165-.574.033-.199.05-.382.05-.549v-1.381c0-.231-.07-.501-.211-.813-.141-.311-.323-.623-.547-.936-.223-.312-.477-.608-.761-.887-.285-.279-.573-.502-.866-.671-.292-.168-.582-.277-.869-.327s-.542-.048-.766.008c-.224.055-.404.158-.542.309s-.207.341-.207.572v1.381c0 .149.016.342.049.576.033.235.09.489.17.763.08.273.184.556.311.848.127.291.284.569.472.832l-2.327-.191s-.089.003-.265.007c-.177.005-.265.082-.265.232v1.611z" fill="#003" stroke-width="1.29456"/><path d="m78.5448 165.304v-1.611c0-.161-.0869-.342-.2608-.543-.1739-.2-.2608-.301-.2608-.301l-2.3102-2.478c.1822-.044.3367-.135.4637-.272s.2291-.297.3064-.48c.0772-.183.1324-.374.1656-.574.0331-.199.0496-.382.0496-.549v-1.381c0-.231-.0703-.501-.2111-.813-.1408-.311-.3229-.623-.5465-.936-.2236-.312-.4775-.608-.7618-.887s-.5727-.502-.8652-.671c-.2926-.168-.5824-.277-.8695-.327-.287-.05-.5423-.048-.7659.008-.2235.055-.4043.158-.5423.309s-.207.341-.207.572v1.381c0 .149.0165.342.0497.576.0331.235.0897.489.1697.763.08.273.1835.556.3105.848.127.291.2843.569.472.832l-2.3268-.191s-.0883.003-.2649.007c-.1767.005-.265.082-.265.232v1.611z" fill="#003" stroke-width="1.29456"/><path d="m149.697 50.9514v-1.6108c0-.1611-.087-.3421-.261-.5429-.174-.2007-.26-.3011-.26-.3011l-2.311-2.4777c.183-.0448.337-.1356.464-.2726s.229-.2969.306-.4797c.078-.1829.133-.3741.166-.5737s.05-.3829.05-.5498v-1.3811c0-.2302-.071-.5009-.211-.8121-.141-.3112-.323-.6232-.547-.936s-.477-.6086-.762-.8873c-.284-.2787-.572-.5023-.865-.6707-.293-.1683-.582-.2776-.869-.3277s-.543-.0474-.766.0081c-.224.0554-.405.1586-.543.3093-.138.1508-.207.3413-.207.5714v1.3812c0 .1496.017.3418.05.5767s.09.489.17.7624.183.5559.31.8477c.127.2917.285.5693.472.8327l-2.327-.1911s-.088.0024-.264.0072c-.177.0048-.265.082-.265.2317v1.6107z" fill="#003" stroke-width="1.29456"/><path d="m79.3915 50.9514v-1.6108c0-.1611-.0869-.3421-.2608-.5429-.1739-.2007-.2608-.3011-.2608-.3011l-2.3102-2.4777c.1821-.0448.3367-.1356.4637-.2726.1269-.137.2291-.2969.3063-.4797.0773-.1829.1325-.3741.1656-.5737.0332-.1996.0497-.3829.0497-.5498v-1.3811c0-.2302-.0704-.5009-.2111-.8121-.1408-.3112-.3229-.6232-.5465-.936s-.4775-.6086-.7618-.8873-.5727-.5023-.8653-.6707c-.2925-.1683-.5823-.2776-.8694-.3277-.287-.0501-.5423-.0474-.7659.0081-.2236.0554-.4043.1586-.5423.3093-.138.1508-.207.3413-.207.5714v1.3812c0 .1496.0165.3418.0496.5767.0332.2349.0897.489.1698.7624.08.2734.1835.5559.3105.8477.1269.2917.2843.5693.472.8327l-2.3268-.1911s-.0883.0024-.2649.0072c-.1767.0048-.265.082-.265.2317v1.6107z" fill="#003" stroke-width="1.29456"/><path d="m114.121 107.703v-1.61c0-.162-.087-.343-.261-.543-.174-.201-.261-.301-.261-.301l-2.31-2.478c.182-.045.337-.136.464-.273s.229-.297.306-.479c.078-.183.133-.375.166-.574.033-.2.05-.383.05-.55v-1.381c0-.2302-.071-.5009-.212-.8121-.14-.3112-.323-.6232-.546-.9361-.224-.3128-.478-.6086-.762-.8873s-.573-.5022-.865-.6706c-.293-.1684-.583-.2776-.87-.3277-.287-.0502-.542-.0475-.766.008-.223.0555-.404.1586-.542.3094-.138.1507-.207.3412-.207.5714v1.3811c0 .1497.017.3419.05.5768.033.2348.09.489.17.7623.08.2734.183.5558.31.8478s.284.569.472.833l-2.327-.191s-.088.002-.265.007c-.176.005-.265.082-.265.231v1.611z" fill="#003" stroke-width="1.29456"/><path d="m182.732 108.552v-1.611c0-.161-.087-.342-.261-.543-.173-.2-.26-.301-.26-.301l-2.31-2.477c.182-.045.336-.136.463-.273s.229-.297.307-.48c.077-.183.132-.374.165-.574.033-.199.05-.382.05-.549v-1.381c0-.231-.071-.5013-.211-.8125-.141-.3112-.323-.6232-.547-.936-.223-.3128-.477-.6086-.762-.8873-.284-.2787-.572-.5023-.865-.6707-.292-.1684-.582-.2776-.869-.3277s-.543-.0474-.766.008c-.224.0555-.405.1586-.543.3094s-.207.3412-.207.5714v1.3812c0 .1496.017.3418.05.5767s.09.4885.17.7625c.08.273.183.556.31.848.127.291.285.569.472.832l-2.326-.191s-.089.003-.265.007c-.177.005-.265.082-.265.232v1.611z" fill="#003" stroke-width="1.29456"/></g></svg>