<svg fill="none" height="188" viewBox="0 0 219 188" width="219" xmlns="http://www.w3.org/2000/svg" xmlns:xlink="http://www.w3.org/1999/xlink"><filter id="a" color-interpolation-filters="sRGB" filterUnits="userSpaceOnUse" height="51.3822" width="45.6514" x="172.479" y="33.6875"><feFlood flood-opacity="0" result="BackgroundImageFix"/><feColorMatrix in="SourceAlpha" result="hardAlpha" type="matrix" values="0 0 0 0 0 0 0 0 0 0 0 0 0 0 0 0 0 0 127 0"/><feOffset dx="-6.66048" dy="8.56348"/><feGaussianBlur stdDeviation="3.33024"/><feColorMatrix type="matrix" values="0 0 0 0 0.316369 0 0 0 0 0.366988 0 0 0 0 0.353496 0 0 0 0.25741 0"/><feBlend in2="BackgroundImageFix" mode="normal" result="effect1_dropShadow_557_446"/><feColorMatrix in="SourceAlpha" result="hardAlpha" type="matrix" values="0 0 0 0 0 0 0 0 0 0 0 0 0 0 0 0 0 0 127 0"/><feOffset dx="-1.90299" dy="4.75749"/><feGaussianBlur stdDeviation="1.42725"/><feColorMatrix type="matrix" values="0 0 0 0 0 0 0 0 0 0 0 0 0 0 0 0 0 0 0.144615 0"/><feBlend in2="effect1_dropShadow_557_446" mode="normal" result="effect2_dropShadow_557_446"/><feBlend in="SourceGraphic" in2="effect2_dropShadow_557_446" mode="normal" result="shape"/></filter><filter id="b" color-interpolation-filters="sRGB" filterUnits="userSpaceOnUse" height="51.3822" width="45.6514" x="113.686" y=".367188"><feFlood flood-opacity="0" result="BackgroundImageFix"/><feColorMatrix in="SourceAlpha" result="hardAlpha" type="matrix" values="0 0 0 0 0 0 0 0 0 0 0 0 0 0 0 0 0 0 127 0"/><feOffset dx="-6.66048" dy="8.56348"/><feGaussianBlur stdDeviation="3.33024"/><feColorMatrix type="matrix" values="0 0 0 0 0.316369 0 0 0 0 0.366988 0 0 0 0 0.353496 0 0 0 0.25741 0"/><feBlend in2="BackgroundImageFix" mode="normal" result="effect1_dropShadow_557_446"/><feColorMatrix in="SourceAlpha" result="hardAlpha" type="matrix" values="0 0 0 0 0 0 0 0 0 0 0 0 0 0 0 0 0 0 127 0"/><feOffset dx="-1.90299" dy="4.75749"/><feGaussianBlur stdDeviation="1.42725"/><feColorMatrix type="matrix" values="0 0 0 0 0 0 0 0 0 0 0 0 0 0 0 0 0 0 0.144615 0"/><feBlend in2="effect1_dropShadow_557_446" mode="normal" result="effect2_dropShadow_557_446"/><feBlend in="SourceGraphic" in2="effect2_dropShadow_557_446" mode="normal" result="shape"/></filter><filter id="c" color-interpolation-filters="sRGB" filterUnits="userSpaceOnUse" height="51.3822" width="45.6514" x="75.7035" y=".367188"><feFlood flood-opacity="0" result="BackgroundImageFix"/><feColorMatrix in="SourceAlpha" result="hardAlpha" type="matrix" values="0 0 0 0 0 0 0 0 0 0 0 0 0 0 0 0 0 0 127 0"/><feOffset dx="-6.66048" dy="8.56348"/><feGaussianBlur stdDeviation="3.33024"/><feColorMatrix type="matrix" values="0 0 0 0 0.316369 0 0 0 0 0.366988 0 0 0 0 0.353496 0 0 0 0.25741 0"/><feBlend in2="BackgroundImageFix" mode="normal" result="effect1_dropShadow_557_446"/><feColorMatrix in="SourceAlpha" result="hardAlpha" type="matrix" values="0 0 0 0 0 0 0 0 0 0 0 0 0 0 0 0 0 0 127 0"/><feOffset dx="-1.90299" dy="4.75749"/><feGaussianBlur stdDeviation="1.42725"/><feColorMatrix type="matrix" values="0 0 0 0 0 0 0 0 0 0 0 0 0 0 0 0 0 0 0.144615 0"/><feBlend in2="effect1_dropShadow_557_446" mode="normal" result="effect2_dropShadow_557_446"/><feBlend in="SourceGraphic" in2="effect2_dropShadow_557_446" mode="normal" result="shape"/></filter><filter id="d" color-interpolation-filters="sRGB" filterUnits="userSpaceOnUse" height="51.3822" width="45.6514" x="153.877" y="67.3582"><feFlood flood-opacity="0" result="BackgroundImageFix"/><feColorMatrix in="SourceAlpha" result="hardAlpha" type="matrix" values="0 0 0 0 0 0 0 0 0 0 0 0 0 0 0 0 0 0 127 0"/><feOffset dx="-6.66048" dy="8.56348"/><feGaussianBlur stdDeviation="3.33024"/><feColorMatrix type="matrix" values="0 0 0 0 0.316369 0 0 0 0 0.366988 0 0 0 0 0.353496 0 0 0 0.25741 0"/><feBlend in2="BackgroundImageFix" mode="normal" result="effect1_dropShadow_557_446"/><feColorMatrix in="SourceAlpha" result="hardAlpha" type="matrix" values="0 0 0 0 0 0 0 0 0 0 0 0 0 0 0 0 0 0 127 0"/><feOffset dx="-1.90299" dy="4.75749"/><feGaussianBlur stdDeviation="1.42725"/><feColorMatrix type="matrix" values="0 0 0 0 0 0 0 0 0 0 0 0 0 0 0 0 0 0 0.144615 0"/><feBlend in2="effect1_dropShadow_557_446" mode="normal" result="effect2_dropShadow_557_446"/><feBlend in="SourceGraphic" in2="effect2_dropShadow_557_446" mode="normal" result="shape"/></filter><filter id="e" color-interpolation-filters="sRGB" filterUnits="userSpaceOnUse" height="51.3822" width="45.6514" x="135.096" y="102.159"><feFlood flood-opacity="0" result="BackgroundImageFix"/><feColorMatrix in="SourceAlpha" result="hardAlpha" type="matrix" values="0 0 0 0 0 0 0 0 0 0 0 0 0 0 0 0 0 0 127 0"/><feOffset dx="-6.66048" dy="8.56348"/><feGaussianBlur stdDeviation="3.33024"/><feColorMatrix type="matrix" values="0 0 0 0 0.316369 0 0 0 0 0.366988 0 0 0 0 0.353496 0 0 0 0.25741 0"/><feBlend in2="BackgroundImageFix" mode="normal" result="effect1_dropShadow_557_446"/><feColorMatrix in="SourceAlpha" result="hardAlpha" type="matrix" values="0 0 0 0 0 0 0 0 0 0 0 0 0 0 0 0 0 0 127 0"/><feOffset dx="-1.90299" dy="4.75749"/><feGaussianBlur stdDeviation="1.42725"/><feColorMatrix type="matrix" values="0 0 0 0 0 0 0 0 0 0 0 0 0 0 0 0 0 0 0.144615 0"/><feBlend in2="effect1_dropShadow_557_446" mode="normal" result="effect2_dropShadow_557_446"/><feBlend in="SourceGraphic" in2="effect2_dropShadow_557_446" mode="normal" result="shape"/></filter><filter id="f" color-interpolation-filters="sRGB" filterUnits="userSpaceOnUse" height="51.3822" width="45.6514" x="20.265" y="102.159"><feFlood flood-opacity="0" result="BackgroundImageFix"/><feColorMatrix in="SourceAlpha" result="hardAlpha" type="matrix" values="0 0 0 0 0 0 0 0 0 0 0 0 0 0 0 0 0 0 127 0"/><feOffset dx="-6.66048" dy="8.56348"/><feGaussianBlur stdDeviation="3.33024"/><feColorMatrix type="matrix" values="0 0 0 0 0.316369 0 0 0 0 0.366988 0 0 0 0 0.353496 0 0 0 0.25741 0"/><feBlend in2="BackgroundImageFix" mode="normal" result="effect1_dropShadow_557_446"/><feColorMatrix in="SourceAlpha" result="hardAlpha" type="matrix" values="0 0 0 0 0 0 0 0 0 0 0 0 0 0 0 0 0 0 127 0"/><feOffset dx="-1.90299" dy="4.75749"/><feGaussianBlur stdDeviation="1.42725"/><feColorMatrix type="matrix" values="0 0 0 0 0 0 0 0 0 0 0 0 0 0 0 0 0 0 0.144615 0"/><feBlend in2="effect1_dropShadow_557_446" mode="normal" result="effect2_dropShadow_557_446"/><feBlend in="SourceGraphic" in2="effect2_dropShadow_557_446" mode="normal" result="shape"/></filter><filter id="g" color-interpolation-filters="sRGB" filterUnits="userSpaceOnUse" height="51.3822" width="45.6514" x="134.002" y="32.9856"><feFlood flood-opacity="0" result="BackgroundImageFix"/><feColorMatrix in="SourceAlpha" result="hardAlpha" type="matrix" values="0 0 0 0 0 0 0 0 0 0 0 0 0 0 0 0 0 0 127 0"/><feOffset dx="-6.66048" dy="8.56348"/><feGaussianBlur stdDeviation="3.33024"/><feColorMatrix type="matrix" values="0 0 0 0 0.316369 0 0 0 0 0.366988 0 0 0 0 0.353496 0 0 0 0.25741 0"/><feBlend in2="BackgroundImageFix" mode="normal" result="effect1_dropShadow_557_446"/><feColorMatrix in="SourceAlpha" result="hardAlpha" type="matrix" values="0 0 0 0 0 0 0 0 0 0 0 0 0 0 0 0 0 0 127 0"/><feOffset dx="-1.90299" dy="4.75749"/><feGaussianBlur stdDeviation="1.42725"/><feColorMatrix type="matrix" values="0 0 0 0 0 0 0 0 0 0 0 0 0 0 0 0 0 0 0.144615 0"/><feBlend in2="effect1_dropShadow_557_446" mode="normal" result="effect2_dropShadow_557_446"/><feBlend in="SourceGraphic" in2="effect2_dropShadow_557_446" mode="normal" result="shape"/></filter><filter id="h" color-interpolation-filters="sRGB" filterUnits="userSpaceOnUse" height="51.3822" width="45.6514" x="116.335" y="136.117"><feFlood flood-opacity="0" result="BackgroundImageFix"/><feColorMatrix in="SourceAlpha" result="hardAlpha" type="matrix" values="0 0 0 0 0 0 0 0 0 0 0 0 0 0 0 0 0 0 127 0"/><feOffset dx="-6.66048" dy="8.56348"/><feGaussianBlur stdDeviation="3.33024"/><feColorMatrix type="matrix" values="0 0 0 0 0.316369 0 0 0 0 0.366988 0 0 0 0 0.353496 0 0 0 0.25741 0"/><feBlend in2="BackgroundImageFix" mode="normal" result="effect1_dropShadow_557_446"/><feColorMatrix in="SourceAlpha" result="hardAlpha" type="matrix" values="0 0 0 0 0 0 0 0 0 0 0 0 0 0 0 0 0 0 127 0"/><feOffset dx="-1.90299" dy="4.75749"/><feGaussianBlur stdDeviation="1.42725"/><feColorMatrix type="matrix" values="0 0 0 0 0 0 0 0 0 0 0 0 0 0 0 0 0 0 0.144615 0"/><feBlend in2="effect1_dropShadow_557_446" mode="normal" result="effect2_dropShadow_557_446"/><feBlend in="SourceGraphic" in2="effect2_dropShadow_557_446" mode="normal" result="shape"/></filter><filter id="i" color-interpolation-filters="sRGB" filterUnits="userSpaceOnUse" height="51.3822" width="45.6514" x="78.3529" y="136.117"><feFlood flood-opacity="0" result="BackgroundImageFix"/><feColorMatrix in="SourceAlpha" result="hardAlpha" type="matrix" values="0 0 0 0 0 0 0 0 0 0 0 0 0 0 0 0 0 0 127 0"/><feOffset dx="-6.66048" dy="8.56348"/><feGaussianBlur stdDeviation="3.33024"/><feColorMatrix type="matrix" values="0 0 0 0 0.316369 0 0 0 0 0.366988 0 0 0 0 0.353496 0 0 0 0.25741 0"/><feBlend in2="BackgroundImageFix" mode="normal" result="effect1_dropShadow_557_446"/><feColorMatrix in="SourceAlpha" result="hardAlpha" type="matrix" values="0 0 0 0 0 0 0 0 0 0 0 0 0 0 0 0 0 0 127 0"/><feOffset dx="-1.90299" dy="4.75749"/><feGaussianBlur stdDeviation="1.42725"/><feColorMatrix type="matrix" values="0 0 0 0 0 0 0 0 0 0 0 0 0 0 0 0 0 0 0.144615 0"/><feBlend in2="effect1_dropShadow_557_446" mode="normal" result="effect2_dropShadow_557_446"/><feBlend in="SourceGraphic" in2="effect2_dropShadow_557_446" mode="normal" result="shape"/></filter><filter id="j" color-interpolation-filters="sRGB" filterUnits="userSpaceOnUse" height="51.3822" width="45.6514" x="40.3704" y="136.117"><feFlood flood-opacity="0" result="BackgroundImageFix"/><feColorMatrix in="SourceAlpha" result="hardAlpha" type="matrix" values="0 0 0 0 0 0 0 0 0 0 0 0 0 0 0 0 0 0 127 0"/><feOffset dx="-6.66048" dy="8.56348"/><feGaussianBlur stdDeviation="3.33024"/><feColorMatrix type="matrix" values="0 0 0 0 0.316369 0 0 0 0 0.366988 0 0 0 0 0.353496 0 0 0 0.25741 0"/><feBlend in2="BackgroundImageFix" mode="normal" result="effect1_dropShadow_557_446"/><feColorMatrix in="SourceAlpha" result="hardAlpha" type="matrix" values="0 0 0 0 0 0 0 0 0 0 0 0 0 0 0 0 0 0 127 0"/><feOffset dx="-1.90299" dy="4.75749"/><feGaussianBlur stdDeviation="1.42725"/><feColorMatrix type="matrix" values="0 0 0 0 0 0 0 0 0 0 0 0 0 0 0 0 0 0 0.144615 0"/><feBlend in2="effect1_dropShadow_557_446" mode="normal" result="effect2_dropShadow_557_446"/><feBlend in="SourceGraphic" in2="effect2_dropShadow_557_446" mode="normal" result="shape"/></filter><filter id="k" color-interpolation-filters="sRGB" filterUnits="userSpaceOnUse" height="51.3822" width="45.6514" x="37.2796" y=".367188"><feFlood flood-opacity="0" result="BackgroundImageFix"/><feColorMatrix in="SourceAlpha" result="hardAlpha" type="matrix" values="0 0 0 0 0 0 0 0 0 0 0 0 0 0 0 0 0 0 127 0"/><feOffset dx="-6.66048" dy="8.56348"/><feGaussianBlur stdDeviation="3.33024"/><feColorMatrix type="matrix" values="0 0 0 0 0.316369 0 0 0 0 0.366988 0 0 0 0 0.353496 0 0 0 0.25741 0"/><feBlend in2="BackgroundImageFix" mode="normal" result="effect1_dropShadow_557_446"/><feColorMatrix in="SourceAlpha" result="hardAlpha" type="matrix" values="0 0 0 0 0 0 0 0 0 0 0 0 0 0 0 0 0 0 127 0"/><feOffset dx="-1.90299" dy="4.75749"/><feGaussianBlur stdDeviation="1.42725"/><feColorMatrix type="matrix" values="0 0 0 0 0 0 0 0 0 0 0 0 0 0 0 0 0 0 0.144615 0"/><feBlend in2="effect1_dropShadow_557_446" mode="normal" result="effect2_dropShadow_557_446"/><feBlend in="SourceGraphic" in2="effect2_dropShadow_557_446" mode="normal" result="shape"/></filter><filter id="l" color-interpolation-filters="sRGB" filterUnits="userSpaceOnUse" height="51.3822" width="45.6514" x=".179038" y="67.3582"><feFlood flood-opacity="0" result="BackgroundImageFix"/><feColorMatrix in="SourceAlpha" result="hardAlpha" type="matrix" values="0 0 0 0 0 0 0 0 0 0 0 0 0 0 0 0 0 0 127 0"/><feOffset dx="-6.66048" dy="8.56348"/><feGaussianBlur stdDeviation="3.33024"/><feColorMatrix type="matrix" values="0 0 0 0 0.316369 0 0 0 0 0.366988 0 0 0 0 0.353496 0 0 0 0.25741 0"/><feBlend in2="BackgroundImageFix" mode="normal" result="effect1_dropShadow_557_446"/><feColorMatrix in="SourceAlpha" result="hardAlpha" type="matrix" values="0 0 0 0 0 0 0 0 0 0 0 0 0 0 0 0 0 0 127 0"/><feOffset dx="-1.90299" dy="4.75749"/><feGaussianBlur stdDeviation="1.42725"/><feColorMatrix type="matrix" values="0 0 0 0 0 0 0 0 0 0 0 0 0 0 0 0 0 0 0.144615 0"/><feBlend in2="effect1_dropShadow_557_446" mode="normal" result="effect2_dropShadow_557_446"/><feBlend in="SourceGraphic" in2="effect2_dropShadow_557_446" mode="normal" result="shape"/></filter><filter id="m" color-interpolation-filters="sRGB" filterUnits="userSpaceOnUse" height="51.3822" width="45.6514" x="18.7288" y="32.9856"><feFlood flood-opacity="0" result="BackgroundImageFix"/><feColorMatrix in="SourceAlpha" result="hardAlpha" type="matrix" values="0 0 0 0 0 0 0 0 0 0 0 0 0 0 0 0 0 0 127 0"/><feOffset dx="-6.66048" dy="8.56348"/><feGaussianBlur stdDeviation="3.33024"/><feColorMatrix type="matrix" values="0 0 0 0 0.316369 0 0 0 0 0.366988 0 0 0 0 0.353496 0 0 0 0.25741 0"/><feBlend in2="BackgroundImageFix" mode="normal" result="effect1_dropShadow_557_446"/><feColorMatrix in="SourceAlpha" result="hardAlpha" type="matrix" values="0 0 0 0 0 0 0 0 0 0 0 0 0 0 0 0 0 0 127 0"/><feOffset dx="-1.90299" dy="4.75749"/><feGaussianBlur stdDeviation="1.42725"/><feColorMatrix type="matrix" values="0 0 0 0 0 0 0 0 0 0 0 0 0 0 0 0 0 0 0.144615 0"/><feBlend in2="effect1_dropShadow_557_446" mode="normal" result="effect2_dropShadow_557_446"/><feBlend in="SourceGraphic" in2="effect2_dropShadow_557_446" mode="normal" result="shape"/></filter><filter id="n" color-interpolation-filters="sRGB" filterUnits="userSpaceOnUse" height="51.3822" width="45.6514" x="172.742" y="102.159"><feFlood flood-opacity="0" result="BackgroundImageFix"/><feColorMatrix in="SourceAlpha" result="hardAlpha" type="matrix" values="0 0 0 0 0 0 0 0 0 0 0 0 0 0 0 0 0 0 127 0"/><feOffset dx="-6.66048" dy="8.56348"/><feGaussianBlur stdDeviation="3.33024"/><feColorMatrix type="matrix" values="0 0 0 0 0.316369 0 0 0 0 0.366988 0 0 0 0 0.353496 0 0 0 0.25741 0"/><feBlend in2="BackgroundImageFix" mode="normal" result="effect1_dropShadow_557_446"/><feColorMatrix in="SourceAlpha" result="hardAlpha" type="matrix" values="0 0 0 0 0 0 0 0 0 0 0 0 0 0 0 0 0 0 127 0"/><feOffset dx="-1.90299" dy="4.75749"/><feGaussianBlur stdDeviation="1.42725"/><feColorMatrix type="matrix" values="0 0 0 0 0 0 0 0 0 0 0 0 0 0 0 0 0 0 0.144615 0"/><feBlend in2="effect1_dropShadow_557_446" mode="normal" result="effect2_dropShadow_557_446"/><feBlend in="SourceGraphic" in2="effect2_dropShadow_557_446" mode="normal" result="shape"/></filter><filter id="o" color-interpolation-filters="sRGB" filterUnits="userSpaceOnUse" height="63.7516" width="55.1663" x="53.3496" y="32.9856"><feFlood flood-opacity="0" result="BackgroundImageFix"/><feColorMatrix in="SourceAlpha" result="hardAlpha" type="matrix" values="0 0 0 0 0 0 0 0 0 0 0 0 0 0 0 0 0 0 127 0"/><feOffset dx="-10.4665" dy="20.9329"/><feGaussianBlur stdDeviation="3.33024"/><feColorMatrix type="matrix" values="0 0 0 0 0.316369 0 0 0 0 0.366988 0 0 0 0 0.353496 0 0 0 0.25741 0"/><feBlend in2="BackgroundImageFix" mode="normal" result="effect1_dropShadow_557_446"/><feColorMatrix in="SourceAlpha" result="hardAlpha" type="matrix" values="0 0 0 0 0 0 0 0 0 0 0 0 0 0 0 0 0 0 127 0"/><feOffset dx="-2.85449" dy="9.51497"/><feGaussianBlur stdDeviation="4.75749"/><feColorMatrix type="matrix" values="0 0 0 0 0 0 0 0 0 0 0 0 0 0 0 0 0 0 0.144615 0"/><feBlend in2="effect1_dropShadow_557_446" mode="normal" result="effect2_dropShadow_557_446"/><feBlend in="SourceGraphic" in2="effect2_dropShadow_557_446" mode="normal" result="shape"/></filter><filter id="p" color-interpolation-filters="sRGB" filterUnits="userSpaceOnUse" height="63.7516" width="55.1663" x="91.7725" y="32.9856"><feFlood flood-opacity="0" result="BackgroundImageFix"/><feColorMatrix in="SourceAlpha" result="hardAlpha" type="matrix" values="0 0 0 0 0 0 0 0 0 0 0 0 0 0 0 0 0 0 127 0"/><feOffset dx="-10.4665" dy="20.9329"/><feGaussianBlur stdDeviation="3.33024"/><feColorMatrix type="matrix" values="0 0 0 0 0.316369 0 0 0 0 0.366988 0 0 0 0 0.353496 0 0 0 0.25741 0"/><feBlend in2="BackgroundImageFix" mode="normal" result="effect1_dropShadow_557_446"/><feColorMatrix in="SourceAlpha" result="hardAlpha" type="matrix" values="0 0 0 0 0 0 0 0 0 0 0 0 0 0 0 0 0 0 127 0"/><feOffset dx="-2.85449" dy="9.51497"/><feGaussianBlur stdDeviation="4.75749"/><feColorMatrix type="matrix" values="0 0 0 0 0 0 0 0 0 0 0 0 0 0 0 0 0 0 0.144615 0"/><feBlend in2="effect1_dropShadow_557_446" mode="normal" result="effect2_dropShadow_557_446"/><feBlend in="SourceGraphic" in2="effect2_dropShadow_557_446" mode="normal" result="shape"/></filter><filter id="q" color-interpolation-filters="sRGB" filterUnits="userSpaceOnUse" height="63.7516" width="55.1663" x="34.7969" y="67.3582"><feFlood flood-opacity="0" result="BackgroundImageFix"/><feColorMatrix in="SourceAlpha" result="hardAlpha" type="matrix" values="0 0 0 0 0 0 0 0 0 0 0 0 0 0 0 0 0 0 127 0"/><feOffset dx="-10.4665" dy="20.9329"/><feGaussianBlur stdDeviation="3.33024"/><feColorMatrix type="matrix" values="0 0 0 0 0.316369 0 0 0 0 0.366988 0 0 0 0 0.353496 0 0 0 0.25741 0"/><feBlend in2="BackgroundImageFix" mode="normal" result="effect1_dropShadow_557_446"/><feColorMatrix in="SourceAlpha" result="hardAlpha" type="matrix" values="0 0 0 0 0 0 0 0 0 0 0 0 0 0 0 0 0 0 127 0"/><feOffset dx="-2.85449" dy="9.51497"/><feGaussianBlur stdDeviation="4.75749"/><feColorMatrix type="matrix" values="0 0 0 0 0 0 0 0 0 0 0 0 0 0 0 0 0 0 0.144615 0"/><feBlend in2="effect1_dropShadow_557_446" mode="normal" result="effect2_dropShadow_557_446"/><feBlend in="SourceGraphic" in2="effect2_dropShadow_557_446" mode="normal" result="shape"/></filter><filter id="r" color-interpolation-filters="sRGB" filterUnits="userSpaceOnUse" height="63.7516" width="55.1663" x="73.2227" y="67.3582"><feFlood flood-opacity="0" result="BackgroundImageFix"/><feColorMatrix in="SourceAlpha" result="hardAlpha" type="matrix" values="0 0 0 0 0 0 0 0 0 0 0 0 0 0 0 0 0 0 127 0"/><feOffset dx="-10.4665" dy="20.9329"/><feGaussianBlur stdDeviation="3.33024"/><feColorMatrix type="matrix" values="0 0 0 0 0.316369 0 0 0 0 0.366988 0 0 0 0 0.353496 0 0 0 0.25741 0"/><feBlend in2="BackgroundImageFix" mode="normal" result="effect1_dropShadow_557_446"/><feColorMatrix in="SourceAlpha" result="hardAlpha" type="matrix" values="0 0 0 0 0 0 0 0 0 0 0 0 0 0 0 0 0 0 127 0"/><feOffset dx="-2.85449" dy="9.51497"/><feGaussianBlur stdDeviation="4.75749"/><feColorMatrix type="matrix" values="0 0 0 0 0 0 0 0 0 0 0 0 0 0 0 0 0 0 0.144615 0"/><feBlend in2="effect1_dropShadow_557_446" mode="normal" result="effect2_dropShadow_557_446"/><feBlend in="SourceGraphic" in2="effect2_dropShadow_557_446" mode="normal" result="shape"/></filter><filter id="s" color-interpolation-filters="sRGB" filterUnits="userSpaceOnUse" height="63.7516" width="55.1663" x="111.646" y="67.3582"><feFlood flood-opacity="0" result="BackgroundImageFix"/><feColorMatrix in="SourceAlpha" result="hardAlpha" type="matrix" values="0 0 0 0 0 0 0 0 0 0 0 0 0 0 0 0 0 0 127 0"/><feOffset dx="-10.4665" dy="20.9329"/><feGaussianBlur stdDeviation="3.33024"/><feColorMatrix type="matrix" values="0 0 0 0 0.316369 0 0 0 0 0.366988 0 0 0 0 0.353496 0 0 0 0.25741 0"/><feBlend in2="BackgroundImageFix" mode="normal" result="effect1_dropShadow_557_446"/><feColorMatrix in="SourceAlpha" result="hardAlpha" type="matrix" values="0 0 0 0 0 0 0 0 0 0 0 0 0 0 0 0 0 0 127 0"/><feOffset dx="-2.85449" dy="9.51497"/><feGaussianBlur stdDeviation="4.75749"/><feColorMatrix type="matrix" values="0 0 0 0 0 0 0 0 0 0 0 0 0 0 0 0 0 0 0.144615 0"/><feBlend in2="effect1_dropShadow_557_446" mode="normal" result="effect2_dropShadow_557_446"/><feBlend in="SourceGraphic" in2="effect2_dropShadow_557_446" mode="normal" result="shape"/></filter><filter id="t" color-interpolation-filters="sRGB" filterUnits="userSpaceOnUse" height="63.7516" width="55.1663" x="54.8828" y="102.159"><feFlood flood-opacity="0" result="BackgroundImageFix"/><feColorMatrix in="SourceAlpha" result="hardAlpha" type="matrix" values="0 0 0 0 0 0 0 0 0 0 0 0 0 0 0 0 0 0 127 0"/><feOffset dx="-10.4665" dy="20.9329"/><feGaussianBlur stdDeviation="3.33024"/><feColorMatrix type="matrix" values="0 0 0 0 0.316369 0 0 0 0 0.366988 0 0 0 0 0.353496 0 0 0 0.25741 0"/><feBlend in2="BackgroundImageFix" mode="normal" result="effect1_dropShadow_557_446"/><feColorMatrix in="SourceAlpha" result="hardAlpha" type="matrix" values="0 0 0 0 0 0 0 0 0 0 0 0 0 0 0 0 0 0 127 0"/><feOffset dx="-2.85449" dy="9.51497"/><feGaussianBlur stdDeviation="4.75749"/><feColorMatrix type="matrix" values="0 0 0 0 0 0 0 0 0 0 0 0 0 0 0 0 0 0 0.144615 0"/><feBlend in2="effect1_dropShadow_557_446" mode="normal" result="effect2_dropShadow_557_446"/><feBlend in="SourceGraphic" in2="effect2_dropShadow_557_446" mode="normal" result="shape"/></filter><filter id="u" color-interpolation-filters="sRGB" filterUnits="userSpaceOnUse" height="63.7516" width="55.1663" x="92.8662" y="102.159"><feFlood flood-opacity="0" result="BackgroundImageFix"/><feColorMatrix in="SourceAlpha" result="hardAlpha" type="matrix" values="0 0 0 0 0 0 0 0 0 0 0 0 0 0 0 0 0 0 127 0"/><feOffset dx="-10.4665" dy="20.9329"/><feGaussianBlur stdDeviation="3.33024"/><feColorMatrix type="matrix" values="0 0 0 0 0.316369 0 0 0 0 0.366988 0 0 0 0 0.353496 0 0 0 0.25741 0"/><feBlend in2="BackgroundImageFix" mode="normal" result="effect1_dropShadow_557_446"/><feColorMatrix in="SourceAlpha" result="hardAlpha" type="matrix" values="0 0 0 0 0 0 0 0 0 0 0 0 0 0 0 0 0 0 127 0"/><feOffset dx="-2.85449" dy="9.51497"/><feGaussianBlur stdDeviation="4.75749"/><feColorMatrix type="matrix" values="0 0 0 0 0 0 0 0 0 0 0 0 0 0 0 0 0 0 0.144615 0"/><feBlend in2="effect1_dropShadow_557_446" mode="normal" result="effect2_dropShadow_557_446"/><feBlend in="SourceGraphic" in2="effect2_dropShadow_557_446" mode="normal" result="shape"/></filter><g filter="url(#a)"><path d="m201.49 33.6875 15.689 9.0395v18.0791l-15.689 9.0395-15.69-9.0395v-18.0791z" fill="#000"/></g><path d="m201.49 33.6875 15.689 9.0395v18.0791l-15.689 9.0395-15.69-9.0395v-18.0791z" fill="#f0f5f6"/><path d="m207.011 57.3547v-2.0135c0-.2014-.114-.3651-.341-.4909-.226-.1259-.34-.1889-.34-.1889l-3.014-1.4351c.238-.187.44-.4118.605-.6744.166-.2626.299-.5359.4-.8201.101-.2841.173-.5629.216-.8362.043-.2734.065-.5144.065-.723v-1.7265c0-.2877-.092-.5755-.276-.8632-.183-.2878-.421-.5467-.713-.7769-.291-.2302-.623-.4173-.993-.5611-.371-.1439-.748-.2158-1.129-.2158-.382 0-.76.0719-1.135.2158-.374.1438-.707.3309-.999.5611-.291.2302-.527.4891-.707.7769-.18.2877-.27.5755-.27.8632v1.7265c0 .187.021.4154.064.6852.044.2697.118.5467.222.8309.104.2841.239.5629.405.8362.166.2734.371.5072.616.7014l-3.036 1.4351s-.115.0666-.345.1997c-.231.133-.346.2931-.346.4801v2.0135" fill="#003"/><g filter="url(#b)"><path d="m142.697.367188 15.689 9.039522v18.07909l-15.689 9.0395-15.69-9.0395v-18.07909z" fill="#000"/></g><path d="m142.697.367188 15.689 9.039522v18.07909l-15.689 9.0395-15.69-9.0395v-18.07909z" fill="#f0f5f6"/><path d="m148.218 24.0351v-2.0135c0-.2014-.114-.365-.341-.4909-.226-.1259-.34-.1889-.34-.1889l-3.014-1.4351c.238-.187.44-.4118.605-.6744.166-.2626.299-.5359.4-.8201.101-.2841.173-.5629.216-.8362.043-.2734.065-.5144.065-.723v-1.7265c0-.2877-.092-.5755-.276-.8632-.183-.2877-.421-.5467-.713-.7769-.291-.2302-.623-.4172-.993-.5611-.371-.1439-.748-.2158-1.129-.2158-.382 0-.76.0719-1.134.2158-.375.1439-.708.3309-1 .5611-.291.2302-.527.4892-.707.7769s-.27.5755-.27.8632v1.7265c0 .187.021.4154.065.6852.043.2698.117.5467.221.8309.104.2841.239.5629.405.8362.166.2734.371.5072.616.7014l-3.036 1.4351s-.115.0666-.345.1997c-.231.1331-.346.2931-.346.4801v2.0135" fill="#003"/><g filter="url(#c)"><path d="m104.714.367188 15.69 9.039522v18.07909l-15.69 9.0395-15.6896-9.0395v-18.07909z" fill="#000"/></g><path d="m104.714.367188 15.69 9.039522v18.07909l-15.69 9.0395-15.6896-9.0395v-18.07909z" fill="#f0f5f6"/><path d="m110.235 24.0351v-2.0135c0-.2014-.113-.365-.34-.4909s-.34-.1889-.34-.1889l-3.014-1.4351c.238-.187.439-.4118.605-.6744.165-.2626.299-.5359.4-.8201.1-.2841.172-.5629.216-.8362.043-.2734.064-.5144.064-.723v-1.7265c0-.2877-.091-.5755-.275-.8632s-.421-.5467-.713-.7769-.623-.4172-.994-.5611-.747-.2158-1.129-.2158c-.381 0-.759.0719-1.134.2158-.374.1439-.707.3309-.999.5611s-.528.4892-.708.7769-.27.5755-.27.8632v1.7265c0 .187.022.4154.065.6852s.117.5467.222.8309c.104.2841.239.5629.405.8362.165.2734.371.5072.615.7014l-3.0351 1.4351s-.1152.0666-.3457.1997c-.2304.1331-.3456.2931-.3456.4801v2.0135" fill="#003"/><g filter="url(#d)"><path d="m182.888 67.3582 15.69 9.0395v18.079l-15.69 9.0393-15.69-9.0393v-18.079z" fill="#000"/></g><path d="m182.888 67.3582 15.69 9.0395v18.079l-15.69 9.0393-15.69-9.0393v-18.079z" fill="#f0f5f6"/><path d="m188.408 91.0247v-2.0135c0-.2015-.113-.3651-.34-.491s-.34-.1888-.34-.1888l-3.014-1.4352c.237-.187.439-.4118.605-.6744.165-.2626.299-.5359.399-.8201.101-.2841.173-.5629.216-.8362.044-.2734.065-.5144.065-.723v-1.7265c0-.2877-.092-.5755-.275-.8632-.184-.2877-.422-.5467-.713-.7769-.292-.2302-.623-.4172-.994-.5611s-.747-.2158-1.129-.2158c-.381 0-.76.0719-1.134.2158-.375.1439-.708.3309-.999.5611-.292.2302-.528.4892-.708.7769s-.27.5755-.27.8632v1.7265c0 .187.022.4154.065.6852s.117.5467.221.8309c.105.2841.24.5629.405.8362.166.2734.371.5072.616.7014l-3.035 1.4352s-.115.0665-.346.1996c-.23.1331-.346.2931-.346.4802v2.0135" fill="#003"/><g filter="url(#e)"><path d="m164.107 102.159 15.689 9.04v18.079l-15.689 9.039-15.69-9.039v-18.079z" fill="#000"/></g><path d="m164.107 102.159 15.689 9.04v18.079l-15.689 9.039-15.69-9.039v-18.079z" fill="#f0f5f6"/><path d="m169.627 125.823v-2.013c0-.201-.114-.365-.34-.491-.227-.126-.341-.189-.341-.189l-3.013-1.435c.237-.187.439-.412.604-.674.166-.263.299-.536.4-.82.101-.285.173-.563.216-.837.043-.273.065-.514.065-.723v-1.726c0-.288-.092-.576-.275-.863-.184-.288-.422-.547-.713-.777-.292-.23-.623-.418-.994-.561-.371-.144-.747-.216-1.129-.216s-.76.072-1.134.216c-.375.143-.708.331-1 .561-.291.23-.527.489-.707.777-.18.287-.27.575-.27.863v1.726c0 .187.021.416.065.686.043.269.117.546.221.83.105.285.24.563.405.837.166.273.371.507.616.701l-3.035 1.435s-.116.067-.346.2c-.231.133-.346.293-.346.48v2.013" fill="#003"/><g filter="url(#f)"><path d="m49.2756 102.159 15.6897 9.04v18.079l-15.6897 9.039-15.6897-9.039v-18.079z" fill="#000"/></g><path d="m49.2756 102.159 15.6897 9.04v18.079l-15.6897 9.039-15.6897-9.039v-18.079z" fill="#f0f5f6"/><path d="m54.7949 125.823v-2.013c0-.201-.1135-.365-.3403-.491-.2269-.126-.3403-.189-.3403-.189l-3.0138-1.435c.2376-.187.4393-.412.6049-.674.1656-.263.2989-.536.3997-.82.1008-.285.1728-.563.216-.837.0433-.273.0649-.514.0649-.723v-1.726c0-.288-.0919-.576-.2755-.863-.1836-.288-.4213-.547-.7129-.777-.2917-.23-.623-.418-.9939-.561-.3708-.144-.7471-.216-1.1288-.216s-.7598.072-1.1342.216c-.3745.143-.7076.331-.9992.561-.2917.23-.5276.489-.7076.777-.18.287-.2701.575-.2701.863v1.726c0 .187.0217.416.0649.686.0432.269.117.546.2214.83.1044.285.2395.563.4051.837.1656.273.3709.507.6157.701l-3.0354 1.435s-.1152.067-.3457.2c-.2304.133-.3457.293-.3457.48v2.013" fill="#003"/><g filter="url(#g)"><path d="m163.013 32.9856 15.69 9.0395v18.0791l-15.69 9.0395-15.69-9.0395v-18.0791z" fill="#000"/></g><path d="m163.013 32.9856 15.69 9.0395v18.0791l-15.69 9.0395-15.69-9.0395v-18.0791z" fill="#f0f5f6"/><path d="m168.534 56.6494v-2.0135c0-.2014-.113-.3651-.34-.491s-.34-.1888-.34-.1888l-3.014-1.4351c.237-.1871.439-.4119.605-.6744.165-.2626.299-.536.399-.8201.101-.2842.173-.5629.216-.8363.044-.2733.065-.5143.065-.7229v-1.7265c0-.2878-.092-.5755-.275-.8632-.184-.2878-.422-.5468-.713-.777-.292-.2302-.623-.4172-.994-.5611-.371-.1438-.747-.2158-1.129-.2158s-.76.072-1.134.2158c-.375.1439-.708.3309-.999.5611-.292.2302-.528.4892-.708.777-.18.2877-.27.5754-.27.8632v1.7265c0 .187.022.4154.065.6852.043.2697.117.5467.221.8308.105.2842.24.5629.405.8363.166.2734.371.5071.616.7014l-3.035 1.4351s-.115.0665-.346.1996c-.23.1331-.346.2932-.346.4802v2.0135" fill="#003"/><g filter="url(#h)"><path d="m145.346 136.117 15.69 9.04v18.079l-15.69 9.04-15.69-9.04v-18.079z" fill="#000"/></g><path d="m145.346 136.117 15.69 9.04v18.079l-15.69 9.04-15.69-9.04v-18.079z" fill="#f0f5f6"/><path d="m150.867 159.783v-2.014c0-.201-.113-.365-.34-.491s-.34-.189-.34-.189l-3.014-1.435c.237-.187.439-.412.605-.674.165-.263.299-.536.399-.82.101-.284.173-.563.216-.836.044-.274.065-.515.065-.723v-1.727c0-.288-.092-.575-.275-.863-.184-.288-.422-.547-.713-.777-.292-.23-.623-.417-.994-.561s-.747-.216-1.129-.216-.76.072-1.134.216c-.375.144-.708.331-.999.561-.292.23-.528.489-.708.777s-.27.575-.27.863v1.727c0 .187.022.415.065.685s.117.546.221.831c.105.284.24.563.405.836.166.273.371.507.616.701l-3.035 1.435s-.115.067-.346.2c-.23.133-.346.293-.346.48v2.014" fill="#003"/><g filter="url(#i)"><path d="m107.364 136.117 15.689 9.04v18.079l-15.689 9.04-15.6902-9.04v-18.079z" fill="#000"/></g><path d="m107.364 136.117 15.689 9.04v18.079l-15.689 9.04-15.6902-9.04v-18.079z" fill="#f0f5f6"/><path d="m112.885 159.783v-2.014c0-.201-.114-.365-.341-.491-.226-.126-.34-.189-.34-.189l-3.014-1.435c.238-.187.44-.412.605-.674.166-.263.299-.536.4-.82s.173-.563.216-.836c.043-.274.065-.515.065-.723v-1.727c0-.288-.092-.575-.276-.863-.183-.288-.421-.547-.713-.777-.291-.23-.623-.417-.993-.561-.371-.144-.748-.216-1.129-.216-.382 0-.76.072-1.134.216-.375.144-.708.331-1 .561-.291.23-.527.489-.707.777s-.27.575-.27.863v1.727c0 .187.021.415.065.685.043.27.117.546.221.831.104.284.239.563.405.836s.371.507.616.701l-3.036 1.435s-.115.067-.345.2c-.231.133-.346.293-.346.48v2.014" fill="#003"/><g filter="url(#j)"><path d="m69.3811 136.117 15.6897 9.04v18.079l-15.6897 9.04-15.6897-9.04v-18.079z" fill="#000"/></g><path d="m69.3811 136.117 15.6897 9.04v18.079l-15.6897 9.04-15.6897-9.04v-18.079z" fill="#f0f5f6"/><path d="m74.9023 159.783v-2.014c0-.201-.1134-.365-.3403-.491-.2268-.126-.3403-.189-.3403-.189l-3.0138-1.435c.2377-.187.4393-.412.6049-.674.1657-.263.2989-.536.3997-.82s.1729-.563.2161-.836c.0432-.274.0648-.515.0648-.723v-1.727c0-.288-.0918-.575-.2755-.863-.1836-.288-.4213-.547-.7129-.777-.2917-.23-.623-.417-.9938-.561-.3709-.144-.7472-.216-1.1289-.216s-.7597.072-1.1342.216-.7076.331-.9992.561c-.2917.23-.5275.489-.7076.777-.18.288-.27.575-.27.863v1.727c0 .187.0216.415.0648.685s.117.546.2214.831c.1045.284.2395.563.4051.836.1657.273.3709.507.6157.701l-3.0354 1.435s-.1152.067-.3457.2c-.2304.133-.3456.293-.3456.48v2.014" fill="#003"/><g filter="url(#k)"><path d="m66.2903.367188 15.6897 9.039522v18.07909l-15.6897 9.0395-15.6897-9.0395v-18.07909z" fill="#000"/></g><path d="m66.2903.367188 15.6897 9.039522v18.07909l-15.6897 9.0395-15.6897-9.0395v-18.07909z" fill="#f0f5f6"/><path d="m71.8095 24.0351v-2.0135c0-.2014-.1134-.365-.3403-.4909-.2268-.1259-.3402-.1889-.3402-.1889l-3.0139-1.4351c.2377-.187.4393-.4118.605-.6744.1656-.2626.2988-.5359.3996-.8201.1009-.2841.1729-.5629.2161-.8362.0432-.2734.0648-.5144.0648-.723v-1.7265c0-.2877-.0918-.5755-.2755-.8632-.1836-.2877-.4212-.5467-.7129-.7769s-.6229-.4172-.9938-.5611-.7472-.2158-1.1288-.2158c-.3817 0-.7598.0719-1.1343.2158s-.7075.3309-.9992.5611-.5275.4892-.7075.7769c-.1801.2877-.2701.5755-.2701.8632v1.7265c0 .187.0216.4154.0648.6852s.117.5467.2215.8309c.1044.2841.2394.5629.405.8362.1657.2734.3709.5072.6158.7014l-3.0355 1.4351s-.1152.0666-.3456.1997c-.2305.1331-.3457.2931-.3457.4801v2.0135" fill="#003"/><g filter="url(#l)"><path d="m29.1897 67.3582 15.6897 9.0395v18.079l-15.6897 9.0393-15.6897-9.0393v-18.079z" fill="#000"/></g><path d="m29.1897 67.3582 15.6897 9.0395v18.079l-15.6897 9.0393-15.6897-9.0393v-18.079z" fill="#f0f5f6"/><path d="m34.0507 91.0247v-2.0135c0-.2015-.1134-.3651-.3402-.491-.2269-.1259-.3403-.1888-.3403-.1888l-3.0139-1.4352c.2377-.187.4393-.4118.605-.6744.1656-.2626.2988-.5359.3997-.8201.1008-.2841.1728-.5629.216-.8362.0432-.2734.0648-.5144.0648-.723v-1.7265c0-.2877-.0918-.5755-.2754-.8632-.1837-.2877-.4213-.5467-.713-.7769s-.6229-.4172-.9938-.5611-.7472-.2158-1.1288-.2158c-.3817 0-.7598.0719-1.1343.2158s-.7075.3309-.9992.5611c-.2916.2302-.5275.4892-.7075.7769-.1801.2877-.2701.5755-.2701.8632v1.7265c0 .187.0216.4154.0648.6852s.117.5467.2215.8309c.1044.2841.2394.5629.4051.8362.1656.2734.3708.5072.6157.7014l-3.0355 1.4352s-.1152.0665-.3456.1996c-.2305.1331-.3457.2931-.3457.4802v2.0135" fill="#003"/><g filter="url(#m)"><path d="m47.7395 32.9856 15.6897 9.0395v18.0791l-15.6897 9.0395-15.6897-9.0395v-18.0791z" fill="#000"/></g><path d="m47.7395 32.9856 15.6897 9.0395v18.0791l-15.6897 9.0395-15.6897-9.0395v-18.0791z" fill="#f0f5f6"/><path d="m52.8183 56.6494v-2.0135c0-.2014-.1134-.3651-.3403-.491-.2268-.1259-.3402-.1888-.3402-.1888l-3.0139-1.4351c.2377-.1871.4393-.4119.605-.6744.1656-.2626.2988-.536.3996-.8201.1009-.2842.1729-.5629.2161-.8363.0432-.2733.0648-.5143.0648-.7229v-1.7265c0-.2878-.0918-.5755-.2755-.8632-.1836-.2878-.4213-.5468-.7129-.777-.2917-.2302-.6229-.4172-.9938-.5611-.3709-.1438-.7472-.2158-1.1289-.2158-.3816 0-.7597.072-1.1342.2158-.3745.1439-.7075.3309-.9992.5611s-.5275.4892-.7076.777c-.18.2877-.27.5754-.27.8632v1.7265c0 .187.0216.4154.0648.6852.0432.2697.117.5467.2214.8308.1045.2842.2395.5629.4051.8363.1657.2734.3709.5071.6158.7014l-3.0355 1.4351s-.1152.0665-.3456.1996c-.2305.1331-.3457.2932-.3457.4802v2.0135" fill="#003"/><g filter="url(#n)"><path d="m201.752 102.159 15.69 9.04v18.079l-15.69 9.039-15.69-9.039v-18.079z" fill="#000"/></g><path d="m201.752 102.159 15.69 9.04v18.079l-15.69 9.039-15.69-9.039v-18.079z" fill="#f0f5f6"/><path d="m207.274 125.823v-2.013c0-.201-.113-.365-.34-.491s-.34-.189-.34-.189l-3.014-1.435c.238-.187.439-.412.605-.674.166-.263.299-.536.4-.82.1-.285.172-.563.216-.837.043-.273.064-.514.064-.723v-1.726c0-.288-.091-.576-.275-.863-.184-.288-.421-.547-.713-.777s-.623-.418-.994-.561c-.371-.144-.747-.216-1.129-.216-.381 0-.759.072-1.134.216-.374.143-.707.331-.999.561s-.528.489-.708.777c-.18.287-.27.575-.27.863v1.726c0 .187.022.416.065.686.043.269.117.546.222.83.104.285.239.563.405.837.165.273.371.507.615.701l-3.035 1.435s-.115.067-.346.2c-.23.133-.345.293-.345.48v2.013" fill="#003"/><g filter="url(#o)"><path d="m86.1663 32.9856 15.6897 9.0395v18.0791l-15.6897 9.0395-15.6897-9.0395v-18.0791z" fill="#000"/></g><path d="m86.1663 32.9856 15.6897 9.0395v18.0791l-15.6897 9.0395-15.6897-9.0395v-18.0791z" fill="#f0f5f6"/><path d="m91.6874 56.6494v-2.0135c0-.2014-.1134-.3651-.3402-.491-.2269-.1259-.3403-.1888-.3403-.1888l-3.0138-1.4351c.2376-.1871.4393-.4119.6049-.6744.1656-.2626.2989-.536.3997-.8201.1008-.2842.1728-.5629.216-.8363.0432-.2733.0648-.5143.0648-.7229v-1.7265c0-.2878-.0918-.5755-.2754-.8632-.1837-.2878-.4213-.5468-.713-.777-.2916-.2302-.6229-.4172-.9938-.5611-.3709-.1438-.7471-.2158-1.1288-.2158s-.7598.072-1.1343.2158c-.3744.1439-.7075.3309-.9992.5611-.2916.2302-.5275.4892-.7075.777-.1801.2877-.2701.5754-.2701.8632v1.7265c0 .187.0216.4154.0648.6852.0433.2697.1171.5467.2215.8308.1044.2842.2394.5629.4051.8363.1656.2734.3709.5071.6157.7014l-3.0354 1.4351s-.1153.0665-.3457.1996c-.2305.1331-.3457.2932-.3457.4802v2.0135" fill="#00e599"/><g filter="url(#p)"><path d="m124.589 32.9856 15.69 9.0395v18.0791l-15.69 9.0395-15.69-9.0395v-18.0791z" fill="#000"/></g><path d="m124.589 32.9856 15.69 9.0395v18.0791l-15.69 9.0395-15.69-9.0395v-18.0791z" fill="#f0f5f6"/><path d="m130.11 56.6494v-2.0135c0-.2014-.113-.3651-.34-.491s-.34-.1888-.34-.1888l-3.014-1.4351c.238-.1871.439-.4119.605-.6744.165-.2626.299-.536.4-.8201.1-.2842.172-.5629.216-.8363.043-.2733.064-.5143.064-.7229v-1.7265c0-.2878-.091-.5755-.275-.8632-.184-.2878-.421-.5468-.713-.777s-.623-.4172-.994-.5611c-.371-.1438-.747-.2158-1.129-.2158-.381 0-.759.072-1.134.2158-.374.1439-.707.3309-.999.5611s-.528.4892-.708.777c-.18.2877-.27.5754-.27.8632v1.7265c0 .187.022.4154.065.6852.043.2697.117.5467.222.8308.104.2842.239.5629.405.8363.165.2734.371.5071.615.7014l-3.035 1.4351s-.115.0665-.346.1996c-.23.1331-.345.2932-.345.4802v2.0135" fill="#00e599"/><g filter="url(#q)"><path d="m67.6135 67.3582 15.6897 9.0395v18.079l-15.6897 9.0393-15.6897-9.0393v-18.079z" fill="#000"/></g><path d="m67.6135 67.3582 15.6897 9.0395v18.079l-15.6897 9.0393-15.6897-9.0393v-18.079z" fill="#f0f5f6"/><path d="m73.1347 91.0247v-2.0135c0-.2015-.1134-.3651-.3403-.491-.2268-.1259-.3402-.1888-.3402-.1888l-3.0139-1.4352c.2377-.187.4393-.4118.605-.6744.1656-.2626.2988-.5359.3996-.8201.1009-.2841.1729-.5629.2161-.8362.0432-.2734.0648-.5144.0648-.723v-1.7265c0-.2877-.0918-.5755-.2755-.8632-.1836-.2877-.4212-.5467-.7129-.7769s-.6229-.4172-.9938-.5611-.7472-.2158-1.1289-.2158c-.3816 0-.7597.0719-1.1342.2158s-.7075.3309-.9992.5611-.5275.4892-.7075.7769c-.1801.2877-.2701.5755-.2701.8632v1.7265c0 .187.0216.4154.0648.6852s.117.5467.2215.8309c.1044.2841.2394.5629.405.8362.1657.2734.3709.5072.6158.7014l-3.0355 1.4352s-.1152.0665-.3456.1996c-.2305.1331-.3457.2931-.3457.4802v2.0135" fill="#00e599"/><g filter="url(#r)"><path d="m106.039 67.3582 15.69 9.0395v18.079l-15.69 9.0393-15.6894-9.0393v-18.079z" fill="#000"/></g><path d="m106.039 67.3582 15.69 9.0395v18.079l-15.69 9.0393-15.6894-9.0393v-18.079z" fill="#f0f5f6"/><path d="m111.56 91.0247v-2.0135c0-.2015-.113-.3651-.34-.491s-.34-.1888-.34-.1888l-3.014-1.4352c.238-.187.439-.4118.605-.6744s.299-.5359.4-.8201c.101-.2841.173-.5629.216-.8362.043-.2734.065-.5144.065-.723v-1.7265c0-.2877-.092-.5755-.276-.8632s-.421-.5467-.713-.7769c-.291-.2302-.623-.4172-.994-.5611s-.747-.2158-1.128-.2158c-.382 0-.76.0719-1.135.2158-.374.1439-.707.3309-.999.5611s-.527.4892-.707.7769c-.181.2877-.271.5755-.271.8632v1.7265c0 .187.022.4154.065.6852s.117.5467.222.8309c.104.2841.239.5629.405.8362.165.2734.371.5072.616.7014l-3.036 1.4352s-.115.0665-.346.1996c-.23.1331-.345.2931-.345.4802v2.0135" fill="#00e599"/><g filter="url(#s)"><path d="m144.463 67.3582 15.69 9.0395v18.079l-15.69 9.0393-15.69-9.0393v-18.079z" fill="#000"/></g><path d="m144.463 67.3582 15.69 9.0395v18.079l-15.69 9.0393-15.69-9.0393v-18.079z" fill="#f0f5f6"/><path d="m149.984 91.0247v-2.0135c0-.2015-.113-.3651-.34-.491s-.34-.1888-.34-.1888l-3.014-1.4352c.238-.187.439-.4118.605-.6744s.299-.5359.4-.8201c.1-.2841.172-.5629.216-.8362.043-.2734.064-.5144.064-.723v-1.7265c0-.2877-.091-.5755-.275-.8632s-.421-.5467-.713-.7769-.623-.4172-.994-.5611-.747-.2158-1.129-.2158c-.381 0-.759.0719-1.134.2158-.374.1439-.707.3309-.999.5611s-.528.4892-.708.7769-.27.5755-.27.8632v1.7265c0 .187.022.4154.065.6852s.117.5467.222.8309c.104.2841.239.5629.405.8362.165.2734.371.5072.615.7014l-3.035 1.4352s-.115.0665-.346.1996c-.23.1331-.345.2931-.345.4802v2.0135" fill="#00e599"/><g filter="url(#t)"><path d="m87.6995 102.159 15.6895 9.04v18.079l-15.6895 9.039-15.6897-9.039v-18.079z" fill="#000"/></g><path d="m87.6995 102.159 15.6895 9.04v18.079l-15.6895 9.039-15.6897-9.039v-18.079z" fill="#f0f5f6"/><path d="m93.2197 125.823v-2.013c0-.201-.1135-.365-.3403-.491-.2269-.126-.3403-.189-.3403-.189l-3.0138-1.435c.2376-.187.4393-.412.6049-.674.1657-.263.2989-.536.3997-.82.1008-.285.1728-.563.216-.837.0433-.273.0649-.514.0649-.723v-1.726c0-.288-.0919-.576-.2755-.863-.1836-.288-.4213-.547-.7129-.777-.2917-.23-.623-.418-.9939-.561-.3708-.144-.7471-.216-1.1288-.216s-.7598.072-1.1342.216c-.3745.143-.7076.331-.9992.561-.2917.23-.5276.489-.7076.777-.18.287-.27.575-.27.863v1.726c0 .187.0216.416.0648.686.0432.269.117.546.2214.83.1044.285.2395.563.4051.837.1656.273.3709.507.6157.701l-3.0354 1.435s-.1152.067-.3457.2c-.2304.133-.3457.293-.3457.48v2.013" fill="#00e599"/><g filter="url(#u)"><path d="m125.683 102.159 15.69 9.04v18.079l-15.69 9.039-15.69-9.039v-18.079z" fill="#000"/></g><path d="m125.683 102.159 15.69 9.04v18.079l-15.69 9.039-15.69-9.039v-18.079z" fill="#f0f5f6"/><path d="m131.204 125.823v-2.013c0-.201-.113-.365-.34-.491s-.34-.189-.34-.189l-3.014-1.435c.237-.187.439-.412.605-.674.165-.263.298-.536.399-.82.101-.285.173-.563.216-.837.044-.273.065-.514.065-.723v-1.726c0-.288-.092-.576-.275-.863-.184-.288-.422-.547-.713-.777-.292-.23-.623-.418-.994-.561-.371-.144-.747-.216-1.129-.216s-.76.072-1.134.216c-.375.143-.708.331-.999.561-.292.23-.528.489-.708.777-.18.287-.27.575-.27.863v1.726c0 .187.022.416.065.686.043.269.117.546.221.83.105.285.24.563.405.837.166.273.371.507.616.701l-3.035 1.435s-.116.067-.346.2-.346.293-.346.48v2.013" fill="#00e599"/></svg>