<svg fill="none" height="540" viewBox="0 0 521 540" width="521" xmlns="http://www.w3.org/2000/svg" xmlns:xlink="http://www.w3.org/1999/xlink"><filter id="a" color-interpolation-filters="sRGB" filterUnits="userSpaceOnUse" height="375.866" width="431.756" x="36.457" y="89.9116"><feFlood flood-opacity="0" result="BackgroundImageFix"/><feColorMatrix in="SourceAlpha" result="hardAlpha" type="matrix" values="0 0 0 0 0 0 0 0 0 0 0 0 0 0 0 0 0 0 127 0"/><feOffset dx="-8" dy="8"/><feGaussianBlur stdDeviation="4"/><feComposite in2="hardAlpha" operator="out"/><feColorMatrix type="matrix" values="0 0 0 0 0 0 0 0 0 0 0 0 0 0 0 0 0 0 0.25 0"/><feBlend in2="BackgroundImageFix" mode="normal" result="effect1_dropShadow_558_577"/><feBlend in="SourceGraphic" in2="effect1_dropShadow_558_577" mode="normal" result="shape"/></filter><filter id="b" color-interpolation-filters="sRGB" filterUnits="userSpaceOnUse" height="74.1561" width="65.416" x="280.678" y="130"><feFlood flood-opacity="0" result="BackgroundImageFix"/><feColorMatrix in="SourceAlpha" result="hardAlpha" type="matrix" values="0 0 0 0 0 0 0 0 0 0 0 0 0 0 0 0 0 0 127 0"/><feOffset dx="-6.66048" dy="8.56348"/><feGaussianBlur stdDeviation="3.33024"/><feColorMatrix type="matrix" values="0 0 0 0 0.316369 0 0 0 0 0.366988 0 0 0 0 0.353496 0 0 0 0.25741 0"/><feBlend in2="BackgroundImageFix" mode="normal" result="effect1_dropShadow_558_577"/><feColorMatrix in="SourceAlpha" result="hardAlpha" type="matrix" values="0 0 0 0 0 0 0 0 0 0 0 0 0 0 0 0 0 0 127 0"/><feOffset dx="-1.90299" dy="4.75749"/><feGaussianBlur stdDeviation="1.42725"/><feColorMatrix type="matrix" values="0 0 0 0 0 0 0 0 0 0 0 0 0 0 0 0 0 0 0.144615 0"/><feBlend in2="effect1_dropShadow_558_577" mode="normal" result="effect2_dropShadow_558_577"/><feBlend in="SourceGraphic" in2="effect2_dropShadow_558_577" mode="normal" result="shape"/></filter><filter id="c" color-interpolation-filters="sRGB" filterUnits="userSpaceOnUse" height="74.1561" width="65.416" x="218.773" y="130"><feFlood flood-opacity="0" result="BackgroundImageFix"/><feColorMatrix in="SourceAlpha" result="hardAlpha" type="matrix" values="0 0 0 0 0 0 0 0 0 0 0 0 0 0 0 0 0 0 127 0"/><feOffset dx="-6.66048" dy="8.56348"/><feGaussianBlur stdDeviation="3.33024"/><feColorMatrix type="matrix" values="0 0 0 0 0.316369 0 0 0 0 0.366988 0 0 0 0 0.353496 0 0 0 0.25741 0"/><feBlend in2="BackgroundImageFix" mode="normal" result="effect1_dropShadow_558_577"/><feColorMatrix in="SourceAlpha" result="hardAlpha" type="matrix" values="0 0 0 0 0 0 0 0 0 0 0 0 0 0 0 0 0 0 127 0"/><feOffset dx="-1.90299" dy="4.75749"/><feGaussianBlur stdDeviation="1.42725"/><feColorMatrix type="matrix" values="0 0 0 0 0 0 0 0 0 0 0 0 0 0 0 0 0 0 0.144615 0"/><feBlend in2="effect1_dropShadow_558_577" mode="normal" result="effect2_dropShadow_558_577"/><feBlend in="SourceGraphic" in2="effect2_dropShadow_558_577" mode="normal" result="shape"/></filter><filter id="d" color-interpolation-filters="sRGB" filterUnits="userSpaceOnUse" height="74.1561" width="65.416" x="346.185" y="239.185"><feFlood flood-opacity="0" result="BackgroundImageFix"/><feColorMatrix in="SourceAlpha" result="hardAlpha" type="matrix" values="0 0 0 0 0 0 0 0 0 0 0 0 0 0 0 0 0 0 127 0"/><feOffset dx="-6.66048" dy="8.56348"/><feGaussianBlur stdDeviation="3.33024"/><feColorMatrix type="matrix" values="0 0 0 0 0.316369 0 0 0 0 0.366988 0 0 0 0 0.353496 0 0 0 0.25741 0"/><feBlend in2="BackgroundImageFix" mode="normal" result="effect1_dropShadow_558_577"/><feColorMatrix in="SourceAlpha" result="hardAlpha" type="matrix" values="0 0 0 0 0 0 0 0 0 0 0 0 0 0 0 0 0 0 127 0"/><feOffset dx="-1.90299" dy="4.75749"/><feGaussianBlur stdDeviation="1.42725"/><feColorMatrix type="matrix" values="0 0 0 0 0 0 0 0 0 0 0 0 0 0 0 0 0 0 0.144615 0"/><feBlend in2="effect1_dropShadow_558_577" mode="normal" result="effect2_dropShadow_558_577"/><feBlend in="SourceGraphic" in2="effect2_dropShadow_558_577" mode="normal" result="shape"/></filter><filter id="e" color-interpolation-filters="sRGB" filterUnits="userSpaceOnUse" height="74.1561" width="65.416" x="315.573" y="295.905"><feFlood flood-opacity="0" result="BackgroundImageFix"/><feColorMatrix in="SourceAlpha" result="hardAlpha" type="matrix" values="0 0 0 0 0 0 0 0 0 0 0 0 0 0 0 0 0 0 127 0"/><feOffset dx="-6.66048" dy="8.56348"/><feGaussianBlur stdDeviation="3.33024"/><feColorMatrix type="matrix" values="0 0 0 0 0.316369 0 0 0 0 0.366988 0 0 0 0 0.353496 0 0 0 0.25741 0"/><feBlend in2="BackgroundImageFix" mode="normal" result="effect1_dropShadow_558_577"/><feColorMatrix in="SourceAlpha" result="hardAlpha" type="matrix" values="0 0 0 0 0 0 0 0 0 0 0 0 0 0 0 0 0 0 127 0"/><feOffset dx="-1.90299" dy="4.75749"/><feGaussianBlur stdDeviation="1.42725"/><feColorMatrix type="matrix" values="0 0 0 0 0 0 0 0 0 0 0 0 0 0 0 0 0 0 0.144615 0"/><feBlend in2="effect1_dropShadow_558_577" mode="normal" result="effect2_dropShadow_558_577"/><feBlend in="SourceGraphic" in2="effect2_dropShadow_558_577" mode="normal" result="shape"/></filter><filter id="f" color-interpolation-filters="sRGB" filterUnits="userSpaceOnUse" height="74.1561" width="65.416" x="313.791" y="183.163"><feFlood flood-opacity="0" result="BackgroundImageFix"/><feColorMatrix in="SourceAlpha" result="hardAlpha" type="matrix" values="0 0 0 0 0 0 0 0 0 0 0 0 0 0 0 0 0 0 127 0"/><feOffset dx="-6.66048" dy="8.56348"/><feGaussianBlur stdDeviation="3.33024"/><feColorMatrix type="matrix" values="0 0 0 0 0.316369 0 0 0 0 0.366988 0 0 0 0 0.353496 0 0 0 0.25741 0"/><feBlend in2="BackgroundImageFix" mode="normal" result="effect1_dropShadow_558_577"/><feColorMatrix in="SourceAlpha" result="hardAlpha" type="matrix" values="0 0 0 0 0 0 0 0 0 0 0 0 0 0 0 0 0 0 127 0"/><feOffset dx="-1.90299" dy="4.75749"/><feGaussianBlur stdDeviation="1.42725"/><feColorMatrix type="matrix" values="0 0 0 0 0 0 0 0 0 0 0 0 0 0 0 0 0 0 0.144615 0"/><feBlend in2="effect1_dropShadow_558_577" mode="normal" result="effect2_dropShadow_558_577"/><feBlend in="SourceGraphic" in2="effect2_dropShadow_558_577" mode="normal" result="shape"/></filter><filter id="g" color-interpolation-filters="sRGB" filterUnits="userSpaceOnUse" height="74.1561" width="65.416" x="284.996" y="351.252"><feFlood flood-opacity="0" result="BackgroundImageFix"/><feColorMatrix in="SourceAlpha" result="hardAlpha" type="matrix" values="0 0 0 0 0 0 0 0 0 0 0 0 0 0 0 0 0 0 127 0"/><feOffset dx="-6.66048" dy="8.56348"/><feGaussianBlur stdDeviation="3.33024"/><feColorMatrix type="matrix" values="0 0 0 0 0.316369 0 0 0 0 0.366988 0 0 0 0 0.353496 0 0 0 0.25741 0"/><feBlend in2="BackgroundImageFix" mode="normal" result="effect1_dropShadow_558_577"/><feColorMatrix in="SourceAlpha" result="hardAlpha" type="matrix" values="0 0 0 0 0 0 0 0 0 0 0 0 0 0 0 0 0 0 127 0"/><feOffset dx="-1.90299" dy="4.75749"/><feGaussianBlur stdDeviation="1.42725"/><feColorMatrix type="matrix" values="0 0 0 0 0 0 0 0 0 0 0 0 0 0 0 0 0 0 0.144615 0"/><feBlend in2="effect1_dropShadow_558_577" mode="normal" result="effect2_dropShadow_558_577"/><feBlend in="SourceGraphic" in2="effect2_dropShadow_558_577" mode="normal" result="shape"/></filter><filter id="h" color-interpolation-filters="sRGB" filterUnits="userSpaceOnUse" height="74.1561" width="65.416" x="156.147" y="130"><feFlood flood-opacity="0" result="BackgroundImageFix"/><feColorMatrix in="SourceAlpha" result="hardAlpha" type="matrix" values="0 0 0 0 0 0 0 0 0 0 0 0 0 0 0 0 0 0 127 0"/><feOffset dx="-6.66048" dy="8.56348"/><feGaussianBlur stdDeviation="3.33024"/><feColorMatrix type="matrix" values="0 0 0 0 0.316369 0 0 0 0 0.366988 0 0 0 0 0.353496 0 0 0 0.25741 0"/><feBlend in2="BackgroundImageFix" mode="normal" result="effect1_dropShadow_558_577"/><feColorMatrix in="SourceAlpha" result="hardAlpha" type="matrix" values="0 0 0 0 0 0 0 0 0 0 0 0 0 0 0 0 0 0 127 0"/><feOffset dx="-1.90299" dy="4.75749"/><feGaussianBlur stdDeviation="1.42725"/><feColorMatrix type="matrix" values="0 0 0 0 0 0 0 0 0 0 0 0 0 0 0 0 0 0 0.144615 0"/><feBlend in2="effect1_dropShadow_558_577" mode="normal" result="effect2_dropShadow_558_577"/><feBlend in="SourceGraphic" in2="effect2_dropShadow_558_577" mode="normal" result="shape"/></filter><filter id="i" color-interpolation-filters="sRGB" filterUnits="userSpaceOnUse" height="74.1561" width="65.416" x="95.679" y="239.185"><feFlood flood-opacity="0" result="BackgroundImageFix"/><feColorMatrix in="SourceAlpha" result="hardAlpha" type="matrix" values="0 0 0 0 0 0 0 0 0 0 0 0 0 0 0 0 0 0 127 0"/><feOffset dx="-6.66048" dy="8.56348"/><feGaussianBlur stdDeviation="3.33024"/><feColorMatrix type="matrix" values="0 0 0 0 0.316369 0 0 0 0 0.366988 0 0 0 0 0.353496 0 0 0 0.25741 0"/><feBlend in2="BackgroundImageFix" mode="normal" result="effect1_dropShadow_558_577"/><feColorMatrix in="SourceAlpha" result="hardAlpha" type="matrix" values="0 0 0 0 0 0 0 0 0 0 0 0 0 0 0 0 0 0 127 0"/><feOffset dx="-1.90299" dy="4.75749"/><feGaussianBlur stdDeviation="1.42725"/><feColorMatrix type="matrix" values="0 0 0 0 0 0 0 0 0 0 0 0 0 0 0 0 0 0 0.144615 0"/><feBlend in2="effect1_dropShadow_558_577" mode="normal" result="effect2_dropShadow_558_577"/><feBlend in="SourceGraphic" in2="effect2_dropShadow_558_577" mode="normal" result="shape"/></filter><filter id="j" color-interpolation-filters="sRGB" filterUnits="userSpaceOnUse" height="74.1561" width="65.416" x="125.917" y="183.163"><feFlood flood-opacity="0" result="BackgroundImageFix"/><feColorMatrix in="SourceAlpha" result="hardAlpha" type="matrix" values="0 0 0 0 0 0 0 0 0 0 0 0 0 0 0 0 0 0 127 0"/><feOffset dx="-6.66048" dy="8.56348"/><feGaussianBlur stdDeviation="3.33024"/><feColorMatrix type="matrix" values="0 0 0 0 0.316369 0 0 0 0 0.366988 0 0 0 0 0.353496 0 0 0 0.25741 0"/><feBlend in2="BackgroundImageFix" mode="normal" result="effect1_dropShadow_558_577"/><feColorMatrix in="SourceAlpha" result="hardAlpha" type="matrix" values="0 0 0 0 0 0 0 0 0 0 0 0 0 0 0 0 0 0 127 0"/><feOffset dx="-1.90299" dy="4.75749"/><feGaussianBlur stdDeviation="1.42725"/><feColorMatrix type="matrix" values="0 0 0 0 0 0 0 0 0 0 0 0 0 0 0 0 0 0 0.144615 0"/><feBlend in2="effect1_dropShadow_558_577" mode="normal" result="effect2_dropShadow_558_577"/><feBlend in="SourceGraphic" in2="effect2_dropShadow_558_577" mode="normal" result="shape"/></filter><filter id="k" color-interpolation-filters="sRGB" filterUnits="userSpaceOnUse" height="86.5256" width="74.931" x="184.738" y="183.163"><feFlood flood-opacity="0" result="BackgroundImageFix"/><feColorMatrix in="SourceAlpha" result="hardAlpha" type="matrix" values="0 0 0 0 0 0 0 0 0 0 0 0 0 0 0 0 0 0 127 0"/><feOffset dx="-10.4665" dy="20.9329"/><feGaussianBlur stdDeviation="3.33024"/><feColorMatrix type="matrix" values="0 0 0 0 0.316369 0 0 0 0 0.366988 0 0 0 0 0.353496 0 0 0 0.25741 0"/><feBlend in2="BackgroundImageFix" mode="normal" result="effect1_dropShadow_558_577"/><feColorMatrix in="SourceAlpha" result="hardAlpha" type="matrix" values="0 0 0 0 0 0 0 0 0 0 0 0 0 0 0 0 0 0 127 0"/><feOffset dx="-2.85449" dy="9.51497"/><feGaussianBlur stdDeviation="4.75749"/><feColorMatrix type="matrix" values="0 0 0 0 0 0 0 0 0 0 0 0 0 0 0 0 0 0 0.144615 0"/><feBlend in2="effect1_dropShadow_558_577" mode="normal" result="effect2_dropShadow_558_577"/><feBlend in="SourceGraphic" in2="effect2_dropShadow_558_577" mode="normal" result="shape"/></filter><filter id="l" color-interpolation-filters="sRGB" filterUnits="userSpaceOnUse" height="86.5256" width="74.931" x="247.364" y="183.163"><feFlood flood-opacity="0" result="BackgroundImageFix"/><feColorMatrix in="SourceAlpha" result="hardAlpha" type="matrix" values="0 0 0 0 0 0 0 0 0 0 0 0 0 0 0 0 0 0 127 0"/><feOffset dx="-10.4665" dy="20.9329"/><feGaussianBlur stdDeviation="3.33024"/><feColorMatrix type="matrix" values="0 0 0 0 0.316369 0 0 0 0 0.366988 0 0 0 0 0.353496 0 0 0 0.25741 0"/><feBlend in2="BackgroundImageFix" mode="normal" result="effect1_dropShadow_558_577"/><feColorMatrix in="SourceAlpha" result="hardAlpha" type="matrix" values="0 0 0 0 0 0 0 0 0 0 0 0 0 0 0 0 0 0 127 0"/><feOffset dx="-2.85449" dy="9.51497"/><feGaussianBlur stdDeviation="4.75749"/><feColorMatrix type="matrix" values="0 0 0 0 0 0 0 0 0 0 0 0 0 0 0 0 0 0 0.144615 0"/><feBlend in2="effect1_dropShadow_558_577" mode="normal" result="effect2_dropShadow_558_577"/><feBlend in="SourceGraphic" in2="effect2_dropShadow_558_577" mode="normal" result="shape"/></filter><filter id="m" color-interpolation-filters="sRGB" filterUnits="userSpaceOnUse" height="86.5256" width="74.931" x="154.499" y="239.185"><feFlood flood-opacity="0" result="BackgroundImageFix"/><feColorMatrix in="SourceAlpha" result="hardAlpha" type="matrix" values="0 0 0 0 0 0 0 0 0 0 0 0 0 0 0 0 0 0 127 0"/><feOffset dx="-10.4665" dy="20.9329"/><feGaussianBlur stdDeviation="3.33024"/><feColorMatrix type="matrix" values="0 0 0 0 0.316369 0 0 0 0 0.366988 0 0 0 0 0.353496 0 0 0 0.25741 0"/><feBlend in2="BackgroundImageFix" mode="normal" result="effect1_dropShadow_558_577"/><feColorMatrix in="SourceAlpha" result="hardAlpha" type="matrix" values="0 0 0 0 0 0 0 0 0 0 0 0 0 0 0 0 0 0 127 0"/><feOffset dx="-2.85449" dy="9.51497"/><feGaussianBlur stdDeviation="4.75749"/><feColorMatrix type="matrix" values="0 0 0 0 0 0 0 0 0 0 0 0 0 0 0 0 0 0 0.144615 0"/><feBlend in2="effect1_dropShadow_558_577" mode="normal" result="effect2_dropShadow_558_577"/><feBlend in="SourceGraphic" in2="effect2_dropShadow_558_577" mode="normal" result="shape"/></filter><filter id="n" color-interpolation-filters="sRGB" filterUnits="userSpaceOnUse" height="74.1561" width="65.416" x="128.417" y="295.905"><feFlood flood-opacity="0" result="BackgroundImageFix"/><feColorMatrix in="SourceAlpha" result="hardAlpha" type="matrix" values="0 0 0 0 0 0 0 0 0 0 0 0 0 0 0 0 0 0 127 0"/><feOffset dx="-6.66048" dy="8.56348"/><feGaussianBlur stdDeviation="3.33024"/><feColorMatrix type="matrix" values="0 0 0 0 0.316369 0 0 0 0 0.366988 0 0 0 0 0.353496 0 0 0 0.25741 0"/><feBlend in2="BackgroundImageFix" mode="normal" result="effect1_dropShadow_558_577"/><feColorMatrix in="SourceAlpha" result="hardAlpha" type="matrix" values="0 0 0 0 0 0 0 0 0 0 0 0 0 0 0 0 0 0 127 0"/><feOffset dx="-1.90299" dy="4.75749"/><feGaussianBlur stdDeviation="1.42725"/><feColorMatrix type="matrix" values="0 0 0 0 0 0 0 0 0 0 0 0 0 0 0 0 0 0 0.144615 0"/><feBlend in2="effect1_dropShadow_558_577" mode="normal" result="effect2_dropShadow_558_577"/><feBlend in="SourceGraphic" in2="effect2_dropShadow_558_577" mode="normal" result="shape"/></filter><filter id="o" color-interpolation-filters="sRGB" filterUnits="userSpaceOnUse" height="86.5256" width="74.931" x="217.13" y="239.185"><feFlood flood-opacity="0" result="BackgroundImageFix"/><feColorMatrix in="SourceAlpha" result="hardAlpha" type="matrix" values="0 0 0 0 0 0 0 0 0 0 0 0 0 0 0 0 0 0 127 0"/><feOffset dx="-10.4665" dy="20.9329"/><feGaussianBlur stdDeviation="3.33024"/><feColorMatrix type="matrix" values="0 0 0 0 0.316369 0 0 0 0 0.366988 0 0 0 0 0.353496 0 0 0 0.25741 0"/><feBlend in2="BackgroundImageFix" mode="normal" result="effect1_dropShadow_558_577"/><feColorMatrix in="SourceAlpha" result="hardAlpha" type="matrix" values="0 0 0 0 0 0 0 0 0 0 0 0 0 0 0 0 0 0 127 0"/><feOffset dx="-2.85449" dy="9.51497"/><feGaussianBlur stdDeviation="4.75749"/><feColorMatrix type="matrix" values="0 0 0 0 0 0 0 0 0 0 0 0 0 0 0 0 0 0 0.144615 0"/><feBlend in2="effect1_dropShadow_558_577" mode="normal" result="effect2_dropShadow_558_577"/><feBlend in="SourceGraphic" in2="effect2_dropShadow_558_577" mode="normal" result="shape"/></filter><filter id="p" color-interpolation-filters="sRGB" filterUnits="userSpaceOnUse" height="86.5256" width="74.931" x="279.752" y="239.185"><feFlood flood-opacity="0" result="BackgroundImageFix"/><feColorMatrix in="SourceAlpha" result="hardAlpha" type="matrix" values="0 0 0 0 0 0 0 0 0 0 0 0 0 0 0 0 0 0 127 0"/><feOffset dx="-10.4665" dy="20.9329"/><feGaussianBlur stdDeviation="3.33024"/><feColorMatrix type="matrix" values="0 0 0 0 0.316369 0 0 0 0 0.366988 0 0 0 0 0.353496 0 0 0 0.25741 0"/><feBlend in2="BackgroundImageFix" mode="normal" result="effect1_dropShadow_558_577"/><feColorMatrix in="SourceAlpha" result="hardAlpha" type="matrix" values="0 0 0 0 0 0 0 0 0 0 0 0 0 0 0 0 0 0 127 0"/><feOffset dx="-2.85449" dy="9.51497"/><feGaussianBlur stdDeviation="4.75749"/><feColorMatrix type="matrix" values="0 0 0 0 0 0 0 0 0 0 0 0 0 0 0 0 0 0 0.144615 0"/><feBlend in2="effect1_dropShadow_558_577" mode="normal" result="effect2_dropShadow_558_577"/><feBlend in="SourceGraphic" in2="effect2_dropShadow_558_577" mode="normal" result="shape"/></filter><filter id="q" color-interpolation-filters="sRGB" filterUnits="userSpaceOnUse" height="86.5256" width="74.931" x="187.239" y="295.905"><feFlood flood-opacity="0" result="BackgroundImageFix"/><feColorMatrix in="SourceAlpha" result="hardAlpha" type="matrix" values="0 0 0 0 0 0 0 0 0 0 0 0 0 0 0 0 0 0 127 0"/><feOffset dx="-10.4665" dy="20.9329"/><feGaussianBlur stdDeviation="3.33024"/><feColorMatrix type="matrix" values="0 0 0 0 0.316369 0 0 0 0 0.366988 0 0 0 0 0.353496 0 0 0 0.25741 0"/><feBlend in2="BackgroundImageFix" mode="normal" result="effect1_dropShadow_558_577"/><feColorMatrix in="SourceAlpha" result="hardAlpha" type="matrix" values="0 0 0 0 0 0 0 0 0 0 0 0 0 0 0 0 0 0 127 0"/><feOffset dx="-2.85449" dy="9.51497"/><feGaussianBlur stdDeviation="4.75749"/><feColorMatrix type="matrix" values="0 0 0 0 0 0 0 0 0 0 0 0 0 0 0 0 0 0 0.144615 0"/><feBlend in2="effect1_dropShadow_558_577" mode="normal" result="effect2_dropShadow_558_577"/><feBlend in="SourceGraphic" in2="effect2_dropShadow_558_577" mode="normal" result="shape"/></filter><filter id="r" color-interpolation-filters="sRGB" filterUnits="userSpaceOnUse" height="86.5256" width="74.931" x="249.141" y="295.905"><feFlood flood-opacity="0" result="BackgroundImageFix"/><feColorMatrix in="SourceAlpha" result="hardAlpha" type="matrix" values="0 0 0 0 0 0 0 0 0 0 0 0 0 0 0 0 0 0 127 0"/><feOffset dx="-10.4665" dy="20.9329"/><feGaussianBlur stdDeviation="3.33024"/><feColorMatrix type="matrix" values="0 0 0 0 0.316369 0 0 0 0 0.366988 0 0 0 0 0.353496 0 0 0 0.25741 0"/><feBlend in2="BackgroundImageFix" mode="normal" result="effect1_dropShadow_558_577"/><feColorMatrix in="SourceAlpha" result="hardAlpha" type="matrix" values="0 0 0 0 0 0 0 0 0 0 0 0 0 0 0 0 0 0 127 0"/><feOffset dx="-2.85449" dy="9.51497"/><feGaussianBlur stdDeviation="4.75749"/><feColorMatrix type="matrix" values="0 0 0 0 0 0 0 0 0 0 0 0 0 0 0 0 0 0 0.144615 0"/><feBlend in2="effect1_dropShadow_558_577" mode="normal" result="effect2_dropShadow_558_577"/><feBlend in="SourceGraphic" in2="effect2_dropShadow_558_577" mode="normal" result="shape"/></filter><filter id="s" color-interpolation-filters="sRGB" filterUnits="userSpaceOnUse" height="74.1561" width="65.416" x="223.095" y="351.252"><feFlood flood-opacity="0" result="BackgroundImageFix"/><feColorMatrix in="SourceAlpha" result="hardAlpha" type="matrix" values="0 0 0 0 0 0 0 0 0 0 0 0 0 0 0 0 0 0 127 0"/><feOffset dx="-6.66048" dy="8.56348"/><feGaussianBlur stdDeviation="3.33024"/><feColorMatrix type="matrix" values="0 0 0 0 0.316369 0 0 0 0 0.366988 0 0 0 0 0.353496 0 0 0 0.25741 0"/><feBlend in2="BackgroundImageFix" mode="normal" result="effect1_dropShadow_558_577"/><feColorMatrix in="SourceAlpha" result="hardAlpha" type="matrix" values="0 0 0 0 0 0 0 0 0 0 0 0 0 0 0 0 0 0 127 0"/><feOffset dx="-1.90299" dy="4.75749"/><feGaussianBlur stdDeviation="1.42725"/><feColorMatrix type="matrix" values="0 0 0 0 0 0 0 0 0 0 0 0 0 0 0 0 0 0 0.144615 0"/><feBlend in2="effect1_dropShadow_558_577" mode="normal" result="effect2_dropShadow_558_577"/><feBlend in="SourceGraphic" in2="effect2_dropShadow_558_577" mode="normal" result="shape"/></filter><filter id="t" color-interpolation-filters="sRGB" filterUnits="userSpaceOnUse" height="74.1561" width="65.416" x="161.189" y="351.252"><feFlood flood-opacity="0" result="BackgroundImageFix"/><feColorMatrix in="SourceAlpha" result="hardAlpha" type="matrix" values="0 0 0 0 0 0 0 0 0 0 0 0 0 0 0 0 0 0 127 0"/><feOffset dx="-6.66048" dy="8.56348"/><feGaussianBlur stdDeviation="3.33024"/><feColorMatrix type="matrix" values="0 0 0 0 0.316369 0 0 0 0 0.366988 0 0 0 0 0.353496 0 0 0 0.25741 0"/><feBlend in2="BackgroundImageFix" mode="normal" result="effect1_dropShadow_558_577"/><feColorMatrix in="SourceAlpha" result="hardAlpha" type="matrix" values="0 0 0 0 0 0 0 0 0 0 0 0 0 0 0 0 0 0 127 0"/><feOffset dx="-1.90299" dy="4.75749"/><feGaussianBlur stdDeviation="1.42725"/><feColorMatrix type="matrix" values="0 0 0 0 0 0 0 0 0 0 0 0 0 0 0 0 0 0 0.144615 0"/><feBlend in2="effect1_dropShadow_558_577" mode="normal" result="effect2_dropShadow_558_577"/><feBlend in="SourceGraphic" in2="effect2_dropShadow_558_577" mode="normal" result="shape"/></filter><filter id="u" color-interpolation-filters="sRGB" filterUnits="userSpaceOnUse" height="77.9621" width="70.1735" x="253.898" y="295.905"><feFlood flood-opacity="0" result="BackgroundImageFix"/><feColorMatrix in="SourceAlpha" result="hardAlpha" type="matrix" values="0 0 0 0 0 0 0 0 0 0 0 0 0 0 0 0 0 0 127 0"/><feOffset dx="-2.85449" dy="9.51497"/><feGaussianBlur stdDeviation="4.75749"/><feColorMatrix type="matrix" values="0 0 0 0 0 0 0 0 0 0 0 0 0 0 0 0 0 0 0.144615 0"/><feBlend in2="BackgroundImageFix" mode="normal" result="effect1_dropShadow_558_577"/><feBlend in="SourceGraphic" in2="effect1_dropShadow_558_577" mode="normal" result="shape"/></filter><linearGradient id="v" gradientUnits="userSpaceOnUse" x1="161" x2="368" y1="90.5" y2="444.5"><stop offset="0" stop-color="#003"/><stop offset="1" stop-color="#00e599" stop-opacity=".2"/></linearGradient><g filter="url(#a)"><path d="m364.111 90.0997 104.101 179.9333-103.775 179.745-207.878-.188-104.1016-179.934 103.7756-179.7445z" fill="url(#v)" fill-opacity=".3" shape-rendering="crispEdges"/></g><g filter="url(#b)"><path d="m319.571 130 25.572 14.733v29.466l-25.572 14.733-25.572-14.733v-29.466z" fill="#000"/></g><path d="m319.571 130 25.572 14.733v29.466l-25.572 14.733-25.572-14.733v-29.466z" fill="#003"/><path d="m328.569 168.574v-3.282c0-.328-.185-.595-.555-.8s-.555-.308-.555-.308l-4.912-2.339c.388-.305.716-.671.986-1.099s.487-.874.652-1.337c.164-.463.281-.917.352-1.363.07-.445.105-.838.105-1.178v-2.814c0-.469-.149-.938-.449-1.407-.299-.469-.686-.891-1.162-1.266-.475-.375-1.015-.68-1.619-.915-.605-.234-1.218-.351-1.84-.351s-1.238.117-1.849.351c-.61.235-1.153.54-1.628.915-.476.375-.86.797-1.153 1.266-.294.469-.441.938-.441 1.407v2.814c0 .305.036.677.106 1.117s.191.891.361 1.354.39.917.66 1.363.605.827 1.004 1.143l-4.948 2.339s-.187.109-.563.326c-.376.216-.563.477-.563.782v3.282" fill="#fff"/><g filter="url(#c)"><path d="m257.666 130 25.571 14.733v29.466l-25.571 14.733-25.572-14.733v-29.466z" fill="#000"/></g><path d="m257.666 130 25.571 14.733v29.466l-25.571 14.733-25.572-14.733v-29.466z" fill="#003"/><path d="m266.665 168.574v-3.282c0-.328-.185-.595-.554-.8-.37-.205-.555-.308-.555-.308l-4.912-2.339c.387-.305.716-.671.986-1.099s.487-.874.651-1.337c.165-.463.282-.917.352-1.363.071-.445.106-.838.106-1.178v-2.814c0-.469-.15-.938-.449-1.407s-.686-.891-1.162-1.266c-.475-.375-1.015-.68-1.62-.915-.604-.234-1.217-.351-1.839-.351s-1.239.117-1.849.351c-.61.235-1.153.54-1.629.915-.475.375-.859.797-1.153 1.266-.293.469-.44.938-.44 1.407v2.814c0 .305.035.677.106 1.117.07.44.19.891.361 1.354.17.463.39.917.66 1.363s.604.827 1.003 1.143l-4.947 2.339s-.188.109-.563.326c-.376.216-.564.477-.564.782v3.282" fill="#fff"/><g filter="url(#d)"><path d="m385.078 239.185 25.571 14.733v29.466l-25.571 14.733-25.572-14.733v-29.466z" fill="#000"/></g><path d="m385.078 239.185 25.571 14.733v29.466l-25.571 14.733-25.572-14.733v-29.466z" fill="#003"/><path d="m394.077 277.758v-3.282c0-.328-.184-.595-.554-.8s-.555-.308-.555-.308l-4.912-2.339c.387-.305.716-.671.986-1.099s.487-.873.651-1.337c.165-.463.282-.917.353-1.363.07-.445.105-.838.105-1.178v-2.814c0-.469-.149-.938-.449-1.407-.299-.469-.686-.891-1.162-1.266-.475-.375-1.015-.68-1.619-.914-.605-.235-1.218-.352-1.84-.352s-1.239.117-1.849.352c-.61.234-1.153.539-1.628.914-.476.375-.86.797-1.154 1.266-.293.469-.44.938-.44 1.407v2.814c0 .305.035.677.106 1.117.07.44.191.891.361 1.354s.39.918.66 1.363c.27.446.604.827 1.003 1.143l-4.947 2.339s-.188.109-.563.326c-.376.217-.564.477-.564.782v3.282" fill="#fff"/><g filter="url(#e)"><path d="m354.465 295.905 25.572 14.733v29.466l-25.572 14.733-25.571-14.733v-29.466z" fill="#000"/></g><path d="m354.465 295.905 25.572 14.733v29.466l-25.572 14.733-25.571-14.733v-29.466z" fill="#003"/><path d="m363.465 334.475v-3.282c0-.328-.185-.595-.555-.8-.369-.205-.554-.308-.554-.308l-4.912-2.339c.387-.305.716-.671.986-1.099s.487-.874.651-1.337.282-.917.352-1.363c.071-.445.106-.838.106-1.178v-2.814c0-.469-.15-.938-.449-1.407s-.687-.891-1.162-1.266-1.015-.68-1.62-.915c-.604-.234-1.218-.351-1.84-.351s-1.238.117-1.848.351c-.611.235-1.153.54-1.629.915-.475.375-.86.797-1.153 1.266s-.44.938-.44 1.407v2.814c0 .305.035.677.105 1.117.071.439.191.891.361 1.354.171.463.391.917.661 1.363.27.445.604.826 1.003 1.143l-4.947 2.339s-.188.109-.564.325c-.375.217-.563.478-.563.783v3.282" fill="#fff"/><g filter="url(#f)"><path d="m352.684 183.163 25.572 14.733v29.466l-25.572 14.733-25.572-14.733v-29.466z" fill="#000"/></g><path d="m352.684 183.163 25.572 14.733v29.466l-25.572 14.733-25.572-14.733v-29.466z" fill="#003"/><path d="m361.684 221.731v-3.282c0-.328-.185-.595-.555-.8s-.554-.308-.554-.308l-4.912-2.339c.387-.304.716-.671.985-1.099.27-.428.488-.873.652-1.336.164-.464.282-.918.352-1.363.07-.446.106-.839.106-1.179v-2.814c0-.469-.15-.938-.449-1.407-.3-.469-.687-.891-1.162-1.266-.476-.375-1.016-.68-1.62-.914-.605-.235-1.218-.352-1.84-.352s-1.238.117-1.848.352c-.611.234-1.154.539-1.629.914s-.86.797-1.153 1.266c-.294.469-.44.938-.44 1.407v2.814c0 .305.035.677.105 1.117.071.44.191.891.361 1.354s.39.918.66 1.363c.27.446.605.827 1.004 1.143l-4.947 2.339s-.188.109-.564.326c-.375.217-.563.478-.563.782v3.282" fill="#fff"/><g filter="url(#g)"><path d="m323.889 351.252 25.572 14.733v29.466l-25.572 14.733-25.572-14.733v-29.466z" fill="#000"/></g><path d="m323.889 351.252 25.572 14.733v29.466l-25.572 14.733-25.572-14.733v-29.466z" fill="#003"/><path d="m332.889 389.822v-3.281c0-.329-.185-.595-.555-.801-.369-.205-.554-.307-.554-.307l-4.912-2.339c.387-.305.716-.672.986-1.1.27-.427.487-.873.651-1.336s.282-.918.352-1.363c.071-.446.106-.838.106-1.178v-2.814c0-.469-.15-.938-.449-1.407-.3-.469-.687-.891-1.162-1.266-.476-.376-1.015-.68-1.62-.915-.604-.234-1.218-.352-1.84-.352s-1.238.118-1.848.352c-.611.235-1.154.539-1.629.915-.475.375-.86.797-1.153 1.266-.294.469-.44.938-.44 1.407v2.814c0 .304.035.677.105 1.116.071.44.191.891.361 1.355.17.463.391.917.66 1.363.27.445.605.826 1.004 1.143l-4.947 2.339s-.188.108-.564.325c-.375.217-.563.478-.563.783v3.281" fill="#fff"/><g filter="url(#h)"><path d="m195.04 130 25.571 14.733v29.466l-25.571 14.733-25.572-14.733v-29.466z" fill="#000"/></g><path d="m195.04 130 25.571 14.733v29.466l-25.571 14.733-25.572-14.733v-29.466z" fill="#003"/><path d="m204.034 168.574v-3.282c0-.328-.184-.595-.554-.8s-.555-.308-.555-.308l-4.912-2.339c.387-.305.716-.671.986-1.099s.487-.874.652-1.337c.164-.463.281-.917.352-1.363.07-.445.105-.838.105-1.178v-2.814c0-.469-.149-.938-.449-1.407-.299-.469-.686-.891-1.162-1.266-.475-.375-1.015-.68-1.619-.915-.605-.234-1.218-.351-1.84-.351s-1.239.117-1.849.351c-.61.235-1.153.54-1.628.915-.476.375-.86.797-1.154 1.266-.293.469-.44.938-.44 1.407v2.814c0 .305.035.677.106 1.117.07.44.191.891.361 1.354s.39.917.66 1.363.604.827 1.004 1.143l-4.948 2.339s-.188.109-.563.326c-.376.216-.564.477-.564.782v3.282" fill="#fff"/><g filter="url(#i)"><path d="m134.572 239.185 25.572 14.733v29.466l-25.572 14.733-25.572-14.733v-29.466z" fill="#000"/></g><path d="m134.572 239.185 25.572 14.733v29.466l-25.572 14.733-25.572-14.733v-29.466z" fill="#003"/><path d="m144.011 277.758v-3.281c0-.329-.185-.595-.555-.8-.369-.206-.554-.308-.554-.308l-4.912-2.339c.387-.305.716-.672.986-1.099.27-.428.487-.874.651-1.337s.282-.918.352-1.363c.071-.446.106-.838.106-1.178v-2.814c0-.469-.15-.938-.449-1.407s-.687-.891-1.162-1.266c-.475-.376-1.015-.68-1.62-.915-.604-.234-1.218-.352-1.84-.352s-1.238.118-1.848.352c-.611.235-1.154.539-1.629.915-.475.375-.86.797-1.153 1.266-.294.469-.44.938-.44 1.407v2.814c0 .304.035.677.105 1.116.071.44.191.891.361 1.355.171.463.391.917.661 1.363.269.445.604.826 1.003 1.143l-4.947 2.339s-.188.108-.564.325c-.375.217-.563.478-.563.783v3.281" fill="#fff"/><g filter="url(#j)"><path d="m164.81 183.163 25.572 14.733v29.466l-25.572 14.733-25.572-14.733v-29.466z" fill="#000"/></g><path d="m164.81 183.163 25.572 14.733v29.466l-25.572 14.733-25.572-14.733v-29.466z" fill="#003"/><path d="m173.088 221.731v-3.282c0-.328-.185-.595-.554-.8-.37-.205-.555-.308-.555-.308l-4.912-2.339c.387-.304.716-.671.986-1.099s.487-.873.651-1.336c.165-.464.282-.918.352-1.363.071-.446.106-.839.106-1.179v-2.814c0-.469-.15-.938-.449-1.407s-.687-.891-1.162-1.266-1.015-.68-1.62-.914c-.604-.235-1.217-.352-1.84-.352-.622 0-1.238.117-1.848.352-.611.234-1.153.539-1.629.914-.475.375-.86.797-1.153 1.266s-.44.938-.44 1.407v2.814c0 .305.035.677.106 1.117.07.44.19.891.36 1.354.171.463.391.918.661 1.363.27.446.604.827 1.003 1.143l-4.947 2.339s-.188.109-.563.326c-.376.217-.564.478-.564.782v3.282" fill="#fff"/><g filter="url(#k)"><path d="m227.437 183.163 25.572 14.733v29.466l-25.572 14.733-25.572-14.733v-29.466z" fill="#000"/></g><path d="m227.437 183.163 25.572 14.733v29.466l-25.572 14.733-25.572-14.733v-29.466z" fill="#003"/><path d="m236.435 221.731v-3.282c0-.328-.185-.595-.555-.8s-.554-.308-.554-.308l-4.912-2.339c.387-.304.716-.671.985-1.099.27-.428.488-.873.652-1.336.164-.464.282-.918.352-1.363.07-.446.106-.839.106-1.179v-2.814c0-.469-.15-.938-.449-1.407-.3-.469-.687-.891-1.162-1.266-.476-.375-1.016-.68-1.62-.914-.605-.235-1.218-.352-1.84-.352s-1.238.117-1.849.352c-.61.234-1.153.539-1.628.914s-.86.797-1.153 1.266c-.294.469-.44.938-.44 1.407v2.814c0 .305.035.677.105 1.117.071.44.191.891.361 1.354s.39.918.66 1.363c.27.446.605.827 1.004 1.143l-4.947 2.339s-.188.109-.564.326c-.375.217-.563.478-.563.782v3.282" fill="#00e599"/><g filter="url(#l)"><path d="m290.063 183.163 25.572 14.733v29.466l-25.572 14.733-25.572-14.733v-29.466z" fill="#000"/></g><path d="m290.063 183.163 25.572 14.733v29.466l-25.572 14.733-25.572-14.733v-29.466z" fill="#003"/><path d="m299.061 221.731v-3.282c0-.328-.185-.595-.555-.8s-.554-.308-.554-.308l-4.912-2.339c.387-.304.715-.671.985-1.099s.488-.873.652-1.336c.164-.464.282-.918.352-1.363.07-.446.106-.839.106-1.179v-2.814c0-.469-.15-.938-.449-1.407-.3-.469-.687-.891-1.162-1.266-.476-.375-1.016-.68-1.62-.914-.605-.235-1.218-.352-1.84-.352s-1.238.117-1.849.352c-.61.234-1.153.539-1.628.914s-.86.797-1.153 1.266c-.294.469-.44.938-.44 1.407v2.814c0 .305.035.677.105 1.117.071.44.191.891.361 1.354s.39.918.66 1.363c.27.446.605.827 1.004 1.143l-4.947 2.339s-.188.109-.564.326c-.375.217-.563.478-.563.782v3.282" fill="#00e599"/><g filter="url(#m)"><path d="m197.198 239.185 25.572 14.733v29.466l-25.572 14.733-25.572-14.733v-29.466z" fill="#000"/></g><path d="m197.198 239.185 25.572 14.733v29.466l-25.572 14.733-25.572-14.733v-29.466z" fill="#003"/><path d="m206.197 277.758v-3.282c0-.328-.184-.595-.554-.8s-.555-.308-.555-.308l-4.912-2.339c.388-.305.716-.671.986-1.099s.487-.873.652-1.337c.164-.463.281-.917.352-1.363.07-.445.105-.838.105-1.178v-2.814c0-.469-.149-.938-.449-1.407-.299-.469-.686-.891-1.162-1.266-.475-.375-1.015-.68-1.619-.914-.605-.235-1.218-.352-1.84-.352s-1.238.117-1.849.352c-.61.234-1.153.539-1.628.914-.476.375-.86.797-1.154 1.266-.293.469-.44.938-.44 1.407v2.814c0 .305.035.677.106 1.117.07.44.191.891.361 1.354s.39.918.66 1.363c.27.446.605.827 1.004 1.143l-4.948 2.339s-.187.109-.563.326-.563.477-.563.782v3.282" fill="#00e599"/><g filter="url(#n)"><path d="m167.31 295.905 25.572 14.733v29.466l-25.572 14.733-25.572-14.733v-29.466z" fill="#000"/></g><path d="m167.31 295.905 25.572 14.733v29.466l-25.572 14.733-25.572-14.733v-29.466z" fill="#003"/><path d="m176.306 334.475v-3.282c0-.328-.185-.595-.555-.8-.369-.205-.554-.308-.554-.308l-4.912-2.339c.387-.305.716-.671.986-1.099s.487-.874.651-1.337.282-.917.352-1.363c.071-.445.106-.838.106-1.178v-2.814c0-.469-.15-.938-.449-1.407-.3-.469-.687-.891-1.162-1.266-.476-.375-1.015-.68-1.62-.915-.604-.234-1.218-.351-1.84-.351s-1.238.117-1.848.351c-.611.235-1.154.54-1.629.915s-.86.797-1.153 1.266c-.294.469-.44.938-.44 1.407v2.814c0 .305.035.677.105 1.117.071.439.191.891.361 1.354s.39.917.66 1.363c.27.445.605.826 1.004 1.143l-4.947 2.339s-.188.109-.564.325c-.375.217-.563.478-.563.783v3.282" fill="#fff"/><g filter="url(#o)"><path d="m259.829 239.185 25.571 14.733v29.466l-25.571 14.733-25.572-14.733v-29.466z" fill="#000"/></g><path d="m259.829 239.185 25.571 14.733v29.466l-25.571 14.733-25.572-14.733v-29.466z" fill="#003"/><path d="m268.826 277.758v-3.282c0-.328-.184-.595-.554-.8s-.555-.308-.555-.308l-4.912-2.339c.387-.305.716-.671.986-1.099s.487-.873.651-1.337c.165-.463.282-.917.353-1.363.07-.445.105-.838.105-1.178v-2.814c0-.469-.149-.938-.449-1.407-.299-.469-.686-.891-1.162-1.266-.475-.375-1.015-.68-1.619-.914-.605-.235-1.218-.352-1.84-.352s-1.239.117-1.849.352c-.61.234-1.153.539-1.628.914-.476.375-.86.797-1.154 1.266-.293.469-.44.938-.44 1.407v2.814c0 .305.035.677.106 1.117.07.44.191.891.361 1.354s.39.918.66 1.363c.27.446.604.827 1.004 1.143l-4.948 2.339s-.188.109-.563.326c-.376.217-.564.477-.564.782v3.282" fill="#00e599"/><g filter="url(#p)"><path d="m322.451 239.185 25.571 14.733v29.466l-25.571 14.733-25.572-14.733v-29.466z" fill="#000"/></g><path d="m322.451 239.185 25.571 14.733v29.466l-25.571 14.733-25.572-14.733v-29.466z" fill="#003"/><path d="m331.45 277.758v-3.282c0-.328-.184-.595-.554-.8s-.555-.308-.555-.308l-4.912-2.339c.387-.305.716-.671.986-1.099s.487-.873.652-1.337c.164-.463.281-.917.352-1.363.07-.445.105-.838.105-1.178v-2.814c0-.469-.149-.938-.449-1.407-.299-.469-.686-.891-1.162-1.266-.475-.375-1.015-.68-1.619-.914-.605-.235-1.218-.352-1.84-.352s-1.239.117-1.849.352c-.61.234-1.153.539-1.628.914-.476.375-.86.797-1.154 1.266-.293.469-.44.938-.44 1.407v2.814c0 .305.035.677.106 1.117.07.44.191.891.361 1.354s.39.918.66 1.363c.27.446.604.827 1.004 1.143l-4.948 2.339s-.188.109-.563.326c-.376.217-.564.477-.564.782v3.282" fill="#00e599"/><g filter="url(#q)"><path d="m229.938 295.905 25.572 14.733v29.466l-25.572 14.733-25.572-14.733v-29.466z" fill="#000"/></g><path d="m229.938 295.905 25.572 14.733v29.466l-25.572 14.733-25.572-14.733v-29.466z" fill="#003"/><path d="m238.934 334.475v-3.282c0-.328-.185-.595-.555-.8s-.554-.308-.554-.308l-4.912-2.339c.387-.305.716-.671.985-1.099.27-.428.488-.874.652-1.337s.282-.917.352-1.363c.07-.445.106-.838.106-1.178v-2.814c0-.469-.15-.938-.449-1.407-.3-.469-.687-.891-1.162-1.266-.476-.375-1.016-.68-1.62-.915-.605-.234-1.218-.351-1.84-.351s-1.238.117-1.848.351c-.611.235-1.154.54-1.629.915s-.86.797-1.153 1.266c-.294.469-.44.938-.44 1.407v2.814c0 .305.035.677.105 1.117.071.439.191.891.361 1.354s.39.917.66 1.363c.27.445.605.826 1.004 1.143l-4.947 2.339s-.188.109-.564.325c-.375.217-.563.478-.563.783v3.282" fill="#00e599"/><g filter="url(#r)"><path d="m291.839 295.905 25.572 14.733v29.466l-25.572 14.733-25.571-14.733v-29.466z" fill="#000"/></g><path d="m291.839 295.905 25.572 14.733v29.466l-25.572 14.733-25.571-14.733v-29.466z" fill="#003"/><path d="m300.839 334.475v-3.282c0-.328-.185-.595-.555-.8-.369-.205-.554-.308-.554-.308l-4.912-2.339c.387-.305.716-.671.986-1.099s.487-.874.651-1.337c.165-.463.282-.917.352-1.363.071-.445.106-.838.106-1.178v-2.814c0-.469-.15-.938-.449-1.407s-.687-.891-1.162-1.266-1.015-.68-1.62-.915c-.604-.234-1.218-.351-1.84-.351s-1.238.117-1.848.351c-.611.235-1.153.54-1.629.915-.475.375-.86.797-1.153 1.266s-.44.938-.44 1.407v2.814c0 .305.035.677.106 1.117.07.439.19.891.36 1.354.171.463.391.917.661 1.363.27.445.604.826 1.003 1.143l-4.947 2.339s-.188.109-.563.325c-.376.217-.564.478-.564.783v3.282" fill="#00e599"/><g filter="url(#s)"><path d="m261.988 351.252 25.572 14.733v29.466l-25.572 14.733-25.572-14.733v-29.466z" fill="#000"/></g><path d="m261.988 351.252 25.572 14.733v29.466l-25.572 14.733-25.572-14.733v-29.466z" fill="#003"/><path d="m270.986 389.823v-3.282c0-.328-.185-.595-.555-.8s-.555-.308-.555-.308l-4.912-2.339c.388-.305.716-.671.986-1.099s.487-.873.652-1.337c.164-.463.281-.917.352-1.363.07-.445.105-.838.105-1.178v-2.814c0-.469-.149-.938-.449-1.407-.299-.469-.686-.891-1.162-1.266-.475-.375-1.015-.68-1.619-.914-.605-.235-1.218-.352-1.84-.352s-1.238.117-1.849.352c-.61.234-1.153.539-1.628.914-.476.375-.86.797-1.153 1.266-.294.469-.441.938-.441 1.407v2.814c0 .305.036.677.106 1.117s.191.891.361 1.354.39.917.66 1.363.605.827 1.004 1.143l-4.948 2.339s-.187.109-.563.326c-.376.216-.563.477-.563.782v3.282" fill="#fff"/><g filter="url(#t)"><path d="m200.082 351.252 25.571 14.733v29.466l-25.571 14.733-25.572-14.733v-29.466z" fill="#000"/></g><path d="m200.082 351.252 25.571 14.733v29.466l-25.571 14.733-25.572-14.733v-29.466z" fill="#003"/><path d="m209.079 389.823v-3.282c0-.328-.185-.595-.554-.8-.37-.205-.555-.308-.555-.308l-4.912-2.339c.387-.305.716-.671.986-1.099s.487-.873.651-1.337c.165-.463.282-.917.353-1.363.07-.445.105-.838.105-1.178v-2.814c0-.469-.149-.938-.449-1.407-.299-.469-.686-.891-1.162-1.266-.475-.375-1.015-.68-1.62-.914-.604-.235-1.217-.352-1.839-.352s-1.239.117-1.849.352c-.61.234-1.153.539-1.629.914-.475.375-.859.797-1.153 1.266-.293.469-.44.938-.44 1.407v2.814c0 .305.035.677.106 1.117.07.44.19.891.361 1.354.17.463.39.917.66 1.363s.604.827 1.003 1.143l-4.947 2.339s-.188.109-.563.326c-.376.216-.564.477-.564.782v3.282" fill="#fff"/><g filter="url(#u)"><path d="m291.839 295.905 25.572 14.733v29.466l-25.572 14.733-25.571-14.733v-29.466z" fill="#000"/></g><path d="m291.839 295.905 25.572 14.733v29.466l-25.572 14.733-25.571-14.733v-29.466z" fill="#003"/><path d="m300.839 334.475v-3.282c0-.328-.185-.595-.555-.8-.369-.205-.554-.308-.554-.308l-4.912-2.339c.387-.305.716-.671.986-1.099s.487-.874.651-1.337c.165-.463.282-.917.352-1.363.071-.445.106-.838.106-1.178v-2.814c0-.469-.15-.938-.449-1.407s-.687-.891-1.162-1.266-1.015-.68-1.62-.915c-.604-.234-1.218-.351-1.84-.351s-1.238.117-1.848.351c-.611.235-1.153.54-1.629.915-.475.375-.86.797-1.153 1.266s-.44.938-.44 1.407v2.814c0 .305.035.677.106 1.117.07.439.19.891.36 1.354.171.463.391.917.661 1.363.27.445.604.826 1.003 1.143l-4.947 2.339s-.188.109-.563.325c-.376.217-.564.478-.564.783v3.282" fill="#00e599"/></svg>