<svg width="521" height="540" viewBox="0 0 521 540" fill="none" xmlns="http://www.w3.org/2000/svg">
<g filter="url(#filter0_d_558_577)">
<path d="M364.111 90.0997L468.212 270.033L364.437 449.778L156.559 449.59L52.4574 269.656L156.233 89.9115L364.111 90.0997Z" fill="url(#paint0_linear_558_577)" fill-opacity="0.3" shape-rendering="crispEdges"/>
</g>
<g filter="url(#filter1_dd_558_577)">
<path d="M319.571 130L345.143 144.733V174.199L319.571 188.932L293.999 174.199V144.733L319.571 130Z" fill="black"/>
</g>
<path d="M319.571 130L345.143 144.733V174.199L319.571 188.932L293.999 174.199V144.733L319.571 130Z" fill="#000033"/>
<path d="M328.569 168.574V165.292C328.569 164.964 328.384 164.697 328.014 164.492C327.644 164.287 327.459 164.184 327.459 164.184L322.547 161.845C322.935 161.54 323.263 161.174 323.533 160.746C323.803 160.318 324.02 159.872 324.185 159.409C324.349 158.946 324.466 158.492 324.537 158.046C324.607 157.601 324.642 157.208 324.642 156.868V154.054C324.642 153.585 324.493 153.116 324.193 152.647C323.894 152.178 323.507 151.756 323.031 151.381C322.556 151.006 322.016 150.701 321.412 150.466C320.807 150.232 320.194 150.115 319.572 150.115C318.95 150.115 318.334 150.232 317.723 150.466C317.113 150.701 316.57 151.006 316.095 151.381C315.619 151.756 315.235 152.178 314.942 152.647C314.648 153.116 314.501 153.585 314.501 154.054V156.868C314.501 157.173 314.537 157.545 314.607 157.985C314.677 158.425 314.798 158.876 314.968 159.339C315.138 159.802 315.358 160.256 315.628 160.702C315.898 161.148 316.233 161.529 316.632 161.845L311.684 164.184C311.684 164.184 311.497 164.293 311.121 164.51C310.745 164.726 310.558 164.987 310.558 165.292V168.574" fill="white"/>
<g filter="url(#filter2_dd_558_577)">
<path d="M257.666 130L283.237 144.733V174.199L257.666 188.932L232.094 174.199V144.733L257.666 130Z" fill="black"/>
</g>
<path d="M257.666 130L283.237 144.733V174.199L257.666 188.932L232.094 174.199V144.733L257.666 130Z" fill="#000033"/>
<path d="M266.665 168.574V165.292C266.665 164.964 266.48 164.697 266.111 164.492C265.741 164.287 265.556 164.184 265.556 164.184L260.644 161.845C261.031 161.54 261.36 161.174 261.63 160.746C261.9 160.318 262.117 159.872 262.281 159.409C262.446 158.946 262.563 158.492 262.633 158.046C262.704 157.601 262.739 157.208 262.739 156.868V154.054C262.739 153.585 262.589 153.116 262.29 152.647C261.991 152.178 261.604 151.756 261.128 151.381C260.653 151.006 260.113 150.701 259.508 150.466C258.904 150.232 258.291 150.115 257.669 150.115C257.047 150.115 256.43 150.232 255.82 150.466C255.21 150.701 254.667 151.006 254.191 151.381C253.716 151.756 253.332 152.178 253.038 152.647C252.745 153.116 252.598 153.585 252.598 154.054V156.868C252.598 157.173 252.633 157.545 252.704 157.985C252.774 158.425 252.894 158.876 253.065 159.339C253.235 159.802 253.455 160.256 253.725 160.702C253.995 161.148 254.329 161.529 254.728 161.845L249.781 164.184C249.781 164.184 249.593 164.293 249.218 164.51C248.842 164.726 248.654 164.987 248.654 165.292V168.574" fill="white"/>
<g filter="url(#filter3_dd_558_577)">
<path d="M385.078 239.185L410.649 253.918V283.384L385.078 298.117L359.506 283.384V253.918L385.078 239.185Z" fill="black"/>
</g>
<path d="M385.078 239.185L410.649 253.918V283.384L385.078 298.117L359.506 283.384V253.918L385.078 239.185Z" fill="#000033"/>
<path d="M394.077 277.758V274.476C394.077 274.148 393.893 273.881 393.523 273.676C393.153 273.471 392.968 273.368 392.968 273.368L388.056 271.029C388.443 270.724 388.772 270.358 389.042 269.93C389.312 269.502 389.529 269.057 389.693 268.593C389.858 268.13 389.975 267.676 390.046 267.23C390.116 266.785 390.151 266.392 390.151 266.052V263.238C390.151 262.769 390.002 262.3 389.702 261.831C389.403 261.362 389.016 260.94 388.54 260.565C388.065 260.19 387.525 259.885 386.921 259.651C386.316 259.416 385.703 259.299 385.081 259.299C384.459 259.299 383.842 259.416 383.232 259.651C382.622 259.885 382.079 260.19 381.604 260.565C381.128 260.94 380.744 261.362 380.45 261.831C380.157 262.3 380.01 262.769 380.01 263.238V266.052C380.01 266.357 380.045 266.729 380.116 267.169C380.186 267.609 380.307 268.06 380.477 268.523C380.647 268.986 380.867 269.441 381.137 269.886C381.407 270.332 381.741 270.713 382.14 271.029L377.193 273.368C377.193 273.368 377.005 273.477 376.63 273.694C376.254 273.911 376.066 274.171 376.066 274.476V277.758" fill="white"/>
<g filter="url(#filter4_dd_558_577)">
<path d="M354.465 295.905L380.037 310.638V340.104L354.465 354.837L328.894 340.104V310.638L354.465 295.905Z" fill="black"/>
</g>
<path d="M354.465 295.905L380.037 310.638V340.104L354.465 354.837L328.894 340.104V310.638L354.465 295.905Z" fill="#000033"/>
<path d="M363.465 334.475V331.193C363.465 330.865 363.28 330.598 362.91 330.393C362.541 330.188 362.356 330.085 362.356 330.085L357.444 327.746C357.831 327.441 358.16 327.075 358.43 326.647C358.7 326.219 358.917 325.773 359.081 325.31C359.245 324.847 359.363 324.393 359.433 323.947C359.504 323.502 359.539 323.109 359.539 322.769V319.955C359.539 319.486 359.389 319.017 359.09 318.548C358.791 318.079 358.403 317.657 357.928 317.282C357.453 316.907 356.913 316.602 356.308 316.367C355.704 316.133 355.09 316.016 354.468 316.016C353.846 316.016 353.23 316.133 352.62 316.367C352.009 316.602 351.467 316.907 350.991 317.282C350.516 317.657 350.131 318.079 349.838 318.548C349.545 319.017 349.398 319.486 349.398 319.955V322.769C349.398 323.074 349.433 323.446 349.503 323.886C349.574 324.325 349.694 324.777 349.864 325.24C350.035 325.703 350.255 326.157 350.525 326.603C350.795 327.048 351.129 327.429 351.528 327.746L346.581 330.085C346.581 330.085 346.393 330.194 346.017 330.41C345.642 330.627 345.454 330.888 345.454 331.193V334.475" fill="white"/>
<g filter="url(#filter5_dd_558_577)">
<path d="M352.684 183.163L378.256 197.896V227.362L352.684 242.095L327.112 227.362V197.896L352.684 183.163Z" fill="black"/>
</g>
<path d="M352.684 183.163L378.256 197.896V227.362L352.684 242.095L327.112 227.362V197.896L352.684 183.163Z" fill="#000033"/>
<path d="M361.684 221.731V218.449C361.684 218.121 361.499 217.854 361.129 217.649C360.759 217.444 360.575 217.341 360.575 217.341L355.663 215.002C356.05 214.698 356.379 214.331 356.648 213.903C356.918 213.475 357.136 213.03 357.3 212.567C357.464 212.103 357.582 211.649 357.652 211.204C357.722 210.758 357.758 210.365 357.758 210.025V207.211C357.758 206.742 357.608 206.273 357.309 205.804C357.009 205.335 356.622 204.913 356.147 204.538C355.671 204.163 355.131 203.858 354.527 203.624C353.922 203.389 353.309 203.272 352.687 203.272C352.065 203.272 351.449 203.389 350.839 203.624C350.228 203.858 349.685 204.163 349.21 204.538C348.735 204.913 348.35 205.335 348.057 205.804C347.763 206.273 347.617 206.742 347.617 207.211V210.025C347.617 210.33 347.652 210.702 347.722 211.142C347.793 211.582 347.913 212.033 348.083 212.496C348.253 212.959 348.473 213.414 348.743 213.859C349.013 214.305 349.348 214.686 349.747 215.002L344.8 217.341C344.8 217.341 344.612 217.45 344.236 217.667C343.861 217.884 343.673 218.145 343.673 218.449V221.731" fill="white"/>
<g filter="url(#filter6_dd_558_577)">
<path d="M323.889 351.252L349.461 365.985V395.451L323.889 410.184L298.317 395.451V365.985L323.889 351.252Z" fill="black"/>
</g>
<path d="M323.889 351.252L349.461 365.985V395.451L323.889 410.184L298.317 395.451V365.985L323.889 351.252Z" fill="#000033"/>
<path d="M332.889 389.822V386.541C332.889 386.212 332.704 385.946 332.334 385.74C331.965 385.535 331.78 385.433 331.78 385.433L326.868 383.094C327.255 382.789 327.584 382.422 327.854 381.994C328.124 381.567 328.341 381.121 328.505 380.658C328.669 380.195 328.787 379.74 328.857 379.295C328.928 378.849 328.963 378.457 328.963 378.117V375.303C328.963 374.834 328.813 374.365 328.514 373.896C328.214 373.427 327.827 373.005 327.352 372.63C326.876 372.254 326.337 371.95 325.732 371.715C325.128 371.481 324.514 371.363 323.892 371.363C323.27 371.363 322.654 371.481 322.044 371.715C321.433 371.95 320.89 372.254 320.415 372.63C319.94 373.005 319.555 373.427 319.262 373.896C318.968 374.365 318.822 374.834 318.822 375.303V378.117C318.822 378.421 318.857 378.794 318.927 379.233C318.998 379.673 319.118 380.124 319.288 380.588C319.458 381.051 319.679 381.505 319.948 381.951C320.218 382.396 320.553 382.777 320.952 383.094L316.005 385.433C316.005 385.433 315.817 385.541 315.441 385.758C315.066 385.975 314.878 386.236 314.878 386.541V389.822" fill="white"/>
<g filter="url(#filter7_dd_558_577)">
<path d="M195.04 130L220.611 144.733V174.199L195.04 188.932L169.468 174.199V144.733L195.04 130Z" fill="black"/>
</g>
<path d="M195.04 130L220.611 144.733V174.199L195.04 188.932L169.468 174.199V144.733L195.04 130Z" fill="#000033"/>
<path d="M204.034 168.574V165.292C204.034 164.964 203.85 164.697 203.48 164.492C203.11 164.287 202.925 164.184 202.925 164.184L198.013 161.845C198.4 161.54 198.729 161.174 198.999 160.746C199.269 160.318 199.486 159.872 199.651 159.409C199.815 158.946 199.932 158.492 200.003 158.046C200.073 157.601 200.108 157.208 200.108 156.868V154.054C200.108 153.585 199.959 153.116 199.659 152.647C199.36 152.178 198.973 151.756 198.497 151.381C198.022 151.006 197.482 150.701 196.878 150.466C196.273 150.232 195.66 150.115 195.038 150.115C194.416 150.115 193.799 150.232 193.189 150.466C192.579 150.701 192.036 151.006 191.561 151.381C191.085 151.756 190.701 152.178 190.407 152.647C190.114 153.116 189.967 153.585 189.967 154.054V156.868C189.967 157.173 190.002 157.545 190.073 157.985C190.143 158.425 190.264 158.876 190.434 159.339C190.604 159.802 190.824 160.256 191.094 160.702C191.364 161.148 191.698 161.529 192.098 161.845L187.15 164.184C187.15 164.184 186.962 164.293 186.587 164.51C186.211 164.726 186.023 164.987 186.023 165.292V168.574" fill="white"/>
<g filter="url(#filter8_dd_558_577)">
<path d="M134.572 239.185L160.144 253.918V283.384L134.572 298.117L109 283.384V253.918L134.572 239.185Z" fill="black"/>
</g>
<path d="M134.572 239.185L160.144 253.918V283.384L134.572 298.117L109 283.384V253.918L134.572 239.185Z" fill="#000033"/>
<path d="M144.011 277.758V274.477C144.011 274.148 143.826 273.882 143.456 273.677C143.087 273.471 142.902 273.369 142.902 273.369L137.99 271.03C138.377 270.725 138.706 270.358 138.976 269.931C139.246 269.503 139.463 269.057 139.627 268.594C139.791 268.131 139.909 267.676 139.979 267.231C140.05 266.785 140.085 266.393 140.085 266.053V263.239C140.085 262.77 139.935 262.301 139.636 261.832C139.337 261.363 138.949 260.941 138.474 260.566C137.999 260.19 137.459 259.886 136.854 259.651C136.25 259.417 135.636 259.299 135.014 259.299C134.392 259.299 133.776 259.417 133.166 259.651C132.555 259.886 132.012 260.19 131.537 260.566C131.062 260.941 130.677 261.363 130.384 261.832C130.09 262.301 129.944 262.77 129.944 263.239V266.053C129.944 266.357 129.979 266.73 130.049 267.169C130.12 267.609 130.24 268.06 130.41 268.524C130.581 268.987 130.801 269.441 131.071 269.887C131.34 270.332 131.675 270.713 132.074 271.03L127.127 273.369C127.127 273.369 126.939 273.477 126.563 273.694C126.188 273.911 126 274.172 126 274.477V277.758" fill="white"/>
<g filter="url(#filter9_dd_558_577)">
<path d="M164.81 183.163L190.382 197.896V227.362L164.81 242.095L139.238 227.362V197.896L164.81 183.163Z" fill="black"/>
</g>
<path d="M164.81 183.163L190.382 197.896V227.362L164.81 242.095L139.238 227.362V197.896L164.81 183.163Z" fill="#000033"/>
<path d="M173.088 221.731V218.449C173.088 218.121 172.903 217.854 172.534 217.649C172.164 217.444 171.979 217.341 171.979 217.341L167.067 215.002C167.454 214.698 167.783 214.331 168.053 213.903C168.323 213.475 168.54 213.03 168.704 212.567C168.869 212.103 168.986 211.649 169.056 211.204C169.127 210.758 169.162 210.365 169.162 210.025V207.211C169.162 206.742 169.012 206.273 168.713 205.804C168.414 205.335 168.026 204.913 167.551 204.538C167.076 204.163 166.536 203.858 165.931 203.624C165.327 203.389 164.714 203.272 164.091 203.272C163.469 203.272 162.853 203.389 162.243 203.624C161.632 203.858 161.09 204.163 160.614 204.538C160.139 204.913 159.754 205.335 159.461 205.804C159.168 206.273 159.021 206.742 159.021 207.211V210.025C159.021 210.33 159.056 210.702 159.127 211.142C159.197 211.582 159.317 212.033 159.487 212.496C159.658 212.959 159.878 213.414 160.148 213.859C160.418 214.305 160.752 214.686 161.151 215.002L156.204 217.341C156.204 217.341 156.016 217.45 155.641 217.667C155.265 217.884 155.077 218.145 155.077 218.449V221.731" fill="white"/>
<g filter="url(#filter10_dd_558_577)">
<path d="M227.437 183.163L253.009 197.896V227.362L227.437 242.095L201.865 227.362V197.896L227.437 183.163Z" fill="black"/>
</g>
<path d="M227.437 183.163L253.009 197.896V227.362L227.437 242.095L201.865 227.362V197.896L227.437 183.163Z" fill="#000033"/>
<path d="M236.435 221.731V218.449C236.435 218.121 236.25 217.854 235.88 217.649C235.51 217.444 235.326 217.341 235.326 217.341L230.414 215.002C230.801 214.698 231.13 214.331 231.399 213.903C231.669 213.475 231.887 213.03 232.051 212.567C232.215 212.103 232.333 211.649 232.403 211.204C232.473 210.758 232.509 210.365 232.509 210.025V207.211C232.509 206.742 232.359 206.273 232.06 205.804C231.76 205.335 231.373 204.913 230.898 204.538C230.422 204.163 229.882 203.858 229.278 203.624C228.673 203.389 228.06 203.272 227.438 203.272C226.816 203.272 226.2 203.389 225.589 203.624C224.979 203.858 224.436 204.163 223.961 204.538C223.486 204.913 223.101 205.335 222.808 205.804C222.514 206.273 222.368 206.742 222.368 207.211V210.025C222.368 210.33 222.403 210.702 222.473 211.142C222.544 211.582 222.664 212.033 222.834 212.496C223.004 212.959 223.224 213.414 223.494 213.859C223.764 214.305 224.099 214.686 224.498 215.002L219.551 217.341C219.551 217.341 219.363 217.45 218.987 217.667C218.612 217.884 218.424 218.145 218.424 218.449V221.731" fill="#00E599"/>
<g filter="url(#filter11_dd_558_577)">
<path d="M290.063 183.163L315.635 197.896V227.362L290.063 242.095L264.491 227.362V197.896L290.063 183.163Z" fill="black"/>
</g>
<path d="M290.063 183.163L315.635 197.896V227.362L290.063 242.095L264.491 227.362V197.896L290.063 183.163Z" fill="#000033"/>
<path d="M299.061 221.731V218.449C299.061 218.121 298.876 217.854 298.506 217.649C298.136 217.444 297.952 217.341 297.952 217.341L293.04 215.002C293.427 214.698 293.755 214.331 294.025 213.903C294.295 213.475 294.513 213.03 294.677 212.567C294.841 212.103 294.959 211.649 295.029 211.204C295.099 210.758 295.135 210.365 295.135 210.025V207.211C295.135 206.742 294.985 206.273 294.686 205.804C294.386 205.335 293.999 204.913 293.524 204.538C293.048 204.163 292.508 203.858 291.904 203.624C291.299 203.389 290.686 203.272 290.064 203.272C289.442 203.272 288.826 203.389 288.215 203.624C287.605 203.858 287.062 204.163 286.587 204.538C286.112 204.913 285.727 205.335 285.434 205.804C285.14 206.273 284.994 206.742 284.994 207.211V210.025C284.994 210.33 285.029 210.702 285.099 211.142C285.17 211.582 285.29 212.033 285.46 212.496C285.63 212.959 285.85 213.414 286.12 213.859C286.39 214.305 286.725 214.686 287.124 215.002L282.177 217.341C282.177 217.341 281.989 217.45 281.613 217.667C281.238 217.884 281.05 218.145 281.05 218.449V221.731" fill="#00E599"/>
<g filter="url(#filter12_dd_558_577)">
<path d="M197.198 239.185L222.77 253.918V283.384L197.198 298.117L171.626 283.384V253.918L197.198 239.185Z" fill="black"/>
</g>
<path d="M197.198 239.185L222.77 253.918V283.384L197.198 298.117L171.626 283.384V253.918L197.198 239.185Z" fill="#000033"/>
<path d="M206.197 277.758V274.476C206.197 274.148 206.013 273.881 205.643 273.676C205.273 273.471 205.088 273.368 205.088 273.368L200.176 271.029C200.564 270.724 200.892 270.358 201.162 269.93C201.432 269.502 201.649 269.057 201.814 268.593C201.978 268.13 202.095 267.676 202.166 267.23C202.236 266.785 202.271 266.392 202.271 266.052V263.238C202.271 262.769 202.122 262.3 201.822 261.831C201.523 261.362 201.136 260.94 200.66 260.565C200.185 260.19 199.645 259.885 199.041 259.651C198.436 259.416 197.823 259.299 197.201 259.299C196.579 259.299 195.963 259.416 195.352 259.651C194.742 259.885 194.199 260.19 193.724 260.565C193.248 260.94 192.864 261.362 192.57 261.831C192.277 262.3 192.13 262.769 192.13 263.238V266.052C192.13 266.357 192.165 266.729 192.236 267.169C192.306 267.609 192.427 268.06 192.597 268.523C192.767 268.986 192.987 269.441 193.257 269.886C193.527 270.332 193.862 270.713 194.261 271.029L189.313 273.368C189.313 273.368 189.126 273.477 188.75 273.694C188.374 273.911 188.187 274.171 188.187 274.476V277.758" fill="#00E599"/>
<g filter="url(#filter13_dd_558_577)">
<path d="M167.31 295.905L192.882 310.638V340.104L167.31 354.837L141.738 340.104V310.638L167.31 295.905Z" fill="black"/>
</g>
<path d="M167.31 295.905L192.882 310.638V340.104L167.31 354.837L141.738 340.104V310.638L167.31 295.905Z" fill="#000033"/>
<path d="M176.306 334.475V331.193C176.306 330.865 176.121 330.598 175.751 330.393C175.382 330.188 175.197 330.085 175.197 330.085L170.285 327.746C170.672 327.441 171.001 327.075 171.271 326.647C171.541 326.219 171.758 325.773 171.922 325.31C172.086 324.847 172.204 324.393 172.274 323.947C172.345 323.502 172.38 323.109 172.38 322.769V319.955C172.38 319.486 172.23 319.017 171.931 318.548C171.631 318.079 171.244 317.657 170.769 317.282C170.293 316.907 169.754 316.602 169.149 316.367C168.545 316.133 167.931 316.016 167.309 316.016C166.687 316.016 166.071 316.133 165.461 316.367C164.85 316.602 164.307 316.907 163.832 317.282C163.357 317.657 162.972 318.079 162.679 318.548C162.385 319.017 162.239 319.486 162.239 319.955V322.769C162.239 323.074 162.274 323.446 162.344 323.886C162.415 324.325 162.535 324.777 162.705 325.24C162.875 325.703 163.095 326.157 163.365 326.603C163.635 327.048 163.97 327.429 164.369 327.746L159.422 330.085C159.422 330.085 159.234 330.194 158.858 330.41C158.483 330.627 158.295 330.888 158.295 331.193V334.475" fill="white"/>
<g filter="url(#filter14_dd_558_577)">
<path d="M259.829 239.185L285.4 253.918V283.384L259.829 298.117L234.257 283.384V253.918L259.829 239.185Z" fill="black"/>
</g>
<path d="M259.829 239.185L285.4 253.918V283.384L259.829 298.117L234.257 283.384V253.918L259.829 239.185Z" fill="#000033"/>
<path d="M268.826 277.758V274.476C268.826 274.148 268.642 273.881 268.272 273.676C267.902 273.471 267.717 273.368 267.717 273.368L262.805 271.029C263.192 270.724 263.521 270.358 263.791 269.93C264.061 269.502 264.278 269.057 264.442 268.593C264.607 268.13 264.724 267.676 264.795 267.23C264.865 266.785 264.9 266.392 264.9 266.052V263.238C264.9 262.769 264.751 262.3 264.451 261.831C264.152 261.362 263.765 260.94 263.289 260.565C262.814 260.19 262.274 259.885 261.67 259.651C261.065 259.416 260.452 259.299 259.83 259.299C259.208 259.299 258.591 259.416 257.981 259.651C257.371 259.885 256.828 260.19 256.353 260.565C255.877 260.94 255.493 261.362 255.199 261.831C254.906 262.3 254.759 262.769 254.759 263.238V266.052C254.759 266.357 254.794 266.729 254.865 267.169C254.935 267.609 255.056 268.06 255.226 268.523C255.396 268.986 255.616 269.441 255.886 269.886C256.156 270.332 256.49 270.713 256.89 271.029L251.942 273.368C251.942 273.368 251.754 273.477 251.379 273.694C251.003 273.911 250.815 274.171 250.815 274.476V277.758" fill="#00E599"/>
<g filter="url(#filter15_dd_558_577)">
<path d="M322.451 239.185L348.022 253.918V283.384L322.451 298.117L296.879 283.384V253.918L322.451 239.185Z" fill="black"/>
</g>
<path d="M322.451 239.185L348.022 253.918V283.384L322.451 298.117L296.879 283.384V253.918L322.451 239.185Z" fill="#000033"/>
<path d="M331.45 277.758V274.476C331.45 274.148 331.266 273.881 330.896 273.676C330.526 273.471 330.341 273.368 330.341 273.368L325.429 271.029C325.816 270.724 326.145 270.358 326.415 269.93C326.685 269.502 326.902 269.057 327.067 268.593C327.231 268.13 327.348 267.676 327.419 267.23C327.489 266.785 327.524 266.392 327.524 266.052V263.238C327.524 262.769 327.375 262.3 327.075 261.831C326.776 261.362 326.389 260.94 325.913 260.565C325.438 260.19 324.898 259.885 324.294 259.651C323.689 259.416 323.076 259.299 322.454 259.299C321.832 259.299 321.215 259.416 320.605 259.651C319.995 259.885 319.452 260.19 318.977 260.565C318.501 260.94 318.117 261.362 317.823 261.831C317.53 262.3 317.383 262.769 317.383 263.238V266.052C317.383 266.357 317.418 266.729 317.489 267.169C317.559 267.609 317.68 268.06 317.85 268.523C318.02 268.986 318.24 269.441 318.51 269.886C318.78 270.332 319.114 270.713 319.514 271.029L314.566 273.368C314.566 273.368 314.378 273.477 314.003 273.694C313.627 273.911 313.439 274.171 313.439 274.476V277.758" fill="#00E599"/>
<g filter="url(#filter16_dd_558_577)">
<path d="M229.938 295.905L255.51 310.638V340.104L229.938 354.837L204.366 340.104V310.638L229.938 295.905Z" fill="black"/>
</g>
<path d="M229.938 295.905L255.51 310.638V340.104L229.938 354.837L204.366 340.104V310.638L229.938 295.905Z" fill="#000033"/>
<path d="M238.934 334.475V331.193C238.934 330.865 238.749 330.598 238.379 330.393C238.009 330.188 237.825 330.085 237.825 330.085L232.913 327.746C233.3 327.441 233.629 327.075 233.898 326.647C234.168 326.219 234.386 325.773 234.55 325.31C234.714 324.847 234.832 324.393 234.902 323.947C234.972 323.502 235.008 323.109 235.008 322.769V319.955C235.008 319.486 234.858 319.017 234.559 318.548C234.259 318.079 233.872 317.657 233.397 317.282C232.921 316.907 232.381 316.602 231.777 316.367C231.172 316.133 230.559 316.016 229.937 316.016C229.315 316.016 228.699 316.133 228.089 316.367C227.478 316.602 226.935 316.907 226.46 317.282C225.985 317.657 225.6 318.079 225.307 318.548C225.013 319.017 224.867 319.486 224.867 319.955V322.769C224.867 323.074 224.902 323.446 224.972 323.886C225.043 324.325 225.163 324.777 225.333 325.24C225.503 325.703 225.723 326.157 225.993 326.603C226.263 327.048 226.598 327.429 226.997 327.746L222.05 330.085C222.05 330.085 221.862 330.194 221.486 330.41C221.111 330.627 220.923 330.888 220.923 331.193V334.475" fill="#00E599"/>
<g filter="url(#filter17_dd_558_577)">
<path d="M291.839 295.905L317.411 310.638V340.104L291.839 354.837L266.268 340.104V310.638L291.839 295.905Z" fill="black"/>
</g>
<path d="M291.839 295.905L317.411 310.638V340.104L291.839 354.837L266.268 340.104V310.638L291.839 295.905Z" fill="#000033"/>
<path d="M300.839 334.475V331.193C300.839 330.865 300.654 330.598 300.284 330.393C299.915 330.188 299.73 330.085 299.73 330.085L294.818 327.746C295.205 327.441 295.534 327.075 295.804 326.647C296.074 326.219 296.291 325.773 296.455 325.31C296.62 324.847 296.737 324.393 296.807 323.947C296.878 323.502 296.913 323.109 296.913 322.769V319.955C296.913 319.486 296.763 319.017 296.464 318.548C296.165 318.079 295.777 317.657 295.302 317.282C294.827 316.907 294.287 316.602 293.682 316.367C293.078 316.133 292.464 316.016 291.842 316.016C291.22 316.016 290.604 316.133 289.994 316.367C289.383 316.602 288.841 316.907 288.365 317.282C287.89 317.657 287.505 318.079 287.212 318.548C286.919 319.017 286.772 319.486 286.772 319.955V322.769C286.772 323.074 286.807 323.446 286.878 323.886C286.948 324.325 287.068 324.777 287.238 325.24C287.409 325.703 287.629 326.157 287.899 326.603C288.169 327.048 288.503 327.429 288.902 327.746L283.955 330.085C283.955 330.085 283.767 330.194 283.392 330.41C283.016 330.627 282.828 330.888 282.828 331.193V334.475" fill="#00E599"/>
<g filter="url(#filter18_dd_558_577)">
<path d="M261.988 351.252L287.56 365.985V395.451L261.988 410.184L236.416 395.451V365.985L261.988 351.252Z" fill="black"/>
</g>
<path d="M261.988 351.252L287.56 365.985V395.451L261.988 410.184L236.416 395.451V365.985L261.988 351.252Z" fill="#000033"/>
<path d="M270.986 389.823V386.541C270.986 386.213 270.801 385.946 270.431 385.741C270.061 385.536 269.876 385.433 269.876 385.433L264.964 383.094C265.352 382.789 265.68 382.423 265.95 381.995C266.22 381.567 266.437 381.122 266.602 380.658C266.766 380.195 266.883 379.741 266.954 379.295C267.024 378.85 267.059 378.457 267.059 378.117V375.303C267.059 374.834 266.91 374.365 266.61 373.896C266.311 373.427 265.924 373.005 265.448 372.63C264.973 372.255 264.433 371.95 263.829 371.716C263.224 371.481 262.611 371.364 261.989 371.364C261.367 371.364 260.751 371.481 260.14 371.716C259.53 371.95 258.987 372.255 258.512 372.63C258.036 373.005 257.652 373.427 257.359 373.896C257.065 374.365 256.918 374.834 256.918 375.303V378.117C256.918 378.422 256.954 378.794 257.024 379.234C257.094 379.674 257.215 380.125 257.385 380.588C257.555 381.051 257.775 381.505 258.045 381.951C258.315 382.397 258.65 382.778 259.049 383.094L254.101 385.433C254.101 385.433 253.914 385.542 253.538 385.759C253.162 385.975 252.975 386.236 252.975 386.541V389.823" fill="white"/>
<g filter="url(#filter19_dd_558_577)">
<path d="M200.082 351.252L225.653 365.985V395.451L200.082 410.184L174.51 395.451V365.985L200.082 351.252Z" fill="black"/>
</g>
<path d="M200.082 351.252L225.653 365.985V395.451L200.082 410.184L174.51 395.451V365.985L200.082 351.252Z" fill="#000033"/>
<path d="M209.079 389.823V386.541C209.079 386.213 208.894 385.946 208.525 385.741C208.155 385.536 207.97 385.433 207.97 385.433L203.058 383.094C203.445 382.789 203.774 382.423 204.044 381.995C204.314 381.567 204.531 381.122 204.695 380.658C204.86 380.195 204.977 379.741 205.048 379.295C205.118 378.85 205.153 378.457 205.153 378.117V375.303C205.153 374.834 205.004 374.365 204.704 373.896C204.405 373.427 204.018 373.005 203.542 372.63C203.067 372.255 202.527 371.95 201.922 371.716C201.318 371.481 200.705 371.364 200.083 371.364C199.461 371.364 198.844 371.481 198.234 371.716C197.624 371.95 197.081 372.255 196.605 372.63C196.13 373.005 195.746 373.427 195.452 373.896C195.159 374.365 195.012 374.834 195.012 375.303V378.117C195.012 378.422 195.047 378.794 195.118 379.234C195.188 379.674 195.308 380.125 195.479 380.588C195.649 381.051 195.869 381.505 196.139 381.951C196.409 382.397 196.743 382.778 197.142 383.094L192.195 385.433C192.195 385.433 192.007 385.542 191.632 385.759C191.256 385.975 191.068 386.236 191.068 386.541V389.823" fill="white"/>
<g filter="url(#filter20_d_558_577)">
<path d="M291.839 295.905L317.411 310.638V340.104L291.839 354.837L266.268 340.104V310.638L291.839 295.905Z" fill="black"/>
</g>
<path d="M291.839 295.905L317.411 310.638V340.104L291.839 354.837L266.268 340.104V310.638L291.839 295.905Z" fill="#000033"/>
<path d="M300.839 334.475V331.193C300.839 330.865 300.654 330.598 300.284 330.393C299.915 330.188 299.73 330.085 299.73 330.085L294.818 327.746C295.205 327.441 295.534 327.075 295.804 326.647C296.074 326.219 296.291 325.773 296.455 325.31C296.62 324.847 296.737 324.393 296.807 323.947C296.878 323.502 296.913 323.109 296.913 322.769V319.955C296.913 319.486 296.763 319.017 296.464 318.548C296.165 318.079 295.777 317.657 295.302 317.282C294.827 316.907 294.287 316.602 293.682 316.367C293.078 316.133 292.464 316.016 291.842 316.016C291.22 316.016 290.604 316.133 289.994 316.367C289.383 316.602 288.841 316.907 288.365 317.282C287.89 317.657 287.505 318.079 287.212 318.548C286.919 319.017 286.772 319.486 286.772 319.955V322.769C286.772 323.074 286.807 323.446 286.878 323.886C286.948 324.325 287.068 324.777 287.238 325.24C287.409 325.703 287.629 326.157 287.899 326.603C288.169 327.048 288.503 327.429 288.902 327.746L283.955 330.085C283.955 330.085 283.767 330.194 283.392 330.41C283.016 330.627 282.828 330.888 282.828 331.193V334.475" fill="#00E599"/>
<defs>
<filter id="filter0_d_558_577" x="36.457" y="89.9116" width="431.756" height="375.866" filterUnits="userSpaceOnUse" color-interpolation-filters="sRGB">
<feFlood flood-opacity="0" result="BackgroundImageFix"/>
<feColorMatrix in="SourceAlpha" type="matrix" values="0 0 0 0 0 0 0 0 0 0 0 0 0 0 0 0 0 0 127 0" result="hardAlpha"/>
<feOffset dx="-8" dy="8"/>
<feGaussianBlur stdDeviation="4"/>
<feComposite in2="hardAlpha" operator="out"/>
<feColorMatrix type="matrix" values="0 0 0 0 0 0 0 0 0 0 0 0 0 0 0 0 0 0 0.25 0"/>
<feBlend mode="normal" in2="BackgroundImageFix" result="effect1_dropShadow_558_577"/>
<feBlend mode="normal" in="SourceGraphic" in2="effect1_dropShadow_558_577" result="shape"/>
</filter>
<filter id="filter1_dd_558_577" x="280.678" y="130" width="65.416" height="74.1561" filterUnits="userSpaceOnUse" color-interpolation-filters="sRGB">
<feFlood flood-opacity="0" result="BackgroundImageFix"/>
<feColorMatrix in="SourceAlpha" type="matrix" values="0 0 0 0 0 0 0 0 0 0 0 0 0 0 0 0 0 0 127 0" result="hardAlpha"/>
<feOffset dx="-6.66048" dy="8.56348"/>
<feGaussianBlur stdDeviation="3.33024"/>
<feColorMatrix type="matrix" values="0 0 0 0 0.316369 0 0 0 0 0.366988 0 0 0 0 0.353496 0 0 0 0.25741 0"/>
<feBlend mode="normal" in2="BackgroundImageFix" result="effect1_dropShadow_558_577"/>
<feColorMatrix in="SourceAlpha" type="matrix" values="0 0 0 0 0 0 0 0 0 0 0 0 0 0 0 0 0 0 127 0" result="hardAlpha"/>
<feOffset dx="-1.90299" dy="4.75749"/>
<feGaussianBlur stdDeviation="1.42725"/>
<feColorMatrix type="matrix" values="0 0 0 0 0 0 0 0 0 0 0 0 0 0 0 0 0 0 0.144615 0"/>
<feBlend mode="normal" in2="effect1_dropShadow_558_577" result="effect2_dropShadow_558_577"/>
<feBlend mode="normal" in="SourceGraphic" in2="effect2_dropShadow_558_577" result="shape"/>
</filter>
<filter id="filter2_dd_558_577" x="218.773" y="130" width="65.416" height="74.1561" filterUnits="userSpaceOnUse" color-interpolation-filters="sRGB">
<feFlood flood-opacity="0" result="BackgroundImageFix"/>
<feColorMatrix in="SourceAlpha" type="matrix" values="0 0 0 0 0 0 0 0 0 0 0 0 0 0 0 0 0 0 127 0" result="hardAlpha"/>
<feOffset dx="-6.66048" dy="8.56348"/>
<feGaussianBlur stdDeviation="3.33024"/>
<feColorMatrix type="matrix" values="0 0 0 0 0.316369 0 0 0 0 0.366988 0 0 0 0 0.353496 0 0 0 0.25741 0"/>
<feBlend mode="normal" in2="BackgroundImageFix" result="effect1_dropShadow_558_577"/>
<feColorMatrix in="SourceAlpha" type="matrix" values="0 0 0 0 0 0 0 0 0 0 0 0 0 0 0 0 0 0 127 0" result="hardAlpha"/>
<feOffset dx="-1.90299" dy="4.75749"/>
<feGaussianBlur stdDeviation="1.42725"/>
<feColorMatrix type="matrix" values="0 0 0 0 0 0 0 0 0 0 0 0 0 0 0 0 0 0 0.144615 0"/>
<feBlend mode="normal" in2="effect1_dropShadow_558_577" result="effect2_dropShadow_558_577"/>
<feBlend mode="normal" in="SourceGraphic" in2="effect2_dropShadow_558_577" result="shape"/>
</filter>
<filter id="filter3_dd_558_577" x="346.185" y="239.185" width="65.416" height="74.1561" filterUnits="userSpaceOnUse" color-interpolation-filters="sRGB">
<feFlood flood-opacity="0" result="BackgroundImageFix"/>
<feColorMatrix in="SourceAlpha" type="matrix" values="0 0 0 0 0 0 0 0 0 0 0 0 0 0 0 0 0 0 127 0" result="hardAlpha"/>
<feOffset dx="-6.66048" dy="8.56348"/>
<feGaussianBlur stdDeviation="3.33024"/>
<feColorMatrix type="matrix" values="0 0 0 0 0.316369 0 0 0 0 0.366988 0 0 0 0 0.353496 0 0 0 0.25741 0"/>
<feBlend mode="normal" in2="BackgroundImageFix" result="effect1_dropShadow_558_577"/>
<feColorMatrix in="SourceAlpha" type="matrix" values="0 0 0 0 0 0 0 0 0 0 0 0 0 0 0 0 0 0 127 0" result="hardAlpha"/>
<feOffset dx="-1.90299" dy="4.75749"/>
<feGaussianBlur stdDeviation="1.42725"/>
<feColorMatrix type="matrix" values="0 0 0 0 0 0 0 0 0 0 0 0 0 0 0 0 0 0 0.144615 0"/>
<feBlend mode="normal" in2="effect1_dropShadow_558_577" result="effect2_dropShadow_558_577"/>
<feBlend mode="normal" in="SourceGraphic" in2="effect2_dropShadow_558_577" result="shape"/>
</filter>
<filter id="filter4_dd_558_577" x="315.573" y="295.905" width="65.416" height="74.1561" filterUnits="userSpaceOnUse" color-interpolation-filters="sRGB">
<feFlood flood-opacity="0" result="BackgroundImageFix"/>
<feColorMatrix in="SourceAlpha" type="matrix" values="0 0 0 0 0 0 0 0 0 0 0 0 0 0 0 0 0 0 127 0" result="hardAlpha"/>
<feOffset dx="-6.66048" dy="8.56348"/>
<feGaussianBlur stdDeviation="3.33024"/>
<feColorMatrix type="matrix" values="0 0 0 0 0.316369 0 0 0 0 0.366988 0 0 0 0 0.353496 0 0 0 0.25741 0"/>
<feBlend mode="normal" in2="BackgroundImageFix" result="effect1_dropShadow_558_577"/>
<feColorMatrix in="SourceAlpha" type="matrix" values="0 0 0 0 0 0 0 0 0 0 0 0 0 0 0 0 0 0 127 0" result="hardAlpha"/>
<feOffset dx="-1.90299" dy="4.75749"/>
<feGaussianBlur stdDeviation="1.42725"/>
<feColorMatrix type="matrix" values="0 0 0 0 0 0 0 0 0 0 0 0 0 0 0 0 0 0 0.144615 0"/>
<feBlend mode="normal" in2="effect1_dropShadow_558_577" result="effect2_dropShadow_558_577"/>
<feBlend mode="normal" in="SourceGraphic" in2="effect2_dropShadow_558_577" result="shape"/>
</filter>
<filter id="filter5_dd_558_577" x="313.791" y="183.163" width="65.416" height="74.1561" filterUnits="userSpaceOnUse" color-interpolation-filters="sRGB">
<feFlood flood-opacity="0" result="BackgroundImageFix"/>
<feColorMatrix in="SourceAlpha" type="matrix" values="0 0 0 0 0 0 0 0 0 0 0 0 0 0 0 0 0 0 127 0" result="hardAlpha"/>
<feOffset dx="-6.66048" dy="8.56348"/>
<feGaussianBlur stdDeviation="3.33024"/>
<feColorMatrix type="matrix" values="0 0 0 0 0.316369 0 0 0 0 0.366988 0 0 0 0 0.353496 0 0 0 0.25741 0"/>
<feBlend mode="normal" in2="BackgroundImageFix" result="effect1_dropShadow_558_577"/>
<feColorMatrix in="SourceAlpha" type="matrix" values="0 0 0 0 0 0 0 0 0 0 0 0 0 0 0 0 0 0 127 0" result="hardAlpha"/>
<feOffset dx="-1.90299" dy="4.75749"/>
<feGaussianBlur stdDeviation="1.42725"/>
<feColorMatrix type="matrix" values="0 0 0 0 0 0 0 0 0 0 0 0 0 0 0 0 0 0 0.144615 0"/>
<feBlend mode="normal" in2="effect1_dropShadow_558_577" result="effect2_dropShadow_558_577"/>
<feBlend mode="normal" in="SourceGraphic" in2="effect2_dropShadow_558_577" result="shape"/>
</filter>
<filter id="filter6_dd_558_577" x="284.996" y="351.252" width="65.416" height="74.1561" filterUnits="userSpaceOnUse" color-interpolation-filters="sRGB">
<feFlood flood-opacity="0" result="BackgroundImageFix"/>
<feColorMatrix in="SourceAlpha" type="matrix" values="0 0 0 0 0 0 0 0 0 0 0 0 0 0 0 0 0 0 127 0" result="hardAlpha"/>
<feOffset dx="-6.66048" dy="8.56348"/>
<feGaussianBlur stdDeviation="3.33024"/>
<feColorMatrix type="matrix" values="0 0 0 0 0.316369 0 0 0 0 0.366988 0 0 0 0 0.353496 0 0 0 0.25741 0"/>
<feBlend mode="normal" in2="BackgroundImageFix" result="effect1_dropShadow_558_577"/>
<feColorMatrix in="SourceAlpha" type="matrix" values="0 0 0 0 0 0 0 0 0 0 0 0 0 0 0 0 0 0 127 0" result="hardAlpha"/>
<feOffset dx="-1.90299" dy="4.75749"/>
<feGaussianBlur stdDeviation="1.42725"/>
<feColorMatrix type="matrix" values="0 0 0 0 0 0 0 0 0 0 0 0 0 0 0 0 0 0 0.144615 0"/>
<feBlend mode="normal" in2="effect1_dropShadow_558_577" result="effect2_dropShadow_558_577"/>
<feBlend mode="normal" in="SourceGraphic" in2="effect2_dropShadow_558_577" result="shape"/>
</filter>
<filter id="filter7_dd_558_577" x="156.147" y="130" width="65.416" height="74.1561" filterUnits="userSpaceOnUse" color-interpolation-filters="sRGB">
<feFlood flood-opacity="0" result="BackgroundImageFix"/>
<feColorMatrix in="SourceAlpha" type="matrix" values="0 0 0 0 0 0 0 0 0 0 0 0 0 0 0 0 0 0 127 0" result="hardAlpha"/>
<feOffset dx="-6.66048" dy="8.56348"/>
<feGaussianBlur stdDeviation="3.33024"/>
<feColorMatrix type="matrix" values="0 0 0 0 0.316369 0 0 0 0 0.366988 0 0 0 0 0.353496 0 0 0 0.25741 0"/>
<feBlend mode="normal" in2="BackgroundImageFix" result="effect1_dropShadow_558_577"/>
<feColorMatrix in="SourceAlpha" type="matrix" values="0 0 0 0 0 0 0 0 0 0 0 0 0 0 0 0 0 0 127 0" result="hardAlpha"/>
<feOffset dx="-1.90299" dy="4.75749"/>
<feGaussianBlur stdDeviation="1.42725"/>
<feColorMatrix type="matrix" values="0 0 0 0 0 0 0 0 0 0 0 0 0 0 0 0 0 0 0.144615 0"/>
<feBlend mode="normal" in2="effect1_dropShadow_558_577" result="effect2_dropShadow_558_577"/>
<feBlend mode="normal" in="SourceGraphic" in2="effect2_dropShadow_558_577" result="shape"/>
</filter>
<filter id="filter8_dd_558_577" x="95.679" y="239.185" width="65.416" height="74.1561" filterUnits="userSpaceOnUse" color-interpolation-filters="sRGB">
<feFlood flood-opacity="0" result="BackgroundImageFix"/>
<feColorMatrix in="SourceAlpha" type="matrix" values="0 0 0 0 0 0 0 0 0 0 0 0 0 0 0 0 0 0 127 0" result="hardAlpha"/>
<feOffset dx="-6.66048" dy="8.56348"/>
<feGaussianBlur stdDeviation="3.33024"/>
<feColorMatrix type="matrix" values="0 0 0 0 0.316369 0 0 0 0 0.366988 0 0 0 0 0.353496 0 0 0 0.25741 0"/>
<feBlend mode="normal" in2="BackgroundImageFix" result="effect1_dropShadow_558_577"/>
<feColorMatrix in="SourceAlpha" type="matrix" values="0 0 0 0 0 0 0 0 0 0 0 0 0 0 0 0 0 0 127 0" result="hardAlpha"/>
<feOffset dx="-1.90299" dy="4.75749"/>
<feGaussianBlur stdDeviation="1.42725"/>
<feColorMatrix type="matrix" values="0 0 0 0 0 0 0 0 0 0 0 0 0 0 0 0 0 0 0.144615 0"/>
<feBlend mode="normal" in2="effect1_dropShadow_558_577" result="effect2_dropShadow_558_577"/>
<feBlend mode="normal" in="SourceGraphic" in2="effect2_dropShadow_558_577" result="shape"/>
</filter>
<filter id="filter9_dd_558_577" x="125.917" y="183.163" width="65.416" height="74.1561" filterUnits="userSpaceOnUse" color-interpolation-filters="sRGB">
<feFlood flood-opacity="0" result="BackgroundImageFix"/>
<feColorMatrix in="SourceAlpha" type="matrix" values="0 0 0 0 0 0 0 0 0 0 0 0 0 0 0 0 0 0 127 0" result="hardAlpha"/>
<feOffset dx="-6.66048" dy="8.56348"/>
<feGaussianBlur stdDeviation="3.33024"/>
<feColorMatrix type="matrix" values="0 0 0 0 0.316369 0 0 0 0 0.366988 0 0 0 0 0.353496 0 0 0 0.25741 0"/>
<feBlend mode="normal" in2="BackgroundImageFix" result="effect1_dropShadow_558_577"/>
<feColorMatrix in="SourceAlpha" type="matrix" values="0 0 0 0 0 0 0 0 0 0 0 0 0 0 0 0 0 0 127 0" result="hardAlpha"/>
<feOffset dx="-1.90299" dy="4.75749"/>
<feGaussianBlur stdDeviation="1.42725"/>
<feColorMatrix type="matrix" values="0 0 0 0 0 0 0 0 0 0 0 0 0 0 0 0 0 0 0.144615 0"/>
<feBlend mode="normal" in2="effect1_dropShadow_558_577" result="effect2_dropShadow_558_577"/>
<feBlend mode="normal" in="SourceGraphic" in2="effect2_dropShadow_558_577" result="shape"/>
</filter>
<filter id="filter10_dd_558_577" x="184.738" y="183.163" width="74.931" height="86.5256" filterUnits="userSpaceOnUse" color-interpolation-filters="sRGB">
<feFlood flood-opacity="0" result="BackgroundImageFix"/>
<feColorMatrix in="SourceAlpha" type="matrix" values="0 0 0 0 0 0 0 0 0 0 0 0 0 0 0 0 0 0 127 0" result="hardAlpha"/>
<feOffset dx="-10.4665" dy="20.9329"/>
<feGaussianBlur stdDeviation="3.33024"/>
<feColorMatrix type="matrix" values="0 0 0 0 0.316369 0 0 0 0 0.366988 0 0 0 0 0.353496 0 0 0 0.25741 0"/>
<feBlend mode="normal" in2="BackgroundImageFix" result="effect1_dropShadow_558_577"/>
<feColorMatrix in="SourceAlpha" type="matrix" values="0 0 0 0 0 0 0 0 0 0 0 0 0 0 0 0 0 0 127 0" result="hardAlpha"/>
<feOffset dx="-2.85449" dy="9.51497"/>
<feGaussianBlur stdDeviation="4.75749"/>
<feColorMatrix type="matrix" values="0 0 0 0 0 0 0 0 0 0 0 0 0 0 0 0 0 0 0.144615 0"/>
<feBlend mode="normal" in2="effect1_dropShadow_558_577" result="effect2_dropShadow_558_577"/>
<feBlend mode="normal" in="SourceGraphic" in2="effect2_dropShadow_558_577" result="shape"/>
</filter>
<filter id="filter11_dd_558_577" x="247.364" y="183.163" width="74.931" height="86.5256" filterUnits="userSpaceOnUse" color-interpolation-filters="sRGB">
<feFlood flood-opacity="0" result="BackgroundImageFix"/>
<feColorMatrix in="SourceAlpha" type="matrix" values="0 0 0 0 0 0 0 0 0 0 0 0 0 0 0 0 0 0 127 0" result="hardAlpha"/>
<feOffset dx="-10.4665" dy="20.9329"/>
<feGaussianBlur stdDeviation="3.33024"/>
<feColorMatrix type="matrix" values="0 0 0 0 0.316369 0 0 0 0 0.366988 0 0 0 0 0.353496 0 0 0 0.25741 0"/>
<feBlend mode="normal" in2="BackgroundImageFix" result="effect1_dropShadow_558_577"/>
<feColorMatrix in="SourceAlpha" type="matrix" values="0 0 0 0 0 0 0 0 0 0 0 0 0 0 0 0 0 0 127 0" result="hardAlpha"/>
<feOffset dx="-2.85449" dy="9.51497"/>
<feGaussianBlur stdDeviation="4.75749"/>
<feColorMatrix type="matrix" values="0 0 0 0 0 0 0 0 0 0 0 0 0 0 0 0 0 0 0.144615 0"/>
<feBlend mode="normal" in2="effect1_dropShadow_558_577" result="effect2_dropShadow_558_577"/>
<feBlend mode="normal" in="SourceGraphic" in2="effect2_dropShadow_558_577" result="shape"/>
</filter>
<filter id="filter12_dd_558_577" x="154.499" y="239.185" width="74.931" height="86.5256" filterUnits="userSpaceOnUse" color-interpolation-filters="sRGB">
<feFlood flood-opacity="0" result="BackgroundImageFix"/>
<feColorMatrix in="SourceAlpha" type="matrix" values="0 0 0 0 0 0 0 0 0 0 0 0 0 0 0 0 0 0 127 0" result="hardAlpha"/>
<feOffset dx="-10.4665" dy="20.9329"/>
<feGaussianBlur stdDeviation="3.33024"/>
<feColorMatrix type="matrix" values="0 0 0 0 0.316369 0 0 0 0 0.366988 0 0 0 0 0.353496 0 0 0 0.25741 0"/>
<feBlend mode="normal" in2="BackgroundImageFix" result="effect1_dropShadow_558_577"/>
<feColorMatrix in="SourceAlpha" type="matrix" values="0 0 0 0 0 0 0 0 0 0 0 0 0 0 0 0 0 0 127 0" result="hardAlpha"/>
<feOffset dx="-2.85449" dy="9.51497"/>
<feGaussianBlur stdDeviation="4.75749"/>
<feColorMatrix type="matrix" values="0 0 0 0 0 0 0 0 0 0 0 0 0 0 0 0 0 0 0.144615 0"/>
<feBlend mode="normal" in2="effect1_dropShadow_558_577" result="effect2_dropShadow_558_577"/>
<feBlend mode="normal" in="SourceGraphic" in2="effect2_dropShadow_558_577" result="shape"/>
</filter>
<filter id="filter13_dd_558_577" x="128.417" y="295.905" width="65.416" height="74.1561" filterUnits="userSpaceOnUse" color-interpolation-filters="sRGB">
<feFlood flood-opacity="0" result="BackgroundImageFix"/>
<feColorMatrix in="SourceAlpha" type="matrix" values="0 0 0 0 0 0 0 0 0 0 0 0 0 0 0 0 0 0 127 0" result="hardAlpha"/>
<feOffset dx="-6.66048" dy="8.56348"/>
<feGaussianBlur stdDeviation="3.33024"/>
<feColorMatrix type="matrix" values="0 0 0 0 0.316369 0 0 0 0 0.366988 0 0 0 0 0.353496 0 0 0 0.25741 0"/>
<feBlend mode="normal" in2="BackgroundImageFix" result="effect1_dropShadow_558_577"/>
<feColorMatrix in="SourceAlpha" type="matrix" values="0 0 0 0 0 0 0 0 0 0 0 0 0 0 0 0 0 0 127 0" result="hardAlpha"/>
<feOffset dx="-1.90299" dy="4.75749"/>
<feGaussianBlur stdDeviation="1.42725"/>
<feColorMatrix type="matrix" values="0 0 0 0 0 0 0 0 0 0 0 0 0 0 0 0 0 0 0.144615 0"/>
<feBlend mode="normal" in2="effect1_dropShadow_558_577" result="effect2_dropShadow_558_577"/>
<feBlend mode="normal" in="SourceGraphic" in2="effect2_dropShadow_558_577" result="shape"/>
</filter>
<filter id="filter14_dd_558_577" x="217.13" y="239.185" width="74.931" height="86.5256" filterUnits="userSpaceOnUse" color-interpolation-filters="sRGB">
<feFlood flood-opacity="0" result="BackgroundImageFix"/>
<feColorMatrix in="SourceAlpha" type="matrix" values="0 0 0 0 0 0 0 0 0 0 0 0 0 0 0 0 0 0 127 0" result="hardAlpha"/>
<feOffset dx="-10.4665" dy="20.9329"/>
<feGaussianBlur stdDeviation="3.33024"/>
<feColorMatrix type="matrix" values="0 0 0 0 0.316369 0 0 0 0 0.366988 0 0 0 0 0.353496 0 0 0 0.25741 0"/>
<feBlend mode="normal" in2="BackgroundImageFix" result="effect1_dropShadow_558_577"/>
<feColorMatrix in="SourceAlpha" type="matrix" values="0 0 0 0 0 0 0 0 0 0 0 0 0 0 0 0 0 0 127 0" result="hardAlpha"/>
<feOffset dx="-2.85449" dy="9.51497"/>
<feGaussianBlur stdDeviation="4.75749"/>
<feColorMatrix type="matrix" values="0 0 0 0 0 0 0 0 0 0 0 0 0 0 0 0 0 0 0.144615 0"/>
<feBlend mode="normal" in2="effect1_dropShadow_558_577" result="effect2_dropShadow_558_577"/>
<feBlend mode="normal" in="SourceGraphic" in2="effect2_dropShadow_558_577" result="shape"/>
</filter>
<filter id="filter15_dd_558_577" x="279.752" y="239.185" width="74.931" height="86.5256" filterUnits="userSpaceOnUse" color-interpolation-filters="sRGB">
<feFlood flood-opacity="0" result="BackgroundImageFix"/>
<feColorMatrix in="SourceAlpha" type="matrix" values="0 0 0 0 0 0 0 0 0 0 0 0 0 0 0 0 0 0 127 0" result="hardAlpha"/>
<feOffset dx="-10.4665" dy="20.9329"/>
<feGaussianBlur stdDeviation="3.33024"/>
<feColorMatrix type="matrix" values="0 0 0 0 0.316369 0 0 0 0 0.366988 0 0 0 0 0.353496 0 0 0 0.25741 0"/>
<feBlend mode="normal" in2="BackgroundImageFix" result="effect1_dropShadow_558_577"/>
<feColorMatrix in="SourceAlpha" type="matrix" values="0 0 0 0 0 0 0 0 0 0 0 0 0 0 0 0 0 0 127 0" result="hardAlpha"/>
<feOffset dx="-2.85449" dy="9.51497"/>
<feGaussianBlur stdDeviation="4.75749"/>
<feColorMatrix type="matrix" values="0 0 0 0 0 0 0 0 0 0 0 0 0 0 0 0 0 0 0.144615 0"/>
<feBlend mode="normal" in2="effect1_dropShadow_558_577" result="effect2_dropShadow_558_577"/>
<feBlend mode="normal" in="SourceGraphic" in2="effect2_dropShadow_558_577" result="shape"/>
</filter>
<filter id="filter16_dd_558_577" x="187.239" y="295.905" width="74.931" height="86.5256" filterUnits="userSpaceOnUse" color-interpolation-filters="sRGB">
<feFlood flood-opacity="0" result="BackgroundImageFix"/>
<feColorMatrix in="SourceAlpha" type="matrix" values="0 0 0 0 0 0 0 0 0 0 0 0 0 0 0 0 0 0 127 0" result="hardAlpha"/>
<feOffset dx="-10.4665" dy="20.9329"/>
<feGaussianBlur stdDeviation="3.33024"/>
<feColorMatrix type="matrix" values="0 0 0 0 0.316369 0 0 0 0 0.366988 0 0 0 0 0.353496 0 0 0 0.25741 0"/>
<feBlend mode="normal" in2="BackgroundImageFix" result="effect1_dropShadow_558_577"/>
<feColorMatrix in="SourceAlpha" type="matrix" values="0 0 0 0 0 0 0 0 0 0 0 0 0 0 0 0 0 0 127 0" result="hardAlpha"/>
<feOffset dx="-2.85449" dy="9.51497"/>
<feGaussianBlur stdDeviation="4.75749"/>
<feColorMatrix type="matrix" values="0 0 0 0 0 0 0 0 0 0 0 0 0 0 0 0 0 0 0.144615 0"/>
<feBlend mode="normal" in2="effect1_dropShadow_558_577" result="effect2_dropShadow_558_577"/>
<feBlend mode="normal" in="SourceGraphic" in2="effect2_dropShadow_558_577" result="shape"/>
</filter>
<filter id="filter17_dd_558_577" x="249.141" y="295.905" width="74.931" height="86.5256" filterUnits="userSpaceOnUse" color-interpolation-filters="sRGB">
<feFlood flood-opacity="0" result="BackgroundImageFix"/>
<feColorMatrix in="SourceAlpha" type="matrix" values="0 0 0 0 0 0 0 0 0 0 0 0 0 0 0 0 0 0 127 0" result="hardAlpha"/>
<feOffset dx="-10.4665" dy="20.9329"/>
<feGaussianBlur stdDeviation="3.33024"/>
<feColorMatrix type="matrix" values="0 0 0 0 0.316369 0 0 0 0 0.366988 0 0 0 0 0.353496 0 0 0 0.25741 0"/>
<feBlend mode="normal" in2="BackgroundImageFix" result="effect1_dropShadow_558_577"/>
<feColorMatrix in="SourceAlpha" type="matrix" values="0 0 0 0 0 0 0 0 0 0 0 0 0 0 0 0 0 0 127 0" result="hardAlpha"/>
<feOffset dx="-2.85449" dy="9.51497"/>
<feGaussianBlur stdDeviation="4.75749"/>
<feColorMatrix type="matrix" values="0 0 0 0 0 0 0 0 0 0 0 0 0 0 0 0 0 0 0.144615 0"/>
<feBlend mode="normal" in2="effect1_dropShadow_558_577" result="effect2_dropShadow_558_577"/>
<feBlend mode="normal" in="SourceGraphic" in2="effect2_dropShadow_558_577" result="shape"/>
</filter>
<filter id="filter18_dd_558_577" x="223.095" y="351.252" width="65.416" height="74.1561" filterUnits="userSpaceOnUse" color-interpolation-filters="sRGB">
<feFlood flood-opacity="0" result="BackgroundImageFix"/>
<feColorMatrix in="SourceAlpha" type="matrix" values="0 0 0 0 0 0 0 0 0 0 0 0 0 0 0 0 0 0 127 0" result="hardAlpha"/>
<feOffset dx="-6.66048" dy="8.56348"/>
<feGaussianBlur stdDeviation="3.33024"/>
<feColorMatrix type="matrix" values="0 0 0 0 0.316369 0 0 0 0 0.366988 0 0 0 0 0.353496 0 0 0 0.25741 0"/>
<feBlend mode="normal" in2="BackgroundImageFix" result="effect1_dropShadow_558_577"/>
<feColorMatrix in="SourceAlpha" type="matrix" values="0 0 0 0 0 0 0 0 0 0 0 0 0 0 0 0 0 0 127 0" result="hardAlpha"/>
<feOffset dx="-1.90299" dy="4.75749"/>
<feGaussianBlur stdDeviation="1.42725"/>
<feColorMatrix type="matrix" values="0 0 0 0 0 0 0 0 0 0 0 0 0 0 0 0 0 0 0.144615 0"/>
<feBlend mode="normal" in2="effect1_dropShadow_558_577" result="effect2_dropShadow_558_577"/>
<feBlend mode="normal" in="SourceGraphic" in2="effect2_dropShadow_558_577" result="shape"/>
</filter>
<filter id="filter19_dd_558_577" x="161.189" y="351.252" width="65.416" height="74.1561" filterUnits="userSpaceOnUse" color-interpolation-filters="sRGB">
<feFlood flood-opacity="0" result="BackgroundImageFix"/>
<feColorMatrix in="SourceAlpha" type="matrix" values="0 0 0 0 0 0 0 0 0 0 0 0 0 0 0 0 0 0 127 0" result="hardAlpha"/>
<feOffset dx="-6.66048" dy="8.56348"/>
<feGaussianBlur stdDeviation="3.33024"/>
<feColorMatrix type="matrix" values="0 0 0 0 0.316369 0 0 0 0 0.366988 0 0 0 0 0.353496 0 0 0 0.25741 0"/>
<feBlend mode="normal" in2="BackgroundImageFix" result="effect1_dropShadow_558_577"/>
<feColorMatrix in="SourceAlpha" type="matrix" values="0 0 0 0 0 0 0 0 0 0 0 0 0 0 0 0 0 0 127 0" result="hardAlpha"/>
<feOffset dx="-1.90299" dy="4.75749"/>
<feGaussianBlur stdDeviation="1.42725"/>
<feColorMatrix type="matrix" values="0 0 0 0 0 0 0 0 0 0 0 0 0 0 0 0 0 0 0.144615 0"/>
<feBlend mode="normal" in2="effect1_dropShadow_558_577" result="effect2_dropShadow_558_577"/>
<feBlend mode="normal" in="SourceGraphic" in2="effect2_dropShadow_558_577" result="shape"/>
</filter>
<filter id="filter20_d_558_577" x="253.898" y="295.905" width="70.1735" height="77.9621" filterUnits="userSpaceOnUse" color-interpolation-filters="sRGB">
<feFlood flood-opacity="0" result="BackgroundImageFix"/>
<feColorMatrix in="SourceAlpha" type="matrix" values="0 0 0 0 0 0 0 0 0 0 0 0 0 0 0 0 0 0 127 0" result="hardAlpha"/>
<feOffset dx="-2.85449" dy="9.51497"/>
<feGaussianBlur stdDeviation="4.75749"/>
<feColorMatrix type="matrix" values="0 0 0 0 0 0 0 0 0 0 0 0 0 0 0 0 0 0 0.144615 0"/>
<feBlend mode="normal" in2="BackgroundImageFix" result="effect1_dropShadow_558_577"/>
<feBlend mode="normal" in="SourceGraphic" in2="effect1_dropShadow_558_577" result="shape"/>
</filter>
<linearGradient id="paint0_linear_558_577" x1="161" y1="90.5" x2="368" y2="444.5" gradientUnits="userSpaceOnUse">
<stop stop-color="#000033"/>
<stop offset="1" stop-color="#00E599" stop-opacity="0.2"/>
</linearGradient>
</defs>
</svg>
