<svg fill="none" height="150" viewBox="0 0 150 150" width="150" xmlns="http://www.w3.org/2000/svg" xmlns:xlink="http://www.w3.org/1999/xlink"><mask id="a" height="150" maskUnits="userSpaceOnUse" width="150" x="0" y="0"><path d="m0 0h150v150h-150z" fill="#d9d9d9"/></mask><g mask="url(#a)"><path d="m74.9749 8.31836 53.8621 31.09754v62.1951l-53.8621 31.098-53.8626-31.098v-62.1951z" fill="#f0f5f6"/><g stroke="#003"><path clip-rule="evenodd" d="m75.9142 48.2127 19.4419 10.9214c.5231.2938.8468.847.8468 1.4468v21.765c0 .5998-.3237 1.153-.8468 1.4468l-19.4419 10.9214c-.5047.2836-1.1208.2836-1.6255 0l-19.442-10.9214c-.523-.2938-.8467-.847-.8467-1.4468v-21.765c0-.5998.3237-1.153.8467-1.4468l19.442-10.9214c.5047-.2836 1.1208-.2836 1.6255 0z" fill="#fff" fill-rule="evenodd" stroke-width=".925376"/><path d="m75.4307 94.5123v-22.3902" stroke-linecap="round" stroke-width=".925376"/><path d="m54.3574 60.9268 21.0732 11.1951" stroke-linecap="round" stroke-width=".925376"/><path d="m95.8451 60.9268-20.4916 10.8861" stroke-linecap="round" stroke-width=".925376"/><path clip-rule="evenodd" d="m80.0188 59.8545-4.5791 2.4402c-.1939.1034-.4266.1032-.6203-.0004l-4.5622-2.4402c-.3207-.1716-.4416-.5706-.27-.8913.0578-.1082.1448-.1981.251-.2595l4.5622-2.6383c.2036-.1177.4546-.1179.6584-.0005l4.5791 2.6383c.3151.1815.4234.5842.2418.8993-.0616.1069-.152.1944-.2609.2524z" fill="#00e599" fill-rule="evenodd" stroke-width=".845556"/></g></g></svg>