<svg fill="none" height="150" viewBox="0 0 150 150" width="150" xmlns="http://www.w3.org/2000/svg" xmlns:xlink="http://www.w3.org/1999/xlink"><mask id="a" height="150" maskUnits="userSpaceOnUse" width="150" x="0" y="0"><path d="m0 0h150v150h-150z" fill="#d9d9d9"/></mask><g mask="url(#a)"><path d="m100.743 3.5 22.744 13.1309v26.2619l-22.744 13.1309-22.743-13.1309v-26.2619z" fill="#f0f5f6"/><path d="m87.7979 24.8687v14.6524l12.8411 7.4166v-15.4117z" style="fill-rule:evenodd;clip-rule:evenodd;fill:#fff;stroke:#003;stroke-width:1.05012;stroke-linejoin:round"/><path d="m113.423 24.8687v14.6524l-12.842 7.4166v-15.4117z" style="fill-rule:evenodd;clip-rule:evenodd;fill:#fff;stroke:#003;stroke-width:1.05012;stroke-linejoin:round"/><path d="m113.422 24.8689-12.841 6.6574-12.7831-6.6574 12.8411-6.9573z" style="fill-rule:evenodd;clip-rule:evenodd;fill:#fff;stroke:#003;stroke-width:1.05012;stroke-linejoin:round"/><path clip-rule="evenodd" d="m96.2012 22.4379 7.6118 4.2429.978-.5755-7.6005-4.1741z" fill="#003" fill-rule="evenodd"/><path clip-rule="evenodd" d="m98.4746 10.6704v9.0516l5.4154 2.8988v-9.1278z" fill="#00e599" fill-rule="evenodd" stroke="#003" stroke-width=".700077"/><path d="m48.926 3.18359 22.7435 13.13091v26.2618l-22.7435 13.131-22.7434-13.131v-26.2618z" fill="#f0f5f6"/><path d="m35.9805 24.5522v14.6525l12.8414 7.4166v-15.4117z" style="fill-rule:evenodd;clip-rule:evenodd;fill:#fff;stroke:#003;stroke-width:1.05012;stroke-linejoin:round"/><path d="m61.6055 24.5522v14.6525l-12.8414 7.4166v-15.4117z" style="fill-rule:evenodd;clip-rule:evenodd;fill:#fff;stroke:#003;stroke-width:1.05012;stroke-linejoin:round"/><path d="m61.6051 24.5525-12.8414 6.6574-12.7832-6.6574 12.8414-6.9573z" style="fill-rule:evenodd;clip-rule:evenodd;fill:#fff;stroke:#003;stroke-width:1.05012;stroke-linejoin:round"/><path clip-rule="evenodd" d="m44.3838 22.1215 7.6122 4.2429.9772-.5755-7.6-4.1742z" fill="#003" fill-rule="evenodd"/><path clip-rule="evenodd" d="m46.6572 10.354v9.0516l5.4151 2.8988v-9.1278z" fill="#00e599" fill-rule="evenodd" stroke="#003" stroke-width=".700077"/><path d="m126.82 46.7188 22.743 13.1309v26.2618l-22.743 13.1309-22.744-13.1309v-26.2618z" fill="#f0f5f6"/><path d="m113.874 68.0869v14.6524l12.841 7.4166v-15.4116z" style="fill-rule:evenodd;clip-rule:evenodd;fill:#fff;stroke:#003;stroke-width:1.05012;stroke-linejoin:round"/><path d="m139.499 68.0869v14.6524l-12.841 7.4166v-15.4116z" style="fill-rule:evenodd;clip-rule:evenodd;fill:#fff;stroke:#003;stroke-width:1.05012;stroke-linejoin:round"/><path d="m139.499 68.0872-12.842 6.6573-12.783-6.6573 12.841-6.9573z" style="fill-rule:evenodd;clip-rule:evenodd;fill:#fff;stroke:#003;stroke-width:1.05012;stroke-linejoin:round"/><path clip-rule="evenodd" d="m122.277 65.6566 7.613 4.243.977-.5756-7.6-4.1741z" fill="#003" fill-rule="evenodd"/><path clip-rule="evenodd" d="m124.551 53.8887v9.0516l5.415 2.8988v-9.1278z" fill="#00e599" fill-rule="evenodd" stroke="#003" stroke-width=".700077"/><path d="m74.9612 46.5 22.7434 13.1309v26.2619l-22.7434 13.1309-22.7434-13.1309v-26.2619z" fill="#f0f5f6"/><path d="m62.0156 67.8687v14.6524l12.8414 7.4166v-15.4117z" style="fill-rule:evenodd;clip-rule:evenodd;fill:#fff;stroke:#003;stroke-width:1.05012;stroke-linejoin:round"/><path d="m87.6406 67.8687v14.6524l-12.8414 7.4166v-15.4117z" style="fill-rule:evenodd;clip-rule:evenodd;fill:#fff;stroke:#003;stroke-width:1.05012;stroke-linejoin:round"/><path d="m87.6403 67.8684-12.8414 6.6574-12.7833-6.6574 12.8414-6.9573z" style="fill-rule:evenodd;clip-rule:evenodd;fill:#fff;stroke:#003;stroke-width:1.05012;stroke-linejoin:round"/><path clip-rule="evenodd" d="m70.4189 65.4384 7.6122 4.2429.9772-.5755-7.6-4.1742z" fill="#003" fill-rule="evenodd"/><path clip-rule="evenodd" d="m72.6924 53.6709v9.0516l5.415 2.8988v-9.1278z" fill="#00e599" fill-rule="evenodd" stroke="#003" stroke-width=".700077"/><path d="m100.584 90.2529 22.583 13.1311v26.262l-22.583 13.131-22.584-13.131v-26.262z" fill="#f0f5f6"/><path d="m87.7295 111.622v14.652l12.7515 7.417v-15.412z" style="fill-rule:evenodd;clip-rule:evenodd;fill:#fff;stroke:#003;stroke-width:1.05012;stroke-linejoin:round"/><path d="m113.174 111.622v14.652l-12.751 7.417v-15.412z" style="fill-rule:evenodd;clip-rule:evenodd;fill:#fff;stroke:#003;stroke-width:1.05012;stroke-linejoin:round"/><path d="m113.174 111.622-12.751 6.658-12.6935-6.658 12.7515-6.957z" style="fill-rule:evenodd;clip-rule:evenodd;fill:#fff;stroke:#003;stroke-width:1.05012;stroke-linejoin:round"/><path clip-rule="evenodd" d="m96.0732 109.191 7.5588 4.243.97-.575-7.5463-4.174z" fill="#003" fill-rule="evenodd"/><path clip-rule="evenodd" d="m98.3311 97.4238v9.0512l5.3769 2.899v-9.128z" fill="#00e599" fill-rule="evenodd" stroke="#003" stroke-width=".700077"/><path d="m48.7434 90.2529 22.7434 13.1311v26.262l-22.7434 13.131-22.7434-13.131v-26.262z" fill="#f0f5f6"/><path d="m35.7979 111.622v14.652l12.8414 7.417v-15.412z" style="fill-rule:evenodd;clip-rule:evenodd;fill:#fff;stroke:#003;stroke-width:1.05012;stroke-linejoin:round"/><path d="m61.4229 111.622v14.652l-12.8415 7.417v-15.412z" style="fill-rule:evenodd;clip-rule:evenodd;fill:#fff;stroke:#003;stroke-width:1.05012;stroke-linejoin:round"/><path d="m61.4225 111.622-12.8414 6.657-12.7832-6.657 12.8414-6.957z" style="fill-rule:evenodd;clip-rule:evenodd;fill:#fff;stroke:#003;stroke-width:1.05012;stroke-linejoin:round"/><path clip-rule="evenodd" d="m44.2012 109.191 7.6122 4.243.9771-.575-7.6-4.174z" fill="#003" fill-rule="evenodd"/><path clip-rule="evenodd" d="m46.4746 97.4238v9.0512l5.415 2.899v-9.128z" fill="#00e599" fill-rule="evenodd" stroke="#003" stroke-width=".700077"/><path d="m23.7434 46.5 22.7434 13.1309v26.2619l-22.7434 13.1309-22.7434-13.1309v-26.2619z" fill="#f0f5f6"/><path d="m10.7979 67.8687v14.6524l12.8414 7.4166v-15.4117z" style="fill-rule:evenodd;clip-rule:evenodd;fill:#fff;stroke:#003;stroke-width:1.05012;stroke-linejoin:round"/><path d="m36.4229 67.8687v14.6524l-12.8415 7.4166v-15.4117z" style="fill-rule:evenodd;clip-rule:evenodd;fill:#fff;stroke:#003;stroke-width:1.05012;stroke-linejoin:round"/><path d="m36.4225 67.8689-12.8414 6.6574-12.7832-6.6574 12.8414-6.9573z" style="fill-rule:evenodd;clip-rule:evenodd;fill:#fff;stroke:#003;stroke-width:1.05012;stroke-linejoin:round"/><path clip-rule="evenodd" d="m19.2012 65.4384 7.6122 4.2429.9771-.5755-7.6-4.1742z" fill="#003" fill-rule="evenodd"/><g stroke="#003"><path clip-rule="evenodd" d="m21.4746 53.6704v9.0516l5.415 2.8988v-9.1278z" fill="#00e599" fill-rule="evenodd" stroke-width=".700077"/><path d="m20.2098 84.2731v-1.2174c0-.1218-.0657-.2585-.1971-.4103s-.1971-.2276-.1971-.2276l-1.7461-1.8727c.1377-.0338.2545-.1025.3505-.206.0959-.1036.1731-.2244.2315-.3626s.1001-.2827.1252-.4336c.025-.1509.0375-.2894.0375-.4155v-1.0439c0-.174-.0532-.3786-.1596-.6138-.1063-.2352-.244-.471-.413-.7075-.169-.2364-.3609-.4599-.5758-.6706-.2148-.2106-.4328-.3796-.654-.5069-.2211-.1272-.4401-.2098-.6571-.2477-.2169-.0379-.4099-.0358-.5789.0061-.1689.0419-.3056.1199-.4099.2338-.1043.114-.1564.2579-.1564.4319v1.0439c0 .1131.0125.2584.0375.4359.0251.1775.0678.3696.1283.5762s.1387.4202.2347.6407.2149.4303.3567.6294l-1.7586-.1444s-.0667.0018-.2002.0054c-.1335.0037-.2003.062-.2003.1751v1.2174z" fill="#003" stroke-width="1.31259"/><path d="m123.285 84.4914v-1.2174c0-.1218-.066-.2586-.197-.4103-.132-.1518-.197-.2277-.197-.2277l-1.746-1.8726c.137-.0339.254-.1026.35-.2061s.173-.2244.232-.3626c.058-.1381.1-.2827.125-.4335.025-.1509.037-.2894.037-.4156v-1.0438c0-.174-.053-.3786-.159-.6138-.107-.2352-.244-.4711-.413-.7075s-.361-.46-.576-.6706c-.215-.2107-.433-.3796-.654-.5069s-.44-.2098-.657-.2477-.41-.0359-.579.0061c-.169.0419-.306.1198-.41.2338-.104.1139-.156.2579-.156.4319v1.0439c0 .1131.012.2584.037.4359s.068.3695.129.5762c.06.2066.138.4202.234.6407s.215.4303.357.6294l-1.759-.1444s-.066.0018-.2.0054c-.133.0036-.2.062-.2.1751v1.2174z" fill="#003" stroke-width="1.31259"/><path d="m96.8905 127.386v-1.217c0-.122-.0657-.259-.1972-.411-.1314-.152-.1971-.227-.1971-.227l-1.746-1.873c.1376-.034.2545-.103.3504-.206.096-.104.1732-.225.2316-.363s.1001-.282.1251-.433c.0251-.151.0376-.29.0376-.416v-1.044c0-.174-.0532-.378-.1596-.613-.1064-.236-.2441-.472-.413-.708-.169-.236-.3609-.46-.5758-.671-.2149-.21-.4329-.379-.654-.506-.2211-.128-.4401-.21-.6571-.248s-.4099-.036-.5789.006-.3056.12-.4099.234-.1565.258-.1565.432v1.043c0 .114.0125.259.0376.436.025.178.0678.37.1283.577.0605.206.1387.42.2347.64.0959.221.2148.431.3567.63l-1.7586-.145s-.0667.002-.2003.006c-.1335.003-.2002.062-.2002.175v1.217z" fill="#003" stroke-width="1.31259"/><path d="m45.2088 127.386v-1.217c0-.122-.0657-.259-.1971-.411s-.1971-.227-.1971-.227l-1.7461-1.873c.1377-.034.2545-.103.3505-.206.0959-.104.1731-.225.2315-.363s.1002-.282.1252-.433.0376-.29.0376-.416v-1.044c0-.174-.0532-.378-.1596-.613-.1064-.236-.2441-.472-.4131-.708s-.3609-.46-.5757-.671c-.2149-.21-.4329-.379-.654-.506-.2212-.128-.4402-.21-.6571-.248-.217-.038-.41-.036-.5789.006-.169.042-.3056.12-.41.234-.1043.114-.1564.258-.1564.432v1.043c0 .114.0125.259.0375.436.0251.178.0678.37.1283.577.0605.206.1388.42.2347.64.096.221.2149.431.3567.63l-1.7585-.145s-.0668.002-.2003.006c-.1335.003-.2003.062-.2003.175v1.217z" fill="#003" stroke-width="1.31259"/><path d="m97.2088 41.2727v-1.2175c0-.1218-.0657-.2585-.1971-.4103-.1314-.1517-.1971-.2276-.1971-.2276l-1.7461-1.8727c.1377-.0338.2545-.1025.3505-.206.0959-.1036.1731-.2244.2315-.3626s.1002-.2827.1252-.4336.0376-.2894.0376-.4155v-1.0439c0-.174-.0532-.3786-.1596-.6138s-.2441-.471-.4131-.7074c-.169-.2365-.3609-.46-.5757-.6707-.2149-.2106-.4329-.3796-.654-.5069-.2211-.1272-.4402-.2098-.6571-.2477-.217-.0378-.41-.0358-.5789.0061-.169.042-.3056.1199-.4099.2338-.1044.114-.1565.258-.1565.4319v1.0439c0 .1131.0125.2584.0375.4359.0251.1775.0678.3696.1283.5762s.1388.4202.2347.6407c.096.2205.2149.4303.3567.6294l-1.7585-.1444s-.0668.0018-.2003.0054c-.1335.0037-.2003.062-.2003.1751v1.2174z" fill="#003" stroke-width="1.31259"/><path d="m45.3924 40.9563v-1.2175c0-.1218-.0657-.2585-.1971-.4103-.1314-.1517-.1971-.2276-.1971-.2276l-1.7461-1.8727c.1377-.0338.2545-.1025.3505-.206.0959-.1036.1731-.2244.2315-.3626s.1002-.2827.1252-.4336.0375-.2894.0375-.4155v-1.0439c0-.174-.0532-.3786-.1595-.6138-.1064-.2352-.2441-.471-.4131-.7074-.169-.2365-.3609-.46-.5757-.6707-.2149-.2106-.4329-.3796-.654-.5069-.2212-.1272-.4402-.2098-.6571-.2477-.217-.0378-.41-.0358-.5789.0061-.169.0419-.3057.1199-.41.2338-.1043.114-.1564.2579-.1564.4319v1.0439c0 .1131.0125.2584.0375.4359.0251.1775.0678.3696.1283.5762s.1388.4202.2347.6407c.096.2205.2149.4303.3567.6294l-1.7585-.1444s-.0668.0018-.2003.0054c-.1335.0037-.2003.062-.2003.1751v1.2174z" fill="#003" stroke-width="1.31259"/><path d="m71.4276 84.2727v-1.2175c0-.1218-.0657-.2585-.1971-.4103-.1315-.1517-.1972-.2276-.1972-.2276l-1.746-1.8727c.1376-.0338.2545-.1025.3504-.206.096-.1036.1732-.2244.2316-.3626s.1001-.2827.1252-.4336c.025-.1509.0375-.2894.0375-.4155v-1.0439c0-.174-.0532-.3786-.1596-.6138s-.2441-.471-.413-.7074c-.169-.2365-.3609-.46-.5758-.6707-.2149-.2106-.4329-.3796-.654-.5069-.2211-.1272-.4401-.2098-.6571-.2477-.217-.0378-.4099-.0358-.5789.0061-.169.042-.3056.1199-.4099.2338-.1043.114-.1565.258-.1565.4319v1.0439c0 .1131.0126.2584.0376.4359s.0678.3696.1283.5762.1387.4202.2347.6407c.0959.2205.2148.4303.3567.6294l-1.7586-.1444s-.0667.0018-.2002.0054c-.1336.0037-.2003.062-.2003.1751v1.2174z" fill="#003" stroke-width="1.31259"/></g></g></svg>