<svg fill="none" height="150" viewBox="0 0 150 150" width="150" xmlns="http://www.w3.org/2000/svg" xmlns:xlink="http://www.w3.org/1999/xlink"><clipPath id="a"><path d="m1.21387 9.12598h148.562v163.056h-148.562z"/></clipPath><clipPath id="b"><path d="m37.1016 56.8076h78v31h-78z"/></clipPath><mask id="c" height="150" maskUnits="userSpaceOnUse" width="150" x="0" y="0"><path d="m0 0h150v150h-150z" fill="#d9d9d9"/></mask><g mask="url(#c)"><g clip-path="url(#a)"><path d="m75.359 9.12598 53.346 30.79952v61.5985l-53.346 30.8-53.3463-30.8v-61.5985z" fill="#f0f5f6"/></g><g clip-path="url(#b)"><g fill="#003"><path d="m80.062 67.5391c.5331.503.949 1.1159 1.2185 1.7956s.386 1.4098.3415 2.139v8.8231h-2.28v-8.1077c.1101-1.1006-.1886-2.2032-.84-3.1-.3351-.3176-.7306-.5656-1.1633-.7293-.4327-.1638-.894-.2402-1.3567-.2246-.7108-.0259-1.4155.1388-2.04.4769-.6939.3519-1.2756.8886-1.68 1.55-.4084.8566-.6136 1.7947-.6 2.7423v7.3924h-2.16v-13.3539l2.04.8346v.8346c.416-.7962 1.0935-1.4272 1.92-1.7884.8671-.3908 1.8078-.594 2.76-.5962 1.3977-.0404 2.7626.4257 3.84 1.3116z"/><path d="m97.3419 74.2156h-10.44c.0115.6049.1448 1.2015.3922 1.7544.2473.5529.6036 1.0509 1.0478 1.4648.4058.4064.8937.7227 1.4314.9282.5378.2055 1.1133.2955 1.6886.2641.8607-.0197 1.7122-.1808 2.52-.4769.6234-.3298 1.0958-.8846 1.32-1.55l1.92.9538c-.5711.9221-1.352 1.698-2.28 2.2654-1.0817.5236-2.2781.7696-3.48.7154-.9098.0508-1.8199-.0933-2.6688-.4224-.8488-.3292-1.6166-.8357-2.2512-1.4853-.6362-.7115-1.1231-1.542-1.4322-2.4428-.309-.9008-.4341-1.8539-.3678-2.8033-.094-1.8927.5025-3.7555 1.68-5.2462.6246-.6628 1.3908-1.1782 2.2422-1.5083s1.7664-.4666 2.6778-.3994c1.1401-.0539 2.2698.2371 3.24.8346.9529.5513 1.7082 1.3852 2.16 2.3847.489 1.0027.7356 2.105.72 3.2192.0198.5195-.0205 1.0396-.12 1.55zm-9-5.0077c-.78.8678-1.2814 1.9472-1.44 3.1h8.4c-.0236-1.1408-.4482-2.2375-1.2-3.1-.3656-.3516-.7978-.6276-1.2716-.8118-.4739-.1842-.9798-.273-1.4884-.2613-.5476-.0375-1.0971.0386-1.6135.2233-.5165.1847-.9886.4741-1.3865.8498z"/><path d="m112.222 68.1346c1.177 1.4907 1.774 3.3535 1.68 5.2462.116 1.8955-.483 3.766-1.68 5.2461-.635.6496-1.403 1.1561-2.252 1.4853-.848.3291-1.759.4732-2.668.4224-.913.076-1.83-.0564-2.683-.3871-.853-.3306-1.618-.8508-2.237-1.5206-.636-.7115-1.123-1.542-1.432-2.4428-.31-.9009-.435-1.8539-.368-2.8033-.108-1.9145.538-3.7956 1.8-5.2462.619-.6698 1.384-1.19 2.237-1.5206.853-.3307 1.77-.4631 2.683-.3871.909-.0508 1.82.0933 2.668.4224.849.3292 1.617.8357 2.252 1.4853zm-8.28 1.4308c-.869 1.0765-1.298 2.4389-1.2 3.8154-.123 1.3793.309 2.7507 1.2 3.8153.415.4747.933.8499 1.515 1.0977.582.2477 1.212.3616 1.845.3331.613.0191 1.223-.0997 1.784-.3474s1.059-.6181 1.456-1.0834c.891-1.0646 1.322-2.436 1.2-3.8153.097-1.3765-.331-2.7389-1.2-3.8154-.397-.4653-.895-.8357-1.456-1.0834s-1.171-.3665-1.784-.3474c-.633-.0285-1.263.0854-1.845.3331-.582.2478-1.1.623-1.515 1.0977z"/></g><path d="m39.3818 63.6034v19.0769l12.48 4.5308v-19.3154l13.56-5.0077-12.36-4.2923z" fill="#00e599"/><path d="m52.8223 68.6109v10.2539l12.6 4.5308v-19.4347z" fill="#00af92"/></g></g></svg>