<svg width="150" height="150" viewBox="0 0 150 150" fill="none" xmlns="http://www.w3.org/2000/svg">
<mask id="mask0_555_768" style="mask-type:alpha" maskUnits="userSpaceOnUse" x="0" y="0" width="150" height="150">
<rect width="150" height="150" fill="#D9D9D9"/>
</mask>
<g mask="url(#mask0_555_768)">
<path d="M100.743 3.5L123.487 16.6309V42.8928L100.743 56.0237L78 42.8928V16.6309L100.743 3.5Z" fill="#F0F5F6"/>
<path fill-rule="evenodd" clip-rule="evenodd" d="M87.7979 24.8687V39.5211L100.639 46.9377V31.526L87.7979 24.8687Z" fill="white" stroke="#000033" stroke-width="1.05012" stroke-linejoin="round"/>
<path fill-rule="evenodd" clip-rule="evenodd" d="M113.423 24.8687V39.5211L100.581 46.9377V31.526L113.423 24.8687Z" fill="white" stroke="#000033" stroke-width="1.05012" stroke-linejoin="round"/>
<path fill-rule="evenodd" clip-rule="evenodd" d="M113.422 24.8689L100.581 31.5263L87.7979 24.8689L100.639 17.9116L113.422 24.8689Z" fill="white" stroke="#000033" stroke-width="1.05012" stroke-linejoin="round"/>
<path fill-rule="evenodd" clip-rule="evenodd" d="M96.2012 22.4379L103.813 26.6808L104.791 26.1053L97.1905 21.9312L96.2012 22.4379Z" fill="#000033"/>
<path fill-rule="evenodd" clip-rule="evenodd" d="M98.4746 10.6704V19.722L103.89 22.6208V13.493L98.4746 10.6704Z" fill="#00E599" stroke="#000033" stroke-width="0.700077"/>
<path d="M48.926 3.18359L71.6695 16.3145V42.5763L48.926 55.7073L26.1826 42.5763V16.3145L48.926 3.18359Z" fill="#F0F5F6"/>
<path fill-rule="evenodd" clip-rule="evenodd" d="M35.9805 24.5522V39.2047L48.8219 46.6213V31.2096L35.9805 24.5522Z" fill="white" stroke="#000033" stroke-width="1.05012" stroke-linejoin="round"/>
<path fill-rule="evenodd" clip-rule="evenodd" d="M61.6055 24.5522V39.2047L48.7641 46.6213V31.2096L61.6055 24.5522Z" fill="white" stroke="#000033" stroke-width="1.05012" stroke-linejoin="round"/>
<path fill-rule="evenodd" clip-rule="evenodd" d="M61.6051 24.5525L48.7637 31.2099L35.9805 24.5525L48.8219 17.5952L61.6051 24.5525Z" fill="white" stroke="#000033" stroke-width="1.05012" stroke-linejoin="round"/>
<path fill-rule="evenodd" clip-rule="evenodd" d="M44.3838 22.1215L51.996 26.3644L52.9732 25.7889L45.3732 21.6147L44.3838 22.1215Z" fill="#000033"/>
<path fill-rule="evenodd" clip-rule="evenodd" d="M46.6572 10.354V19.4056L52.0723 22.3044V13.1766L46.6572 10.354Z" fill="#00E599" stroke="#000033" stroke-width="0.700077"/>
<path d="M126.82 46.7188L149.563 59.8497V86.1115L126.82 99.2424L104.076 86.1115V59.8497L126.82 46.7188Z" fill="#F0F5F6"/>
<path fill-rule="evenodd" clip-rule="evenodd" d="M113.874 68.0869V82.7393L126.715 90.1559V74.7443L113.874 68.0869Z" fill="white" stroke="#000033" stroke-width="1.05012" stroke-linejoin="round"/>
<path fill-rule="evenodd" clip-rule="evenodd" d="M139.499 68.0869V82.7393L126.658 90.1559V74.7443L139.499 68.0869Z" fill="white" stroke="#000033" stroke-width="1.05012" stroke-linejoin="round"/>
<path fill-rule="evenodd" clip-rule="evenodd" d="M139.499 68.0872L126.657 74.7445L113.874 68.0872L126.715 61.1299L139.499 68.0872Z" fill="white" stroke="#000033" stroke-width="1.05012" stroke-linejoin="round"/>
<path fill-rule="evenodd" clip-rule="evenodd" d="M122.277 65.6566L129.89 69.8996L130.867 69.324L123.267 65.1499L122.277 65.6566Z" fill="#000033"/>
<path fill-rule="evenodd" clip-rule="evenodd" d="M124.551 53.8887V62.9403L129.966 65.8391V56.7113L124.551 53.8887Z" fill="#00E599" stroke="#000033" stroke-width="0.700077"/>
<path d="M74.9612 46.5L97.7046 59.6309V85.8928L74.9612 99.0237L52.2178 85.8928V59.6309L74.9612 46.5Z" fill="#F0F5F6"/>
<path fill-rule="evenodd" clip-rule="evenodd" d="M62.0156 67.8687V82.5211L74.857 89.9377V74.526L62.0156 67.8687Z" fill="white" stroke="#000033" stroke-width="1.05012" stroke-linejoin="round"/>
<path fill-rule="evenodd" clip-rule="evenodd" d="M87.6406 67.8687V82.5211L74.7992 89.9377V74.526L87.6406 67.8687Z" fill="white" stroke="#000033" stroke-width="1.05012" stroke-linejoin="round"/>
<path fill-rule="evenodd" clip-rule="evenodd" d="M87.6403 67.8684L74.7989 74.5258L62.0156 67.8684L74.857 60.9111L87.6403 67.8684Z" fill="white" stroke="#000033" stroke-width="1.05012" stroke-linejoin="round"/>
<path fill-rule="evenodd" clip-rule="evenodd" d="M70.4189 65.4384L78.0311 69.6813L79.0083 69.1058L71.4083 64.9316L70.4189 65.4384Z" fill="#000033"/>
<path fill-rule="evenodd" clip-rule="evenodd" d="M72.6924 53.6709V62.7225L78.1074 65.6213V56.4935L72.6924 53.6709Z" fill="#00E599" stroke="#000033" stroke-width="0.700077"/>
<path d="M100.584 90.2529L123.167 103.384V129.646L100.584 142.777L78 129.646V103.384L100.584 90.2529Z" fill="#F0F5F6"/>
<path fill-rule="evenodd" clip-rule="evenodd" d="M87.7295 111.622V126.274L100.481 133.691V118.279L87.7295 111.622Z" fill="white" stroke="#000033" stroke-width="1.05012" stroke-linejoin="round"/>
<path fill-rule="evenodd" clip-rule="evenodd" d="M113.174 111.622V126.274L100.423 133.691V118.279L113.174 111.622Z" fill="white" stroke="#000033" stroke-width="1.05012" stroke-linejoin="round"/>
<path fill-rule="evenodd" clip-rule="evenodd" d="M113.174 111.622L100.423 118.28L87.7295 111.622L100.481 104.665L113.174 111.622Z" fill="white" stroke="#000033" stroke-width="1.05012" stroke-linejoin="round"/>
<path fill-rule="evenodd" clip-rule="evenodd" d="M96.0732 109.191L103.632 113.434L104.602 112.859L97.0557 108.685L96.0732 109.191Z" fill="#000033"/>
<path fill-rule="evenodd" clip-rule="evenodd" d="M98.3311 97.4238V106.475L103.708 109.374V100.246L98.3311 97.4238Z" fill="#00E599" stroke="#000033" stroke-width="0.700077"/>
<path d="M48.7434 90.2529L71.4868 103.384V129.646L48.7434 142.777L26 129.646V103.384L48.7434 90.2529Z" fill="#F0F5F6"/>
<path fill-rule="evenodd" clip-rule="evenodd" d="M35.7979 111.622V126.274L48.6393 133.691V118.279L35.7979 111.622Z" fill="white" stroke="#000033" stroke-width="1.05012" stroke-linejoin="round"/>
<path fill-rule="evenodd" clip-rule="evenodd" d="M61.4229 111.622V126.274L48.5814 133.691V118.279L61.4229 111.622Z" fill="white" stroke="#000033" stroke-width="1.05012" stroke-linejoin="round"/>
<path fill-rule="evenodd" clip-rule="evenodd" d="M61.4225 111.622L48.5811 118.279L35.7979 111.622L48.6393 104.665L61.4225 111.622Z" fill="white" stroke="#000033" stroke-width="1.05012" stroke-linejoin="round"/>
<path fill-rule="evenodd" clip-rule="evenodd" d="M44.2012 109.191L51.8134 113.434L52.7905 112.859L45.1905 108.685L44.2012 109.191Z" fill="#000033"/>
<path fill-rule="evenodd" clip-rule="evenodd" d="M46.4746 97.4238V106.475L51.8896 109.374V100.246L46.4746 97.4238Z" fill="#00E599" stroke="#000033" stroke-width="0.700077"/>
<path d="M23.7434 46.5L46.4868 59.6309V85.8928L23.7434 99.0237L1 85.8928V59.6309L23.7434 46.5Z" fill="#F0F5F6"/>
<path fill-rule="evenodd" clip-rule="evenodd" d="M10.7979 67.8687V82.5211L23.6393 89.9377V74.526L10.7979 67.8687Z" fill="white" stroke="#000033" stroke-width="1.05012" stroke-linejoin="round"/>
<path fill-rule="evenodd" clip-rule="evenodd" d="M36.4229 67.8687V82.5211L23.5814 89.9377V74.526L36.4229 67.8687Z" fill="white" stroke="#000033" stroke-width="1.05012" stroke-linejoin="round"/>
<path fill-rule="evenodd" clip-rule="evenodd" d="M36.4225 67.8689L23.5811 74.5263L10.7979 67.8689L23.6393 60.9116L36.4225 67.8689Z" fill="white" stroke="#000033" stroke-width="1.05012" stroke-linejoin="round"/>
<path fill-rule="evenodd" clip-rule="evenodd" d="M19.2012 65.4384L26.8134 69.6813L27.7905 69.1058L20.1905 64.9316L19.2012 65.4384Z" fill="#000033"/>
<path fill-rule="evenodd" clip-rule="evenodd" d="M21.4746 53.6704V62.722L26.8896 65.6208V56.493L21.4746 53.6704Z" fill="#00E599" stroke="#000033" stroke-width="0.700077"/>
<path d="M20.2098 84.2731V83.0557C20.2098 82.9339 20.1441 82.7972 20.0127 82.6454C19.8813 82.4936 19.8156 82.4178 19.8156 82.4178L18.0695 80.5451C18.2072 80.5113 18.324 80.4426 18.42 80.3391C18.5159 80.2355 18.5931 80.1147 18.6515 79.9765C18.7099 79.8383 18.7516 79.6938 18.7767 79.5429C18.8017 79.392 18.8142 79.2535 18.8142 79.1274V78.0835C18.8142 77.9095 18.761 77.7049 18.6546 77.4697C18.5483 77.2345 18.4106 76.9987 18.2416 76.7622C18.0726 76.5258 17.8807 76.3023 17.6658 76.0916C17.451 75.881 17.233 75.712 17.0118 75.5847C16.7907 75.4575 16.5717 75.3749 16.3547 75.337C16.1378 75.2991 15.9448 75.3012 15.7758 75.3431C15.6069 75.385 15.4702 75.463 15.3659 75.5769C15.2616 75.6909 15.2095 75.8348 15.2095 76.0088V77.0527C15.2095 77.1658 15.222 77.3111 15.247 77.4886C15.2721 77.6661 15.3148 77.8582 15.3753 78.0648C15.4358 78.2714 15.514 78.485 15.61 78.7055C15.706 78.926 15.8249 79.1358 15.9667 79.3349L14.2081 79.1905C14.2081 79.1905 14.1414 79.1923 14.0079 79.1959C13.8744 79.1996 13.8076 79.2579 13.8076 79.371V80.5884L20.2098 84.2731Z" fill="#000033" stroke="#000033" stroke-width="1.31259"/>
<path d="M123.285 84.4914V83.274C123.285 83.1522 123.219 83.0154 123.088 82.8637C122.956 82.7119 122.891 82.636 122.891 82.636L121.145 80.7634C121.282 80.7295 121.399 80.6608 121.495 80.5573C121.591 80.4538 121.668 80.3329 121.727 80.1947C121.785 80.0566 121.827 79.912 121.852 79.7612C121.877 79.6103 121.889 79.4718 121.889 79.3456V78.3018C121.889 78.1278 121.836 77.9232 121.73 77.688C121.623 77.4528 121.486 77.2169 121.317 76.9805C121.148 76.7441 120.956 76.5205 120.741 76.3099C120.526 76.0992 120.308 75.9303 120.087 75.803C119.866 75.6757 119.647 75.5932 119.43 75.5553C119.213 75.5174 119.02 75.5194 118.851 75.5614C118.682 75.6033 118.545 75.6812 118.441 75.7952C118.337 75.9091 118.285 76.0531 118.285 76.2271V77.271C118.285 77.3841 118.297 77.5294 118.322 77.7069C118.347 77.8844 118.39 78.0764 118.451 78.2831C118.511 78.4897 118.589 78.7033 118.685 78.9238C118.781 79.1443 118.9 79.3541 119.042 79.5532L117.283 79.4088C117.283 79.4088 117.217 79.4106 117.083 79.4142C116.95 79.4178 116.883 79.4762 116.883 79.5893V80.8067L123.285 84.4914Z" fill="#000033" stroke="#000033" stroke-width="1.31259"/>
<path d="M96.8905 127.386V126.169C96.8905 126.047 96.8248 125.91 96.6933 125.758C96.5619 125.606 96.4962 125.531 96.4962 125.531L94.7502 123.658C94.8878 123.624 95.0047 123.555 95.1006 123.452C95.1966 123.348 95.2738 123.227 95.3322 123.089C95.3906 122.951 95.4323 122.807 95.4573 122.656C95.4824 122.505 95.4949 122.366 95.4949 122.24V121.196C95.4949 121.022 95.4417 120.818 95.3353 120.583C95.2289 120.347 95.0912 120.111 94.9223 119.875C94.7533 119.639 94.5614 119.415 94.3465 119.204C94.1316 118.994 93.9136 118.825 93.6925 118.698C93.4714 118.57 93.2524 118.488 93.0354 118.45C92.8184 118.412 92.6255 118.414 92.4565 118.456C92.2875 118.498 92.1509 118.576 92.0466 118.69C91.9423 118.804 91.8901 118.948 91.8901 119.122V120.165C91.8901 120.279 91.9026 120.424 91.9277 120.601C91.9527 120.779 91.9955 120.971 92.056 121.178C92.1165 121.384 92.1947 121.598 92.2907 121.818C92.3866 122.039 92.5055 122.249 92.6474 122.448L90.8888 122.303C90.8888 122.303 90.8221 122.305 90.6885 122.309C90.555 122.312 90.4883 122.371 90.4883 122.484V123.701L96.8905 127.386Z" fill="#000033" stroke="#000033" stroke-width="1.31259"/>
<path d="M45.2088 127.386V126.169C45.2088 126.047 45.1431 125.91 45.0117 125.758C44.8803 125.606 44.8146 125.531 44.8146 125.531L43.0685 123.658C43.2062 123.624 43.323 123.555 43.419 123.452C43.5149 123.348 43.5921 123.227 43.6505 123.089C43.7089 122.951 43.7507 122.807 43.7757 122.656C43.8007 122.505 43.8133 122.366 43.8133 122.24V121.196C43.8133 121.022 43.7601 120.818 43.6537 120.583C43.5473 120.347 43.4096 120.111 43.2406 119.875C43.0716 119.639 42.8797 119.415 42.6649 119.204C42.45 118.994 42.232 118.825 42.0109 118.698C41.7897 118.57 41.5707 118.488 41.3538 118.45C41.1368 118.412 40.9438 118.414 40.7749 118.456C40.6059 118.498 40.4693 118.576 40.3649 118.69C40.2606 118.804 40.2085 118.948 40.2085 119.122V120.165C40.2085 120.279 40.221 120.424 40.246 120.601C40.2711 120.779 40.3138 120.971 40.3743 121.178C40.4348 121.384 40.5131 121.598 40.609 121.818C40.705 122.039 40.8239 122.249 40.9657 122.448L39.2072 122.303C39.2072 122.303 39.1404 122.305 39.0069 122.309C38.8734 122.312 38.8066 122.371 38.8066 122.484V123.701L45.2088 127.386Z" fill="#000033" stroke="#000033" stroke-width="1.31259"/>
<path d="M97.2088 41.2727V40.0552C97.2088 39.9334 97.1431 39.7967 97.0117 39.6449C96.8803 39.4932 96.8146 39.4173 96.8146 39.4173L95.0685 37.5446C95.2062 37.5108 95.323 37.4421 95.419 37.3386C95.5149 37.235 95.5921 37.1142 95.6505 36.976C95.7089 36.8378 95.7507 36.6933 95.7757 36.5424C95.8007 36.3915 95.8133 36.253 95.8133 36.1269V35.083C95.8133 34.909 95.7601 34.7044 95.6537 34.4692C95.5473 34.234 95.4096 33.9982 95.2406 33.7618C95.0716 33.5253 94.8797 33.3018 94.6649 33.0911C94.45 32.8805 94.232 32.7115 94.0109 32.5842C93.7898 32.457 93.5707 32.3744 93.3538 32.3365C93.1368 32.2987 92.9438 32.3007 92.7749 32.3426C92.6059 32.3846 92.4693 32.4625 92.365 32.5764C92.2606 32.6904 92.2085 32.8344 92.2085 33.0083V34.0522C92.2085 34.1653 92.221 34.3106 92.246 34.4881C92.2711 34.6656 92.3138 34.8577 92.3743 35.0643C92.4348 35.2709 92.5131 35.4845 92.609 35.705C92.705 35.9255 92.8239 36.1353 92.9657 36.3344L91.2072 36.19C91.2072 36.19 91.1404 36.1918 91.0069 36.1954C90.8734 36.1991 90.8066 36.2574 90.8066 36.3705V37.5879L97.2088 41.2727Z" fill="#000033" stroke="#000033" stroke-width="1.31259"/>
<path d="M45.3924 40.9563V39.7388C45.3924 39.617 45.3267 39.4803 45.1953 39.3285C45.0639 39.1768 44.9982 39.1009 44.9982 39.1009L43.2521 37.2282C43.3898 37.1944 43.5066 37.1257 43.6026 37.0222C43.6985 36.9186 43.7757 36.7978 43.8341 36.6596C43.8925 36.5214 43.9343 36.3769 43.9593 36.226C43.9843 36.0751 43.9968 35.9366 43.9968 35.8105V34.7666C43.9968 34.5926 43.9436 34.388 43.8373 34.1528C43.7309 33.9176 43.5932 33.6818 43.4242 33.4454C43.2552 33.2089 43.0633 32.9854 42.8485 32.7747C42.6336 32.5641 42.4156 32.3951 42.1945 32.2678C41.9733 32.1406 41.7543 32.058 41.5374 32.0201C41.3204 31.9823 41.1274 31.9843 40.9585 32.0262C40.7895 32.0681 40.6528 32.1461 40.5485 32.26C40.4442 32.374 40.3921 32.5179 40.3921 32.6919V33.7358C40.3921 33.8489 40.4046 33.9942 40.4296 34.1717C40.4547 34.3492 40.4974 34.5413 40.5579 34.7479C40.6184 34.9545 40.6967 35.1681 40.7926 35.3886C40.8886 35.6091 41.0075 35.8189 41.1493 36.018L39.3908 35.8736C39.3908 35.8736 39.324 35.8754 39.1905 35.879C39.057 35.8827 38.9902 35.941 38.9902 36.0541V37.2715L45.3924 40.9563Z" fill="#000033" stroke="#000033" stroke-width="1.31259"/>
<path d="M71.4276 84.2727V83.0552C71.4276 82.9334 71.3619 82.7967 71.2305 82.6449C71.099 82.4932 71.0333 82.4173 71.0333 82.4173L69.2873 80.5446C69.4249 80.5108 69.5418 80.4421 69.6377 80.3386C69.7337 80.235 69.8109 80.1142 69.8693 79.976C69.9277 79.8378 69.9694 79.6933 69.9945 79.5424C70.0195 79.3915 70.032 79.253 70.032 79.1269V78.083C70.032 77.909 69.9788 77.7044 69.8724 77.4692C69.766 77.234 69.6283 76.9982 69.4594 76.7618C69.2904 76.5253 69.0985 76.3018 68.8836 76.0911C68.6687 75.8805 68.4507 75.7115 68.2296 75.5842C68.0085 75.457 67.7895 75.3744 67.5725 75.3365C67.3555 75.2987 67.1626 75.3007 66.9936 75.3426C66.8246 75.3846 66.688 75.4625 66.5837 75.5764C66.4794 75.6904 66.4272 75.8344 66.4272 76.0083V77.0522C66.4272 77.1653 66.4398 77.3106 66.4648 77.4881C66.4898 77.6656 66.5326 77.8577 66.5931 78.0643C66.6536 78.2709 66.7318 78.4845 66.8278 78.705C66.9237 78.9255 67.0426 79.1353 67.1845 79.3344L65.4259 79.19C65.4259 79.19 65.3592 79.1918 65.2257 79.1954C65.0921 79.1991 65.0254 79.2574 65.0254 79.3705V80.5879L71.4276 84.2727Z" fill="#000033" stroke="#000033" stroke-width="1.31259"/>
</g>
</svg>
