<svg width="192" height="50" viewBox="0 0 192 50" fill="none" xmlns="http://www.w3.org/2000/svg">
<g clip-path="url(#clip0_553_3962)">
<path d="M29.8385 9.69763L24.9545 31.0078L18.4955 9.69763H7.67568L0 42.0045H9.42119L13.7878 21.5565L20.4173 42.0045H31.0609L38.7423 9.69763H29.8385Z" fill="#000033"/>
<path d="M49.4707 0L37.5479 50H43.5065L55.9638 0H49.4707Z" fill="#000033"/>
<path d="M89.0603 26.5901C91.1982 17.9955 84.5914 9.70325 75.608 9.70325H61.8884L54.1445 42.0101H72.3387C79.9007 42.0101 86.4847 36.9261 88.2871 29.692L89.0603 26.5901ZM78.3485 24.5185L77.291 28.757C76.404 32.318 73.1632 34.8152 69.4447 34.8152H66.2209L70.4056 17.3572H72.6458C76.4552 17.3572 79.2525 20.8735 78.3485 24.5129V24.5185Z" fill="#000033"/>
<path d="M105.089 9.69763L86.417 42.0045H97.0094L100.466 35.3303H110.547L110.877 42.0045H120.594L117.319 9.69763H105.089ZM103.991 28.5386L109.785 17.3572L110.223 28.561L103.991 28.5386Z" fill="#000033"/>
<path d="M147.834 9.69763H130.896L123.459 42.0045H133.534L135.837 32.43H144.775C150.921 32.43 156.203 28.1355 157.363 22.1892L157.539 21.2822C158.71 15.2743 154.037 9.70323 147.822 9.70323L147.834 9.69763ZM147.612 21.6237L147.595 21.6965C147.163 23.589 145.457 24.9328 143.49 24.9328H137.65L139.544 17.0717H143.922C146.35 17.0717 148.152 19.2889 147.617 21.6237H147.612Z" fill="#000033"/>
<path d="M182.101 9.69763H165.163L157.727 42.0045H167.802L170.104 32.43H179.042C185.188 32.43 190.47 28.1355 191.63 22.1892L191.807 21.2822C192.978 15.2743 188.304 9.70323 182.09 9.70323L182.101 9.69763ZM181.879 21.6237L181.862 21.6965C181.43 23.589 179.724 24.9328 177.757 24.9328H171.918L173.811 17.0717H178.189C180.617 17.0717 182.419 19.2889 181.885 21.6237H181.879Z" fill="#000033"/>
</g>
<defs>
<clipPath id="clip0_553_3962">
<rect width="192" height="50" fill="white"/>
</clipPath>
</defs>
</svg>
