<svg fill="none" height="50" viewBox="0 0 192 50" width="192" xmlns="http://www.w3.org/2000/svg" xmlns:xlink="http://www.w3.org/1999/xlink"><clipPath id="a"><path d="m0 0h192v50h-192z"/></clipPath><g clip-path="url(#a)" fill="#003"><path d="m29.8385 9.69763-4.884 21.31017-6.459-21.31017h-10.81982l-7.67568 32.30687h9.42119l4.36661-20.448 6.6295 20.448h10.6436l7.6814-32.30687z"/><path d="m49.4707 0-11.9228 50h5.9586l12.4573-50z"/><path d="m89.0603 26.5901c2.1379-8.5946-4.4689-16.88685-13.4523-16.88685h-13.7196l-7.7439 32.30685h18.1942c7.562 0 14.146-5.084 15.9484-12.3181zm-10.7118-2.0716-1.0575 4.2385c-.887 3.561-4.1278 6.0582-7.8463 6.0582h-3.2238l4.1847-17.458h2.2402c3.8094 0 6.6067 3.5163 5.7027 7.1557z"/><path d="m105.089 9.69763-18.672 32.30687h10.5924l3.4566-6.6742h10.081l.33 6.6742h9.717l-3.275-32.30687zm-1.098 18.84097 5.794-11.1814.438 11.2038z"/><path d="m147.834 9.69763h-16.938l-7.437 32.30687h10.075l2.303-9.5745h8.938c6.146 0 11.428-4.2945 12.588-10.2408l.176-.907c1.171-6.0079-3.502-11.57897-9.717-11.57897zm-.222 11.92607-.017.0728c-.432 1.8925-2.138 3.2363-4.105 3.2363h-5.84l1.894-7.8611h4.378c2.428 0 4.23 2.2172 3.695 4.552z"/><path d="m182.101 9.69763h-16.938l-7.436 32.30687h10.075l2.302-9.5745h8.938c6.146 0 11.428-4.2945 12.588-10.2408l.177-.907c1.171-6.0079-3.503-11.57897-9.717-11.57897zm-.222 11.92607-.017.0728c-.432 1.8925-2.138 3.2363-4.105 3.2363h-5.839l1.893-7.8611h4.378c2.428 0 4.23 2.2172 3.696 4.552z"/></g></svg>