<svg fill="none" height="100" viewBox="0 0 100 100" width="100" xmlns="http://www.w3.org/2000/svg"><circle cx="50" cy="50" fill="#fff" r="50"/><path d="m18.5081 63.72v5.28h-1.528l-1.64-2.856-.4-.784h-.008l.032.976v2.664h-1.216v-5.28h1.528l1.64 2.856.4.784h.008l-.032-.976v-2.664zm2.9937 5.36c-.5654 0-1.0374-.1093-1.416-.328-.3734-.224-.632-.5493-.776-.976l1.264-.544c.0266.192.0746.3467.144.464.0746.112.1733.1947.296.248.1226.048.2666.072.4319.072.1494 0 .2747-.024.3761-.072.1066-.0533.1893-.128.248-.224.0586-.096.088-.2107.088-.344 0-.1387-.0294-.2507-.088-.336-.0534-.0853-.1334-.1467-.24-.184-.1014-.0373-.2267-.056-.376-.056-.0694 0-.1334.0027-.192.008-.0587 0-.1254.0053-.2.016v-.896c.0426.0053.0853.0107.128.016h.152c.2506 0 .4293-.0507.536-.152.112-.1067.168-.272.168-.496 0-.192-.056-.3387-.168-.44-.1067-.1013-.2587-.152-.456-.152-.208 0-.3787.056-.512.168-.1334.1067-.2187.2907-.256.552l-1.208-.416c.0586-.2933.184-.5413.376-.744s.432-.3573.72-.464c.2933-.1067.616-.16.968-.16.4053 0 .7466.0587 1.024.176.2773.1173.488.2853.632.504s.216.4747.216.768c0 .2293-.0374.4213-.112.576-.0694.1547-.16.28-.272.376-.1067.096-.216.168-.328.216-.112.0427-.2054.0693-.28.08v.024c.096 0 .2053.0187.328.056.1226.0373.2426.0987.36.184.1173.08.2133.192.288.336.08.144.12.3227.12.536 0 .3307-.088.616-.264.856-.1707.24-.4054.4267-.704.56-.2987.128-.6374.192-1.016.192zm6.9501-6.616c-.024.192-.048.488-.048.736v.416h.96c.248 0 .472-.024.664-.08l.664.648c-.208.2-.448.472-.624.664-.408.464-1.016 1.064-1.68 1.568 0 .64-.008 1.512-.008 2.016 0 .32.032.776.056 1.024h-1.152c.032-.224.064-.704.064-1.024v-1.368c-.736.392-1.592.72-2.456.984l-.616-.944c1.544-.344 2.568-.896 3.264-1.336.616-.4 1.112-.864 1.344-1.192h-2.896c-.288 0-.792.008-1.04.032v-1.048c.304.048.744.056 1.024.056h1.384v-.416c0-.248-.016-.536-.048-.736zm2.352 5.664c-.696-.552-1.216-.888-1.912-1.272l.664-.768c.736.4 1.152.632 1.92 1.16zm5.072-3.88c.152.344.544 1.384.656 1.752l-.96.336c-.096-.392-.448-1.36-.648-1.776zm2.952.584c-.096.256-.144.424-.192.584-.208.808-.544 1.64-1.088 2.344-.744.96-1.744 1.632-2.68 1.984l-.84-.856c.88-.232 1.992-.84 2.656-1.672.544-.68.928-1.744 1.024-2.744zm-4.808-.16c.2.408.584 1.376.744 1.824l-.976.368c-.136-.432-.536-1.496-.728-1.848zm8.328 3.56v-4.6c0-.28-.024-.68-.08-.96h1.248c-.032.28-.072.632-.072.96v1.184c1.072.312 2.608.88 3.344 1.24l-.456 1.104c-.824-.432-2.024-.896-2.888-1.192v2.264c0 .232.04.792.072 1.12h-1.248c.048-.32.08-.8.08-1.12zm12.704-4.592c-.048.12-.12.424-.144.536-.144.84-.328 2-.952 2.968-.664 1.048-1.752 1.848-3.032 2.296l-.896-.912c1.08-.264 2.312-.928 2.944-1.928.4-.648.648-1.536.728-2.4h-3.84v1.336c0 .12.008.408.032.656h-1.176c.024-.248.04-.44.04-.656v-1.688c0-.216-.016-.464-.04-.672.256.016.608.032.984.032h3.824c.272 0 .544-.016.76-.056zm1.52 1.656c.288.024.872.048 1.288.048h4.296c.376 0 .728-.032.936-.048v1.256c-.192-.008-.6-.04-.936-.04h-4.296c-.456 0-.992.016-1.288.04zm11.848-2.536c-.184.28-.392.64-.488.816-.008.016-.016.024-.024.04h1.608c.248 0 .512-.04.696-.096l.816.504c-.088.152-.2.376-.264.576-.216.712-.672 1.776-1.392 2.672-.76.928-1.728 1.664-3.232 2.256l-.944-.848c1.64-.488 2.528-1.184 3.224-1.976.544-.624 1.008-1.584 1.136-2.184h-2.248c-.536.696-1.232 1.4-2.016 1.936l-.896-.664c1.4-.856 2.096-1.888 2.496-2.576.12-.2.288-.568.36-.84zm3.712 3.856c.24-.184.44-.368.68-.624.368-.384.984-1.208 1.48-1.784.56-.632 1.08-.688 1.664-.12.544.528 1.184 1.352 1.656 1.864.512.56 1.192 1.28 1.952 1.96l-.824.96c-.576-.544-1.256-1.32-1.76-1.912-.496-.592-1.096-1.352-1.472-1.776-.28-.312-.432-.272-.664.024-.32.4-.888 1.192-1.232 1.648-.184.264-.368.552-.504.76zm15.12-.432c0 1.688-1.032 2.88-3.048 3.192l-.6-.952c.304-.032.528-.08.744-.128 1.024-.24 1.824-.976 1.824-2.144 0-1.104-.6-1.928-1.68-2.112-.112.68-.248 1.416-.48 2.168-.48 1.616-1.168 2.608-2.04 2.608-.888 0-1.624-.976-1.624-2.328 0-1.848 1.6-3.424 3.672-3.424 1.984 0 3.232 1.376 3.232 3.12zm-5.88.2c0 .808.32 1.2.632 1.2.336 0 .648-.504.976-1.584.184-.592.336-1.272.424-1.936-1.32.272-2.032 1.44-2.032 2.32zm-51.4319 9.248-.544.744c-.096-.208-.288-.52-.48-.808v3.12h-.92v-2.872c-.256.616-.56 1.184-.872 1.584-.088-.272-.288-.664-.44-.904.448-.52.888-1.368 1.184-2.144h-1.016v-.888h1.144v-.928c-.336.064-.664.12-.976.16-.048-.216-.16-.536-.264-.728.88-.152 1.864-.384 2.48-.664l.632.728c-.288.112-.608.216-.952.304v1.128h.856v.888h-.856v.232c.216.176.872.872 1.024 1.048zm3.064.168h-1.2c-.08.08-.168.16-.256.24.28.168.592.384.824.584.248-.24.464-.512.632-.824zm-.384-3.112h-1.24c-.048.048-.104.096-.16.144.264.16.552.368.768.568.248-.216.464-.448.632-.712zm1.008 2.304.608.24c-.64 2.072-2.2 3.032-4.224 3.488-.096-.24-.304-.616-.472-.808.8-.144 1.528-.384 2.128-.752-.224-.208-.512-.432-.784-.608-.184.12-.376.232-.576.344-.12-.208-.384-.52-.576-.664.904-.424 1.536-.992 1.92-1.568-.456.248-.952.44-1.472.592-.096-.216-.32-.568-.488-.752.592-.136 1.152-.352 1.64-.64-.2-.192-.472-.408-.712-.568-.176.112-.36.232-.56.336-.128-.2-.408-.52-.592-.656 1.008-.464 1.656-1.128 2-1.744l.928.168c-.104.184-.216.36-.344.528h1.072l.152-.04.608.272c-.352.968-.976 1.688-1.752 2.216l.648.112c-.096.184-.208.36-.328.536h1.008zm8.336-3.312v.904h-3.888v-.904zm-5.424-.456.92.376c-.576.752-1.44 1.576-2.2 2.104-.12-.208-.36-.592-.528-.776.664-.424 1.424-1.144 1.808-1.704zm.304 1.728.912.352c-.24.408-.536.824-.856 1.224v4.176h-.952v-3.128c-.224.216-.44.416-.656.592-.136-.192-.456-.624-.648-.824.816-.56 1.688-1.488 2.2-2.392zm5.32.928v.904h-1.096v2.808c0 .512-.096.776-.448.92-.336.144-.848.16-1.56.16-.04-.28-.16-.688-.288-.968.456.024.984.024 1.128.016.144 0 .2-.032.2-.152v-2.784h-2.36v-.904zm4.128 3.08c0 .328.32.464.744.464.488 0 .656-.256.656-.728 0-.04 0-.088 0-.144-.208-.056-.424-.088-.64-.088-.456 0-.76.192-.76.496zm2.376-5.224c-.024.152-.04.344-.048.52s-.016.472-.024.824c.44-.04.856-.104 1.24-.184v1c-.384.056-.8.104-1.24.136.016.776.056 1.416.088 1.96.664.272 1.168.68 1.552 1.032l-.552.84c-.336-.312-.656-.592-.976-.808-.048.768-.48 1.312-1.56 1.312-1.104 0-1.792-.464-1.792-1.304 0-.808.688-1.368 1.776-1.368.184 0 .36.008.52.032-.016-.496-.048-1.08-.056-1.648-.192.008-.384.008-.568.008-.472 0-.928-.016-1.4-.048v-.952c.456.048.92.072 1.4.072.184 0 .376 0 .56-.008 0-.392-.008-.72-.008-.888 0-.12-.024-.368-.056-.528zm-3.904.088c-.064.16-.16.568-.184.712-.12.536-.384 2.296-.384 3.096 0 .16.008.36.032.52.104-.28.24-.552.36-.824l.488.4c-.224.656-.48 1.472-.576 1.904-.024.112-.04.288-.04.376 0 .08.008.216.016.328l-.904.072c-.168-.56-.32-1.472-.32-2.56 0-1.208.24-2.72.328-3.336.032-.224.072-.528.08-.784zm7.48.36c.592.064 1.336.096 2.176.096.792 0 1.704-.048 2.32-.112v1.064c-.56.048-1.552.096-2.312.096-.84 0-1.536-.032-2.184-.088zm.672 3.392c-.08.288-.136.536-.136.808 0 .512.488.88 1.64.88 1.08 0 2.104-.12 2.808-.32l.008 1.128c-.696.168-1.656.272-2.776.272-1.832 0-2.752-.616-2.752-1.712 0-.464.096-.856.16-1.152zm9.208-3.952c-.088.28-.136.552-.192.816-.016.072-.032.16-.048.248.912-.048 1.992-.168 2.96-.376l.016.952c-.832.136-2.104.288-3.176.344-.112.488-.24 1-.36 1.392.648-.36 1.272-.504 1.984-.504 1.296 0 2.152.688 2.152 1.712 0 1.8-1.736 2.448-4.32 2.168l-.28-1.032c1.752.288 3.52.072 3.52-1.104 0-.48-.408-.88-1.192-.88-.92 0-1.736.328-2.216.936-.088.112-.144.216-.224.352l-.944-.336c.384-.744.704-1.808.912-2.688-.504-.008-.976-.032-1.384-.072v-.992c.48.08 1.08.144 1.568.152.016-.12.032-.232.048-.328.048-.344.056-.544.04-.808zm7.048-.064c.76.24 2.504.544 3.2.624l-.24.976c-.808-.104-2.592-.48-3.216-.64zm.048 1.608c-.104.44-.248 1.416-.304 1.872.728-.528 1.52-.76 2.36-.76 1.4 0 2.216.864 2.216 1.832 0 1.456-1.152 2.576-4.48 2.296l-.304-1.048c2.4.328 3.672-.256 3.672-1.272 0-.52-.496-.904-1.192-.904-.904 0-1.72.336-2.224.944-.144.176-.224.304-.296.464l-.92-.232c.16-.784.344-2.352.4-3.344z" fill="#003" opacity=".7"/><path d="m35 27.95v22.6667l14.7333 5.3833v-22.95l16.0084-5.95-14.5917-5.1z" fill="#00e599"/><path d="m50.8672 33.9v12.1833l14.875 5.3834v-23.0917z" fill="#00b291"/></svg>