<svg fill="none" height="133" viewBox="0 0 120 133" width="120" xmlns="http://www.w3.org/2000/svg" xmlns:xlink="http://www.w3.org/1999/xlink"><filter id="a" color-interpolation-filters="sRGB" filterUnits="userSpaceOnUse" height="128.477" width="113.237" x=".77101" y="3.69813"><feFlood flood-opacity="0" result="BackgroundImageFix"/><feColorMatrix in="SourceAlpha" result="hardAlpha" type="matrix" values="0 0 0 0 0 0 0 0 0 0 0 0 0 0 0 0 0 0 127 0"/><feOffset dx="-4.81071" dy="5.6125"/><feGaussianBlur stdDeviation="4.40982"/><feColorMatrix type="matrix" values="0 0 0 0 0.316369 0 0 0 0 0.366988 0 0 0 0 0.353496 0 0 0 0.25741 0"/><feBlend in2="BackgroundImageFix" mode="normal" result="effect1_dropShadow_555_1055"/><feColorMatrix in="SourceAlpha" result="hardAlpha" type="matrix" values="0 0 0 0 0 0 0 0 0 0 0 0 0 0 0 0 0 0 127 0"/><feOffset dx="-2.40536" dy="2.40536"/><feGaussianBlur stdDeviation="2.00446"/><feColorMatrix type="matrix" values="0 0 0 0 0 0 0 0 0 0 0 0 0 0 0 0 0 0 0.144615 0"/><feBlend in2="effect1_dropShadow_555_1055" mode="normal" result="effect2_dropShadow_555_1055"/><feBlend in="SourceGraphic" in2="effect2_dropShadow_555_1055" mode="normal" result="shape"/></filter><path clip-rule="evenodd" d="m57.7991 12.2568 47.7989 27.7095v55.4188l-47.7989 27.7099-47.7991-27.7099v-55.4188z" fill-rule="evenodd" stroke="#00e599"/><g filter="url(#a)"><path d="m62.2004 6.90527 47.7986 27.70943v55.4189l-47.7986 27.7094-47.799-27.7094v-55.4189z" fill="#000"/></g><path d="m62.2004 6.90527 47.7986 27.70943v55.4189l-47.7986 27.7094-47.799-27.7094v-55.4189z" fill="#f0f5f6"/><g stroke="#003" stroke-width=".52533"><path clip-rule="evenodd" d="m63.7868 57.8065 4.7471 2.6957c.128.0728.2072.2091.2072.3568v5.3769c0 .1477-.0792.284-.2072.3568l-4.7471 2.6957c-.1247.0708-.2772.0708-.4019 0l-4.747-2.6957c-.1281-.0728-.2072-.2091-.2072-.3568v-5.3769c0-.1477.0791-.284.2072-.3568l4.747-2.6957c.1247-.0708.2772-.0708.4019 0z" fill="#00e599" fill-rule="evenodd"/><path d="m63.5859 69.1585v-5.6111" stroke-linecap="round"/><path d="m58.3623 60.8638 5.1023 2.6835" stroke-linecap="round"/><path d="m68.5672 60.8638-5.1024 2.6835" stroke-linecap="round"/><path clip-rule="evenodd" d="m45.8669 57.8065 4.747 2.6957c.1281.0728.2073.2091.2073.3568v5.3769c0 .1477-.0792.284-.2073.3568l-4.747 2.6957c-.1247.0708-.2772.0708-.4019 0l-4.747-2.6957c-.1281-.0728-.2073-.2091-.2073-.3568v-5.3769c0-.1477.0792-.284.2073-.3568l4.747-2.6957c.1247-.0708.2772-.0708.4019 0z" fill="#fff" fill-rule="evenodd"/><path d="m45.666 69.1585v-5.6111" stroke-linecap="round"/><path d="m40.4424 60.8638 5.1023 2.6835" stroke-linecap="round"/><path d="m50.6473 60.8638-5.1024 2.6835" stroke-linecap="round"/><path clip-rule="evenodd" d="m82.3132 57.8065 4.747 2.6957c.1281.0728.2073.2091.2073.3568v5.3769c0 .1477-.0792.284-.2073.3568l-4.747 2.6957c-.1247.0708-.2772.0708-.4019 0l-4.747-2.6957c-.1281-.0728-.2073-.2091-.2073-.3568v-5.3769c0-.1477.0792-.284.2073-.3568l4.747-2.6957c.1247-.0708.2772-.0708.4019 0z" fill="#fff" fill-rule="evenodd"/><path d="m82.1123 69.1589v-5.611" stroke-linecap="round"/><path d="m76.8887 60.8643 5.1023 2.6835" stroke-linecap="round"/><path d="m87.0936 60.8643-5.1024 2.6835" stroke-linecap="round"/><path clip-rule="evenodd" d="m63.7868 41.0321 4.7471 2.6957c.128.0728.2072.2091.2072.3568v5.3769c0 .1477-.0792.284-.2072.3568l-4.7471 2.6957c-.1247.0708-.2772.0708-.4019 0l-4.747-2.6957c-.1281-.0728-.2072-.2091-.2072-.3568v-5.3769c0-.1477.0791-.284.2072-.3568l4.747-2.6957c.1247-.0708.2772-.0708.4019 0z" fill="#fff" fill-rule="evenodd"/><path d="m63.5859 52.384v-5.6111" stroke-linecap="round"/><path d="m58.3623 44.0894 5.1023 2.6835" stroke-linecap="round"/><path d="m68.5672 44.0894-5.1024 2.6835" stroke-linecap="round"/><path clip-rule="evenodd" d="m63.7868 75.1884 4.7471 2.6957c.128.0727.2072.209.2072.3567v5.377c0 .1477-.0792.284-.2072.3567l-4.7471 2.6957c-.1247.0708-.2772.0708-.4019 0l-4.747-2.6957c-.1281-.0727-.2072-.209-.2072-.3567v-5.377c0-.1477.0791-.284.2072-.3567l4.747-2.6957c.1247-.0708.2772-.0708.4019 0z" fill="#fff" fill-rule="evenodd"/><path d="m63.5859 86.5403v-5.6111" stroke-linecap="round"/><path d="m58.3623 78.2456 5.1023 2.6836" stroke-linecap="round"/><path d="m68.5672 78.2456-5.1024 2.6836" stroke-linecap="round"/><path d="m76.7666 64.0962h-7.8965" stroke-linecap="square"/><path d="m58.4042 64.0835h-7.0087" stroke-linecap="square"/><path d="m63.707 74.4637v-4.8792" stroke-linecap="square"/><path d="m63.707 57.3865v-4.8792" stroke-linecap="square"/></g></svg>