<svg width="123" height="136" viewBox="0 0 123 136" fill="none" xmlns="http://www.w3.org/2000/svg">
<path fill-rule="evenodd" clip-rule="evenodd" d="M60.7819 12.7588L108.564 40.1506V94.9343L60.7819 122.326L13 94.9343V40.1506L60.7819 12.7588Z" stroke="#00E599"/>
<g filter="url(#filter0_dd_555_1152)">
<path d="M65.2184 7.67334L113 35.0652V89.8489L65.2184 117.241L17.4365 89.8489V35.0652L65.2184 7.67334Z" fill="black"/>
</g>
<path d="M65.2184 7.67334L113 35.0652V89.8489L65.2184 117.241L17.4365 89.8489V35.0652L65.2184 7.67334Z" fill="#F0F5F6"/>
<path d="M85.0687 47.6743H44.1992C43.2964 47.6743 42.5645 48.4011 42.5645 49.2975V80.1387C42.5645 81.0352 43.2964 81.7619 44.1992 81.7619H85.0687C85.9715 81.7619 86.7034 81.0352 86.7034 80.1387V49.2975C86.7034 48.4011 85.9715 47.6743 85.0687 47.6743Z" fill="white" stroke="#000033" stroke-width="0.756"/>
<path d="M44.6081 51.7192C45.5038 51.7192 46.2299 50.9982 46.2299 50.1089C46.2299 49.2195 45.5038 48.4985 44.6081 48.4985C43.7124 48.4985 42.9863 49.2195 42.9863 50.1089C42.9863 50.9982 43.7124 51.7192 44.6081 51.7192Z" stroke="#000033" stroke-width="0.504"/>
<path d="M46.6511 51.7192C47.5468 51.7192 48.2729 50.9982 48.2729 50.1089C48.2729 49.2195 47.5468 48.4985 46.6511 48.4985C45.7554 48.4985 45.0293 49.2195 45.0293 50.1089C45.0293 50.9982 45.7554 51.7192 46.6511 51.7192Z" stroke="#000033" stroke-width="0.504"/>
<path d="M48.6941 51.7192C49.5898 51.7192 50.3159 50.9982 50.3159 50.1089C50.3159 49.2195 49.5898 48.4985 48.6941 48.4985C47.7984 48.4985 47.0723 49.2195 47.0723 50.1089C47.0723 50.9982 47.7984 51.7192 48.6941 51.7192Z" stroke="#000033" stroke-width="0.504"/>
<path d="M72.3995 49.2979H56.0518C55.6003 49.2979 55.2344 49.6612 55.2344 50.1095C55.2344 50.5577 55.6003 50.9211 56.0518 50.9211H72.3995C72.851 50.9211 73.2169 50.5577 73.2169 50.1095C73.2169 49.6612 72.851 49.2979 72.3995 49.2979Z" fill="#00E599" stroke="#000033" stroke-width="0.504"/>
<path d="M86.2942 52.5439H42.9727" stroke="#000033" stroke-width="0.504" stroke-linecap="square"/>
<defs>
<filter id="filter0_dd_555_1152" x="0.436523" y="3.67334" width="117.563" height="131.567" filterUnits="userSpaceOnUse" color-interpolation-filters="sRGB">
<feFlood flood-opacity="0" result="BackgroundImageFix"/>
<feColorMatrix in="SourceAlpha" type="matrix" values="0 0 0 0 0 0 0 0 0 0 0 0 0 0 0 0 0 0 127 0" result="hardAlpha"/>
<feOffset dx="-6" dy="7"/>
<feGaussianBlur stdDeviation="5.5"/>
<feColorMatrix type="matrix" values="0 0 0 0 0.316369 0 0 0 0 0.366988 0 0 0 0 0.353496 0 0 0 0.25741 0"/>
<feBlend mode="normal" in2="BackgroundImageFix" result="effect1_dropShadow_555_1152"/>
<feColorMatrix in="SourceAlpha" type="matrix" values="0 0 0 0 0 0 0 0 0 0 0 0 0 0 0 0 0 0 127 0" result="hardAlpha"/>
<feOffset dx="-3" dy="3"/>
<feGaussianBlur stdDeviation="2.5"/>
<feColorMatrix type="matrix" values="0 0 0 0 0 0 0 0 0 0 0 0 0 0 0 0 0 0 0.144615 0"/>
<feBlend mode="normal" in2="effect1_dropShadow_555_1152" result="effect2_dropShadow_555_1152"/>
<feBlend mode="normal" in="SourceGraphic" in2="effect2_dropShadow_555_1152" result="shape"/>
</filter>
</defs>
</svg>
