<svg width="120" height="133" viewBox="0 0 120 133" fill="none" xmlns="http://www.w3.org/2000/svg">
<path fill-rule="evenodd" clip-rule="evenodd" d="M57.9507 12.2812L105.901 40.0213V95.5013L57.9507 123.241L10 95.5013V40.0213L57.9507 12.2812Z" stroke="#00E599"/>
<g filter="url(#filter0_dd_555_1101)">
<path d="M62.0493 6.75879L110 34.4988V89.9789L62.0493 117.719L14.0986 89.9789V34.4988L62.0493 6.75879Z" fill="black"/>
</g>
<path d="M62.0493 6.75879L110 34.4988V89.9789L62.0493 117.719L14.0986 89.9789V34.4988L62.0493 6.75879Z" fill="#F0F5F6"/>
<path fill-rule="evenodd" clip-rule="evenodd" d="M53.8042 45.7944H76.725C77.8024 45.7944 78.6757 46.6696 78.6757 47.7491V80.9778C78.6757 82.0573 77.8024 82.9324 76.725 82.9324H53.8042C52.7269 82.9324 51.8535 82.0573 51.8535 80.9778V47.7491C51.8535 46.6696 52.7269 45.7944 53.8042 45.7944Z" fill="white" stroke="#000033" stroke-width="0.461277"/>
<path d="M56.2422 51.1694H74.7739" stroke="#000033" stroke-width="0.400893" stroke-linecap="square"/>
<path d="M56.2422 52.5781H74.7739" stroke="#000033" stroke-width="0.400893" stroke-linecap="square"/>
<path d="M53.8037 51.1694H54.2914" stroke="#000033" stroke-width="0.480497" stroke-linecap="square"/>
<path d="M53.8037 59.4771H54.2914" stroke="#000033" stroke-width="0.480497" stroke-linecap="square"/>
<path d="M56.2422 52.6353H70.8725" stroke="#000033" stroke-width="0.480497" stroke-linecap="square"/>
<path d="M56.2422 54.1016H74.7739" stroke="#000033" stroke-width="0.400893" stroke-linecap="square"/>
<path d="M56.2422 55.5674H65.0204" stroke="#000033" stroke-width="0.480497" stroke-linecap="square"/>
<path d="M56.2422 59.4771H74.7739" stroke="#000033" stroke-width="0.400893" stroke-linecap="square"/>
<path d="M56.2422 60.9429H70.8725" stroke="#000033" stroke-width="0.480497" stroke-linecap="square"/>
<path d="M56.2422 62.4082H74.7739" stroke="#000033" stroke-width="0.400893" stroke-linecap="square"/>
<path d="M56.2422 63.875H65.0204" stroke="#000033" stroke-width="0.480497" stroke-linecap="square"/>
<path d="M53.8037 67.2954H54.2914" stroke="#000033" stroke-width="0.480497" stroke-linecap="square"/>
<path d="M56.2422 67.2954H74.7739" stroke="#000033" stroke-width="0.400893" stroke-linecap="square"/>
<path d="M56.2422 68.7617H70.8725" stroke="#000033" stroke-width="0.480497" stroke-linecap="square"/>
<path d="M56.2422 70.2271H74.7739" stroke="#000033" stroke-width="0.400893" stroke-linecap="square"/>
<path d="M56.2422 71.6938H65.0204" stroke="#000033" stroke-width="0.480497" stroke-linecap="square"/>
<path d="M65.9951 78.0464H74.7733" stroke="#000033" stroke-width="0.400893" stroke-linecap="square"/>
<path fill-rule="evenodd" clip-rule="evenodd" d="M47.3013 41.3965H70.2221C71.2994 41.3965 72.1728 42.2716 72.1728 43.3511V76.5798C72.1728 77.6594 71.2994 78.5345 70.2221 78.5345H47.3013C46.2239 78.5345 45.3506 77.6594 45.3506 76.5798V43.3511C45.3506 42.2716 46.2239 41.3965 47.3013 41.3965Z" fill="white" stroke="#000033" stroke-width="0.461277"/>
<path d="M47.3008 55.0786H47.7885" stroke="#000033" stroke-width="0.400893" stroke-linecap="square"/>
<path d="M49.7402 55.0786H68.2719" stroke="#000033" stroke-width="0.400893" stroke-linecap="square"/>
<path d="M49.7402 56.5449H64.3705" stroke="#000033" stroke-width="0.400893" stroke-linecap="square"/>
<path d="M49.7402 58.0107H68.2719" stroke="#000033" stroke-width="0.400893" stroke-linecap="square"/>
<path d="M49.7402 59.4771H58.5184" stroke="#000033" stroke-width="0.400893" stroke-linecap="square"/>
<path d="M50.1982 51.3755H68.3615" stroke="#000033" stroke-width="0.400893" stroke-linecap="square"/>
<path d="M50.1982 49.9658H68.3615" stroke="#000033" stroke-width="0.400893" stroke-linecap="square"/>
<path d="M50.1982 48.5571H68.3615" stroke="#000033" stroke-width="0.400893" stroke-linecap="square"/>
<path d="M50.1982 47.147H68.3615" stroke="#000033" stroke-width="0.400893" stroke-linecap="square"/>
<path d="M47.3008 62.8979H47.7885" stroke="#000033" stroke-width="0.400893" stroke-linecap="square"/>
<path d="M49.7402 62.8979H68.2719" stroke="#000033" stroke-width="0.400893" stroke-linecap="square"/>
<path d="M49.7402 64.3638H64.3705" stroke="#000033" stroke-width="0.400893" stroke-linecap="square"/>
<path d="M49.7402 65.8291H68.2719" stroke="#000033" stroke-width="0.400893" stroke-linecap="square"/>
<path d="M49.7402 67.2954H58.5184" stroke="#000033" stroke-width="0.400893" stroke-linecap="square"/>
<path d="M59.4932 73.6475H68.2713" stroke="#00E599" stroke-width="0.400893" stroke-linecap="square"/>
<defs>
<filter id="filter0_dd_555_1101" x="0.468276" y="3.55165" width="113.541" height="128.599" filterUnits="userSpaceOnUse" color-interpolation-filters="sRGB">
<feFlood flood-opacity="0" result="BackgroundImageFix"/>
<feColorMatrix in="SourceAlpha" type="matrix" values="0 0 0 0 0 0 0 0 0 0 0 0 0 0 0 0 0 0 127 0" result="hardAlpha"/>
<feOffset dx="-4.81071" dy="5.6125"/>
<feGaussianBlur stdDeviation="4.40982"/>
<feColorMatrix type="matrix" values="0 0 0 0 0.316369 0 0 0 0 0.366988 0 0 0 0 0.353496 0 0 0 0.25741 0"/>
<feBlend mode="normal" in2="BackgroundImageFix" result="effect1_dropShadow_555_1101"/>
<feColorMatrix in="SourceAlpha" type="matrix" values="0 0 0 0 0 0 0 0 0 0 0 0 0 0 0 0 0 0 127 0" result="hardAlpha"/>
<feOffset dx="-2.40536" dy="2.40536"/>
<feGaussianBlur stdDeviation="2.00446"/>
<feColorMatrix type="matrix" values="0 0 0 0 0 0 0 0 0 0 0 0 0 0 0 0 0 0 0.144615 0"/>
<feBlend mode="normal" in2="effect1_dropShadow_555_1101" result="effect2_dropShadow_555_1101"/>
<feBlend mode="normal" in="SourceGraphic" in2="effect2_dropShadow_555_1101" result="shape"/>
</filter>
</defs>
</svg>
