<svg fill="none" height="133" viewBox="0 0 120 133" width="120" xmlns="http://www.w3.org/2000/svg" xmlns:xlink="http://www.w3.org/1999/xlink"><filter id="a" color-interpolation-filters="sRGB" filterUnits="userSpaceOnUse" height="128.575" width="113.238" x=".771986" y="3.89784"><feFlood flood-opacity="0" result="BackgroundImageFix"/><feColorMatrix in="SourceAlpha" result="hardAlpha" type="matrix" values="0 0 0 0 0 0 0 0 0 0 0 0 0 0 0 0 0 0 127 0"/><feOffset dx="-4.81071" dy="5.6125"/><feGaussianBlur stdDeviation="4.40982"/><feColorMatrix type="matrix" values="0 0 0 0 0.316369 0 0 0 0 0.366988 0 0 0 0 0.353496 0 0 0 0.25741 0"/><feBlend in2="BackgroundImageFix" mode="normal" result="effect1_dropShadow_555_3050"/><feColorMatrix in="SourceAlpha" result="hardAlpha" type="matrix" values="0 0 0 0 0 0 0 0 0 0 0 0 0 0 0 0 0 0 127 0"/><feOffset dx="-2.40536" dy="2.40536"/><feGaussianBlur stdDeviation="2.00446"/><feColorMatrix type="matrix" values="0 0 0 0 0 0 0 0 0 0 0 0 0 0 0 0 0 0 0.144615 0"/><feBlend in2="effect1_dropShadow_555_3050" mode="normal" result="effect2_dropShadow_555_3050"/><feBlend in="SourceGraphic" in2="effect2_dropShadow_555_3050" mode="normal" result="shape"/></filter><path clip-rule="evenodd" d="m57.7992 12.4614 47.7988 27.6085v55.2168l-47.7988 27.6083-47.7992-27.6083v-55.2168z" fill-rule="evenodd" stroke="#00e599"/><g filter="url(#a)"><path d="m62.2016 7.10498 47.7994 27.73402v55.4681l-47.7994 27.7339-47.7993-27.7339v-55.4681z" fill="#000"/></g><path d="m62.2016 7.10498 47.7994 27.73402v55.4681l-47.7994 27.7339-47.7993-27.7339v-55.4681z" fill="#f0f5f6"/><g stroke="#003"><path clip-rule="evenodd" d="m61.228 65.9872 5.0757 2.8719c.1369.0775.2216.2227.2216.38v5.7283c0 .1573-.0847.3025-.2216.38l-5.0757 2.8719c-.1333.0754-.2964.0754-.4297 0l-5.0757-2.8719c-.137-.0775-.2216-.2227-.2216-.38v-5.7283c0-.1573.0846-.3025.2216-.38l5.0757-2.8719c.1333-.0754.2964-.0754.4297 0z" fill="#fff" fill-rule="evenodd" stroke-width=".561699"/><path d="m61.0127 78.0812v-5.9777" stroke-linecap="round" stroke-width=".561699"/><path d="m55.4268 69.2451 5.4556 2.8589" stroke-linecap="round" stroke-width=".561699"/><path d="m66.3374 69.2451-5.4556 2.8589" stroke-linecap="round" stroke-width=".561699"/><path clip-rule="evenodd" d="m42.0688 65.9872 5.0757 2.8719c.1369.0775.2216.2227.2216.38v5.7283c0 .1573-.0847.3025-.2216.38l-5.0757 2.8719c-.1333.0754-.2964.0754-.4297 0l-5.0757-2.8719c-.1369-.0775-.2216-.2227-.2216-.38v-5.7283c0-.1573.0847-.3025.2216-.38l5.0757-2.8719c.1333-.0754.2964-.0754.4297 0z" fill="#fff" fill-rule="evenodd" stroke-width=".561699"/><path d="m41.8535 78.0812v-5.9777" stroke-linecap="round" stroke-width=".561699"/><path d="m36.2676 69.2441 5.4556 2.8589" stroke-linecap="round" stroke-width=".561699"/><path d="m47.1783 69.2441-5.4556 2.8589" stroke-linecap="round" stroke-width=".561699"/><path clip-rule="evenodd" d="m61.0502 47.29 5.0757 2.8718c.137.0775.2216.2227.2216.3801v5.7282c0 .1574-.0846.3026-.2216.38l-5.0757 2.8719c-.1333.0754-.2964.0754-.4297 0l-5.0757-2.8719c-.1369-.0774-.2216-.2226-.2216-.38v-5.7282c0-.1574.0847-.3026.2216-.3801l5.0757-2.8718c.1333-.0755.2964-.0755.4297 0z" fill="#00e599" fill-rule="evenodd" stroke-width=".561699"/><path d="m60.835 59.3839v-5.9777" stroke-linecap="round" stroke-width=".561699"/><path d="m55.25 50.5479 5.4556 2.8588" stroke-linecap="round" stroke-width=".561699"/><path d="m66.1607 50.5479-5.4556 2.8588" stroke-linecap="round" stroke-width=".561699"/><path clip-rule="evenodd" d="m81.0385 65.9872 5.0757 2.8719c.1369.0775.2216.2227.2216.38v5.7283c0 .1573-.0847.3025-.2216.38l-5.0757 2.8719c-.1333.0754-.2964.0754-.4297 0l-5.0757-2.8719c-.1369-.0775-.2216-.2227-.2216-.38v-5.7283c0-.1573.0847-.3025.2216-.38l5.0757-2.8719c.1333-.0754.2964-.0754.4297 0z" fill="#fff" fill-rule="evenodd" stroke-width=".561699"/><path d="m80.8232 78.0812v-5.9777" stroke-linecap="round" stroke-width=".561699"/><path d="m75.2373 69.2446 5.4556 2.8589" stroke-linecap="round" stroke-width=".561699"/><path d="m86.148 69.2446-5.4556 2.8589" stroke-linecap="round" stroke-width=".561699"/><path d="m75.1063 72.6875h-8.4432" stroke-linecap="square" stroke-width=".561699"/><path d="m54.7463 72.6871-6.9924-.1021" stroke-linecap="square" stroke-width=".561699"/><path d="m60.7275 64.7813v-4.8614" stroke-linecap="square" stroke-width=".52533"/></g></svg>