<svg fill="none" height="136" viewBox="0 0 123 136" width="123" xmlns="http://www.w3.org/2000/svg" xmlns:xlink="http://www.w3.org/1999/xlink"><filter id="a" color-interpolation-filters="sRGB" filterUnits="userSpaceOnUse" height="132.35" width="117.565" x=".43457" y="3.12451"><feFlood flood-opacity="0" result="BackgroundImageFix"/><feColorMatrix in="SourceAlpha" result="hardAlpha" type="matrix" values="0 0 0 0 0 0 0 0 0 0 0 0 0 0 0 0 0 0 127 0"/><feOffset dx="-6" dy="7"/><feGaussianBlur stdDeviation="5.5"/><feColorMatrix type="matrix" values="0 0 0 0 0.316369 0 0 0 0 0.366988 0 0 0 0 0.353496 0 0 0 0.25741 0"/><feBlend in2="BackgroundImageFix" mode="normal" result="effect1_dropShadow_555_1176"/><feColorMatrix in="SourceAlpha" result="hardAlpha" type="matrix" values="0 0 0 0 0 0 0 0 0 0 0 0 0 0 0 0 0 0 127 0"/><feOffset dx="-3" dy="3"/><feGaussianBlur stdDeviation="2.5"/><feColorMatrix type="matrix" values="0 0 0 0 0 0 0 0 0 0 0 0 0 0 0 0 0 0 0.144615 0"/><feBlend in2="effect1_dropShadow_555_1176" mode="normal" result="effect2_dropShadow_555_1176"/><feBlend in="SourceGraphic" in2="effect2_dropShadow_555_1176" mode="normal" result="shape"/></filter><path clip-rule="evenodd" d="m60.7829 12.5259 47.7831 27.5875v55.1749l-47.7831 27.5877-47.7829-27.5877v-55.1749z" fill-rule="evenodd" stroke="#00e599" stroke-width=".648"/><g filter="url(#a)"><path d="m65.2175 7.12451 47.7825 27.58749v55.175l-47.7825 27.587-47.7829-27.587v-55.175z" fill="#000"/></g><path d="m65.2175 7.12451 47.7825 27.58749v55.175l-47.7825 27.587-47.7829-27.587v-55.175z" fill="#f0f5f6"/><g stroke="#003"><path clip-rule="evenodd" d="m85.529 71.5828v-18.6403c0-1.9325-1.0607-3.7091-2.762-4.6259l-17.8864-9.6384c-1.2774-.6883-2.871-.2108-3.5593 1.0666-.2064.383-.3145.8113-.3145 1.2464v20.118c0 .9628.5267 1.8485 1.3726 2.3083l19.2675 10.4737c1.2748.693 2.8701.2213 3.5631-1.0536.2094-.3851.319-.8165.319-1.2548z" fill="#fff" fill-rule="evenodd" stroke-width=".54"/><path d="m66.3848 53.3246 12.3311-.7806m-6.1656 5.4349c2.7861 1.5965 5.0446.6322 5.0446-2.1538s-2.2585-6.3388-5.0446-7.9354c-2.786-1.5965-5.0445-.6323-5.0445 2.1538 0 2.786 2.2585 6.3388 5.0445 7.9354z" stroke-width="1.3824"/><path clip-rule="evenodd" d="m78.9607 75.9617v-18.6403c0-1.9325-1.0608-3.7091-2.762-4.6259l-17.8865-9.6384c-1.2774-.6883-2.8709-.2108-3.5593 1.0666-.2064.383-.3144.8113-.3144 1.2464v20.118c0 .9628.5266 1.8485 1.3725 2.3083l19.2675 10.4737c1.2749.693 2.8702.2213 3.5632-1.0536.2093-.3851.319-.8165.319-1.2548z" fill="#fff" fill-rule="evenodd" stroke-width=".54"/></g><path d="m64.6971 63.8008v-2.2169c.3694.2072.7301.4009 1.0732.5851v2.208l1.3547.7274v-2.2432c2.2697 1.0955 3.8531 1.3739 4.0555-.6551.1583-1.6304-.651-2.8303-1.9354-3.8278.7742.0198 1.2668-.4195 1.1524-1.6509-.1495-1.6814-1.5306-2.9596-3.2725-4.0444v-2.2168l-1.3547-.7275v2.1553c-.3519-.1889-.7126-.3738-1.0732-.5587v-2.1728l-1.3548-.7274v2.2168c-.2903-.1471-.5806-.3029-.8533-.4494l-1.865-1.0102v1.4428c.2762.1433.4742.2475.6163.3232l.145.0779c.1814.0983.21.1182.2144.1222.555.2986.7309.7097.7837 1.0196v2.5247c.0352.0189.088.0473.1408.0844l-.1408-.0756v3.5364c-.0264.1618-.1319.3778-.5102.1747 0 0 .0054.0084-.1602-.0788l-.2-.107c-.1421-.0768-.3401-.1853-.6163-.3385l-.2727 1.4634 1.7594.9447c.3255.1748.6422.3536.9589.5237v2.2432zm.0263-8.1671v-2.7007c.7654.4109 3.1582 1.4582 3.1582 3.0505 0 1.5219-2.3928.0611-3.1582-.3498zm0 4.3281v-2.9734c.9149.4913 3.7828 1.776 3.7828 3.5178 0 1.6803-2.8679-.0531-3.7828-.5444z" fill="#003"/><path clip-rule="evenodd" d="m71.5164 81.2166v-18.6403c0-1.9326-1.0608-3.7091-2.7621-4.6259l-17.8864-9.6384c-1.2774-.6883-2.871-.2108-3.5593 1.0666-.2064.383-.3145.8113-.3145 1.2464v20.1179c0 .9629.5267 1.8486 1.3726 2.3084l19.2675 10.4737c1.2748.693 2.8701.2213 3.5631-1.0536.2094-.3851.3191-.8165.3191-1.2548z" fill="#fff" fill-rule="evenodd" stroke="#003" stroke-width=".54"/><path clip-rule="evenodd" d="m53.9866 70.0983c.0427.0069 2.2945-.8062 6.7555-2.439.4051-.1483.4281-.7692.0513-1.3869-.1895-.3106-.4553-.5763-.7335-.7332l-5.5968-3.157-1.5567.6742c-.1507.0652-.3947-.0727-.5449-.3082-.072-.1128-.1125-.2335-.1125-.3354v-1.9099c0-.8086.6555-1.0944 1.4641-.6383l1.8117 1.0219c.1981-.4063.7184-.6293 1.5609-.669.8424-.0396 1.7601.2263 2.753.7976 1.3429.7855 2.4619 1.8447 3.3571 3.1775s1.3331 2.6183 1.3137 3.8565v.013c0 1.0903-.4619 1.8689-1.2712 2.143l-6.4773 2.1933c-.5465-.2744-.9501-.5183-1.2108-.7318-.9314-.7629-1.5976-1.5737-1.5636-1.5683z" fill="#00e599" fill-rule="evenodd" stroke="#003" stroke-width=".54"/></svg>