<svg fill="none" height="133" viewBox="0 0 120 133" width="120" xmlns="http://www.w3.org/2000/svg" xmlns:xlink="http://www.w3.org/1999/xlink"><filter id="a" color-interpolation-filters="sRGB" filterUnits="userSpaceOnUse" height="128.599" width="113.541" x=".468276" y="3.55165"><feFlood flood-opacity="0" result="BackgroundImageFix"/><feColorMatrix in="SourceAlpha" result="hardAlpha" type="matrix" values="0 0 0 0 0 0 0 0 0 0 0 0 0 0 0 0 0 0 127 0"/><feOffset dx="-4.81071" dy="5.6125"/><feGaussianBlur stdDeviation="4.40982"/><feColorMatrix type="matrix" values="0 0 0 0 0.316369 0 0 0 0 0.366988 0 0 0 0 0.353496 0 0 0 0.25741 0"/><feBlend in2="BackgroundImageFix" mode="normal" result="effect1_dropShadow_555_1101"/><feColorMatrix in="SourceAlpha" result="hardAlpha" type="matrix" values="0 0 0 0 0 0 0 0 0 0 0 0 0 0 0 0 0 0 127 0"/><feOffset dx="-2.40536" dy="2.40536"/><feGaussianBlur stdDeviation="2.00446"/><feColorMatrix type="matrix" values="0 0 0 0 0 0 0 0 0 0 0 0 0 0 0 0 0 0 0.144615 0"/><feBlend in2="effect1_dropShadow_555_1101" mode="normal" result="effect2_dropShadow_555_1101"/><feBlend in="SourceGraphic" in2="effect2_dropShadow_555_1101" mode="normal" result="shape"/></filter><path clip-rule="evenodd" d="m57.9507 12.2812 47.9503 27.7401v55.48l-47.9503 27.7397-47.9507-27.7397v-55.48z" fill-rule="evenodd" stroke="#00e599"/><g filter="url(#a)"><path d="m62.0493 6.75879 47.9507 27.74001v55.4801l-47.9507 27.7401-47.9507-27.7401v-55.4801z" fill="#000"/></g><path d="m62.0493 6.75879 47.9507 27.74001v55.4801l-47.9507 27.7401-47.9507-27.7401v-55.4801z" fill="#f0f5f6"/><g stroke="#003"><path clip-rule="evenodd" d="m53.8042 45.7944h22.9208c1.0774 0 1.9507.8752 1.9507 1.9547v33.2287c0 1.0795-.8733 1.9546-1.9507 1.9546h-22.9208c-1.0773 0-1.9507-.8751-1.9507-1.9546v-33.2287c0-1.0795.8734-1.9547 1.9507-1.9547z" fill="#fff" fill-rule="evenodd" stroke-width=".461277"/><path d="m56.2422 51.1694h18.5317" stroke-linecap="square" stroke-width=".400893"/><path d="m56.2422 52.5781h18.5317" stroke-linecap="square" stroke-width=".400893"/><path d="m53.8037 51.1694h.4877" stroke-linecap="square" stroke-width=".480497"/><path d="m53.8037 59.4771h.4877" stroke-linecap="square" stroke-width=".480497"/><path d="m56.2422 52.6353h14.6303" stroke-linecap="square" stroke-width=".480497"/><path d="m56.2422 54.1016h18.5317" stroke-linecap="square" stroke-width=".400893"/><path d="m56.2422 55.5674h8.7782" stroke-linecap="square" stroke-width=".480497"/><path d="m56.2422 59.4771h18.5317" stroke-linecap="square" stroke-width=".400893"/><path d="m56.2422 60.9429h14.6303" stroke-linecap="square" stroke-width=".480497"/><path d="m56.2422 62.4082h18.5317" stroke-linecap="square" stroke-width=".400893"/><path d="m56.2422 63.875h8.7782" stroke-linecap="square" stroke-width=".480497"/><path d="m53.8037 67.2954h.4877" stroke-linecap="square" stroke-width=".480497"/><path d="m56.2422 67.2954h18.5317" stroke-linecap="square" stroke-width=".400893"/><path d="m56.2422 68.7617h14.6303" stroke-linecap="square" stroke-width=".480497"/><path d="m56.2422 70.2271h18.5317" stroke-linecap="square" stroke-width=".400893"/><path d="m56.2422 71.6938h8.7782" stroke-linecap="square" stroke-width=".480497"/><path d="m65.9951 78.0464h8.7782" stroke-linecap="square" stroke-width=".400893"/><path clip-rule="evenodd" d="m47.3013 41.3965h22.9208c1.0773 0 1.9507.8751 1.9507 1.9546v33.2287c0 1.0796-.8734 1.9547-1.9507 1.9547h-22.9208c-1.0774 0-1.9507-.8751-1.9507-1.9547v-33.2287c0-1.0795.8733-1.9546 1.9507-1.9546z" fill="#fff" fill-rule="evenodd" stroke-width=".461277"/><path d="m47.3008 55.0786h.4877" stroke-linecap="square" stroke-width=".400893"/><path d="m49.7402 55.0786h18.5317" stroke-linecap="square" stroke-width=".400893"/><path d="m49.7402 56.5449h14.6303" stroke-linecap="square" stroke-width=".400893"/><path d="m49.7402 58.0107h18.5317" stroke-linecap="square" stroke-width=".400893"/><path d="m49.7402 59.4771h8.7782" stroke-linecap="square" stroke-width=".400893"/><path d="m50.1982 51.3755h18.1633" stroke-linecap="square" stroke-width=".400893"/><path d="m50.1982 49.9658h18.1633" stroke-linecap="square" stroke-width=".400893"/><path d="m50.1982 48.5571h18.1633" stroke-linecap="square" stroke-width=".400893"/><path d="m50.1982 47.147h18.1633" stroke-linecap="square" stroke-width=".400893"/><path d="m47.3008 62.8979h.4877" stroke-linecap="square" stroke-width=".400893"/><path d="m49.7402 62.8979h18.5317" stroke-linecap="square" stroke-width=".400893"/><path d="m49.7402 64.3638h14.6303" stroke-linecap="square" stroke-width=".400893"/><path d="m49.7402 65.8291h18.5317" stroke-linecap="square" stroke-width=".400893"/><path d="m49.7402 67.2954h8.7782" stroke-linecap="square" stroke-width=".400893"/></g><path d="m59.4932 73.6475h8.7781" stroke="#00e599" stroke-linecap="square" stroke-width=".400893"/></svg>