<svg fill="none" height="205" viewBox="0 0 187 205" width="187" xmlns="http://www.w3.org/2000/svg" xmlns:xlink="http://www.w3.org/1999/xlink"><filter id="a" color-interpolation-filters="sRGB" filterUnits="userSpaceOnUse" height="204.59" width="183.88" x="1.25954" y=".008678"><feFlood flood-opacity="0" result="BackgroundImageFix"/><feColorMatrix in="SourceAlpha" result="hardAlpha" type="matrix" values="0 0 0 0 0 0 0 0 0 0 0 0 0 0 0 0 0 0 127 0"/><feOffset dx="-13.6393" dy="15.9125"/><feGaussianBlur stdDeviation="12.5027"/><feColorMatrix type="matrix" values="0 0 0 0 0.316369 0 0 0 0 0.366988 0 0 0 0 0.353496 0 0 0 0.25741 0"/><feBlend in2="BackgroundImageFix" mode="normal" result="effect1_dropShadow_575_2196"/><feColorMatrix in="SourceAlpha" result="hardAlpha" type="matrix" values="0 0 0 0 0 0 0 0 0 0 0 0 0 0 0 0 0 0 127 0"/><feOffset dx="-6.81966" dy="6.81966"/><feGaussianBlur stdDeviation="5.68305"/><feColorMatrix type="matrix" values="0 0 0 0 0 0 0 0 0 0 0 0 0 0 0 0 0 0 0.144615 0"/><feBlend in2="effect1_dropShadow_575_2196" mode="normal" result="effect2_dropShadow_575_2196"/><feBlend in="SourceGraphic" in2="effect2_dropShadow_575_2196" mode="normal" result="shape"/></filter><clipPath id="b"><path d="m0 0h186.404v204.59h-186.404z"/></clipPath><g clip-path="url(#b)"><path clip-rule="evenodd" d="m94.337 26.1494 66.935 38.6448v77.2898l-66.935 38.644-66.9347-38.644v-77.2898z" fill-rule="evenodd" stroke="#00e599" stroke-width="1.47305"/><g filter="url(#a)"><path d="m106.839 9.10156 66.935 38.64474v77.2897l-66.935 38.645-66.9347-38.645v-77.2897z" fill="#000"/></g><path d="m106.839 9.10156 66.935 38.64474v77.2897l-66.935 38.645-66.9347-38.645v-77.2897z" fill="#f0f5f6"/><g clip-rule="evenodd" fill-rule="evenodd" stroke="#003" stroke-width="2.01633"><path d="m108.688 99.9292-2.065-2.0654c-2.917.3576-5.963-.5833-8.2008-2.8209-2.2376-2.2376-3.1785-5.2825-2.82-8.1995l-2.0739-2.0738c-.4253.0555-.8553.0828-1.2853.0828-2.0711 0-4.048-.6286-5.7097-1.7982l-4.6427.813.0057 8.3519 4.9334.8704c.4225 1.5676 1.0426 3.0947 1.8706 4.5382l-2.8708 4.0993 5.9035 5.904 4.1101-2.871c1.4387.823 2.9593 1.448 4.5339 1.875l.864 4.929h8.347l.822-4.634c-1.425-2.033-2.042-4.534-1.722-7.0008z" stroke-linecap="round"/><path d="m126.692 80.3096c-.427-1.5629-1.052-3.0844-1.875-4.5222l2.871-4.111-5.904-5.9026-4.099 2.8708c-1.438-.8233-2.96-1.4481-4.534-1.8753l-.869-4.9343h-8.358l-.817 4.6342c1.425 2.0333 2.041 4.5344 1.72 7.0025l2.075 2.0748c2.917-.3585 5.961.5834 8.198 2.82 2.236 2.2367 3.177 5.2797 2.82 8.1957l.688.6879 1.38 1.3813c.426-.0555.856-.0837 1.288-.0837 2.077 0 4.058.6323 5.721 1.8056l4.624-.8214.006-8.3519z"/><path d="m124.624 93.9156c-1.371-1.0858-3.033-1.6278-4.693-1.6278-.698 0-1.397.0959-2.074.2888l-16.974-16.9738c.65-2.2818.205-4.812-1.3349-6.7607-.1816-.2315-.3801-.4536-.5928-.6672-.1778-.1778-.3632-.3453-.5532-.5015-1.3926-1.1442-3.0995-1.7144-4.8045-1.7144-.3209 0-.6427.0197-.9617.0602-.4752.0602-.9456.1656-1.4029.3162l4.8487 4.8543-4.8337 4.8337-4.8534-4.8534c-.1525.4639-.2588.9362-.319 1.4133-.2541 2.0127.2992 4.1082 1.657 5.7624.1562.1891.3228.3735.5006.5514.2136.2136.4366.4112.6681.5937 1.37 1.0831 3.028 1.625 4.6859 1.625.6982 0 1.3964-.0959 2.0711-.2879l16.9737 16.9738c-.649 2.2833-.2 4.8153 1.342 6.7623.181.23.377.451.589.663.18.18.367.349.56.506 1.391 1.141 3.094 1.712 4.796 1.712.319 0 .638-.02.956-.061.479-.06.953-.166 1.415-.319l-4.853-4.853 4.833-4.8337 4.854 4.8537c.151-.46.257-.933.317-1.409.255-2.0088-.294-4.1043-1.65-5.7585-.157-.1929-.326-.3801-.506-.5599-.212-.2117-.432-.4074-.661-.589z" fill="#00e599" stroke-linecap="round"/></g></g></svg>