<svg fill="none" height="205" viewBox="0 0 187 205" width="187" xmlns="http://www.w3.org/2000/svg" xmlns:xlink="http://www.w3.org/1999/xlink"><filter id="a" color-interpolation-filters="sRGB" filterUnits="userSpaceOnUse" height="201.318" width="183.956" x="1.99392" y=".923717"><feFlood flood-opacity="0" result="BackgroundImageFix"/><feColorMatrix in="SourceAlpha" result="hardAlpha" type="matrix" values="0 0 0 0 0 0 0 0 0 0 0 0 0 0 0 0 0 0 127 0"/><feOffset dx="-13.6393" dy="15.9125"/><feGaussianBlur stdDeviation="12.5027"/><feColorMatrix type="matrix" values="0 0 0 0 0.316369 0 0 0 0 0.366988 0 0 0 0 0.353496 0 0 0 0.25741 0"/><feBlend in2="BackgroundImageFix" mode="normal" result="effect1_dropShadow_575_2151"/><feColorMatrix in="SourceAlpha" result="hardAlpha" type="matrix" values="0 0 0 0 0 0 0 0 0 0 0 0 0 0 0 0 0 0 127 0"/><feOffset dx="-6.81966" dy="6.81966"/><feGaussianBlur stdDeviation="5.68305"/><feColorMatrix type="matrix" values="0 0 0 0 0 0 0 0 0 0 0 0 0 0 0 0 0 0 0.144615 0"/><feBlend in2="effect1_dropShadow_575_2151" mode="normal" result="effect2_dropShadow_575_2151"/><feBlend in="SourceGraphic" in2="effect2_dropShadow_575_2151" mode="normal" result="shape"/></filter><path clip-rule="evenodd" d="m97.7909 27.228 66.9731 37.8269v75.6541l-66.9731 37.827-66.9725-37.827v-75.6541z" fill="#fff" fill-rule="evenodd" stroke="#00e599" stroke-width="1.47305"/><g filter="url(#a)"><path d="m107.611 10.0166 66.973 37.8269v75.6535l-66.973 37.827-66.9723-37.827v-75.6535z" fill="#000"/></g><path d="m107.611 10.0166 66.973 37.8269v75.6535l-66.973 37.827-66.9723-37.827v-75.6535z" fill="#f0f5f6"/><g stroke="#003" stroke-width="1.59253"><path clip-rule="evenodd" d="m108.897 79.0282 7.112 3.9348c.192.1061.31.3051.31.5207v7.8483c0 .2157-.118.4146-.31.5208l-7.112 3.9347c-.187.1034-.415.1034-.602 0l-7.111-3.9347c-.192-.1062-.311-.3051-.311-.5208v-7.8483c0-.2156.119-.4146.311-.5207l7.111-3.9348c.187-.1034.415-.1034.602 0z" fill="#00e599" fill-rule="evenodd"/><path d="m108.596 95.5964v-8.1902" stroke-linecap="round"/><path d="m100.77 83.4917 7.643 3.917" stroke-linecap="round"/><path d="m116.058 83.4917-7.644 3.917" stroke-linecap="round"/><path clip-rule="evenodd" d="m82.0516 79.0272 7.1116 3.9348c.1919.1061.3105.3051.3105.5207v7.8484c0 .2156-.1186.4145-.3105.5207l-7.1116 3.9348c-.1868.1033-.4153.1033-.6021 0l-7.1117-3.9348c-.1918-.1062-.3105-.3051-.3105-.5207v-7.8484c0-.2156.1187-.4146.3105-.5207l7.1117-3.9348c.1868-.1033.4153-.1033.6021 0z" fill="#fff" fill-rule="evenodd"/><path d="m81.75 95.5983v-8.1901" stroke-linecap="round"/><path d="m73.9238 83.4922 7.644 3.917" stroke-linecap="round"/><path d="m89.2123 83.4922-7.6439 3.917" stroke-linecap="round"/><path clip-rule="evenodd" d="m136.651 79.0282 7.112 3.9348c.192.1061.31.3051.31.5207v7.8483c0 .2157-.118.4146-.31.5208l-7.112 3.9347c-.187.1034-.415.1034-.602 0l-7.112-3.9347c-.191-.1062-.31-.3051-.31-.5208v-7.8483c0-.2156.119-.4146.31-.5207l7.112-3.9348c.187-.1034.415-.1034.602 0z" fill="#fff" fill-rule="evenodd"/><path d="m136.35 95.5964v-8.1902" stroke-linecap="round"/><path d="m128.523 83.4917 7.644 3.917" stroke-linecap="round"/><path d="m143.812 83.4917-7.644 3.917" stroke-linecap="round"/><path d="m128.342 88.2119h-11.83" stroke-linecap="square"/><path d="m99.8148 88.212-9.7972-.1412" stroke-linecap="square"/></g></svg>