<svg fill="none" height="136" viewBox="0 0 123 136" width="123" xmlns="http://www.w3.org/2000/svg" xmlns:xlink="http://www.w3.org/1999/xlink"><filter id="a" color-interpolation-filters="sRGB" filterUnits="userSpaceOnUse" height="131.567" width="117.563" x=".436523" y="3.67334"><feFlood flood-opacity="0" result="BackgroundImageFix"/><feColorMatrix in="SourceAlpha" result="hardAlpha" type="matrix" values="0 0 0 0 0 0 0 0 0 0 0 0 0 0 0 0 0 0 127 0"/><feOffset dx="-6" dy="7"/><feGaussianBlur stdDeviation="5.5"/><feColorMatrix type="matrix" values="0 0 0 0 0.316369 0 0 0 0 0.366988 0 0 0 0 0.353496 0 0 0 0.25741 0"/><feBlend in2="BackgroundImageFix" mode="normal" result="effect1_dropShadow_555_1152"/><feColorMatrix in="SourceAlpha" result="hardAlpha" type="matrix" values="0 0 0 0 0 0 0 0 0 0 0 0 0 0 0 0 0 0 127 0"/><feOffset dx="-3" dy="3"/><feGaussianBlur stdDeviation="2.5"/><feColorMatrix type="matrix" values="0 0 0 0 0 0 0 0 0 0 0 0 0 0 0 0 0 0 0.144615 0"/><feBlend in2="effect1_dropShadow_555_1152" mode="normal" result="effect2_dropShadow_555_1152"/><feBlend in="SourceGraphic" in2="effect2_dropShadow_555_1152" mode="normal" result="shape"/></filter><path clip-rule="evenodd" d="m60.7819 12.7588 47.7821 27.3918v54.7837l-47.7821 27.3917-47.7819-27.3917v-54.7837z" fill-rule="evenodd" stroke="#00e599"/><g filter="url(#a)"><path d="m65.2184 7.67334 47.7816 27.39186v54.7837l-47.7816 27.3921-47.7819-27.3921v-54.7837z" fill="#000"/></g><path d="m65.2184 7.67334 47.7816 27.39186v54.7837l-47.7816 27.3921-47.7819-27.3921v-54.7837z" fill="#f0f5f6"/><g stroke="#003"><path d="m85.0687 47.6743h-40.8695c-.9028 0-1.6347.7268-1.6347 1.6232v30.8412c0 .8965.7319 1.6232 1.6347 1.6232h40.8695c.9028 0 1.6347-.7267 1.6347-1.6232v-30.8412c0-.8964-.7319-1.6232-1.6347-1.6232z" fill="#fff" stroke-width=".756"/><path d="m44.6081 51.7192c.8957 0 1.6218-.721 1.6218-1.6103 0-.8894-.7261-1.6104-1.6218-1.6104s-1.6218.721-1.6218 1.6104c0 .8893.7261 1.6103 1.6218 1.6103z" stroke-width=".504"/><path d="m46.6511 51.7192c.8957 0 1.6218-.721 1.6218-1.6103 0-.8894-.7261-1.6104-1.6218-1.6104s-1.6218.721-1.6218 1.6104c0 .8893.7261 1.6103 1.6218 1.6103z" stroke-width=".504"/><path d="m48.6941 51.7192c.8957 0 1.6218-.721 1.6218-1.6103 0-.8894-.7261-1.6104-1.6218-1.6104s-1.6218.721-1.6218 1.6104c0 .8893.7261 1.6103 1.6218 1.6103z" stroke-width=".504"/><path d="m72.3995 49.2979h-16.3477c-.4515 0-.8174.3633-.8174.8116 0 .4482.3659.8116.8174.8116h16.3477c.4515 0 .8174-.3634.8174-.8116 0-.4483-.3659-.8116-.8174-.8116z" fill="#00e599" stroke-width=".504"/><path d="m86.2942 52.5439h-43.3215" stroke-linecap="square" stroke-width=".504"/></g></svg>