<svg fill="none" height="130" viewBox="0 0 120 130" width="120" xmlns="http://www.w3.org/2000/svg" xmlns:xlink="http://www.w3.org/1999/xlink"><filter id="a" color-interpolation-filters="sRGB" filterUnits="userSpaceOnUse" height="123.584" width="111.572" x="1.73776" y="5.8519"><feFlood flood-opacity="0" result="BackgroundImageFix"/><feColorMatrix in="SourceAlpha" result="hardAlpha" type="matrix" values="0 0 0 0 0 0 0 0 0 0 0 0 0 0 0 0 0 0 127 0"/><feOffset dx="-3.97215" dy="4.63417"/><feGaussianBlur stdDeviation="3.64114"/><feColorMatrix type="matrix" values="0 0 0 0 0.316369 0 0 0 0 0.366988 0 0 0 0 0.353496 0 0 0 0.25741 0"/><feBlend in2="BackgroundImageFix" mode="normal" result="effect1_dropShadow_555_991"/><feColorMatrix in="SourceAlpha" result="hardAlpha" type="matrix" values="0 0 0 0 0 0 0 0 0 0 0 0 0 0 0 0 0 0 127 0"/><feOffset dx="-1.98607" dy="1.98607"/><feGaussianBlur stdDeviation="1.65506"/><feColorMatrix type="matrix" values="0 0 0 0 0 0 0 0 0 0 0 0 0 0 0 0 0 0 0.144615 0"/><feBlend in2="effect1_dropShadow_555_991" mode="normal" result="effect2_dropShadow_555_991"/><feBlend in="SourceGraphic" in2="effect2_dropShadow_555_991" mode="normal" result="shape"/></filter><path clip-rule="evenodd" d="m58.504 12.4814 48.504 27.2548v54.5094l-48.504 27.2544-48.504-27.2544v-54.5094z" fill-rule="evenodd" stroke="#00e599"/><g filter="url(#a)"><path d="m61.4962 8.5 48.5038 27.2547v54.5094l-48.5038 27.2549-48.504-27.2549v-54.5094z" fill="#000"/></g><path d="m61.4962 8.5 48.5038 27.2547v54.5094l-48.5038 27.2549-48.504-27.2549v-54.5094z" fill="#f0f5f6"/><g stroke="#003"><path clip-rule="evenodd" d="m61.9909 42.3871 17.5078 9.5718c.4709.2575.7625.7423.7625 1.2681v19.0753c0 .5257-.2916 1.0106-.7625 1.268l-17.5078 9.5719c-.4545.2485-1.0093.2485-1.4638 0l-17.5078-9.5719c-.4709-.2574-.7625-.7423-.7625-1.268v-19.0753c0-.5258.2916-1.0106.7625-1.2681l17.5078-9.5718c.4545-.2485 1.0093-.2485 1.4638 0z" fill="#fff" fill-rule="evenodd" stroke-width=".36226"/><path d="m61.5557 82.9657v-19.6234" stroke-linecap="round" stroke-width=".36226"/><path d="m42.5791 53.5303 18.9767 9.8117" stroke-linecap="round" stroke-width=".36226"/><path d="m79.9403 53.5303-18.453 9.5409" stroke-linecap="round" stroke-width=".36226"/><path clip-rule="evenodd" d="m65.6869 52.5897-4.1236 2.1386c-.1746.0906-.3841.0904-.5586-.0004l-4.1083-2.1386c-.2888-.1504-.3976-.5001-.2432-.7812.0521-.0948.1304-.1736.2261-.2274l4.1083-2.3123c.1834-.1032.4094-.1033.5929-.0004l4.1235 2.3122c.2838.1592.3813.5121.2178.7883-.0554.0937-.1369.1703-.2349.2212z" fill="#00e599" fill-rule="evenodd" stroke-width=".331012"/></g></svg>