<svg fill="none" height="135" viewBox="0 0 124 135" width="124" xmlns="http://www.w3.org/2000/svg" xmlns:xlink="http://www.w3.org/1999/xlink"><filter id="a" color-interpolation-filters="sRGB" filterUnits="userSpaceOnUse" height="130.596" width="117.563" x=".463867" y="4.01709"><feFlood flood-opacity="0" result="BackgroundImageFix"/><feColorMatrix in="SourceAlpha" result="hardAlpha" type="matrix" values="0 0 0 0 0 0 0 0 0 0 0 0 0 0 0 0 0 0 127 0"/><feOffset dx="-6" dy="7"/><feGaussianBlur stdDeviation="5.5"/><feColorMatrix type="matrix" values="0 0 0 0 0.316369 0 0 0 0 0.366988 0 0 0 0 0.353496 0 0 0 0.25741 0"/><feBlend in2="BackgroundImageFix" mode="normal" result="effect1_dropShadow_555_972"/><feColorMatrix in="SourceAlpha" result="hardAlpha" type="matrix" values="0 0 0 0 0 0 0 0 0 0 0 0 0 0 0 0 0 0 127 0"/><feOffset dx="-3" dy="3"/><feGaussianBlur stdDeviation="2.5"/><feColorMatrix type="matrix" values="0 0 0 0 0 0 0 0 0 0 0 0 0 0 0 0 0 0 0.144615 0"/><feBlend in2="effect1_dropShadow_555_972" mode="normal" result="effect2_dropShadow_555_972"/><feBlend in="SourceGraphic" in2="effect2_dropShadow_555_972" mode="normal" result="shape"/></filter><path clip-rule="evenodd" d="m60.8102 13.3867 47.7818 27.149v54.298l-47.7818 27.1493-47.7819-27.1493v-54.298z" fill-rule="evenodd" stroke="#00e599" stroke-width=".72"/><g filter="url(#a)"><path d="m65.2457 8.01709 47.7823 27.14901v54.2979l-47.7823 27.149-47.7818-27.149v-54.2979z" fill="#000"/></g><path d="m65.2457 8.01709 47.7823 27.14901v54.2979l-47.7823 27.149-47.7818-27.149v-54.2979z" fill="#f0f5f6"/><path clip-rule="evenodd" d="m65.2472 36.1714 23.2589 13.0717v26.1435l-23.2589 13.0717-23.2589-13.0717v-26.1435z" fill="#fff" fill-rule="evenodd" stroke="#003" stroke-width=".54"/><g fill="#003"><path d="m57.1567 52.6325c.1857.1421.392.1523.6189.0305 2.1248-1.1979 4.5178-1.7968 7.179-1.7968 1.2584 0 2.4601.1422 3.605.4264s2.3363.741 3.574 1.3704c.0413.0203.1444.0304.3095.0304.2063 0 .3661-.0761.4796-.2284s.1599-.3248.1393-.5177c-.0207-.1929-.1238-.34-.3095-.4415-1.3203-.6497-2.6096-1.1268-3.868-1.4313-1.2584-.3046-2.5683-.4568-3.9299-.4568-2.8881 0-5.4874.6293-7.7979 1.8881-.2269.1421-.33.3299-.3094.5633.0206.2335.1238.4213.3094.5634z"/><path d="m54.0308 59.363c.2063 0 .361-.0812.4642-.2436 1.114-1.5429 2.589-2.7864 4.425-3.7305 1.836-.944 3.8422-1.411 6.0186-1.4008 2.1764.0101 4.1929.472 6.0495 1.3856 1.8154.9339 3.2698 2.1621 4.3631 3.6848.0826.1421.2115.2335.3868.2741.1754.0406.3404.0152.4951-.0762.1548-.0913.2528-.2233.294-.3959.0413-.1725.0103-.34-.0928-.5024-1.2171-1.7257-2.8314-3.1011-4.8428-4.1264-2.0113-1.0252-4.2238-1.5379-6.6374-1.5379-2.4137 0-4.6313.5177-6.653 1.5531-1.9598.9948-3.5689 2.3855-4.8273 4.1721-.1444.2436-.1598.4618-.0464.6547.1135.1929.3146.2893.6034.2893z"/><path d="m68.6985 74.9549c.1238 0 .2527-.0457.3868-.1371.1341-.0913.2166-.2182.2476-.3806.0309-.1625.0103-.3198-.0619-.4721-.0722-.1522-.2011-.2385-.3868-.2588-.9283-.2436-1.7174-.5431-2.3672-.8984-.6498-.3552-1.2739-.8273-1.8721-1.416-.784-.7715-1.3822-1.6495-1.7948-2.6342-.4126-.9846-.6189-2.015-.6189-3.091 0-.6902.2579-1.279.7736-1.7662.5158-.4873 1.1501-.7309 1.9031-.7309s1.3925.2436 1.9185.7309c.5261.4872.7891 1.076.7891 1.7662 0 .6903.1753 1.3146.526 1.8729s.8252.9999 1.4235 1.3247c.5982.3248 1.2583.4872 1.9804.4872.722 0 1.3873-.1624 1.9959-.4872.6085-.3248 1.0933-.7664 1.4543-1.3247s.5415-1.1826.5415-1.8729c0-1.7865-.4847-3.4614-1.4543-5.0247-.949-1.5023-2.2177-2.7001-3.8061-3.5934-1.671-.9136-3.4658-1.3704-5.3843-1.3704-2.0835 0-4.0072.538-5.771 1.614s-3.0583 2.5073-3.8835 4.2939c-.6189 1.1775-.9283 2.5479-.9283 4.1111s.33 3.2179.9902 4.9638c.0825.2233.2424.3502.4796.3807.2372.0304.4384-.0305.6034-.1827.165-.1523.2063-.3503.1238-.5939-.3507-.8933-.5983-1.7865-.7427-2.6798-.0825-.5888-.1237-1.2283-.1237-1.9186 0-1.3805.2475-2.5681.7426-3.5629.7633-1.543 1.9134-2.7814 3.4503-3.7153s3.2233-1.4008 5.0593-1.4008c1.6916 0 3.2594.3959 4.7035 1.1877 1.4234.7714 2.5477 1.817 3.3729 3.1366.8664 1.3399 1.2996 2.7915 1.2996 4.3547 0 .6903-.263 1.2689-.789 1.7359-.5261.4669-1.1707.7004-1.934.7004s-1.3977-.2335-1.9031-.7004c-.5054-.467-.7581-1.0405-.7581-1.7206s-.1805-1.3095-.5415-1.8881-.851-1.0354-1.4699-1.3704c-.6188-.335-1.279-.5024-1.9804-.5024s-1.3564.1674-1.9649.5024c-.6086.335-1.0882.7918-1.4389 1.3704s-.5261 1.2029-.5261 1.8728c0 1.2588.2373 2.4515.7117 3.5783.4745 1.1267 1.1656 2.1367 2.0733 3.03.7014.6903 1.4183 1.2435 2.1506 1.6597s1.6039.7562 2.6148 1.0202z"/><path d="m62.0454 74.7111c.2063 0 .3713-.0558.4951-.1675.1238-.1116.1857-.2588.1857-.4415s-.0619-.335-.1857-.4568c-.6189-.6497-1.0314-1.1065-1.2377-1.3704-.4126-.4872-.8046-1.0658-1.1759-1.7358-.7633-1.279-1.1449-2.9032-1.1449-4.8725 0-1.015.2681-1.9489.8045-2.8016s1.2584-1.5277 2.1661-2.0251 1.9082-.7461 3.0015-.7461c1.0934 0 2.0939.2487 3.0016.7461s1.6297 1.1724 2.1661 2.0251.8045 1.7866.8045 2.8016c0 .1828.0671.33.2012.4416.1341.1117.2939.1675.4796.1675s.3404-.0558.4642-.1675c.1237-.1116.1856-.2588.1856-.4416 0-1.2384-.3249-2.3803-.9747-3.4259-.6498-1.0455-1.5369-1.8728-2.6612-2.4819s-2.3466-.9136-3.6669-.9136c-1.3202 0-2.5425.3045-3.6668.9136s-2.0114 1.4364-2.6612 2.4819c-.6498 1.0456-.9747 2.1875-.9747 3.4259 0 2.0911.4641 3.9183 1.3924 5.4816.392.7308.784 1.35 1.1759 1.8576.3301.406.8046.9136 1.4234 1.5226.1238.1218.2579.1827.4023.1827z"/></g><path d="m71.2984 72.336c.557 0 1.083-.0406 1.5781-.1218.1857-.0203.3301-.1116.4333-.2741.1031-.1624.134-.3248.0928-.4872-.0413-.2436-.196-.3959-.4642-.4568-.1856-.0406-.4641-.0406-.8355 0l-.8045.0914c-1.0934 0-2.0939-.2538-3.0016-.7614-.8664-.4669-1.5472-1.1166-2.0423-1.9489-.4951-.8324-.7426-1.7359-.7426-2.7103 0-.1828-.0568-.335-.1702-.4568-.1135-.1219-.263-.1828-.4487-.1828s-.3404.066-.4642.198c-.1237.1319-.1856.2791-.1856.4416 0 1.0963.2681 2.1317.8045 3.1061.5364.9745 1.2893 1.7866 2.2589 2.4363 1.0727.7511 2.4033 1.1267 3.9918 1.1267z" fill="#00e599"/></svg>