<svg width="43" height="42" viewBox="0 0 43 42" fill="none" xmlns="http://www.w3.org/2000/svg">
<rect x="0.277344" width="42" height="42" rx="10" fill="white"/>
<path d="M17.174 30.7745C16.4982 30.7745 16.613 30.5193 16.3799 29.8758L14.3926 23.3353L29.6902 14.26" fill="#C8DAEA"/>
<path d="M17.1738 30.7747C17.6953 30.7747 17.9258 30.5362 18.2168 30.2532L20.9982 27.5487L17.5288 25.4565" fill="#A9C9DD"/>
<path d="M17.5293 25.4589L25.9361 31.6699C26.8954 32.1993 27.5877 31.9252 27.8267 30.7793L31.2487 14.6537C31.599 13.2491 30.7132 12.612 29.7955 13.0286L9.70174 20.7767C8.33015 21.3268 8.33814 22.0921 9.45172 22.433L14.6082 24.0424L26.5461 16.511C27.1097 16.1692 27.6269 16.353 27.2024 16.7297" fill="url(#paint0_linear_557_283)"/>
<defs>
<linearGradient id="paint0_linear_557_283" x1="248.081" y1="145.904" x2="300.313" y2="264.761" gradientUnits="userSpaceOnUse">
<stop stop-color="#000033"/>
<stop offset="1" stop-color="white"/>
</linearGradient>
</defs>
</svg>
