<svg fill="none" height="42" viewBox="0 0 42 42" width="42" xmlns="http://www.w3.org/2000/svg"><path d="m20.869.501343c-5.0921 0-10.1855.002632-15.27763-.001316-1.09502 0-2.1058.269741-2.99682.906583-1.453 1.03684-2.203195 2.45789-2.205827 4.24867-.005265 4.70792-.001316 9.41582-.001316 14.12502 0 5.4855.005264 10.971-.002632 16.4565-.002633 1.6171.575147 2.9685 1.793875 4.029.816.7105 1.77546 1.1092 2.856 1.1973.29481.0237.59094.029.88575.029 10.0539 0 20.1078-.0158 30.1617.0079 2.3887.0052 4.3695-1.4395 5.0276-3.4921.1671-.5224.2619-1.0921.2632-1.6408.0158-10.2697.0158-20.5408.0092-30.8105-.0013-2.79868-2.2848-5.051305-5.1026-5.053937-5.1369-.005261-10.2737-.001316-15.4092 0zm-14.05758 33.226257c.05264-.0934.06844-.1355.09608-.1671.74097-.9052 1.48327-1.8105 2.22688-2.7144 1.32532-1.6145 2.65202-3.229 3.97602-4.8448 1.8031-2.2 3.5983-4.4052 5.4119-6.5973.2119-.2566.1987-.4198-.0026-.6632-.7239-.8776-1.4293-1.7697-2.14-2.6579-1.5504-1.9395-3.1008-3.8776-4.6499-5.8184-.3725-.4658-.7384-.93685-1.1214-1.42369.2712-.21711.5054-.40526.7647-.61316 2.6902 3.36715 5.3553 6.70265 8.0402 10.06445.6094-.7355 1.1885-1.4316 1.7636-2.1316 2.094-2.5565 4.1866-5.1118 6.2727-7.67363.1474-.18027.2961-.25001.5264-.24606 2.2335.03947 4.467.06842 6.7004.10263.0829 0 .1646.01843.2935.03422-.0763.10394-.121.17236-.1737.23552-.6725.80658-1.3464 1.61312-2.0189 2.41972-2.0045 2.404-4.0076 4.8079-6.0121 7.2105-1.1977 1.4369-2.3927 2.8763-3.5957 4.3079-.1381.1658-.146.2737-.0026.4434.3949.4671.7699.9527 1.1516 1.4316 1.6991 2.129 3.3983 4.2579 5.0974 6.3869.5593.7013 1.1226 1.3986 1.6728 2.1078.0605.079.0974.2737.05.3198-.1882.1868-.4146.3368-.6423.5131-2.723-3.4092-5.4237-6.7894-8.1665-10.2223-.083.1145-.1238.1789-.1711.2368-1.0371 1.2421-2.0769 2.4842-3.114 3.7263-1.6754 2.0066-3.3522 4.0132-5.021 6.0263-.1408.1698-.2882.229-.5041.2277-2.1137-.0066-4.22738-.004-6.34108-.0053-.10529 0-.21058-.0092-.3672-.0171z" fill="#fff"/><path d="m6.81152 33.7274c.15662.0079.26191.0171.3672.0171 2.1137 0 4.22738-.0013 6.34108.0052.2145 0 .362-.0579.5041-.2276 1.6688-2.0118 3.3456-4.0184 5.021-6.0263 1.0371-1.2421 2.0769-2.4842 3.114-3.7263.0487-.0579.0881-.1224.1711-.2369 2.7428 3.4343 5.4435 6.8132 8.1665 10.2224.2277-.1763.4541-.3263.6423-.5132.0461-.046.0105-.2421-.05-.3197-.5502-.7092-1.1135-1.4066-1.6728-2.1079-1.6991-2.1289-3.3983-4.2579-5.0974-6.3868-.3816-.479-.7567-.9632-1.1516-1.4316-.1434-.1697-.1355-.2789.0027-.4434 1.2029-1.4329 2.3979-2.8711 3.5956-4.3079 2.0032-2.404 4.0076-4.8079 6.0121-7.2105.6725-.8066 1.3464-1.61186 2.0189-2.41976.0527-.06315.0987-.13289.1737-.23552-.1289-.01579-.2119-.0329-.2935-.03421-2.2334-.03421-4.4669-.06316-6.7004-.10263-.2303-.00395-.379.06447-.5264.24605-2.0861 2.56187-4.1787 5.11837-6.2727 7.67367-.5738.7013-1.1542 1.3961-1.7636 2.1316-2.6862-3.3619-5.35-6.6974-8.0402-10.06448-.2593.20789-.4935.39473-.7647.61316.383.48684.7502.95657 1.1214 1.42372 1.5491 1.9407 3.0995 3.8802 4.6499 5.8184.7107.8881 1.4161 1.7815 2.14 2.6579.2013.2434.2145.4065.0026.6631-1.8123 2.1921-3.6088 4.3974-5.4119 6.5974-1.324 1.6158-2.6507 3.2302-3.97601 4.8447-.7423.904-1.48459 1.8092-2.22689 2.7145-.02632.0329-.04343.075-.09608.1671zm26.05268-24.38684c-.1026.14342-.1592.23421-.2277.3171-1.0015 1.20264-2.0044 2.40264-3.0073 3.60394-1.4938 1.7895-2.9876 3.5776-4.4814 5.3671-1.3385 1.6053-2.6757 3.2105-4.0142 4.8158-1.324 1.5881-2.652 3.1737-3.976 4.7605-1.1977 1.4355-2.3967 2.8724-3.5891 4.3132-.1395.1697-.2895.2315-.5067.2302-1.2595-.0079-2.5191-.0039-3.77859-.0052-.10398 0-.20927-.0132-.38431-.025.1224-.1606.20268-.2711.28823-.3764 1.64907-2.0144 3.30087-4.0276 4.94997-6.042 1.6004-1.9553 3.1995-3.9119 4.8012-5.8671 1.5188-1.854 3.0389-3.7053 4.5578-5.5579 1.4701-1.7935 2.9415-3.5856 4.4063-5.38424.1448-.17632.2975-.25527.5291-.25 1.3464.03158 2.6928.04737 4.0405.07105.1066.00132.2132.01448.3909.02632z" fill="#003"/><path d="m32.8644 9.34058c-.1777-.01316-.2843-.025-.3909-.02632-1.3464-.02368-2.6941-.03947-4.0405-.07105-.2329-.00526-.3856.07237-.5291.25-1.4648 1.79739-2.9362 3.58949-4.4064 5.38419-1.5188 1.8526-3.0389 3.7053-4.5577 5.5579-1.6017 1.9553-3.1995 3.9118-4.8012 5.8671-1.6491 2.0145-3.3009 4.0276-4.94998 6.0421-.08686.1053-.16583.2158-.28823.3763.17505.0119.27902.0237.38431.025 1.2595.0013 2.5191-.0026 3.7786.0053.2158.0013.3659-.0605.5067-.2303 1.1924-1.4421 2.3901-2.8776 3.5891-4.3131 1.324-1.5882 2.652-3.1737 3.976-4.7606 1.3385-1.6039 2.6757-3.2105 4.0142-4.8157 1.4925-1.7895 2.9876-3.579 4.4814-5.3671 1.0029-1.2014 2.0058-2.4014 3.0073-3.60399.0685-.08289.1264-.17368.2277-.3171z" fill="#fff"/></svg>