<svg fill="none" height="42" viewBox="0 0 42 42" width="42" xmlns="http://www.w3.org/2000/svg"><rect fill="#fff" height="41" rx="10" width="41" x=".832031" y=".5"/><g fill="#003"><path d="m32.8118 30.1981c1.8295-1.3523 3.0227-3.341 3.0227-5.5682 0-4.0569-3.9773-7.3183-8.8296-7.3183s-8.75 3.2614-8.75 7.3183c0 4.0568 3.8977 7.3182 8.75 7.3182 1.0341 0 1.9887-.1591 2.8637-.3978.3181-.0795.6363 0 .7159.0796l1.9886 1.1136c.2387.1591.4773 0 .3977-.3182l-.4772-1.75c0-.2386.1591-.3977.3182-.4772zm-8.7501-6.7614c-.1766.0468-.3616.0523-.5408.0163-.1791-.036-.3476-.1127-.4924-.2242-.1448-.1114-.2621-.2546-.3428-.4186-.0807-.1639-.1227-.3442-.1227-.5269 0-.1828.042-.3631.1227-.527.0807-.164.198-.3072.3428-.4186.1448-.1115.3133-.1882.4924-.2242.1792-.036.3642-.0304.5408.0163.2545.0674.4795.2171.6401.4257.1605.2086.2476.4645.2476.7278 0 .2632-.0871.5191-.2476.7277-.1606.2086-.3856.3583-.6401.4257zm5.8864 0c-.1766.0468-.3617.0523-.5408.0163s-.3476-.1127-.4924-.2242c-.1448-.1114-.2621-.2546-.3428-.4186-.0807-.1639-.1227-.3442-.1227-.5269 0-.1828.042-.3631.1227-.527.0807-.164.198-.3072.3428-.4186.1448-.1115.3133-.1882.4924-.2242s.3642-.0304.5408.0163c.2545.0674.4795.2171.6401.4257.1605.2086.2476.4645.2476.7278 0 .2632-.0871.5191-.2476.7277-.1606.2086-.3856.3583-.6401.4257z"/><path d="m17.1397 9.19897c-5.8069 0-10.50005 3.97733-10.50005 8.82963 0 2.625 1.35228 5.0113 3.57955 6.6022.2386.1591.3977.3978.3182.7955l-.55683 1.9091c-.07955.3977.23863.5568.47723.4773l2.3864-1.3523c.2387-.1591.5568-.2386.875-.1591 2.0682.6364 3.8182.4773 4.0569.4773-1.9091-6.6819 4.6931-10.5001 9.7841-10.1819-.7955-4.1363-5.1705-7.39773-10.4205-7.39773zm-3.5 7.39773c-.2105.0507-.4298.053-.6413.0067-.2116-.0463-.4098-.14-.5799-.274s-.3076-.3048-.4021-.4997c-.0946-.1948-.1437-.4085-.1437-.625 0-.2166.0491-.4303.1437-.6251.0945-.1948.232-.3656.4021-.4996s.3683-.2277.5799-.274c.2115-.0463.4308-.0441.6413.0066.3125.0753.5906.2535.7896.506.1989.2525.3071.5646.3071.8861 0 .3214-.1082.6335-.3071.8861-.199.2525-.4771.4307-.7896.5059zm7.0795 0c-.2105.0507-.4298.053-.6413.0067s-.4098-.14-.5799-.274-.3075-.3048-.4021-.4997c-.0945-.1948-.1436-.4085-.1436-.625 0-.2166.0491-.4303.1436-.6251.0946-.1948.232-.3656.4021-.4996s.3684-.2277.5799-.274.4308-.0441.6413.0066c.3126.0753.5907.2535.7896.506.199.2525.3071.5646.3071.8861 0 .3214-.1081.6335-.3071.8861-.1989.2525-.477.4307-.7896.5059z"/></g></svg>