<svg fill="none" height="42" viewBox="0 0 42 42" width="42" xmlns="http://www.w3.org/2000/svg"><path d="m35.7885.5h-28.70002c-3.39655 0-6.150003 2.75345-6.150003 6.15v28.7c0 3.3966 2.753453 6.15 6.150003 6.15h28.70002c3.3965 0 6.15-2.7534 6.15-6.15v-28.7c0-3.39655-2.7535-6.15-6.15-6.15z" fill="#fff"/><path d="m29.4143 26.9259.9129-5.9258h-5.6856v-3.8437c0-1.6176.7928-3.2032 3.3393-3.2032h2.5865v-5.04487s-2.3463-.4004-4.5885-.4004c-4.6846 0-7.7435 2.83477-7.7435 7.97577v4.5164h-5.2051v5.9258h5.2051v14.5742h6.4062v-14.5742z" fill="#003"/></svg>