<svg fill="none" height="42" viewBox="0 0 43 42" width="43" xmlns="http://www.w3.org/2000/svg"><rect fill="#fff" height="42" rx="10" width="42" x=".061523"/><path d="m21.554 22.9471c-.0575-.0453-.0678-.098-.0887-.1439-1.8301-3.9813-3.6604-7.9629-5.4863-11.9461-.0547-.119-.1119-.1662-.2503-.1662-2.3171.005-4.6342.0037-6.95137.0037-.03656 0-.0728 0-.10936.001-.03187.0006-.07092.0025-.0678.044.01312.1631-.04874.329.08311.4847.74082.8739 1.46162 1.7646 2.21312 2.6289.263.3027.3721.614.3711 1.0107-.01 3.592-.0059 7.1841-.0056 10.7759 0 .067.001.1346.0088.201.044.369-.0547.6962-.2915.9815-.8508 1.0249-1.70101 2.0505-2.55681 3.0714-.1028.1225-.15654.2425-.1456.4035.01499.2201-.02375.1947.20559.1947 2.36932.0006 4.73862.0003 7.10792.0003.0415 0 .0834-.0006.125-.0012.0268-.0003.0634-.0065.0615-.0335-.0109-.1588.0587-.3241-.0662-.4736-.8843-1.0578-1.7644-2.1187-2.6458-3.1787-.1172-.1411-.1969-.3011-.2528-.476-.0731-.2285-.0394-.4605-.0394-.6919.001-3.0391.0003-6.078.0013-9.1171 0-.0617-.0157-.1278.0268-.2065.0322.0657.0556.111.0766.1569 1.5363 3.326 3.0726 6.652 4.6086 9.978.6002 1.2994 1.2014 2.5985 1.7969 3.9.0509.1117.1094.1566.2328.1464.1396-.0115.2821-.0139.4212.0003.1459.0152.2043-.0431.2562-.1743 1.8284-4.6201 3.6612-9.238 5.4941-13.8563.0193-.0487.0253-.1076.0849-.1498.0022.0354.0044.0552.0044.075 0 3.7522-.0012 7.5046.0019 11.2567 0 .2233-.0747.3941-.2362.5477-.6208.5895-1.2323 1.1883-1.8535 1.7775-.1099.1046-.1637.2081-.1543.3613.0144.2407-.0228.2112.2231.2112 3.1504.0006 6.3008.0003 9.4512.0003.0416 0 .0835.0003.125-.0006.0306-.0009.06 0 .0781-.0356.045-.0878-.0065-.406-.0821-.4795-.6362-.6184-1.272-1.237-1.9091-1.8542-.1347-.1305-.2003-.2856-.195-.4717.0028-.098.0063-.1963.0063-.2943 0-4.5326 0-9.0653 0-13.598 0-.093-.0028-.1861-.006-.2788-.0062-.1861.0572-.343.1934-.472.6212-.5889 1.2377-1.1831 1.8657-1.7649.1381-.1277.1999-.254.1893-.4407-.0072-.1265-.0356-.1621-.1656-.1621-2.2184.004-4.4364.004-6.6548 0-.1203 0-.1706.0424-.2128.147-1.1982 2.9752-2.399 5.9492-3.6 8.9236-.4275 1.0584-.8555 2.1162-1.2876 3.1852z" fill="#003"/></svg>