<svg fill="none" height="42" viewBox="0 0 43 42" width="43" xmlns="http://www.w3.org/2000/svg"><rect fill="#fff" height="42" rx="10" width="42" x=".615234"/><path d="m35.8195 21.1987c0-1.6911-1.3675-3.0341-3.0341-3.0341-.8205 0-1.5668.3231-2.1138.8456-2.0888-1.4922-4.949-2.462-8.1323-2.5863l1.3925-6.51581 4.5263.96981c.05 1.144.9948 2.0642 2.1639 2.0642 1.1937 0 2.1634-.9698 2.1634-2.1639 0-1.19368-.9697-2.16345-2.1634-2.16345-.8455 0-1.5919.4974-1.94 1.21871l-5.0482-1.06945c-.1493-.02503-.2986 0-.3982.07464-.1243.07463-.1989.19887-.2235.34813l-1.5423 7.26172c-3.2328.0997-6.1426 1.0695-8.2565 2.5867-.547-.5224-1.2933-.8455-2.1138-.8455-1.69113 0-3.03407 1.3675-3.03407 3.034 0 1.2433.74587 2.2877 1.79075 2.7605-.05007.2981-.07464.5966-.07464.9202 0 4.675 5.44646 8.4804 12.16116 8.4804s12.1611-3.7803 12.1611-8.4804c0-.2985-.025-.6221-.0746-.9202 1.0444-.4728 1.7903-1.5423 1.7903-2.7855zm-20.8405 2.1634c0-1.1937.9698-2.1634 2.1639-2.1634 1.1937 0 2.1635.9697 2.1635 2.1634s-.9698 2.1639-2.1635 2.1639c-1.1941.0246-2.1639-.9702-2.1639-2.1639zm12.1116 5.745c-1.4923 1.4922-4.3274 1.5918-5.1479 1.5918-.8456 0-3.6807-.1247-5.1484-1.5918-.2234-.2239-.2234-.5721 0-.796.2239-.2234.5721-.2234.796 0 .9452.9452 2.9348 1.2683 4.3524 1.2683s3.4317-.3231 4.3519-1.2683c.2239-.2234.5721-.2234.796 0 .1988.2239.1988.5721 0 .796zm-.3982-3.5565c-1.1937 0-2.1635-.9698-2.1635-2.1635 0-1.1936.9698-2.1634 2.1635-2.1634 1.1941 0 2.1639.9698 2.1639 2.1634 0 1.1687-.9698 2.1635-2.1639 2.1635z" fill="#003"/></svg>