<svg fill="none" height="42" viewBox="0 0 43 42" width="43" xmlns="http://www.w3.org/2000/svg" xmlns:xlink="http://www.w3.org/1999/xlink"><linearGradient id="a" gradientUnits="userSpaceOnUse" x1="248.081" x2="300.313" y1="145.904" y2="264.761"><stop offset="0" stop-color="#003"/><stop offset="1" stop-color="#fff"/></linearGradient><rect fill="#fff" height="42" rx="10" width="42" x=".277344"/><path d="m17.174 30.7745c-.6758 0-.561-.2552-.7941-.8987l-1.9873-6.5405 15.2976-9.0753" fill="#c8daea"/><path d="m17.1738 30.7747c.5215 0 .752-.2385 1.043-.5215l2.7814-2.7045-3.4694-2.0922" fill="#a9c9dd"/><path d="m17.5293 25.4589 8.4068 6.211c.9593.5294 1.6516.2553 1.8906-.8906l3.422-16.1256c.3503-1.4046-.5355-2.0417-1.4532-1.6251l-20.09376 7.7481c-1.37159.5501-1.3636 1.3154-.25002 1.6563l5.15648 1.6094 11.9379-7.5314c.5636-.3418 1.0808-.158.6563.2187" fill="url(#a)"/></svg>