<svg fill="none" height="42" viewBox="0 0 43 42" width="43" xmlns="http://www.w3.org/2000/svg"><rect fill="#fff" height="42" rx="10" width="42" x=".723633"/><path d="m28.5832 30.7166s-.8583-1.0251-1.5735-1.931c3.1231-.8821 4.3151-2.837 4.3151-2.837-.9775.6437-1.9072 1.0967-2.7416 1.4066-1.192.5006-2.3363.8344-3.4568 1.0251-2.2886.4291-4.3865.3099-6.1745-.0238-1.3589-.2623-2.5271-.6437-3.5045-1.0251-.5483-.2146-1.1443-.4768-1.7403-.8106-.0715-.0477-.143-.0715-.2146-.1192-.0476-.0238-.0715-.0477-.0953-.0715-.4291-.2384-.6675-.4053-.6675-.4053s1.1443 1.9072 4.1719 2.8131c-.7152.9059-1.5972 1.9787-1.5972 1.9787-5.2686-.1669-7.2712-3.6236-7.2712-3.6236 0-7.6765 3.4329-13.8987 3.4329-13.8987 3.433-2.5747 6.6991-2.5032 6.6991-2.5032l.2384.2861c-4.2912 1.2397-6.2699 3.123-6.2699 3.123s.5244-.2861 1.4065-.6913c2.5509-1.1205 4.5773-1.4304 5.4117-1.5019.143-.0239.2622-.0477.4052-.0477 1.4543-.1907 3.0992-.2384 4.8157-.0477 2.2648.2622 4.6965.9297 7.1758 2.2886 0 0-1.8833-1.788-5.9361-3.0276l.3337-.3815s3.2661-.0715 6.699 2.5032c0 0 3.433 6.2222 3.433 13.8987 0 0-2.0264 3.4567-7.295 3.6236zm-11.0856-11.1332c-1.3588 0-2.4316 1.192-2.4316 2.6462s1.0966 2.6462 2.4316 2.6462c1.3589 0 2.4317-1.192 2.4317-2.6462.0238-1.4542-1.0728-2.6462-2.4317-2.6462zm8.7016 0c-1.3589 0-2.4317 1.192-2.4317 2.6462s1.0967 2.6462 2.4317 2.6462c1.3589 0 2.4317-1.192 2.4317-2.6462s-1.0728-2.6462-2.4317-2.6462z" fill="#003"/></svg>