<svg fill="none" height="42" viewBox="0 0 43 42" width="43" xmlns="http://www.w3.org/2000/svg"><rect fill="#fff" height="42" rx="10" width="42" x=".169922"/><g fill="#003"><path d="m19.7864 15.8452c-.0444.7702-.0837 1.3103-.1021 1.8513-.0055.1608-.0067.3951.0866.4695.159.1266.2954-.0838.418-.1843 1.2147-.9981 2.5868-1.5541 4.1572-1.5494.5042.0013.9992.0697 1.4741.2626.6201.2523.9227.7232.9591 1.3946.0372.688-.0975 1.3458-.3092 1.9924-.1565.4785-.067.5367.418.5166 1.3896-.0573 2.6788.2335 3.6864 1.3154.603.6479.7775 1.4159.7017 2.3007-.1816 2.1143-1.1189 3.8146-2.6575 5.1823-2.4177 2.1493-5.189 3.5366-8.3867 3.9976-1.598.2301-3.1935.2865-4.7928.0684-1.7541-.239-3.4504-.6949-4.9865-1.6221-1.63524-.9865-2.52525-2.4897-2.76418-4.4021-.19373-1.5498.0385-3.0496.51426-4.5232.69419-2.1503 1.94782-3.9429 3.40482-5.6056 1.0348-1.1812 2.1529-2.2772 3.3918-3.2309.7624-.5867 1.6102-1.0251 2.5944-1.0871.5665-.0359 1.1168.0094 1.5942.3746.2933.2246.4854.5149.5109.8938.0406.6034.0665 1.2077.087 1.5845zm-2.0303 16.3805c2.0047-.0226 3.9806-.4126 5.8418-1.3265 1.1896-.5842 2.252-1.3416 3.0517-2.4363 1.3122-1.797 1.1611-3.8116-.4055-5.3785-.8302-.8305-1.8424-1.3493-2.9332-1.7132-1.6395-.5474-3.3258-.6966-5.0384-.5516-1.919.162-3.7467.6555-5.4284 1.6387-1.111.6492-2.0872 1.4583-2.7219 2.6198-.7616 1.3932-.74529 2.7771.1481 4.1101.6251.9331 1.508 1.5502 2.4968 2.0159 1.5662.7381 3.227 1.0139 4.9894 1.0221z"/><path d="m27.6281 8.40211c.9729.0795 2.0721.42194 3.0986.99668 1.9292 1.07991 3.279 2.67821 4.0472 4.77971.2404.6575.3553 1.3495.3346 2.0497-.0085.2923-.1088.5958-.2282.8666-.136.3089-.4105.4737-.754.4688-.3553-.0054-.6367-.1686-.7789-.5007-.112-.2625-.203-.5437-.2472-.8261-.4642-2.9416-2.6199-5.1631-5.5062-5.6554-.1799-.0306-.3626-.0431-.5445-.0592-.558-.0493-.9782-.3731-1.0781-.84929-.0719-.34203.0162-.64431.2741-.88116.3358-.30848.7426-.40952 1.3826-.38923z"/><path d="m32.0564 16.2866c-.0429.2374-.0595.4537-.1227.6546-.1214.3872-.4359.6104-.8264.622-.3468.0103-.6232-.1747-.773-.5567-.0828-.2108-.1244-.4383-.1791-.6594-.3867-1.5582-1.3451-2.5326-2.8906-2.9249-.2916-.0738-.5773-.191-.8468-.3271-.3247-.1635-.5145-.5657-.4618-.8958.0607-.3812.3081-.5714.6587-.668.6202-.1708 1.2102-.0343 1.7824.1902 1.6783.6589 2.877 1.8097 3.4606 3.5564.1095.3271.1367.6825.1987 1.0087z"/><path d="m26.7213 14.5091c.8627.1123 1.4951.524 1.9352 1.2275.2448.3912.4141.8091.3179 1.2946-.0578.2909-.2578.4985-.5504.5286-.2777.0285-.4643-.1015-.5704-.4052-.0314-.0903-.0517-.1856-.0697-.2797-.1191-.6194-.5723-1.0457-1.194-1.1364-.1291-.0189-.2593-.0668-.3765-.1258-.1969-.0988-.2743-.2763-.2655-.4947.0092-.2234.092-.4079.3072-.4897.1582-.0602.3295-.0852.4662-.1192z"/></g><path d="m17.496 32.0727c-1.7982-.0081-3.4928-.2838-5.0908-1.0217-1.0084-.4656-1.9097-1.0824-2.54755-2.0152-.91109-1.3325-.92817-2.7159-.15114-4.1087.64769-1.1611 1.64369-1.9699 2.77729-2.6188 1.7158-.9824 3.5807-1.4758 5.5387-1.6382 1.7474-.1445 3.468.0043 5.1407.5515 1.1126.3642 2.1454.8827 2.9929 1.7125 1.5985 1.5659 1.7526 3.5803.4137 5.3766-.8155 1.0944-1.8999 1.8515-3.1137 2.4355-1.899.9135-3.9146 1.3043-5.9601 1.3265zm3.8878-5.6216c.0098-1.5898-.8185-2.765-2.1753-3.2703-2.4259-.9038-5.505.6673-6.2692 3.1994-.6174 2.0455.5448 3.9641 2.6475 4.3309 1.6663.2907 3.1106-.2171 4.339-1.3432.9016-.8263 1.4255-1.8527 1.458-2.9168z" fill="#fff"/><path d="m21.3648 26.333c-.0317 1.0327-.5424 2.0284-1.4225 2.8308-1.1984 1.0928-2.6075 1.5857-4.2332 1.3036-2.0515-.356-3.1853-2.2184-2.583-4.2033.7456-2.457 3.7497-3.9821 6.1164-3.105 1.3233.4904 2.1318 1.6313 2.1223 3.1739zm-5.1567-.1266c-.9206-.0161-1.6712.9194-1.4512 1.809.1432.5796.6881.9555 1.2791.8833.6844-.0838 1.2113-.6099 1.3234-1.321.1128-.7178-.4249-1.3584-1.1513-1.3713zm2.2622-.2485c.0045-.2883-.1996-.5074-.4799-.5144-.3307-.0087-.6198.2755-.6248.6136-.0042.2912.1966.5082.4774.5161.3265.0091.6223-.2813.6273-.6153z" fill="#003"/><path d="m16.2055 26.7275c.8354.0109 1.4538.5541 1.324 1.1628-.1284.6027-.7348 1.0489-1.5218 1.1203-.6797.0616-1.3063-.2575-1.4711-.7491-.2529-.7543.6098-1.5478 1.6689-1.534z" fill="#fff"/><path d="m18.3105 26.3117c-.0035.2256-.2077.4213-.4335.4154-.1941-.0053-.333-.1519-.3301-.3487.0035-.2285.2034-.4203.4321-.4147.1935.0048.3343.1531.3315.348z" fill="#fff"/></svg>