<svg fill="none" height="80" viewBox="0 0 200 80" width="200" xmlns="http://www.w3.org/2000/svg"><g fill="#fff"><path d="m110.154 27.6933c1.367 1.2983 2.433 2.8799 3.124 4.634.691 1.754.99 3.6381.876 5.5199v22.7692h-5.846v-20.9231c.282-2.8402-.484-5.6856-2.154-8-.859-.8195-1.873-1.4594-2.983-1.8821-1.109-.4227-2.292-.6197-3.4785-.5794-1.8224-.067-3.6293.3582-5.2307 1.2307-1.7791.9081-3.2706 2.293-4.3077 4-1.047 2.2104-1.5733 4.6314-1.5385 7.077v19.0769h-5.5385v-34.4616l5.2308 2.1539v2.1538c1.0669-2.0547 2.8039-3.6831 4.9231-4.6153 2.2233-1.0084 4.6356-1.5328 7.077-1.5385 3.584-.1044 7.084 1.0986 9.846 3.3846z"/><path d="m154.462 44.9225h-26.769c.03 1.5612.372 3.1006 1.006 4.5274.634 1.4269 1.547 2.7122 2.686 3.7803 1.041 1.0487 2.292 1.865 3.671 2.3954 1.379.5303 2.854.7626 4.329.6815 2.207-.0508 4.391-.4667 6.462-1.2307 1.598-.8512 2.81-2.2828 3.385-4l4.923 2.4615c-1.465 2.3795-3.467 4.3819-5.847 5.8461-2.773 1.3513-5.841 1.986-8.923 1.8462-2.332.131-4.666-.2408-6.843-1.0902-2.176-.8493-4.145-2.1565-5.772-3.8329-1.631-1.8362-2.88-3.9793-3.672-6.3041-.793-2.3247-1.113-4.7841-.943-7.2343-.241-4.8843 1.288-9.6915 4.307-13.5385 1.602-1.7105 3.567-3.0405 5.75-3.8924s4.529-1.2041 6.866-1.0307c2.923-.1392 5.82.6118 8.307 2.1539 2.444 1.4226 4.381 3.5745 5.539 6.1538 1.254 2.5877 1.886 5.4325 1.846 8.3077.051 1.3407-.052 2.6828-.308 4zm-23.077-12.9231c-2 2.2396-3.285 5.0252-3.692 8h21.539c-.061-2.944-1.15-5.7741-3.077-8-.938-.9074-2.046-1.6195-3.261-2.0949-1.215-.4753-2.512-.7046-3.816-.6743-1.404-.0967-2.813.0995-4.138.5762-1.324.4767-2.534 1.2235-3.555 2.193z"/><path d="m192.616 29.2305c3.019 3.8469 4.549 8.6542 4.308 13.5384.298 4.8917-1.238 9.7189-4.308 13.5385-1.627 1.6764-3.596 2.9836-5.773 3.8329-2.176.8494-4.51 1.2212-6.842 1.0902-2.339.1961-4.692-.1455-6.879-.9989-2.187-.8533-4.149-2.1956-5.737-3.9242-1.631-1.8362-2.879-3.9794-3.672-6.3041-.792-2.3247-1.113-4.7842-.943-7.2344-.276-4.9406 1.379-9.795 4.615-13.5384 1.588-1.7286 3.55-3.0709 5.737-3.9242 2.187-.8534 4.54-1.195 6.879-.9989 2.332-.131 4.666.2408 6.842 1.0902 2.177.8493 4.146 2.1565 5.773 3.8329zm-21.231 3.6923c-2.228 2.7781-3.326 6.2939-3.077 9.8461-.314 3.5595.792 7.0988 3.077 9.8462 1.065 1.2249 2.393 2.1933 3.885 2.8326 1.492.6394 3.109.9333 4.731.8597 1.573.0492 3.137-.2572 4.575-.8965 1.439-.6393 2.715-1.595 3.732-2.7958 2.285-2.7474 3.391-6.2867 3.077-9.8462.25-3.5522-.849-7.068-3.077-9.8461-1.017-1.2008-2.293-2.1565-3.732-2.7958-1.438-.6393-3.002-.9457-4.575-.8965-1.622-.0736-3.239.2203-4.731.8597-1.492.6393-2.82 1.6077-3.885 2.8326z"/></g><path d="m5.8457 17.5373v49.2308l32 11.6923v-49.8461l34.7692-12.9231-31.6923-11.07694z" fill="#00e599"/><path d="m40.3076 30.4606v26.4615l32.3077 11.6923v-50.1538z" fill="#00af92"/></svg>